%TF.GenerationSoftware,KiCad,Pcbnew,(5.1.6)-1*%
%TF.CreationDate,2021-05-04T17:34:20-05:00*%
%TF.ProjectId,FlatDoxPlate,466c6174-446f-4785-906c-6174652e6b69,rev?*%
%TF.SameCoordinates,Original*%
%TF.FileFunction,Profile,NP*%
%FSLAX46Y46*%
G04 Gerber Fmt 4.6, Leading zero omitted, Abs format (unit mm)*
G04 Created by KiCad (PCBNEW (5.1.6)-1) date 2021-05-04 17:34:20*
%MOMM*%
%LPD*%
G01*
G04 APERTURE LIST*
%TA.AperFunction,Profile*%
%ADD10C,0.050000*%
%TD*%
G04 APERTURE END LIST*
D10*
X42153840Y-68935600D02*
G75*
G02*
X41010840Y-67792600I0J1143000D01*
G01*
X39867840Y-63779400D02*
G75*
G02*
X41010840Y-64922400I0J-1143000D01*
G01*
X67937380Y-126060200D02*
G75*
G02*
X66794380Y-124917200I0J1143000D01*
G01*
X75199240Y-126060200D02*
G75*
G02*
X76342240Y-127203200I0J-1143000D01*
G01*
X76342240Y-144259300D02*
G75*
G02*
X75199240Y-145402300I-1143000J0D01*
G01*
X65651380Y-68935600D02*
G75*
G02*
X66794380Y-70078600I0J-1143000D01*
G01*
X21572220Y-128729740D02*
X35575240Y-128729740D01*
X35575240Y-128729740D02*
X35575240Y-142735300D01*
X35575240Y-142735300D02*
X21572220Y-142735300D01*
X21572220Y-142735300D02*
X21572220Y-128729740D01*
X40623250Y-128729740D02*
X54626270Y-128729740D01*
X54626270Y-142735300D02*
X40623250Y-142735300D01*
X54626270Y-128729740D02*
X54626270Y-142735300D01*
X40623250Y-142735300D02*
X40623250Y-128729740D01*
X59670710Y-128729740D02*
X73673730Y-128729740D01*
X59670710Y-142735300D02*
X59670710Y-128729740D01*
X73673730Y-128729740D02*
X73673730Y-142735300D01*
X73673730Y-142735300D02*
X59670710Y-142735300D01*
X50147220Y-123685300D02*
X50147220Y-109682280D01*
X50147220Y-109682280D02*
X64152780Y-109682280D01*
X64152780Y-109682280D02*
X64152780Y-123685300D01*
X64152780Y-123685300D02*
X50147220Y-123685300D01*
X50147220Y-104634270D02*
X50147220Y-90631250D01*
X64152780Y-90631250D02*
X64152780Y-104634270D01*
X50147220Y-90631250D02*
X64152780Y-90631250D01*
X64152780Y-104634270D02*
X50147220Y-104634270D01*
X50147220Y-85586810D02*
X50147220Y-71583790D01*
X64152780Y-85586810D02*
X50147220Y-85586810D01*
X50147220Y-71583790D02*
X64152780Y-71583790D01*
X64152780Y-71583790D02*
X64152780Y-85586810D01*
X31097220Y-123682760D02*
X31097220Y-109679740D01*
X31097220Y-109679740D02*
X45102780Y-109679740D01*
X45102780Y-109679740D02*
X45102780Y-123682760D01*
X45102780Y-123682760D02*
X31097220Y-123682760D01*
X31097220Y-104631730D02*
X31097220Y-90628710D01*
X45102780Y-90628710D02*
X45102780Y-104631730D01*
X31097220Y-90628710D02*
X45102780Y-90628710D01*
X45102780Y-104631730D02*
X31097220Y-104631730D01*
X31097220Y-85584270D02*
X31097220Y-71581250D01*
X45102780Y-85584270D02*
X31097220Y-85584270D01*
X31097220Y-71581250D02*
X45102780Y-71581250D01*
X45102780Y-71581250D02*
X45102780Y-85584270D01*
X12047220Y-114157760D02*
X12047220Y-100154740D01*
X12047220Y-100154740D02*
X26052780Y-100154740D01*
X26052780Y-100154740D02*
X26052780Y-114157760D01*
X26052780Y-114157760D02*
X12047220Y-114157760D01*
X12047220Y-95106730D02*
X12047220Y-81103710D01*
X26052780Y-81103710D02*
X26052780Y-95106730D01*
X12047220Y-81103710D02*
X26052780Y-81103710D01*
X26052780Y-95106730D02*
X12047220Y-95106730D01*
X12047220Y-76059270D02*
X12047220Y-62056250D01*
X26052780Y-76059270D02*
X12047220Y-76059270D01*
X12047220Y-62056250D02*
X26052780Y-62056250D01*
X26052780Y-62056250D02*
X26052780Y-76059270D01*
X-7002780Y-118920260D02*
X-7002780Y-104917240D01*
X-7002780Y-104917240D02*
X7002780Y-104917240D01*
X7002780Y-104917240D02*
X7002780Y-118920260D01*
X7002780Y-118920260D02*
X-7002780Y-118920260D01*
X-7002780Y-99869230D02*
X-7002780Y-85866210D01*
X7002780Y-85866210D02*
X7002780Y-99869230D01*
X-7002780Y-85866210D02*
X7002780Y-85866210D01*
X7002780Y-99869230D02*
X-7002780Y-99869230D01*
X-7002780Y-80821770D02*
X-7002780Y-66818750D01*
X7002780Y-80821770D02*
X-7002780Y-80821770D01*
X-7002780Y-66818750D02*
X7002780Y-66818750D01*
X7002780Y-66818750D02*
X7002780Y-80821770D01*
X-26052780Y-99871770D02*
X-26052780Y-85868750D01*
X-26052780Y-85868750D02*
X-12047220Y-85868750D01*
X-12047220Y-85868750D02*
X-12047220Y-99871770D01*
X-12047220Y-99871770D02*
X-26052780Y-99871770D01*
X-26052780Y-118919230D02*
X-26052780Y-104916210D01*
X-26052780Y-104916210D02*
X-12047220Y-104916210D01*
X-12047220Y-104916210D02*
X-12047220Y-118919230D01*
X-12047220Y-118919230D02*
X-26052780Y-118919230D01*
X-26052780Y-137970260D02*
X-26052780Y-123967240D01*
X-12047220Y-137970260D02*
X-26052780Y-137970260D01*
X-12047220Y-123967240D02*
X-12047220Y-137970260D01*
X-26052780Y-123967240D02*
X-12047220Y-123967240D01*
X41010840Y-67792600D02*
X41010840Y-64922400D01*
X65651380Y-68935600D02*
X42153840Y-68935600D01*
X66794380Y-124917200D02*
X66794380Y-70078600D01*
X67937380Y-126060200D02*
X75199240Y-126060200D01*
X3521710Y-129540000D02*
X3521710Y-141935200D01*
X15535910Y-129540000D02*
X3521710Y-129540000D01*
X15535910Y-141935200D02*
X15535910Y-129540000D01*
X3521710Y-141935200D02*
X15535910Y-141935200D01*
X39867840Y-63779400D02*
X32682180Y-63779400D01*
X-12541250Y-48221900D02*
X-15640050Y-48221900D01*
X-15640050Y-53098700D02*
X-15640050Y-48221900D01*
X-24301450Y-53098700D02*
X-15640050Y-53098700D01*
X9770110Y-46367700D02*
X32682180Y-63779400D01*
X-27297950Y-145402309D02*
G75*
G02*
X-29076650Y-143573500I24699J1803409D01*
G01*
X-29076650Y-49364900D02*
X-29076650Y-143573500D01*
X-29076650Y-49364900D02*
G75*
G02*
X-27933650Y-48221900I1143000J0D01*
G01*
X9770110Y-46367700D02*
X-9848850Y-46367700D01*
X-27933650Y-48221900D02*
X-24301450Y-48221900D01*
X-27297950Y-145402309D02*
X75199240Y-145402300D01*
X-12541250Y-48221900D02*
X-9848850Y-46367700D01*
X-24301450Y-53098700D02*
X-24301450Y-48221900D01*
X76342240Y-127203200D02*
X76342240Y-144259300D01*
M02*
