M48
; DRILL file {KiCad (5.1.6)-1} date 05/04/21 17:20:24
; FORMAT={-:-/ absolute / inch / decimal}
; #@! TF.CreationDate,2021-05-04T17:20:24-05:00
; #@! TF.GenerationSoftware,Kicad,Pcbnew,(5.1.6)-1
FMAT,2
INCH
T1C0.0157
T2C0.0295
T3C0.0300
T4C0.0354
T5C0.0390
T6C0.0390
T7C0.0394
T8C0.0430
T9C0.0512
T10C0.0591
T11C0.0472
T12C0.0591
T13C0.0669
T14C0.0748
T15C0.1181
T16C0.1713
%
G90
G05
T1
X2.8898Y-3.2164
X3.3428Y-3.6974
X3.3458Y-4.4464
X3.3468Y-5.1964
X3.4738Y-3.1754
X3.4798Y-3.2266
X3.4888Y-3.5994
X3.4918Y-4.3484
X3.4928Y-5.0984
X3.5618Y-3.1774
X3.5648Y-3.3214
X3.5752Y-4.1877
X3.5762Y-4.9377
X3.6238Y-2.1214
X3.6358Y-4.5954
X3.6873Y-3.0584
X3.7508Y-3.0624
X4.0938Y-2.9534
X4.0958Y-3.6124
X4.0988Y-4.4464
X4.0998Y-3.6944
X4.2398Y-2.8554
X4.2448Y-4.3484
X4.3232Y-2.6947
X4.3282Y-4.1877
X4.3292Y-3.4357
X4.4748Y-3.6684
X4.8388Y-2.7604
X4.8438Y-3.5084
X4.8468Y-4.2614
X4.8778Y-4.5834
X4.9028Y-2.6584
X4.9058Y-4.5064
X4.9898Y-3.4104
X4.9928Y-4.1634
X5.0639Y-4.2443
X5.0732Y-3.2497
X5.0762Y-4.0027
X5.0782Y-2.4947
X5.0792Y-2.5007
X5.2238Y-5.3824
X5.3698Y-5.2844
X5.4532Y-5.1237
X5.5828Y-2.1754
X5.5928Y-3.8954
X5.5988Y-4.6274
X5.5998Y-3.1274
X5.6228Y-4.5334
X5.6868Y-2.1534
X5.7218Y-3.0364
X5.7568Y-3.7854
X5.8282Y-4.3687
X5.8292Y-2.8687
X5.8402Y-3.6247
X5.9708Y-5.3814
X6.1168Y-5.2834
X6.2002Y-5.1227
X6.2368Y-2.6074
X6.3458Y-3.8834
X6.3508Y-4.7059
X6.3518Y-3.1424
X6.3518Y-4.6304
X6.3813Y-4.9289
X6.4918Y-3.7854
X6.4978Y-3.0444
X6.4978Y-4.5324
X6.5752Y-3.6247
X6.5812Y-2.8837
X6.5812Y-4.3717
X6.6188Y-4.4724
X6.6628Y-4.3404
X6.7268Y-5.3824
X6.8268Y-4.6364
X6.8304Y-4.3659
X6.8728Y-5.2844
X6.9562Y-5.1237
T2
X5.1028Y-1.944
X5.1028Y-2.0228
T3
X5.9905Y-3.5736
X6.4905Y-3.5736
X5.2405Y-4.3236
X5.7405Y-4.3236
X6.3655Y-5.0736
X6.8655Y-5.0736
X6.2398Y-2.4737
X6.3343Y-2.4737
X6.4288Y-2.4737
X4.4905Y-2.4486
X4.9905Y-2.4486
X3.7405Y-4.1361
X4.2405Y-4.1361
X4.4905Y-3.9486
X4.9905Y-3.9486
X5.9905Y-2.8236
X6.4905Y-2.8236
X5.2405Y-2.8236
X5.7405Y-2.8236
X5.2405Y-3.5736
X5.7405Y-3.5736
X3.7405Y-2.6361
X4.2405Y-2.6361
X4.4905Y-3.1986
X4.9905Y-3.1986
X5.6155Y-5.0736
X6.1155Y-5.0736
X2.9905Y-4.8861
X3.4905Y-4.8861
X3.7405Y-3.3861
X4.2405Y-3.3861
X5.9905Y-4.3236
X6.4905Y-4.3236
X2.9905Y-4.1361
X3.4905Y-4.1361
X2.9905Y-3.3861
X3.4905Y-3.3861
X4.8655Y-5.0736
X5.3655Y-5.0736
T5
X5.2846Y-2.4107
X5.4815Y-2.4107
T6
X4.7468Y-4.4737
X5.0468Y-4.4737
X4.628Y-3.7237
X4.928Y-3.7237
X4.2138Y-4.6574
X4.5138Y-4.6574
X6.3655Y-4.8487
X6.6655Y-4.8487
X3.9905Y-5.1986
X3.9905Y-5.4986
X3.6155Y-4.0049
X3.6155Y-4.3049
X5.4968Y-4.0987
X5.7968Y-4.0987
X5.4905Y-5.2049
X5.4905Y-5.5049
X6.2405Y-5.2049
X6.2405Y-5.5049
X5.9593Y-3.3487
X6.2593Y-3.3487
X6.9905Y-5.2049
X6.9905Y-5.5049
X3.9968Y-3.1612
X4.2968Y-3.1612
X3.6155Y-3.2549
X3.6155Y-3.5549
X5.4968Y-3.3487
X5.7968Y-3.3487
X3.9968Y-3.9112
X4.2968Y-3.9112
X4.7468Y-2.9737
X5.0468Y-2.9737
X5.9655Y-4.0987
X6.2656Y-4.0987
X3.0843Y-4.6924
X3.3843Y-4.6924
X5.4968Y-4.8487
X5.7968Y-4.8487
T7
X4.2671Y-4.9284
X4.2671Y-5.4992
X4.3655Y-4.9284
X4.464Y-4.9284
X4.464Y-5.4992
T8
X2.9093Y-1.8549
X2.9093Y-1.9549
X2.9093Y-2.0549
X2.9093Y-2.1549
X2.9093Y-2.2549
X2.9093Y-2.3549
X2.9093Y-2.4549
X2.9093Y-2.5549
X2.9093Y-2.6549
X2.9093Y-2.7549
X2.9093Y-2.8549
X2.9093Y-2.9549
X2.9183Y-3.0549
X3.0093Y-3.0549
X3.1093Y-3.0549
X3.2093Y-3.0549
X3.3093Y-3.0549
X3.4093Y-3.0549
X3.5093Y-1.8549
X3.5093Y-1.9549
X3.5093Y-2.0549
X3.5093Y-2.1549
X3.5093Y-2.2549
X3.5093Y-2.3549
X3.5093Y-2.4549
X3.5093Y-2.5549
X3.5093Y-2.6549
X3.5093Y-2.7549
X3.5093Y-2.8549
X3.5093Y-2.9549
X3.5093Y-3.0549
T9
X5.2453Y-2.5087
X5.5212Y-2.5087
T11
X5.3831Y-2.3631
T12
X5.775Y-2.1616
X5.775Y-2.4372
X5.9561Y-2.1616
X5.9561Y-2.4372
T13
X6.0405Y-3.7237
X6.4405Y-3.7237
X5.2905Y-4.4737
X5.6905Y-4.4737
X6.4155Y-5.2237
X6.8155Y-5.2237
X4.5405Y-2.5987
X4.9405Y-2.5987
X3.7906Y-4.2862
X4.1905Y-4.2862
X4.5405Y-4.0987
X4.9405Y-4.0987
X6.0405Y-2.9737
X6.4405Y-2.9737
X5.2905Y-2.9737
X5.6905Y-2.9737
X5.2905Y-3.7237
X5.6905Y-3.7237
X3.7906Y-2.7862
X4.1905Y-2.7862
X4.5405Y-3.3487
X4.9405Y-3.3487
X5.6655Y-5.2237
X6.0655Y-5.2237
X3.0406Y-5.0362
X3.4405Y-5.0362
X3.7906Y-3.5362
X4.1905Y-3.5362
X6.0405Y-4.4737
X6.4405Y-4.4737
X3.0406Y-4.2862
X3.4405Y-4.2862
X3.0406Y-3.5362
X3.4405Y-3.5362
X4.9155Y-5.2237
X5.3155Y-5.2237
T14
X6.024Y-4.4737
X6.4571Y-4.4737
X3.024Y-4.2862
X3.4571Y-4.2862
X3.024Y-3.5362
X3.4571Y-3.5362
X4.899Y-5.2237
X5.3321Y-5.2237
X6.024Y-3.7237
X6.4571Y-3.7237
X5.274Y-4.4737
X5.7071Y-4.4737
X6.399Y-5.2237
X6.8321Y-5.2237
X4.524Y-2.5987
X4.9571Y-2.5987
X3.774Y-4.2862
X4.2071Y-4.2862
X4.524Y-4.0987
X4.9571Y-4.0987
X6.024Y-2.9737
X6.4571Y-2.9737
X5.274Y-2.9737
X5.7071Y-2.9737
X5.274Y-3.7237
X5.7071Y-3.7237
X3.774Y-2.7862
X4.2071Y-2.7862
X4.524Y-3.3487
X4.9571Y-3.3487
X5.649Y-5.2237
X6.0821Y-5.2237
X3.024Y-5.0362
X3.4571Y-5.0362
X3.774Y-3.5362
X4.2071Y-3.5362
T15
X6.0437Y-3.1193
X6.0905Y-2.8736
X6.1406Y-2.7736
X6.2405Y-3.2059
X6.3405Y-2.7736
X6.3906Y-2.8737
X6.4374Y-3.1193
X5.2937Y-3.1193
X5.3405Y-2.8736
X5.3906Y-2.7736
X5.4905Y-3.2059
X5.5905Y-2.7736
X5.6406Y-2.8737
X5.6874Y-3.1193
X5.2937Y-3.8693
X5.3405Y-3.6236
X5.3906Y-3.5236
X5.4905Y-3.9559
X5.5905Y-3.5236
X5.6406Y-3.6237
X5.6874Y-3.8693
X3.7937Y-2.9318
X3.8405Y-2.6861
X3.8905Y-2.5861
X3.9905Y-3.0184
X4.0905Y-2.5861
X4.1406Y-2.6862
X4.1874Y-2.9318
X4.5437Y-3.4943
X4.5905Y-3.2486
X4.6406Y-3.1486
X4.7405Y-3.5809
X4.8405Y-3.1486
X4.8906Y-3.2487
X4.9374Y-3.4943
X5.6687Y-5.3693
X5.7155Y-5.1236
X5.7656Y-5.0236
X5.8655Y-5.4559
X5.9655Y-5.0236
X6.0156Y-5.1236
X6.0624Y-5.3693
X3.0437Y-5.1818
X3.0905Y-4.9361
X3.1405Y-4.8361
X3.2405Y-5.2684
X3.3405Y-4.8361
X3.3905Y-4.9361
X3.4374Y-5.1818
X3.7937Y-3.6818
X3.8405Y-3.4361
X3.8905Y-3.3361
X3.9905Y-3.7684
X4.0905Y-3.3361
X4.1406Y-3.4362
X4.1874Y-3.6818
X6.0437Y-4.6193
X6.0905Y-4.3736
X6.1406Y-4.2736
X6.2405Y-4.7059
X6.3405Y-4.2736
X6.3906Y-4.3736
X6.4374Y-4.6193
X3.0437Y-4.4318
X3.0905Y-4.1861
X3.1405Y-4.0861
X3.2405Y-4.5184
X3.3405Y-4.0861
X3.3905Y-4.1861
X3.4374Y-4.4318
X3.0437Y-3.6818
X3.0905Y-3.4361
X3.1405Y-3.3361
X3.2405Y-3.7684
X3.3405Y-3.3361
X3.3905Y-3.4362
X3.4374Y-3.6818
X4.9187Y-5.3693
X4.9655Y-5.1236
X5.0156Y-5.0236
X5.1155Y-5.4559
X5.2155Y-5.0236
X5.2656Y-5.1236
X5.3124Y-5.3693
X6.0437Y-3.8693
X6.0905Y-3.6236
X6.1406Y-3.5236
X6.2405Y-3.9559
X6.3405Y-3.5236
X6.3906Y-3.6237
X6.4374Y-3.8693
X5.2937Y-4.6193
X5.3405Y-4.3736
X5.3906Y-4.2736
X5.4905Y-4.7059
X5.5905Y-4.2736
X5.6406Y-4.3736
X5.6874Y-4.6193
X6.4187Y-5.3693
X6.4655Y-5.1236
X6.5156Y-5.0236
X6.6155Y-5.4559
X6.7155Y-5.0236
X6.7656Y-5.1236
X6.8124Y-5.3693
X4.5437Y-2.7443
X4.5905Y-2.4986
X4.6406Y-2.3986
X4.7405Y-2.8309
X4.8405Y-2.3986
X4.8906Y-2.4987
X4.9374Y-2.7443
X3.7937Y-4.4318
X3.8405Y-4.1861
X3.8905Y-4.0861
X3.9905Y-4.5184
X4.0905Y-4.0861
X4.1406Y-4.1861
X4.1874Y-4.4318
X4.5437Y-4.2443
X4.5905Y-3.9986
X4.6406Y-3.8986
X4.7405Y-4.3309
X4.8405Y-3.8986
X4.8906Y-3.9987
X4.9374Y-4.2443
T16
X6.2405Y-4.4737
X3.2405Y-4.2862
X3.2405Y-3.5362
X5.1155Y-5.2237
X6.2405Y-3.7237
X5.4905Y-4.4737
X6.6155Y-5.2237
X4.7405Y-2.5987
X3.9905Y-4.2862
X4.7405Y-4.0987
X6.2405Y-2.9737
X5.4905Y-2.9737
X5.4905Y-3.7237
X3.9905Y-2.7862
X4.7405Y-3.3487
X5.8655Y-5.2237
X3.2405Y-5.0362
X3.9905Y-3.5362
T4
G00X5.6844Y-2.5317
M15
G01X5.6844Y-2.5553
M16
G05
G00X5.8655Y-2.2128
M15
G01X5.8655Y-2.2364
M16
G05
G00X5.8655Y-2.3309
M15
G01X5.8655Y-2.3546
M16
G05
G00X5.8655Y-2.4884
M15
G01X5.8655Y-2.512
M16
G05
G00X6.0467Y-2.5317
M15
G01X6.0467Y-2.5553
M16
G05
T10
G00X4.1451Y-5.1981
M15
G01X4.1451Y-5.2492
M16
G05
G00X4.586Y-5.1981
M15
G01X4.586Y-5.2492
M16
G05
T0
M30
