%TF.GenerationSoftware,KiCad,Pcbnew,(5.1.6)-1*%
%TF.CreationDate,2021-05-04T17:20:08-05:00*%
%TF.ProjectId,FlatDox,466c6174-446f-4782-9e6b-696361645f70,rev?*%
%TF.SameCoordinates,Original*%
%TF.FileFunction,Legend,Bot*%
%TF.FilePolarity,Positive*%
%FSLAX46Y46*%
G04 Gerber Fmt 4.6, Leading zero omitted, Abs format (unit mm)*
G04 Created by KiCad (PCBNEW (5.1.6)-1) date 2021-05-04 17:20:08*
%MOMM*%
%LPD*%
G01*
G04 APERTURE LIST*
%ADD10C,0.150000*%
%ADD11C,0.300000*%
%ADD12C,0.100000*%
%ADD13C,0.381000*%
%ADD14C,0.120000*%
%ADD15C,0.200000*%
G04 APERTURE END LIST*
D10*
X92564320Y-55915560D02*
X92564320Y-43926760D01*
X122564320Y-55915560D02*
X122564320Y-43915560D01*
X92564320Y-55915560D02*
X122564320Y-55915560D01*
X122564320Y-43915560D02*
X92564320Y-43926760D01*
X109228948Y-49976731D02*
X109086091Y-50024350D01*
X109038472Y-50071969D01*
X108990853Y-50167207D01*
X108990853Y-50310064D01*
X109038472Y-50405302D01*
X109086091Y-50452921D01*
X109181329Y-50500540D01*
X109562281Y-50500540D01*
X109562281Y-49500540D01*
X109228948Y-49500540D01*
X109133710Y-49548160D01*
X109086091Y-49595779D01*
X109038472Y-49691017D01*
X109038472Y-49786255D01*
X109086091Y-49881493D01*
X109133710Y-49929112D01*
X109228948Y-49976731D01*
X109562281Y-49976731D01*
X108133710Y-50500540D02*
X108133710Y-49976731D01*
X108181329Y-49881493D01*
X108276567Y-49833874D01*
X108467043Y-49833874D01*
X108562281Y-49881493D01*
X108133710Y-50452921D02*
X108228948Y-50500540D01*
X108467043Y-50500540D01*
X108562281Y-50452921D01*
X108609900Y-50357683D01*
X108609900Y-50262445D01*
X108562281Y-50167207D01*
X108467043Y-50119588D01*
X108228948Y-50119588D01*
X108133710Y-50071969D01*
X107800377Y-49833874D02*
X107419424Y-49833874D01*
X107657520Y-49500540D02*
X107657520Y-50357683D01*
X107609900Y-50452921D01*
X107514662Y-50500540D01*
X107419424Y-50500540D01*
X107228948Y-49833874D02*
X106847996Y-49833874D01*
X107086091Y-49500540D02*
X107086091Y-50357683D01*
X107038472Y-50452921D01*
X106943234Y-50500540D01*
X106847996Y-50500540D01*
X106133710Y-50452921D02*
X106228948Y-50500540D01*
X106419424Y-50500540D01*
X106514662Y-50452921D01*
X106562281Y-50357683D01*
X106562281Y-49976731D01*
X106514662Y-49881493D01*
X106419424Y-49833874D01*
X106228948Y-49833874D01*
X106133710Y-49881493D01*
X106086091Y-49976731D01*
X106086091Y-50071969D01*
X106562281Y-50167207D01*
X105657520Y-50500540D02*
X105657520Y-49833874D01*
X105657520Y-50024350D02*
X105609900Y-49929112D01*
X105562281Y-49881493D01*
X105467043Y-49833874D01*
X105371805Y-49833874D01*
X105133710Y-49833874D02*
X104895615Y-50500540D01*
X104657520Y-49833874D02*
X104895615Y-50500540D01*
X104990853Y-50738636D01*
X105038472Y-50786255D01*
X105133710Y-50833874D01*
%TO.C,SW15*%
X152409970Y-112734710D02*
X156019970Y-112734710D01*
X152409970Y-108780710D02*
X152409970Y-112725710D01*
X163309970Y-106826710D02*
X154684970Y-106826710D01*
X163309970Y-110734710D02*
X163309970Y-106826710D01*
X163309970Y-110780710D02*
X158259970Y-110826710D01*
X160784970Y-121855710D02*
X156234970Y-121855710D01*
X160784970Y-117205710D02*
X158234970Y-117205710D01*
X155934970Y-115005710D02*
X151234970Y-115005710D01*
X155009970Y-119655710D02*
X151234970Y-119655710D01*
X160809970Y-117230709D02*
X160809970Y-121830710D01*
X151234970Y-115030710D02*
X151209971Y-119630710D01*
X156229970Y-121130710D02*
X156229970Y-121830710D01*
D11*
X152159970Y-107280710D02*
X153429970Y-107280710D01*
X152159970Y-108550710D02*
X152159970Y-107280710D01*
X163589970Y-119980710D02*
X164859970Y-119980710D01*
X164859970Y-119980710D02*
X164859970Y-118710710D01*
D10*
X152420970Y-108710710D02*
G75*
G02*
X154684970Y-106826710I2074000J-190000D01*
G01*
X156024971Y-112710709D02*
G75*
G02*
X158284970Y-110830710I2069999J-190000D01*
G01*
X155939970Y-115030710D02*
G75*
G03*
X158309970Y-117200710I2270000J100000D01*
G01*
X156229970Y-121080710D02*
G75*
G03*
X155009970Y-119660710I-1320000J100000D01*
G01*
%TO.C,SW9*%
X133359970Y-93684710D02*
X136969970Y-93684710D01*
X133359970Y-89730710D02*
X133359970Y-93675710D01*
X144259970Y-87776710D02*
X135634970Y-87776710D01*
X144259970Y-91684710D02*
X144259970Y-87776710D01*
X144259970Y-91730710D02*
X139209970Y-91776710D01*
X141734970Y-102805710D02*
X137184970Y-102805710D01*
X141734970Y-98155710D02*
X139184970Y-98155710D01*
X136884970Y-95955710D02*
X132184970Y-95955710D01*
X135959970Y-100605710D02*
X132184970Y-100605710D01*
X141759970Y-98180709D02*
X141759970Y-102780710D01*
X132184970Y-95980710D02*
X132159971Y-100580710D01*
X137179970Y-102080710D02*
X137179970Y-102780710D01*
D11*
X133109970Y-88230710D02*
X134379970Y-88230710D01*
X133109970Y-89500710D02*
X133109970Y-88230710D01*
X144539970Y-100930710D02*
X145809970Y-100930710D01*
X145809970Y-100930710D02*
X145809970Y-99660710D01*
D10*
X133370970Y-89660710D02*
G75*
G02*
X135634970Y-87776710I2074000J-190000D01*
G01*
X136974971Y-93660709D02*
G75*
G02*
X139234970Y-91780710I2069999J-190000D01*
G01*
X136889970Y-95980710D02*
G75*
G03*
X139259970Y-98150710I2270000J100000D01*
G01*
X137179970Y-102030710D02*
G75*
G03*
X135959970Y-100610710I-1320000J100000D01*
G01*
%TO.C,SW17*%
X123834970Y-131784710D02*
X127444970Y-131784710D01*
X123834970Y-127830710D02*
X123834970Y-131775710D01*
X134734970Y-125876710D02*
X126109970Y-125876710D01*
X134734970Y-129784710D02*
X134734970Y-125876710D01*
X134734970Y-129830710D02*
X129684970Y-129876710D01*
X132209970Y-140905710D02*
X127659970Y-140905710D01*
X132209970Y-136255710D02*
X129659970Y-136255710D01*
X127359970Y-134055710D02*
X122659970Y-134055710D01*
X126434970Y-138705710D02*
X122659970Y-138705710D01*
X132234970Y-136280709D02*
X132234970Y-140880710D01*
X122659970Y-134080710D02*
X122634971Y-138680710D01*
X127654970Y-140180710D02*
X127654970Y-140880710D01*
D11*
X123584970Y-126330710D02*
X124854970Y-126330710D01*
X123584970Y-127600710D02*
X123584970Y-126330710D01*
X135014970Y-139030710D02*
X136284970Y-139030710D01*
X136284970Y-139030710D02*
X136284970Y-137760710D01*
D10*
X123845970Y-127760710D02*
G75*
G02*
X126109970Y-125876710I2074000J-190000D01*
G01*
X127449971Y-131760709D02*
G75*
G02*
X129709970Y-129880710I2069999J-190000D01*
G01*
X127364970Y-134080710D02*
G75*
G03*
X129734970Y-136250710I2270000J100000D01*
G01*
X127654970Y-140130710D02*
G75*
G03*
X126434970Y-138710710I-1320000J100000D01*
G01*
%TO.C,SW8*%
X114309970Y-84159710D02*
X117919970Y-84159710D01*
X114309970Y-80205710D02*
X114309970Y-84150710D01*
X125209970Y-78251710D02*
X116584970Y-78251710D01*
X125209970Y-82159710D02*
X125209970Y-78251710D01*
X125209970Y-82205710D02*
X120159970Y-82251710D01*
X122684970Y-93280710D02*
X118134970Y-93280710D01*
X122684970Y-88630710D02*
X120134970Y-88630710D01*
X117834970Y-86430710D02*
X113134970Y-86430710D01*
X116909970Y-91080710D02*
X113134970Y-91080710D01*
X122709970Y-88655709D02*
X122709970Y-93255710D01*
X113134970Y-86455710D02*
X113109971Y-91055710D01*
X118129970Y-92555710D02*
X118129970Y-93255710D01*
D11*
X114059970Y-78705710D02*
X115329970Y-78705710D01*
X114059970Y-79975710D02*
X114059970Y-78705710D01*
X125489970Y-91405710D02*
X126759970Y-91405710D01*
X126759970Y-91405710D02*
X126759970Y-90135710D01*
D10*
X114320970Y-80135710D02*
G75*
G02*
X116584970Y-78251710I2074000J-190000D01*
G01*
X117924971Y-84135709D02*
G75*
G02*
X120184970Y-82255710I2069999J-190000D01*
G01*
X117839970Y-86455710D02*
G75*
G03*
X120209970Y-88625710I2270000J100000D01*
G01*
X118129970Y-92505710D02*
G75*
G03*
X116909970Y-91085710I-1320000J100000D01*
G01*
%TO.C,SW4*%
X133359970Y-74634710D02*
X136969970Y-74634710D01*
X133359970Y-70680710D02*
X133359970Y-74625710D01*
X144259970Y-68726710D02*
X135634970Y-68726710D01*
X144259970Y-72634710D02*
X144259970Y-68726710D01*
X144259970Y-72680710D02*
X139209970Y-72726710D01*
X141734970Y-83755710D02*
X137184970Y-83755710D01*
X141734970Y-79105710D02*
X139184970Y-79105710D01*
X136884970Y-76905710D02*
X132184970Y-76905710D01*
X135959970Y-81555710D02*
X132184970Y-81555710D01*
X141759970Y-79130709D02*
X141759970Y-83730710D01*
X132184970Y-76930710D02*
X132159971Y-81530710D01*
X137179970Y-83030710D02*
X137179970Y-83730710D01*
D11*
X133109970Y-69180710D02*
X134379970Y-69180710D01*
X133109970Y-70450710D02*
X133109970Y-69180710D01*
X144539970Y-81880710D02*
X145809970Y-81880710D01*
X145809970Y-81880710D02*
X145809970Y-80610710D01*
D10*
X133370970Y-70610710D02*
G75*
G02*
X135634970Y-68726710I2074000J-190000D01*
G01*
X136974971Y-74610709D02*
G75*
G02*
X139234970Y-72730710I2069999J-190000D01*
G01*
X136889970Y-76930710D02*
G75*
G03*
X139259970Y-79100710I2270000J100000D01*
G01*
X137179970Y-82980710D02*
G75*
G03*
X135959970Y-81560710I-1320000J100000D01*
G01*
%TO.C,SW18*%
X142884970Y-131784710D02*
X146494970Y-131784710D01*
X142884970Y-127830710D02*
X142884970Y-131775710D01*
X153784970Y-125876710D02*
X145159970Y-125876710D01*
X153784970Y-129784710D02*
X153784970Y-125876710D01*
X153784970Y-129830710D02*
X148734970Y-129876710D01*
X151259970Y-140905710D02*
X146709970Y-140905710D01*
X151259970Y-136255710D02*
X148709970Y-136255710D01*
X146409970Y-134055710D02*
X141709970Y-134055710D01*
X145484970Y-138705710D02*
X141709970Y-138705710D01*
X151284970Y-136280709D02*
X151284970Y-140880710D01*
X141709970Y-134080710D02*
X141684971Y-138680710D01*
X146704970Y-140180710D02*
X146704970Y-140880710D01*
D11*
X142634970Y-126330710D02*
X143904970Y-126330710D01*
X142634970Y-127600710D02*
X142634970Y-126330710D01*
X154064970Y-139030710D02*
X155334970Y-139030710D01*
X155334970Y-139030710D02*
X155334970Y-137760710D01*
D10*
X142895970Y-127760710D02*
G75*
G02*
X145159970Y-125876710I2074000J-190000D01*
G01*
X146499971Y-131760709D02*
G75*
G02*
X148759970Y-129880710I2069999J-190000D01*
G01*
X146414970Y-134080710D02*
G75*
G03*
X148784970Y-136250710I2270000J100000D01*
G01*
X146704970Y-140130710D02*
G75*
G03*
X145484970Y-138710710I-1320000J100000D01*
G01*
%TO.C,SW5*%
X152409970Y-74634710D02*
X156019970Y-74634710D01*
X152409970Y-70680710D02*
X152409970Y-74625710D01*
X163309970Y-68726710D02*
X154684970Y-68726710D01*
X163309970Y-72634710D02*
X163309970Y-68726710D01*
X163309970Y-72680710D02*
X158259970Y-72726710D01*
X160784970Y-83755710D02*
X156234970Y-83755710D01*
X160784970Y-79105710D02*
X158234970Y-79105710D01*
X155934970Y-76905710D02*
X151234970Y-76905710D01*
X155009970Y-81555710D02*
X151234970Y-81555710D01*
X160809970Y-79130709D02*
X160809970Y-83730710D01*
X151234970Y-76930710D02*
X151209971Y-81530710D01*
X156229970Y-83030710D02*
X156229970Y-83730710D01*
D11*
X152159970Y-69180710D02*
X153429970Y-69180710D01*
X152159970Y-70450710D02*
X152159970Y-69180710D01*
X163589970Y-81880710D02*
X164859970Y-81880710D01*
X164859970Y-81880710D02*
X164859970Y-80610710D01*
D10*
X152420970Y-70610710D02*
G75*
G02*
X154684970Y-68726710I2074000J-190000D01*
G01*
X156024971Y-74610709D02*
G75*
G02*
X158284970Y-72730710I2069999J-190000D01*
G01*
X155939970Y-76930710D02*
G75*
G03*
X158309970Y-79100710I2270000J100000D01*
G01*
X156229970Y-82980710D02*
G75*
G03*
X155009970Y-81560710I-1320000J100000D01*
G01*
%TO.C,SW12*%
X95259970Y-107972210D02*
X98869970Y-107972210D01*
X95259970Y-104018210D02*
X95259970Y-107963210D01*
X106159970Y-102064210D02*
X97534970Y-102064210D01*
X106159970Y-105972210D02*
X106159970Y-102064210D01*
X106159970Y-106018210D02*
X101109970Y-106064210D01*
X103634970Y-117093210D02*
X99084970Y-117093210D01*
X103634970Y-112443210D02*
X101084970Y-112443210D01*
X98784970Y-110243210D02*
X94084970Y-110243210D01*
X97859970Y-114893210D02*
X94084970Y-114893210D01*
X103659970Y-112468209D02*
X103659970Y-117068210D01*
X94084970Y-110268210D02*
X94059971Y-114868210D01*
X99079970Y-116368210D02*
X99079970Y-117068210D01*
D11*
X95009970Y-102518210D02*
X96279970Y-102518210D01*
X95009970Y-103788210D02*
X95009970Y-102518210D01*
X106439970Y-115218210D02*
X107709970Y-115218210D01*
X107709970Y-115218210D02*
X107709970Y-113948210D01*
D10*
X95270970Y-103948210D02*
G75*
G02*
X97534970Y-102064210I2074000J-190000D01*
G01*
X98874971Y-107948209D02*
G75*
G02*
X101134970Y-106068210I2069999J-190000D01*
G01*
X98789970Y-110268210D02*
G75*
G03*
X101159970Y-112438210I2270000J100000D01*
G01*
X99079970Y-116318210D02*
G75*
G03*
X97859970Y-114898210I-1320000J100000D01*
G01*
%TO.C,SW14*%
X133359970Y-112734710D02*
X136969970Y-112734710D01*
X133359970Y-108780710D02*
X133359970Y-112725710D01*
X144259970Y-106826710D02*
X135634970Y-106826710D01*
X144259970Y-110734710D02*
X144259970Y-106826710D01*
X144259970Y-110780710D02*
X139209970Y-110826710D01*
X141734970Y-121855710D02*
X137184970Y-121855710D01*
X141734970Y-117205710D02*
X139184970Y-117205710D01*
X136884970Y-115005710D02*
X132184970Y-115005710D01*
X135959970Y-119655710D02*
X132184970Y-119655710D01*
X141759970Y-117230709D02*
X141759970Y-121830710D01*
X132184970Y-115030710D02*
X132159971Y-119630710D01*
X137179970Y-121130710D02*
X137179970Y-121830710D01*
D11*
X133109970Y-107280710D02*
X134379970Y-107280710D01*
X133109970Y-108550710D02*
X133109970Y-107280710D01*
X144539970Y-119980710D02*
X145809970Y-119980710D01*
X145809970Y-119980710D02*
X145809970Y-118710710D01*
D10*
X133370970Y-108710710D02*
G75*
G02*
X135634970Y-106826710I2074000J-190000D01*
G01*
X136974971Y-112710709D02*
G75*
G02*
X139234970Y-110830710I2069999J-190000D01*
G01*
X136889970Y-115030710D02*
G75*
G03*
X139259970Y-117200710I2270000J100000D01*
G01*
X137179970Y-121080710D02*
G75*
G03*
X135959970Y-119660710I-1320000J100000D01*
G01*
%TO.C,SW6*%
X76209970Y-107972210D02*
X79819970Y-107972210D01*
X76209970Y-104018210D02*
X76209970Y-107963210D01*
X87109970Y-102064210D02*
X78484970Y-102064210D01*
X87109970Y-105972210D02*
X87109970Y-102064210D01*
X87109970Y-106018210D02*
X82059970Y-106064210D01*
X84584970Y-117093210D02*
X80034970Y-117093210D01*
X84584970Y-112443210D02*
X82034970Y-112443210D01*
X79734970Y-110243210D02*
X75034970Y-110243210D01*
X78809970Y-114893210D02*
X75034970Y-114893210D01*
X84609970Y-112468209D02*
X84609970Y-117068210D01*
X75034970Y-110268210D02*
X75009971Y-114868210D01*
X80029970Y-116368210D02*
X80029970Y-117068210D01*
D11*
X75959970Y-102518210D02*
X77229970Y-102518210D01*
X75959970Y-103788210D02*
X75959970Y-102518210D01*
X87389970Y-115218210D02*
X88659970Y-115218210D01*
X88659970Y-115218210D02*
X88659970Y-113948210D01*
D10*
X76220970Y-103948210D02*
G75*
G02*
X78484970Y-102064210I2074000J-190000D01*
G01*
X79824971Y-107948209D02*
G75*
G02*
X82084970Y-106068210I2069999J-190000D01*
G01*
X79739970Y-110268210D02*
G75*
G03*
X82109970Y-112438210I2270000J100000D01*
G01*
X80029970Y-116318210D02*
G75*
G03*
X78809970Y-114898210I-1320000J100000D01*
G01*
%TO.C,SW13*%
X114309970Y-103209710D02*
X117919970Y-103209710D01*
X114309970Y-99255710D02*
X114309970Y-103200710D01*
X125209970Y-97301710D02*
X116584970Y-97301710D01*
X125209970Y-101209710D02*
X125209970Y-97301710D01*
X125209970Y-101255710D02*
X120159970Y-101301710D01*
X122684970Y-112330710D02*
X118134970Y-112330710D01*
X122684970Y-107680710D02*
X120134970Y-107680710D01*
X117834970Y-105480710D02*
X113134970Y-105480710D01*
X116909970Y-110130710D02*
X113134970Y-110130710D01*
X122709970Y-107705709D02*
X122709970Y-112305710D01*
X113134970Y-105505710D02*
X113109971Y-110105710D01*
X118129970Y-111605710D02*
X118129970Y-112305710D01*
D11*
X114059970Y-97755710D02*
X115329970Y-97755710D01*
X114059970Y-99025710D02*
X114059970Y-97755710D01*
X125489970Y-110455710D02*
X126759970Y-110455710D01*
X126759970Y-110455710D02*
X126759970Y-109185710D01*
D10*
X114320970Y-99185710D02*
G75*
G02*
X116584970Y-97301710I2074000J-190000D01*
G01*
X117924971Y-103185709D02*
G75*
G02*
X120184970Y-101305710I2069999J-190000D01*
G01*
X117839970Y-105505710D02*
G75*
G03*
X120209970Y-107675710I2270000J100000D01*
G01*
X118129970Y-111555710D02*
G75*
G03*
X116909970Y-110135710I-1320000J100000D01*
G01*
%TO.C,SW11*%
X76209970Y-127022210D02*
X79819970Y-127022210D01*
X76209970Y-123068210D02*
X76209970Y-127013210D01*
X87109970Y-121114210D02*
X78484970Y-121114210D01*
X87109970Y-125022210D02*
X87109970Y-121114210D01*
X87109970Y-125068210D02*
X82059970Y-125114210D01*
X84584970Y-136143210D02*
X80034970Y-136143210D01*
X84584970Y-131493210D02*
X82034970Y-131493210D01*
X79734970Y-129293210D02*
X75034970Y-129293210D01*
X78809970Y-133943210D02*
X75034970Y-133943210D01*
X84609970Y-131518209D02*
X84609970Y-136118210D01*
X75034970Y-129318210D02*
X75009971Y-133918210D01*
X80029970Y-135418210D02*
X80029970Y-136118210D01*
D11*
X75959970Y-121568210D02*
X77229970Y-121568210D01*
X75959970Y-122838210D02*
X75959970Y-121568210D01*
X87389970Y-134268210D02*
X88659970Y-134268210D01*
X88659970Y-134268210D02*
X88659970Y-132998210D01*
D10*
X76220970Y-122998210D02*
G75*
G02*
X78484970Y-121114210I2074000J-190000D01*
G01*
X79824971Y-126998209D02*
G75*
G02*
X82084970Y-125118210I2069999J-190000D01*
G01*
X79739970Y-129318210D02*
G75*
G03*
X82109970Y-131488210I2270000J100000D01*
G01*
X80029970Y-135368210D02*
G75*
G03*
X78809970Y-133948210I-1320000J100000D01*
G01*
%TO.C,SW2*%
X95259970Y-69872210D02*
X98869970Y-69872210D01*
X95259970Y-65918210D02*
X95259970Y-69863210D01*
X106159970Y-63964210D02*
X97534970Y-63964210D01*
X106159970Y-67872210D02*
X106159970Y-63964210D01*
X106159970Y-67918210D02*
X101109970Y-67964210D01*
X103634970Y-78993210D02*
X99084970Y-78993210D01*
X103634970Y-74343210D02*
X101084970Y-74343210D01*
X98784970Y-72143210D02*
X94084970Y-72143210D01*
X97859970Y-76793210D02*
X94084970Y-76793210D01*
X103659970Y-74368209D02*
X103659970Y-78968210D01*
X94084970Y-72168210D02*
X94059971Y-76768210D01*
X99079970Y-78268210D02*
X99079970Y-78968210D01*
D11*
X95009970Y-64418210D02*
X96279970Y-64418210D01*
X95009970Y-65688210D02*
X95009970Y-64418210D01*
X106439970Y-77118210D02*
X107709970Y-77118210D01*
X107709970Y-77118210D02*
X107709970Y-75848210D01*
D10*
X95270970Y-65848210D02*
G75*
G02*
X97534970Y-63964210I2074000J-190000D01*
G01*
X98874971Y-69848209D02*
G75*
G02*
X101134970Y-67968210I2069999J-190000D01*
G01*
X98789970Y-72168210D02*
G75*
G03*
X101159970Y-74338210I2270000J100000D01*
G01*
X99079970Y-78218210D02*
G75*
G03*
X97859970Y-76798210I-1320000J100000D01*
G01*
%TO.C,D18*%
X159271970Y-138046460D02*
X157747970Y-138046460D01*
X159271970Y-133982460D02*
X159271970Y-138046460D01*
D12*
G36*
X157747970Y-137284460D02*
G01*
X159271970Y-137284460D01*
X159271970Y-137538460D01*
X157747970Y-137538460D01*
X157747970Y-137284460D01*
G37*
X157747970Y-137284460D02*
X159271970Y-137284460D01*
X159271970Y-137538460D01*
X157747970Y-137538460D01*
X157747970Y-137284460D01*
D10*
X157747970Y-138046460D02*
X157747970Y-133982460D01*
X157747970Y-133982460D02*
X159271970Y-133982460D01*
D13*
%TO.C,U1*%
X75166220Y-50924460D02*
X72626220Y-50924460D01*
X75166220Y-48384460D02*
X75166220Y-50924460D01*
D10*
G36*
X87560855Y-54673490D02*
G01*
X87560855Y-54773490D01*
X87660855Y-54773490D01*
X87660855Y-54673490D01*
X87560855Y-54673490D01*
G37*
X87560855Y-54673490D02*
X87560855Y-54773490D01*
X87660855Y-54773490D01*
X87660855Y-54673490D01*
X87560855Y-54673490D01*
G36*
X87760855Y-54273490D02*
G01*
X87760855Y-55073490D01*
X87860855Y-55073490D01*
X87860855Y-54273490D01*
X87760855Y-54273490D01*
G37*
X87760855Y-54273490D02*
X87760855Y-55073490D01*
X87860855Y-55073490D01*
X87860855Y-54273490D01*
X87760855Y-54273490D01*
G36*
X87360855Y-54873490D02*
G01*
X87360855Y-55073490D01*
X87460855Y-55073490D01*
X87460855Y-54873490D01*
X87360855Y-54873490D01*
G37*
X87360855Y-54873490D02*
X87360855Y-55073490D01*
X87460855Y-55073490D01*
X87460855Y-54873490D01*
X87360855Y-54873490D01*
G36*
X87360855Y-54273490D02*
G01*
X87360855Y-54573490D01*
X87460855Y-54573490D01*
X87460855Y-54273490D01*
X87360855Y-54273490D01*
G37*
X87360855Y-54273490D02*
X87360855Y-54573490D01*
X87460855Y-54573490D01*
X87460855Y-54273490D01*
X87360855Y-54273490D01*
G36*
X87360855Y-54273490D02*
G01*
X87360855Y-54373490D01*
X87860855Y-54373490D01*
X87860855Y-54273490D01*
X87360855Y-54273490D01*
G37*
X87360855Y-54273490D02*
X87360855Y-54373490D01*
X87860855Y-54373490D01*
X87860855Y-54273490D01*
X87360855Y-54273490D01*
D13*
X90406220Y-78864460D02*
X90406220Y-45844460D01*
X72626220Y-78864460D02*
X90406220Y-78864460D01*
X72626220Y-45844460D02*
X72626220Y-78864460D01*
X90406220Y-45844460D02*
X72626220Y-45844460D01*
X75166220Y-48384460D02*
X72626220Y-48384460D01*
D10*
%TO.C,D2*%
X107360720Y-79531210D02*
X107360720Y-81055210D01*
X103296720Y-79531210D02*
X107360720Y-79531210D01*
D12*
G36*
X106598720Y-81055210D02*
G01*
X106598720Y-79531210D01*
X106852720Y-79531210D01*
X106852720Y-81055210D01*
X106598720Y-81055210D01*
G37*
X106598720Y-81055210D02*
X106598720Y-79531210D01*
X106852720Y-79531210D01*
X106852720Y-81055210D01*
X106598720Y-81055210D01*
D10*
X107360720Y-81055210D02*
X103296720Y-81055210D01*
X103296720Y-81055210D02*
X103296720Y-79531210D01*
%TO.C,D15*%
X163462970Y-123917710D02*
X163462970Y-122393710D01*
X167526970Y-123917710D02*
X163462970Y-123917710D01*
D12*
G36*
X164224970Y-122393710D02*
G01*
X164224970Y-123917710D01*
X163970970Y-123917710D01*
X163970970Y-122393710D01*
X164224970Y-122393710D01*
G37*
X164224970Y-122393710D02*
X164224970Y-123917710D01*
X163970970Y-123917710D01*
X163970970Y-122393710D01*
X164224970Y-122393710D01*
D10*
X163462970Y-122393710D02*
X167526970Y-122393710D01*
X167526970Y-122393710D02*
X167526970Y-123917710D01*
%TO.C,SW3*%
X114309970Y-65109710D02*
X117919970Y-65109710D01*
X114309970Y-61155710D02*
X114309970Y-65100710D01*
X125209970Y-59201710D02*
X116584970Y-59201710D01*
X125209970Y-63109710D02*
X125209970Y-59201710D01*
X125209970Y-63155710D02*
X120159970Y-63201710D01*
X122684970Y-74230710D02*
X118134970Y-74230710D01*
X122684970Y-69580710D02*
X120134970Y-69580710D01*
X117834970Y-67380710D02*
X113134970Y-67380710D01*
X116909970Y-72030710D02*
X113134970Y-72030710D01*
X122709970Y-69605709D02*
X122709970Y-74205710D01*
X113134970Y-67405710D02*
X113109971Y-72005710D01*
X118129970Y-73505710D02*
X118129970Y-74205710D01*
D11*
X114059970Y-59655710D02*
X115329970Y-59655710D01*
X114059970Y-60925710D02*
X114059970Y-59655710D01*
X125489970Y-72355710D02*
X126759970Y-72355710D01*
X126759970Y-72355710D02*
X126759970Y-71085710D01*
D10*
X114320970Y-61085710D02*
G75*
G02*
X116584970Y-59201710I2074000J-190000D01*
G01*
X117924971Y-65085709D02*
G75*
G02*
X120184970Y-63205710I2069999J-190000D01*
G01*
X117839970Y-67405710D02*
G75*
G03*
X120209970Y-69575710I2270000J100000D01*
G01*
X118129970Y-73455710D02*
G75*
G03*
X116909970Y-72035710I-1320000J100000D01*
G01*
%TO.C,SW10*%
X152409970Y-93684710D02*
X156019970Y-93684710D01*
X152409970Y-89730710D02*
X152409970Y-93675710D01*
X163309970Y-87776710D02*
X154684970Y-87776710D01*
X163309970Y-91684710D02*
X163309970Y-87776710D01*
X163309970Y-91730710D02*
X158259970Y-91776710D01*
X160784970Y-102805710D02*
X156234970Y-102805710D01*
X160784970Y-98155710D02*
X158234970Y-98155710D01*
X155934970Y-95955710D02*
X151234970Y-95955710D01*
X155009970Y-100605710D02*
X151234970Y-100605710D01*
X160809970Y-98180709D02*
X160809970Y-102780710D01*
X151234970Y-95980710D02*
X151209971Y-100580710D01*
X156229970Y-102080710D02*
X156229970Y-102780710D01*
D11*
X152159970Y-88230710D02*
X153429970Y-88230710D01*
X152159970Y-89500710D02*
X152159970Y-88230710D01*
X163589970Y-100930710D02*
X164859970Y-100930710D01*
X164859970Y-100930710D02*
X164859970Y-99660710D01*
D10*
X152420970Y-89660710D02*
G75*
G02*
X154684970Y-87776710I2074000J-190000D01*
G01*
X156024971Y-93660709D02*
G75*
G02*
X158284970Y-91780710I2069999J-190000D01*
G01*
X155939970Y-95980710D02*
G75*
G03*
X158309970Y-98150710I2270000J100000D01*
G01*
X156229970Y-102030710D02*
G75*
G03*
X155009970Y-100610710I-1320000J100000D01*
G01*
%TO.C,SW7*%
X95259970Y-88922210D02*
X98869970Y-88922210D01*
X95259970Y-84968210D02*
X95259970Y-88913210D01*
X106159970Y-83014210D02*
X97534970Y-83014210D01*
X106159970Y-86922210D02*
X106159970Y-83014210D01*
X106159970Y-86968210D02*
X101109970Y-87014210D01*
X103634970Y-98043210D02*
X99084970Y-98043210D01*
X103634970Y-93393210D02*
X101084970Y-93393210D01*
X98784970Y-91193210D02*
X94084970Y-91193210D01*
X97859970Y-95843210D02*
X94084970Y-95843210D01*
X103659970Y-93418209D02*
X103659970Y-98018210D01*
X94084970Y-91218210D02*
X94059971Y-95818210D01*
X99079970Y-97318210D02*
X99079970Y-98018210D01*
D11*
X95009970Y-83468210D02*
X96279970Y-83468210D01*
X95009970Y-84738210D02*
X95009970Y-83468210D01*
X106439970Y-96168210D02*
X107709970Y-96168210D01*
X107709970Y-96168210D02*
X107709970Y-94898210D01*
D10*
X95270970Y-84898210D02*
G75*
G02*
X97534970Y-83014210I2074000J-190000D01*
G01*
X98874971Y-88898209D02*
G75*
G02*
X101134970Y-87018210I2069999J-190000D01*
G01*
X98789970Y-91218210D02*
G75*
G03*
X101159970Y-93388210I2270000J100000D01*
G01*
X99079970Y-97268210D02*
G75*
G03*
X97859970Y-95848210I-1320000J100000D01*
G01*
%TO.C,SW19*%
X161934970Y-131784710D02*
X165544970Y-131784710D01*
X161934970Y-127830710D02*
X161934970Y-131775710D01*
X172834970Y-125876710D02*
X164209970Y-125876710D01*
X172834970Y-129784710D02*
X172834970Y-125876710D01*
X172834970Y-129830710D02*
X167784970Y-129876710D01*
X170309970Y-140905710D02*
X165759970Y-140905710D01*
X170309970Y-136255710D02*
X167759970Y-136255710D01*
X165459970Y-134055710D02*
X160759970Y-134055710D01*
X164534970Y-138705710D02*
X160759970Y-138705710D01*
X170334970Y-136280709D02*
X170334970Y-140880710D01*
X160759970Y-134080710D02*
X160734971Y-138680710D01*
X165754970Y-140180710D02*
X165754970Y-140880710D01*
D11*
X161684970Y-126330710D02*
X162954970Y-126330710D01*
X161684970Y-127600710D02*
X161684970Y-126330710D01*
X173114970Y-139030710D02*
X174384970Y-139030710D01*
X174384970Y-139030710D02*
X174384970Y-137760710D01*
D10*
X161945970Y-127760710D02*
G75*
G02*
X164209970Y-125876710I2074000J-190000D01*
G01*
X165549971Y-131760709D02*
G75*
G02*
X167809970Y-129880710I2069999J-190000D01*
G01*
X165464970Y-134080710D02*
G75*
G03*
X167834970Y-136250710I2270000J100000D01*
G01*
X165754970Y-140130710D02*
G75*
G03*
X164534970Y-138710710I-1320000J100000D01*
G01*
%TO.C,D13*%
X126410720Y-112868710D02*
X126410720Y-114392710D01*
X122346720Y-112868710D02*
X126410720Y-112868710D01*
D12*
G36*
X125648720Y-114392710D02*
G01*
X125648720Y-112868710D01*
X125902720Y-112868710D01*
X125902720Y-114392710D01*
X125648720Y-114392710D01*
G37*
X125648720Y-114392710D02*
X125648720Y-112868710D01*
X125902720Y-112868710D01*
X125902720Y-114392710D01*
X125648720Y-114392710D01*
D10*
X126410720Y-114392710D02*
X122346720Y-114392710D01*
X122346720Y-114392710D02*
X122346720Y-112868710D01*
%TO.C,D1*%
X91072970Y-84452460D02*
X92596970Y-84452460D01*
X91072970Y-88516460D02*
X91072970Y-84452460D01*
D12*
G36*
X92596970Y-85214460D02*
G01*
X91072970Y-85214460D01*
X91072970Y-84960460D01*
X92596970Y-84960460D01*
X92596970Y-85214460D01*
G37*
X92596970Y-85214460D02*
X91072970Y-85214460D01*
X91072970Y-84960460D01*
X92596970Y-84960460D01*
X92596970Y-85214460D01*
D10*
X92596970Y-84452460D02*
X92596970Y-88516460D01*
X92596970Y-88516460D02*
X91072970Y-88516460D01*
%TO.C,D8*%
X123394470Y-93818710D02*
X123394470Y-95342710D01*
X119330470Y-93818710D02*
X123394470Y-93818710D01*
D12*
G36*
X122632470Y-95342710D02*
G01*
X122632470Y-93818710D01*
X122886470Y-93818710D01*
X122886470Y-95342710D01*
X122632470Y-95342710D01*
G37*
X122632470Y-95342710D02*
X122632470Y-93818710D01*
X122886470Y-93818710D01*
X122886470Y-95342710D01*
X122632470Y-95342710D01*
D10*
X123394470Y-95342710D02*
X119330470Y-95342710D01*
X119330470Y-95342710D02*
X119330470Y-93818710D01*
%TO.C,PJ1*%
X154084970Y-53305710D02*
X154084970Y-51305710D01*
X148484970Y-51305710D02*
X154084970Y-51305710D01*
X148484970Y-53305710D02*
X148484970Y-51305710D01*
X148234970Y-65405710D02*
X154334970Y-65405710D01*
X154334970Y-53305710D02*
X154334970Y-65405710D01*
X148234970Y-53305710D02*
X154334970Y-53305710D01*
X148234970Y-53305710D02*
X148234970Y-65405710D01*
%TO.C,D3*%
X126410720Y-74768710D02*
X126410720Y-76292710D01*
X122346720Y-74768710D02*
X126410720Y-74768710D01*
D12*
G36*
X125648720Y-76292710D02*
G01*
X125648720Y-74768710D01*
X125902720Y-74768710D01*
X125902720Y-76292710D01*
X125648720Y-76292710D01*
G37*
X125648720Y-76292710D02*
X125648720Y-74768710D01*
X125902720Y-74768710D01*
X125902720Y-76292710D01*
X125648720Y-76292710D01*
D10*
X126410720Y-76292710D02*
X122346720Y-76292710D01*
X122346720Y-76292710D02*
X122346720Y-74768710D01*
%TO.C,D14*%
X145460720Y-122393710D02*
X145460720Y-123917710D01*
X141396720Y-122393710D02*
X145460720Y-122393710D01*
D12*
G36*
X144698720Y-123917710D02*
G01*
X144698720Y-122393710D01*
X144952720Y-122393710D01*
X144952720Y-123917710D01*
X144698720Y-123917710D01*
G37*
X144698720Y-123917710D02*
X144698720Y-122393710D01*
X144952720Y-122393710D01*
X144952720Y-123917710D01*
X144698720Y-123917710D01*
D10*
X145460720Y-123917710D02*
X141396720Y-123917710D01*
X141396720Y-123917710D02*
X141396720Y-122393710D01*
%TO.C,D19*%
X178321970Y-138046460D02*
X176797970Y-138046460D01*
X178321970Y-133982460D02*
X178321970Y-138046460D01*
D12*
G36*
X176797970Y-137284460D02*
G01*
X178321970Y-137284460D01*
X178321970Y-137538460D01*
X176797970Y-137538460D01*
X176797970Y-137284460D01*
G37*
X176797970Y-137284460D02*
X178321970Y-137284460D01*
X178321970Y-137538460D01*
X176797970Y-137538460D01*
X176797970Y-137284460D01*
D10*
X176797970Y-138046460D02*
X176797970Y-133982460D01*
X176797970Y-133982460D02*
X178321970Y-133982460D01*
%TO.C,D4*%
X145460720Y-84293710D02*
X145460720Y-85817710D01*
X141396720Y-84293710D02*
X145460720Y-84293710D01*
D12*
G36*
X144698720Y-85817710D02*
G01*
X144698720Y-84293710D01*
X144952720Y-84293710D01*
X144952720Y-85817710D01*
X144698720Y-85817710D01*
G37*
X144698720Y-85817710D02*
X144698720Y-84293710D01*
X144952720Y-84293710D01*
X144952720Y-85817710D01*
X144698720Y-85817710D01*
D10*
X145460720Y-85817710D02*
X141396720Y-85817710D01*
X141396720Y-85817710D02*
X141396720Y-84293710D01*
%TO.C,D5*%
X153144220Y-85817710D02*
X153144220Y-84293710D01*
X157208220Y-85817710D02*
X153144220Y-85817710D01*
D12*
G36*
X153906220Y-84293710D02*
G01*
X153906220Y-85817710D01*
X153652220Y-85817710D01*
X153652220Y-84293710D01*
X153906220Y-84293710D01*
G37*
X153906220Y-84293710D02*
X153906220Y-85817710D01*
X153652220Y-85817710D01*
X153652220Y-84293710D01*
X153906220Y-84293710D01*
D10*
X153144220Y-84293710D02*
X157208220Y-84293710D01*
X157208220Y-84293710D02*
X157208220Y-85817710D01*
%TO.C,D6*%
X91072970Y-103502460D02*
X92596970Y-103502460D01*
X91072970Y-107566460D02*
X91072970Y-103502460D01*
D12*
G36*
X92596970Y-104264460D02*
G01*
X91072970Y-104264460D01*
X91072970Y-104010460D01*
X92596970Y-104010460D01*
X92596970Y-104264460D01*
G37*
X92596970Y-104264460D02*
X91072970Y-104264460D01*
X91072970Y-104010460D01*
X92596970Y-104010460D01*
X92596970Y-104264460D01*
D10*
X92596970Y-103502460D02*
X92596970Y-107566460D01*
X92596970Y-107566460D02*
X91072970Y-107566460D01*
%TO.C,D16*%
X102121970Y-137887710D02*
X100597970Y-137887710D01*
X102121970Y-133823710D02*
X102121970Y-137887710D01*
D12*
G36*
X100597970Y-137125710D02*
G01*
X102121970Y-137125710D01*
X102121970Y-137379710D01*
X100597970Y-137379710D01*
X100597970Y-137125710D01*
G37*
X100597970Y-137125710D02*
X102121970Y-137125710D01*
X102121970Y-137379710D01*
X100597970Y-137379710D01*
X100597970Y-137125710D01*
D10*
X100597970Y-137887710D02*
X100597970Y-133823710D01*
X100597970Y-133823710D02*
X102121970Y-133823710D01*
%TO.C,D12*%
X112872520Y-117535960D02*
X112872520Y-119059960D01*
X108808520Y-117535960D02*
X112872520Y-117535960D01*
D12*
G36*
X112110520Y-119059960D02*
G01*
X112110520Y-117535960D01*
X112364520Y-117535960D01*
X112364520Y-119059960D01*
X112110520Y-119059960D01*
G37*
X112110520Y-119059960D02*
X112110520Y-117535960D01*
X112364520Y-117535960D01*
X112364520Y-119059960D01*
X112110520Y-119059960D01*
D10*
X112872520Y-119059960D02*
X108808520Y-119059960D01*
X108808520Y-119059960D02*
X108808520Y-117535960D01*
%TO.C,D10*%
X153302970Y-104867710D02*
X153302970Y-103343710D01*
X157366970Y-104867710D02*
X153302970Y-104867710D01*
D12*
G36*
X154064970Y-103343710D02*
G01*
X154064970Y-104867710D01*
X153810970Y-104867710D01*
X153810970Y-103343710D01*
X154064970Y-103343710D01*
G37*
X154064970Y-103343710D02*
X154064970Y-104867710D01*
X153810970Y-104867710D01*
X153810970Y-103343710D01*
X154064970Y-103343710D01*
D10*
X153302970Y-103343710D02*
X157366970Y-103343710D01*
X157366970Y-103343710D02*
X157366970Y-104867710D01*
%TO.C,D17*%
X140221970Y-138046460D02*
X138697970Y-138046460D01*
X140221970Y-133982460D02*
X140221970Y-138046460D01*
D12*
G36*
X138697970Y-137284460D02*
G01*
X140221970Y-137284460D01*
X140221970Y-137538460D01*
X138697970Y-137538460D01*
X138697970Y-137284460D01*
G37*
X138697970Y-137284460D02*
X140221970Y-137284460D01*
X140221970Y-137538460D01*
X138697970Y-137538460D01*
X138697970Y-137284460D01*
D10*
X138697970Y-138046460D02*
X138697970Y-133982460D01*
X138697970Y-133982460D02*
X140221970Y-133982460D01*
%TO.C,D7*%
X107360720Y-98581210D02*
X107360720Y-100105210D01*
X103296720Y-98581210D02*
X107360720Y-98581210D01*
D12*
G36*
X106598720Y-100105210D02*
G01*
X106598720Y-98581210D01*
X106852720Y-98581210D01*
X106852720Y-100105210D01*
X106598720Y-100105210D01*
G37*
X106598720Y-100105210D02*
X106598720Y-98581210D01*
X106852720Y-98581210D01*
X106852720Y-100105210D01*
X106598720Y-100105210D01*
D10*
X107360720Y-100105210D02*
X103296720Y-100105210D01*
X103296720Y-100105210D02*
X103296720Y-98581210D01*
%TO.C,D9*%
X145460720Y-103343710D02*
X145460720Y-104867710D01*
X141396720Y-103343710D02*
X145460720Y-103343710D01*
D12*
G36*
X144698720Y-104867710D02*
G01*
X144698720Y-103343710D01*
X144952720Y-103343710D01*
X144952720Y-104867710D01*
X144698720Y-104867710D01*
G37*
X144698720Y-104867710D02*
X144698720Y-103343710D01*
X144952720Y-103343710D01*
X144952720Y-104867710D01*
X144698720Y-104867710D01*
D10*
X145460720Y-104867710D02*
X141396720Y-104867710D01*
X141396720Y-104867710D02*
X141396720Y-103343710D01*
D14*
%TO.C,C1*%
X127611120Y-54053360D02*
X127611120Y-46703360D01*
X127611120Y-46703360D02*
X133611120Y-46703360D01*
X133611120Y-54053360D02*
X133611120Y-46703360D01*
X127611120Y-54053360D02*
X133611120Y-54053360D01*
D10*
%TO.C,D11*%
X84183220Y-118424960D02*
X84183220Y-119948960D01*
X80119220Y-118424960D02*
X84183220Y-118424960D01*
D12*
G36*
X83421220Y-119948960D02*
G01*
X83421220Y-118424960D01*
X83675220Y-118424960D01*
X83675220Y-119948960D01*
X83421220Y-119948960D01*
G37*
X83421220Y-119948960D02*
X83421220Y-118424960D01*
X83675220Y-118424960D01*
X83675220Y-119948960D01*
X83421220Y-119948960D01*
D10*
X84183220Y-119948960D02*
X80119220Y-119948960D01*
X80119220Y-119948960D02*
X80119220Y-118424960D01*
%TO.C,SW1*%
X76209970Y-88922210D02*
X79819970Y-88922210D01*
X76209970Y-84968210D02*
X76209970Y-88913210D01*
X87109970Y-83014210D02*
X78484970Y-83014210D01*
X87109970Y-86922210D02*
X87109970Y-83014210D01*
X87109970Y-86968210D02*
X82059970Y-87014210D01*
X84584970Y-98043210D02*
X80034970Y-98043210D01*
X84584970Y-93393210D02*
X82034970Y-93393210D01*
X79734970Y-91193210D02*
X75034970Y-91193210D01*
X78809970Y-95843210D02*
X75034970Y-95843210D01*
X84609970Y-93418209D02*
X84609970Y-98018210D01*
X75034970Y-91218210D02*
X75009971Y-95818210D01*
X80029970Y-97318210D02*
X80029970Y-98018210D01*
D11*
X75959970Y-83468210D02*
X77229970Y-83468210D01*
X75959970Y-84738210D02*
X75959970Y-83468210D01*
X87389970Y-96168210D02*
X88659970Y-96168210D01*
X88659970Y-96168210D02*
X88659970Y-94898210D01*
D10*
X76220970Y-84898210D02*
G75*
G02*
X78484970Y-83014210I2074000J-190000D01*
G01*
X79824971Y-88898209D02*
G75*
G02*
X82084970Y-87018210I2069999J-190000D01*
G01*
X79739970Y-91218210D02*
G75*
G03*
X82109970Y-93388210I2270000J100000D01*
G01*
X80029970Y-97268210D02*
G75*
G03*
X78809970Y-95848210I-1320000J100000D01*
G01*
%TO.C,L2*%
X171091220Y-112636960D02*
X173341220Y-110336960D01*
D15*
X171091220Y-110636960D02*
X171091220Y-115336960D01*
X171341220Y-110336960D02*
X176091220Y-110336960D01*
X171091220Y-110636960D02*
X171341220Y-110336960D01*
X176091220Y-115336960D02*
X176091220Y-110336960D01*
X171091860Y-115336320D02*
X176090580Y-115336320D01*
%TO.C,U1*%
D10*
X87415315Y-47057317D02*
X87301029Y-47095412D01*
X87262934Y-47133507D01*
X87224839Y-47209698D01*
X87224839Y-47323983D01*
X87262934Y-47400174D01*
X87301029Y-47438269D01*
X87377220Y-47476364D01*
X87681981Y-47476364D01*
X87681981Y-46676364D01*
X87415315Y-46676364D01*
X87339124Y-46714460D01*
X87301029Y-46752555D01*
X87262934Y-46828745D01*
X87262934Y-46904936D01*
X87301029Y-46981126D01*
X87339124Y-47019221D01*
X87415315Y-47057317D01*
X87681981Y-47057317D01*
X86881981Y-47171602D02*
X86272458Y-47171602D01*
X86577220Y-47476364D02*
X86577220Y-46866840D01*
X76747315Y-47057317D02*
X76633029Y-47095412D01*
X76594934Y-47133507D01*
X76556839Y-47209698D01*
X76556839Y-47323983D01*
X76594934Y-47400174D01*
X76633029Y-47438269D01*
X76709220Y-47476364D01*
X77013981Y-47476364D01*
X77013981Y-46676364D01*
X76747315Y-46676364D01*
X76671124Y-46714460D01*
X76633029Y-46752555D01*
X76594934Y-46828745D01*
X76594934Y-46904936D01*
X76633029Y-46981126D01*
X76671124Y-47019221D01*
X76747315Y-47057317D01*
X77013981Y-47057317D01*
X76213981Y-47171602D02*
X75604458Y-47171602D01*
X79566696Y-76386364D02*
X79566696Y-75586364D01*
X79376220Y-75586364D01*
X79261934Y-75624460D01*
X79185743Y-75700650D01*
X79147648Y-75776840D01*
X79109553Y-75929221D01*
X79109553Y-76043507D01*
X79147648Y-76195888D01*
X79185743Y-76272079D01*
X79261934Y-76348269D01*
X79376220Y-76386364D01*
X79566696Y-76386364D01*
X78385743Y-75586364D02*
X78766696Y-75586364D01*
X78804791Y-75967317D01*
X78766696Y-75929221D01*
X78690505Y-75891126D01*
X78500029Y-75891126D01*
X78423839Y-75929221D01*
X78385743Y-75967317D01*
X78347648Y-76043507D01*
X78347648Y-76233983D01*
X78385743Y-76310174D01*
X78423839Y-76348269D01*
X78500029Y-76386364D01*
X78690505Y-76386364D01*
X78766696Y-76348269D01*
X78804791Y-76310174D01*
X84322886Y-75967317D02*
X84589553Y-75967317D01*
X84589553Y-76386364D02*
X84589553Y-75586364D01*
X84208600Y-75586364D01*
X83484791Y-76386364D02*
X83941934Y-76386364D01*
X83713362Y-76386364D02*
X83713362Y-75586364D01*
X83789553Y-75700650D01*
X83865743Y-75776840D01*
X83941934Y-75814936D01*
X81649553Y-76310174D02*
X81687648Y-76348269D01*
X81801934Y-76386364D01*
X81878124Y-76386364D01*
X81992410Y-76348269D01*
X82068600Y-76272079D01*
X82106696Y-76195888D01*
X82144791Y-76043507D01*
X82144791Y-75929221D01*
X82106696Y-75776840D01*
X82068600Y-75700650D01*
X81992410Y-75624460D01*
X81878124Y-75586364D01*
X81801934Y-75586364D01*
X81687648Y-75624460D01*
X81649553Y-75662555D01*
X81382886Y-75586364D02*
X80849553Y-75586364D01*
X81192410Y-76386364D01*
X88081211Y-76088757D02*
X88034071Y-76183038D01*
X88034071Y-76230179D01*
X88057641Y-76300889D01*
X88128352Y-76371600D01*
X88199062Y-76395170D01*
X88246203Y-76395170D01*
X88316913Y-76371600D01*
X88505475Y-76183038D01*
X88010500Y-75688063D01*
X87845509Y-75853055D01*
X87821939Y-75923766D01*
X87821939Y-75970906D01*
X87845509Y-76041617D01*
X87892649Y-76088757D01*
X87963360Y-76112327D01*
X88010500Y-76112327D01*
X88081211Y-76088757D01*
X88246203Y-75923766D01*
X87303394Y-76395170D02*
X87397675Y-76300889D01*
X87468385Y-76277319D01*
X87515526Y-76277319D01*
X87633377Y-76300889D01*
X87751228Y-76371600D01*
X87939790Y-76560162D01*
X87963360Y-76630872D01*
X87963360Y-76678013D01*
X87939790Y-76748724D01*
X87845509Y-76843004D01*
X87774798Y-76866575D01*
X87727658Y-76866575D01*
X87656947Y-76843004D01*
X87539096Y-76725153D01*
X87515526Y-76654443D01*
X87515526Y-76607302D01*
X87539096Y-76536592D01*
X87633377Y-76442311D01*
X87704087Y-76418740D01*
X87751228Y-76418740D01*
X87821939Y-76442311D01*
X86249553Y-76174460D02*
X86482886Y-76174460D01*
X86482886Y-76541126D02*
X86482886Y-75841126D01*
X86149553Y-75841126D01*
X85749553Y-75841126D02*
X85682886Y-75841126D01*
X85616220Y-75874460D01*
X85582886Y-75907793D01*
X85549553Y-75974460D01*
X85516220Y-76107793D01*
X85516220Y-76274460D01*
X85549553Y-76407793D01*
X85582886Y-76474460D01*
X85616220Y-76507793D01*
X85682886Y-76541126D01*
X85749553Y-76541126D01*
X85816220Y-76507793D01*
X85849553Y-76474460D01*
X85882886Y-76407793D01*
X85916220Y-76274460D01*
X85916220Y-76107793D01*
X85882886Y-75974460D01*
X85849553Y-75907793D01*
X85816220Y-75874460D01*
X85749553Y-75841126D01*
X77299553Y-76174460D02*
X77199553Y-76207793D01*
X77166220Y-76241126D01*
X77132886Y-76307793D01*
X77132886Y-76407793D01*
X77166220Y-76474460D01*
X77199553Y-76507793D01*
X77266220Y-76541126D01*
X77532886Y-76541126D01*
X77532886Y-75841126D01*
X77299553Y-75841126D01*
X77232886Y-75874460D01*
X77199553Y-75907793D01*
X77166220Y-75974460D01*
X77166220Y-76041126D01*
X77199553Y-76107793D01*
X77232886Y-76141126D01*
X77299553Y-76174460D01*
X77532886Y-76174460D01*
X76899553Y-75841126D02*
X76432886Y-75841126D01*
X76732886Y-76541126D01*
X87089553Y-55038269D02*
X86975267Y-55076364D01*
X86784791Y-55076364D01*
X86708600Y-55038269D01*
X86670505Y-55000174D01*
X86632410Y-54923983D01*
X86632410Y-54847793D01*
X86670505Y-54771602D01*
X86708600Y-54733507D01*
X86784791Y-54695412D01*
X86937172Y-54657317D01*
X87013362Y-54619221D01*
X87051458Y-54581126D01*
X87089553Y-54504936D01*
X87089553Y-54428745D01*
X87051458Y-54352555D01*
X87013362Y-54314460D01*
X86937172Y-54276364D01*
X86746696Y-54276364D01*
X86632410Y-54314460D01*
X86403839Y-54276364D02*
X85946696Y-54276364D01*
X86175267Y-55076364D02*
X86175267Y-54276364D01*
X80134824Y-49216364D02*
X79677681Y-49216364D01*
X79906252Y-50016364D02*
X79906252Y-49216364D01*
X79487205Y-49216364D02*
X78953871Y-50016364D01*
X78953871Y-49216364D02*
X79487205Y-50016364D01*
X78496728Y-49216364D02*
X78420538Y-49216364D01*
X78344348Y-49254460D01*
X78306252Y-49292555D01*
X78268157Y-49368745D01*
X78230062Y-49521126D01*
X78230062Y-49711602D01*
X78268157Y-49863983D01*
X78306252Y-49940174D01*
X78344348Y-49978269D01*
X78420538Y-50016364D01*
X78496728Y-50016364D01*
X78572919Y-49978269D01*
X78611014Y-49940174D01*
X78649109Y-49863983D01*
X78687205Y-49711602D01*
X78687205Y-49521126D01*
X78649109Y-49368745D01*
X78611014Y-49292555D01*
X78572919Y-49254460D01*
X78496728Y-49216364D01*
X77315776Y-49178269D02*
X78001490Y-50206840D01*
X77049109Y-50016364D02*
X77049109Y-49216364D01*
X76858633Y-49216364D01*
X76744348Y-49254460D01*
X76668157Y-49330650D01*
X76630062Y-49406840D01*
X76591967Y-49559221D01*
X76591967Y-49673507D01*
X76630062Y-49825888D01*
X76668157Y-49902079D01*
X76744348Y-49978269D01*
X76858633Y-50016364D01*
X77049109Y-50016364D01*
X76325300Y-49216364D02*
X75830062Y-49216364D01*
X76096728Y-49521126D01*
X75982443Y-49521126D01*
X75906252Y-49559221D01*
X75868157Y-49597317D01*
X75830062Y-49673507D01*
X75830062Y-49863983D01*
X75868157Y-49940174D01*
X75906252Y-49978269D01*
X75982443Y-50016364D01*
X76211014Y-50016364D01*
X76287205Y-49978269D01*
X76325300Y-49940174D01*
X87301029Y-74997317D02*
X87186743Y-75035412D01*
X87148648Y-75073507D01*
X87110553Y-75149698D01*
X87110553Y-75263983D01*
X87148648Y-75340174D01*
X87186743Y-75378269D01*
X87262934Y-75416364D01*
X87567696Y-75416364D01*
X87567696Y-74616364D01*
X87301029Y-74616364D01*
X87224839Y-74654460D01*
X87186743Y-74692555D01*
X87148648Y-74768745D01*
X87148648Y-74844936D01*
X87186743Y-74921126D01*
X87224839Y-74959221D01*
X87301029Y-74997317D01*
X87567696Y-74997317D01*
X86805791Y-74692555D02*
X86767696Y-74654460D01*
X86691505Y-74616364D01*
X86501029Y-74616364D01*
X86424839Y-74654460D01*
X86386743Y-74692555D01*
X86348648Y-74768745D01*
X86348648Y-74844936D01*
X86386743Y-74959221D01*
X86843886Y-75416364D01*
X86348648Y-75416364D01*
X87243886Y-67377317D02*
X87510553Y-67377317D01*
X87510553Y-67796364D02*
X87510553Y-66996364D01*
X87129600Y-66996364D01*
X86901029Y-66996364D02*
X86367696Y-66996364D01*
X86710553Y-67796364D01*
X87243886Y-64837317D02*
X87510553Y-64837317D01*
X87510553Y-65256364D02*
X87510553Y-64456364D01*
X87129600Y-64456364D01*
X86481981Y-64456364D02*
X86634362Y-64456364D01*
X86710553Y-64494460D01*
X86748648Y-64532555D01*
X86824839Y-64646840D01*
X86862934Y-64799221D01*
X86862934Y-65103983D01*
X86824839Y-65180174D01*
X86786743Y-65218269D01*
X86710553Y-65256364D01*
X86558172Y-65256364D01*
X86481981Y-65218269D01*
X86443886Y-65180174D01*
X86405791Y-65103983D01*
X86405791Y-64913507D01*
X86443886Y-64837317D01*
X86481981Y-64799221D01*
X86558172Y-64761126D01*
X86710553Y-64761126D01*
X86786743Y-64799221D01*
X86824839Y-64837317D01*
X86862934Y-64913507D01*
X87243886Y-62297317D02*
X87510553Y-62297317D01*
X87510553Y-62716364D02*
X87510553Y-61916364D01*
X87129600Y-61916364D01*
X86443886Y-61916364D02*
X86824839Y-61916364D01*
X86862934Y-62297317D01*
X86824839Y-62259221D01*
X86748648Y-62221126D01*
X86558172Y-62221126D01*
X86481981Y-62259221D01*
X86443886Y-62297317D01*
X86405791Y-62373507D01*
X86405791Y-62563983D01*
X86443886Y-62640174D01*
X86481981Y-62678269D01*
X86558172Y-62716364D01*
X86748648Y-62716364D01*
X86824839Y-62678269D01*
X86862934Y-62640174D01*
X87301029Y-49597317D02*
X87186743Y-49635412D01*
X87148648Y-49673507D01*
X87110553Y-49749698D01*
X87110553Y-49863983D01*
X87148648Y-49940174D01*
X87186743Y-49978269D01*
X87262934Y-50016364D01*
X87567696Y-50016364D01*
X87567696Y-49216364D01*
X87301029Y-49216364D01*
X87224839Y-49254460D01*
X87186743Y-49292555D01*
X87148648Y-49368745D01*
X87148648Y-49444936D01*
X87186743Y-49521126D01*
X87224839Y-49559221D01*
X87301029Y-49597317D01*
X87567696Y-49597317D01*
X86615315Y-49216364D02*
X86539124Y-49216364D01*
X86462934Y-49254460D01*
X86424839Y-49292555D01*
X86386743Y-49368745D01*
X86348648Y-49521126D01*
X86348648Y-49711602D01*
X86386743Y-49863983D01*
X86424839Y-49940174D01*
X86462934Y-49978269D01*
X86539124Y-50016364D01*
X86615315Y-50016364D01*
X86691505Y-49978269D01*
X86729600Y-49940174D01*
X86767696Y-49863983D01*
X86805791Y-49711602D01*
X86805791Y-49521126D01*
X86767696Y-49368745D01*
X86729600Y-49292555D01*
X86691505Y-49254460D01*
X86615315Y-49216364D01*
X87586743Y-51794460D02*
X87662934Y-51756364D01*
X87777220Y-51756364D01*
X87891505Y-51794460D01*
X87967696Y-51870650D01*
X88005791Y-51946840D01*
X88043886Y-52099221D01*
X88043886Y-52213507D01*
X88005791Y-52365888D01*
X87967696Y-52442079D01*
X87891505Y-52518269D01*
X87777220Y-52556364D01*
X87701029Y-52556364D01*
X87586743Y-52518269D01*
X87548648Y-52480174D01*
X87548648Y-52213507D01*
X87701029Y-52213507D01*
X87205791Y-52556364D02*
X87205791Y-51756364D01*
X86748648Y-52556364D01*
X86748648Y-51756364D01*
X86367696Y-52556364D02*
X86367696Y-51756364D01*
X86177220Y-51756364D01*
X86062934Y-51794460D01*
X85986743Y-51870650D01*
X85948648Y-51946840D01*
X85910553Y-52099221D01*
X85910553Y-52213507D01*
X85948648Y-52365888D01*
X85986743Y-52442079D01*
X86062934Y-52518269D01*
X86177220Y-52556364D01*
X86367696Y-52556364D01*
X88043886Y-56836364D02*
X87777220Y-57636364D01*
X87510553Y-56836364D01*
X86786743Y-57560174D02*
X86824839Y-57598269D01*
X86939124Y-57636364D01*
X87015315Y-57636364D01*
X87129600Y-57598269D01*
X87205791Y-57522079D01*
X87243886Y-57445888D01*
X87281981Y-57293507D01*
X87281981Y-57179221D01*
X87243886Y-57026840D01*
X87205791Y-56950650D01*
X87129600Y-56874460D01*
X87015315Y-56836364D01*
X86939124Y-56836364D01*
X86824839Y-56874460D01*
X86786743Y-56912555D01*
X85986743Y-57560174D02*
X86024839Y-57598269D01*
X86139124Y-57636364D01*
X86215315Y-57636364D01*
X86329600Y-57598269D01*
X86405791Y-57522079D01*
X86443886Y-57445888D01*
X86481981Y-57293507D01*
X86481981Y-57179221D01*
X86443886Y-57026840D01*
X86405791Y-56950650D01*
X86329600Y-56874460D01*
X86215315Y-56836364D01*
X86139124Y-56836364D01*
X86024839Y-56874460D01*
X85986743Y-56912555D01*
X87243886Y-59757317D02*
X87510553Y-59757317D01*
X87510553Y-60176364D02*
X87510553Y-59376364D01*
X87129600Y-59376364D01*
X86481981Y-59643031D02*
X86481981Y-60176364D01*
X86672458Y-59338269D02*
X86862934Y-59909698D01*
X86367696Y-59909698D01*
X87301029Y-69917317D02*
X87186743Y-69955412D01*
X87148648Y-69993507D01*
X87110553Y-70069698D01*
X87110553Y-70183983D01*
X87148648Y-70260174D01*
X87186743Y-70298269D01*
X87262934Y-70336364D01*
X87567696Y-70336364D01*
X87567696Y-69536364D01*
X87301029Y-69536364D01*
X87224839Y-69574460D01*
X87186743Y-69612555D01*
X87148648Y-69688745D01*
X87148648Y-69764936D01*
X87186743Y-69841126D01*
X87224839Y-69879221D01*
X87301029Y-69917317D01*
X87567696Y-69917317D01*
X86348648Y-70336364D02*
X86805791Y-70336364D01*
X86577220Y-70336364D02*
X86577220Y-69536364D01*
X86653410Y-69650650D01*
X86729600Y-69726840D01*
X86805791Y-69764936D01*
X87301029Y-72457317D02*
X87186743Y-72495412D01*
X87148648Y-72533507D01*
X87110553Y-72609698D01*
X87110553Y-72723983D01*
X87148648Y-72800174D01*
X87186743Y-72838269D01*
X87262934Y-72876364D01*
X87567696Y-72876364D01*
X87567696Y-72076364D01*
X87301029Y-72076364D01*
X87224839Y-72114460D01*
X87186743Y-72152555D01*
X87148648Y-72228745D01*
X87148648Y-72304936D01*
X87186743Y-72381126D01*
X87224839Y-72419221D01*
X87301029Y-72457317D01*
X87567696Y-72457317D01*
X86843886Y-72076364D02*
X86348648Y-72076364D01*
X86615315Y-72381126D01*
X86501029Y-72381126D01*
X86424839Y-72419221D01*
X86386743Y-72457317D01*
X86348648Y-72533507D01*
X86348648Y-72723983D01*
X86386743Y-72800174D01*
X86424839Y-72838269D01*
X86501029Y-72876364D01*
X86729600Y-72876364D01*
X86805791Y-72838269D01*
X86843886Y-72800174D01*
X75351922Y-76489451D02*
X75257641Y-76442311D01*
X75210500Y-76442311D01*
X75139790Y-76465881D01*
X75069079Y-76536592D01*
X75045509Y-76607302D01*
X75045509Y-76654443D01*
X75069079Y-76725153D01*
X75257641Y-76913715D01*
X75752616Y-76418740D01*
X75587624Y-76253749D01*
X75516913Y-76230179D01*
X75469773Y-76230179D01*
X75399062Y-76253749D01*
X75351922Y-76300889D01*
X75328352Y-76371600D01*
X75328352Y-76418740D01*
X75351922Y-76489451D01*
X75516913Y-76654443D01*
X75021939Y-75688063D02*
X75257641Y-75923766D01*
X75045509Y-76183038D01*
X75045509Y-76135898D01*
X75021939Y-76065187D01*
X74904087Y-75947336D01*
X74833377Y-75923766D01*
X74786236Y-75923766D01*
X74715526Y-75947336D01*
X74597675Y-76065187D01*
X74574104Y-76135898D01*
X74574104Y-76183038D01*
X74597675Y-76253749D01*
X74715526Y-76371600D01*
X74786236Y-76395170D01*
X74833377Y-76395170D01*
X76379029Y-74997317D02*
X76264743Y-75035412D01*
X76226648Y-75073507D01*
X76188553Y-75149698D01*
X76188553Y-75263983D01*
X76226648Y-75340174D01*
X76264743Y-75378269D01*
X76340934Y-75416364D01*
X76645696Y-75416364D01*
X76645696Y-74616364D01*
X76379029Y-74616364D01*
X76302839Y-74654460D01*
X76264743Y-74692555D01*
X76226648Y-74768745D01*
X76226648Y-74844936D01*
X76264743Y-74921126D01*
X76302839Y-74959221D01*
X76379029Y-74997317D01*
X76645696Y-74997317D01*
X75502839Y-74883031D02*
X75502839Y-75416364D01*
X75693315Y-74578269D02*
X75883791Y-75149698D01*
X75388553Y-75149698D01*
X76607600Y-72457317D02*
X76340934Y-72457317D01*
X76226648Y-72876364D02*
X76607600Y-72876364D01*
X76607600Y-72076364D01*
X76226648Y-72076364D01*
X75540934Y-72076364D02*
X75693315Y-72076364D01*
X75769505Y-72114460D01*
X75807600Y-72152555D01*
X75883791Y-72266840D01*
X75921886Y-72419221D01*
X75921886Y-72723983D01*
X75883791Y-72800174D01*
X75845696Y-72838269D01*
X75769505Y-72876364D01*
X75617124Y-72876364D01*
X75540934Y-72838269D01*
X75502839Y-72800174D01*
X75464743Y-72723983D01*
X75464743Y-72533507D01*
X75502839Y-72457317D01*
X75540934Y-72419221D01*
X75617124Y-72381126D01*
X75769505Y-72381126D01*
X75845696Y-72419221D01*
X75883791Y-72457317D01*
X75921886Y-72533507D01*
X76645696Y-70336364D02*
X76645696Y-69536364D01*
X76455220Y-69536364D01*
X76340934Y-69574460D01*
X76264743Y-69650650D01*
X76226648Y-69726840D01*
X76188553Y-69879221D01*
X76188553Y-69993507D01*
X76226648Y-70145888D01*
X76264743Y-70222079D01*
X76340934Y-70298269D01*
X76455220Y-70336364D01*
X76645696Y-70336364D01*
X75921886Y-69536364D02*
X75388553Y-69536364D01*
X75731410Y-70336364D01*
X76188553Y-67720174D02*
X76226648Y-67758269D01*
X76340934Y-67796364D01*
X76417124Y-67796364D01*
X76531410Y-67758269D01*
X76607600Y-67682079D01*
X76645696Y-67605888D01*
X76683791Y-67453507D01*
X76683791Y-67339221D01*
X76645696Y-67186840D01*
X76607600Y-67110650D01*
X76531410Y-67034460D01*
X76417124Y-66996364D01*
X76340934Y-66996364D01*
X76226648Y-67034460D01*
X76188553Y-67072555D01*
X75502839Y-66996364D02*
X75655220Y-66996364D01*
X75731410Y-67034460D01*
X75769505Y-67072555D01*
X75845696Y-67186840D01*
X75883791Y-67339221D01*
X75883791Y-67643983D01*
X75845696Y-67720174D01*
X75807600Y-67758269D01*
X75731410Y-67796364D01*
X75579029Y-67796364D01*
X75502839Y-67758269D01*
X75464743Y-67720174D01*
X75426648Y-67643983D01*
X75426648Y-67453507D01*
X75464743Y-67377317D01*
X75502839Y-67339221D01*
X75579029Y-67301126D01*
X75731410Y-67301126D01*
X75807600Y-67339221D01*
X75845696Y-67377317D01*
X75883791Y-67453507D01*
X76645696Y-65256364D02*
X76645696Y-64456364D01*
X76455220Y-64456364D01*
X76340934Y-64494460D01*
X76264743Y-64570650D01*
X76226648Y-64646840D01*
X76188553Y-64799221D01*
X76188553Y-64913507D01*
X76226648Y-65065888D01*
X76264743Y-65142079D01*
X76340934Y-65218269D01*
X76455220Y-65256364D01*
X76645696Y-65256364D01*
X75502839Y-64723031D02*
X75502839Y-65256364D01*
X75693315Y-64418269D02*
X75883791Y-64989698D01*
X75388553Y-64989698D01*
X76664743Y-54334460D02*
X76740934Y-54296364D01*
X76855220Y-54296364D01*
X76969505Y-54334460D01*
X77045696Y-54410650D01*
X77083791Y-54486840D01*
X77121886Y-54639221D01*
X77121886Y-54753507D01*
X77083791Y-54905888D01*
X77045696Y-54982079D01*
X76969505Y-55058269D01*
X76855220Y-55096364D01*
X76779029Y-55096364D01*
X76664743Y-55058269D01*
X76626648Y-55020174D01*
X76626648Y-54753507D01*
X76779029Y-54753507D01*
X76283791Y-55096364D02*
X76283791Y-54296364D01*
X75826648Y-55096364D01*
X75826648Y-54296364D01*
X75445696Y-55096364D02*
X75445696Y-54296364D01*
X75255220Y-54296364D01*
X75140934Y-54334460D01*
X75064743Y-54410650D01*
X75026648Y-54486840D01*
X74988553Y-54639221D01*
X74988553Y-54753507D01*
X75026648Y-54905888D01*
X75064743Y-54982079D01*
X75140934Y-55058269D01*
X75255220Y-55096364D01*
X75445696Y-55096364D01*
X76664743Y-56874460D02*
X76740934Y-56836364D01*
X76855220Y-56836364D01*
X76969505Y-56874460D01*
X77045696Y-56950650D01*
X77083791Y-57026840D01*
X77121886Y-57179221D01*
X77121886Y-57293507D01*
X77083791Y-57445888D01*
X77045696Y-57522079D01*
X76969505Y-57598269D01*
X76855220Y-57636364D01*
X76779029Y-57636364D01*
X76664743Y-57598269D01*
X76626648Y-57560174D01*
X76626648Y-57293507D01*
X76779029Y-57293507D01*
X76283791Y-57636364D02*
X76283791Y-56836364D01*
X75826648Y-57636364D01*
X75826648Y-56836364D01*
X75445696Y-57636364D02*
X75445696Y-56836364D01*
X75255220Y-56836364D01*
X75140934Y-56874460D01*
X75064743Y-56950650D01*
X75026648Y-57026840D01*
X74988553Y-57179221D01*
X74988553Y-57293507D01*
X75026648Y-57445888D01*
X75064743Y-57522079D01*
X75140934Y-57598269D01*
X75255220Y-57636364D01*
X75445696Y-57636364D01*
X76645696Y-60176364D02*
X76645696Y-59376364D01*
X76455220Y-59376364D01*
X76340934Y-59414460D01*
X76264743Y-59490650D01*
X76226648Y-59566840D01*
X76188553Y-59719221D01*
X76188553Y-59833507D01*
X76226648Y-59985888D01*
X76264743Y-60062079D01*
X76340934Y-60138269D01*
X76455220Y-60176364D01*
X76645696Y-60176364D01*
X75426648Y-60176364D02*
X75883791Y-60176364D01*
X75655220Y-60176364D02*
X75655220Y-59376364D01*
X75731410Y-59490650D01*
X75807600Y-59566840D01*
X75883791Y-59604936D01*
X76645696Y-62716364D02*
X76645696Y-61916364D01*
X76455220Y-61916364D01*
X76340934Y-61954460D01*
X76264743Y-62030650D01*
X76226648Y-62106840D01*
X76188553Y-62259221D01*
X76188553Y-62373507D01*
X76226648Y-62525888D01*
X76264743Y-62602079D01*
X76340934Y-62678269D01*
X76455220Y-62716364D01*
X76645696Y-62716364D01*
X75693315Y-61916364D02*
X75617124Y-61916364D01*
X75540934Y-61954460D01*
X75502839Y-61992555D01*
X75464743Y-62068745D01*
X75426648Y-62221126D01*
X75426648Y-62411602D01*
X75464743Y-62563983D01*
X75502839Y-62640174D01*
X75540934Y-62678269D01*
X75617124Y-62716364D01*
X75693315Y-62716364D01*
X75769505Y-62678269D01*
X75807600Y-62640174D01*
X75845696Y-62563983D01*
X75883791Y-62411602D01*
X75883791Y-62221126D01*
X75845696Y-62068745D01*
X75807600Y-61992555D01*
X75769505Y-61954460D01*
X75693315Y-61916364D01*
X76645696Y-52556364D02*
X76645696Y-51756364D01*
X76455220Y-51756364D01*
X76340934Y-51794460D01*
X76264743Y-51870650D01*
X76226648Y-51946840D01*
X76188553Y-52099221D01*
X76188553Y-52213507D01*
X76226648Y-52365888D01*
X76264743Y-52442079D01*
X76340934Y-52518269D01*
X76455220Y-52556364D01*
X76645696Y-52556364D01*
X75883791Y-51832555D02*
X75845696Y-51794460D01*
X75769505Y-51756364D01*
X75579029Y-51756364D01*
X75502839Y-51794460D01*
X75464743Y-51832555D01*
X75426648Y-51908745D01*
X75426648Y-51984936D01*
X75464743Y-52099221D01*
X75921886Y-52556364D01*
X75426648Y-52556364D01*
%TO.C,C1*%
X129682548Y-52537407D02*
X129682548Y-53299312D01*
X129682548Y-47457407D02*
X129682548Y-48219312D01*
X130063500Y-47838360D02*
X129301596Y-47838360D01*
%TD*%
M02*
