%TF.GenerationSoftware,KiCad,Pcbnew,(5.1.6)-1*%
%TF.CreationDate,2021-05-04T17:20:08-05:00*%
%TF.ProjectId,FlatDox,466c6174-446f-4782-9e6b-696361645f70,rev?*%
%TF.SameCoordinates,Original*%
%TF.FileFunction,Soldermask,Bot*%
%TF.FilePolarity,Negative*%
%FSLAX46Y46*%
G04 Gerber Fmt 4.6, Leading zero omitted, Abs format (unit mm)*
G04 Created by KiCad (PCBNEW (5.1.6)-1) date 2021-05-04 17:20:08*
%MOMM*%
%LPD*%
G01*
G04 APERTURE LIST*
%ADD10R,1.400000X2.100000*%
%ADD11C,0.100000*%
%ADD12C,3.100000*%
%ADD13C,1.800000*%
%ADD14C,2.000000*%
%ADD15C,4.450000*%
%ADD16R,2.000000X2.100000*%
%ADD17R,2.100000X2.100000*%
%ADD18R,1.751000X1.751000*%
%ADD19C,1.751000*%
%ADD20C,1.852600*%
%ADD21R,1.852600X1.852600*%
%ADD22C,2.100000*%
%ADD23R,2.100000X3.300000*%
%ADD24C,2.200000*%
%ADD25C,1.850000*%
%ADD26C,1.300000*%
%ADD27O,1.700000X2.300000*%
%ADD28C,1.600000*%
%ADD29C,1.400000*%
%ADD30C,1.100000*%
%ADD31R,0.999160X1.601140*%
G04 APERTURE END LIST*
D10*
%TO.C,SW15*%
X152159970Y-109820710D03*
X164859970Y-109820710D03*
D11*
G36*
X165314872Y-107230951D02*
G01*
X165324627Y-107231912D01*
X165334239Y-107233824D01*
X165343618Y-107236669D01*
X165352674Y-107240420D01*
X165361319Y-107245041D01*
X165369470Y-107250488D01*
X165377046Y-107256706D01*
X165383974Y-107263634D01*
X165390192Y-107271210D01*
X165395639Y-107279361D01*
X165400260Y-107288006D01*
X165404011Y-107297062D01*
X165406856Y-107306441D01*
X165408768Y-107316053D01*
X165409729Y-107325808D01*
X165409970Y-107330710D01*
X165409970Y-107730710D01*
X166059970Y-107730710D01*
X166069725Y-107731671D01*
X166079104Y-107734516D01*
X166087749Y-107739137D01*
X166095325Y-107745355D01*
X166101543Y-107752931D01*
X166106164Y-107761576D01*
X166109009Y-107770955D01*
X166109970Y-107780710D01*
X166109970Y-109280710D01*
X166109009Y-109290465D01*
X166106164Y-109299844D01*
X166101543Y-109308489D01*
X166095325Y-109316065D01*
X166087749Y-109322283D01*
X166079104Y-109326904D01*
X166069725Y-109329749D01*
X166059970Y-109330710D01*
X165409970Y-109330710D01*
X165409970Y-109730710D01*
X165409729Y-109735612D01*
X165408768Y-109745367D01*
X165406856Y-109754979D01*
X165404011Y-109764358D01*
X165400260Y-109773414D01*
X165395639Y-109782059D01*
X165390192Y-109790210D01*
X165383974Y-109797786D01*
X165377046Y-109804714D01*
X165369470Y-109810932D01*
X165361319Y-109816379D01*
X165352674Y-109821000D01*
X165343618Y-109824751D01*
X165334239Y-109827596D01*
X165324627Y-109829508D01*
X165314872Y-109830469D01*
X165309970Y-109830710D01*
X163409970Y-109830710D01*
X163405068Y-109830469D01*
X163395313Y-109829508D01*
X163385701Y-109827596D01*
X163376322Y-109824751D01*
X163365398Y-109819950D01*
X163353297Y-109812799D01*
X163347500Y-109808796D01*
X162847500Y-109408796D01*
X162843826Y-109405549D01*
X162836809Y-109398706D01*
X162830491Y-109391200D01*
X162824945Y-109383118D01*
X162820221Y-109374539D01*
X162816357Y-109365531D01*
X162813394Y-109356186D01*
X162811362Y-109346598D01*
X162810353Y-109338998D01*
X162810047Y-109333476D01*
X162809970Y-109330710D01*
X162809970Y-107330710D01*
X162810211Y-107325808D01*
X162811172Y-107316053D01*
X162813084Y-107306441D01*
X162815929Y-107297062D01*
X162819680Y-107288006D01*
X162824301Y-107279361D01*
X162829748Y-107271210D01*
X162835966Y-107263634D01*
X162842894Y-107256706D01*
X162850470Y-107250488D01*
X162858621Y-107245041D01*
X162867266Y-107240420D01*
X162876322Y-107236669D01*
X162885701Y-107233824D01*
X162895313Y-107231912D01*
X162905068Y-107230951D01*
X162909970Y-107230710D01*
X165309970Y-107230710D01*
X165314872Y-107230951D01*
G37*
G36*
X152714872Y-109830951D02*
G01*
X152724627Y-109831912D01*
X152734239Y-109833824D01*
X152743618Y-109836669D01*
X152752674Y-109840420D01*
X152761319Y-109845041D01*
X152769470Y-109850488D01*
X152777046Y-109856706D01*
X152783974Y-109863634D01*
X152790192Y-109871210D01*
X152795639Y-109879361D01*
X152800260Y-109888006D01*
X152804011Y-109897062D01*
X152806856Y-109906441D01*
X152808768Y-109916053D01*
X152809729Y-109925808D01*
X152809970Y-109930710D01*
X152809970Y-112330710D01*
X152809729Y-112335612D01*
X152808768Y-112345367D01*
X152806856Y-112354979D01*
X152804011Y-112364358D01*
X152800260Y-112373414D01*
X152795639Y-112382059D01*
X152790192Y-112390210D01*
X152783974Y-112397786D01*
X152777046Y-112404714D01*
X152769470Y-112410932D01*
X152761319Y-112416379D01*
X152752674Y-112421000D01*
X152743618Y-112424751D01*
X152734239Y-112427596D01*
X152724627Y-112429508D01*
X152714872Y-112430469D01*
X152709970Y-112430710D01*
X150309970Y-112430710D01*
X150305068Y-112430469D01*
X150295313Y-112429508D01*
X150285701Y-112427596D01*
X150276322Y-112424751D01*
X150267266Y-112421000D01*
X150258621Y-112416379D01*
X150250470Y-112410932D01*
X150242894Y-112404714D01*
X150235966Y-112397786D01*
X150229748Y-112390210D01*
X150224301Y-112382059D01*
X150219680Y-112373414D01*
X150215929Y-112364358D01*
X150213084Y-112354979D01*
X150211172Y-112345367D01*
X150210211Y-112335612D01*
X150209970Y-112330710D01*
X150209970Y-111930710D01*
X149659970Y-111930710D01*
X149650215Y-111929749D01*
X149640836Y-111926904D01*
X149632191Y-111922283D01*
X149624615Y-111916065D01*
X149618397Y-111908489D01*
X149613776Y-111899844D01*
X149610931Y-111890465D01*
X149609970Y-111880710D01*
X149609970Y-110380710D01*
X149610931Y-110370955D01*
X149613776Y-110361576D01*
X149618397Y-110352931D01*
X149624615Y-110345355D01*
X149632191Y-110339137D01*
X149640836Y-110334516D01*
X149650215Y-110331671D01*
X149659970Y-110330710D01*
X150209970Y-110330710D01*
X150209970Y-109930710D01*
X150210211Y-109925808D01*
X150211172Y-109916053D01*
X150213084Y-109906441D01*
X150215929Y-109897062D01*
X150219680Y-109888006D01*
X150224301Y-109879361D01*
X150229748Y-109871210D01*
X150235966Y-109863634D01*
X150242894Y-109856706D01*
X150250470Y-109850488D01*
X150258621Y-109845041D01*
X150267266Y-109840420D01*
X150276322Y-109836669D01*
X150285701Y-109833824D01*
X150295313Y-109831912D01*
X150305068Y-109830951D01*
X150309970Y-109830710D01*
X152709970Y-109830710D01*
X152714872Y-109830951D01*
G37*
D12*
X154699970Y-111090709D03*
D13*
X153429970Y-113630710D03*
X163589970Y-113630710D03*
D14*
X164009970Y-113630710D03*
X153009970Y-113630710D03*
D15*
X158509970Y-113630710D03*
D12*
X161049970Y-108550710D03*
X158509970Y-119530710D03*
X153509970Y-117330710D03*
D16*
X161309970Y-119530710D03*
D17*
X150409970Y-117330710D03*
D12*
X163509970Y-117330710D03*
X155969970Y-108550710D03*
X162319970Y-111090710D03*
%TD*%
D10*
%TO.C,SW9*%
X133109970Y-90770710D03*
X145809970Y-90770710D03*
D11*
G36*
X146264872Y-88180951D02*
G01*
X146274627Y-88181912D01*
X146284239Y-88183824D01*
X146293618Y-88186669D01*
X146302674Y-88190420D01*
X146311319Y-88195041D01*
X146319470Y-88200488D01*
X146327046Y-88206706D01*
X146333974Y-88213634D01*
X146340192Y-88221210D01*
X146345639Y-88229361D01*
X146350260Y-88238006D01*
X146354011Y-88247062D01*
X146356856Y-88256441D01*
X146358768Y-88266053D01*
X146359729Y-88275808D01*
X146359970Y-88280710D01*
X146359970Y-88680710D01*
X147009970Y-88680710D01*
X147019725Y-88681671D01*
X147029104Y-88684516D01*
X147037749Y-88689137D01*
X147045325Y-88695355D01*
X147051543Y-88702931D01*
X147056164Y-88711576D01*
X147059009Y-88720955D01*
X147059970Y-88730710D01*
X147059970Y-90230710D01*
X147059009Y-90240465D01*
X147056164Y-90249844D01*
X147051543Y-90258489D01*
X147045325Y-90266065D01*
X147037749Y-90272283D01*
X147029104Y-90276904D01*
X147019725Y-90279749D01*
X147009970Y-90280710D01*
X146359970Y-90280710D01*
X146359970Y-90680710D01*
X146359729Y-90685612D01*
X146358768Y-90695367D01*
X146356856Y-90704979D01*
X146354011Y-90714358D01*
X146350260Y-90723414D01*
X146345639Y-90732059D01*
X146340192Y-90740210D01*
X146333974Y-90747786D01*
X146327046Y-90754714D01*
X146319470Y-90760932D01*
X146311319Y-90766379D01*
X146302674Y-90771000D01*
X146293618Y-90774751D01*
X146284239Y-90777596D01*
X146274627Y-90779508D01*
X146264872Y-90780469D01*
X146259970Y-90780710D01*
X144359970Y-90780710D01*
X144355068Y-90780469D01*
X144345313Y-90779508D01*
X144335701Y-90777596D01*
X144326322Y-90774751D01*
X144315398Y-90769950D01*
X144303297Y-90762799D01*
X144297500Y-90758796D01*
X143797500Y-90358796D01*
X143793826Y-90355549D01*
X143786809Y-90348706D01*
X143780491Y-90341200D01*
X143774945Y-90333118D01*
X143770221Y-90324539D01*
X143766357Y-90315531D01*
X143763394Y-90306186D01*
X143761362Y-90296598D01*
X143760353Y-90288998D01*
X143760047Y-90283476D01*
X143759970Y-90280710D01*
X143759970Y-88280710D01*
X143760211Y-88275808D01*
X143761172Y-88266053D01*
X143763084Y-88256441D01*
X143765929Y-88247062D01*
X143769680Y-88238006D01*
X143774301Y-88229361D01*
X143779748Y-88221210D01*
X143785966Y-88213634D01*
X143792894Y-88206706D01*
X143800470Y-88200488D01*
X143808621Y-88195041D01*
X143817266Y-88190420D01*
X143826322Y-88186669D01*
X143835701Y-88183824D01*
X143845313Y-88181912D01*
X143855068Y-88180951D01*
X143859970Y-88180710D01*
X146259970Y-88180710D01*
X146264872Y-88180951D01*
G37*
G36*
X133664872Y-90780951D02*
G01*
X133674627Y-90781912D01*
X133684239Y-90783824D01*
X133693618Y-90786669D01*
X133702674Y-90790420D01*
X133711319Y-90795041D01*
X133719470Y-90800488D01*
X133727046Y-90806706D01*
X133733974Y-90813634D01*
X133740192Y-90821210D01*
X133745639Y-90829361D01*
X133750260Y-90838006D01*
X133754011Y-90847062D01*
X133756856Y-90856441D01*
X133758768Y-90866053D01*
X133759729Y-90875808D01*
X133759970Y-90880710D01*
X133759970Y-93280710D01*
X133759729Y-93285612D01*
X133758768Y-93295367D01*
X133756856Y-93304979D01*
X133754011Y-93314358D01*
X133750260Y-93323414D01*
X133745639Y-93332059D01*
X133740192Y-93340210D01*
X133733974Y-93347786D01*
X133727046Y-93354714D01*
X133719470Y-93360932D01*
X133711319Y-93366379D01*
X133702674Y-93371000D01*
X133693618Y-93374751D01*
X133684239Y-93377596D01*
X133674627Y-93379508D01*
X133664872Y-93380469D01*
X133659970Y-93380710D01*
X131259970Y-93380710D01*
X131255068Y-93380469D01*
X131245313Y-93379508D01*
X131235701Y-93377596D01*
X131226322Y-93374751D01*
X131217266Y-93371000D01*
X131208621Y-93366379D01*
X131200470Y-93360932D01*
X131192894Y-93354714D01*
X131185966Y-93347786D01*
X131179748Y-93340210D01*
X131174301Y-93332059D01*
X131169680Y-93323414D01*
X131165929Y-93314358D01*
X131163084Y-93304979D01*
X131161172Y-93295367D01*
X131160211Y-93285612D01*
X131159970Y-93280710D01*
X131159970Y-92880710D01*
X130609970Y-92880710D01*
X130600215Y-92879749D01*
X130590836Y-92876904D01*
X130582191Y-92872283D01*
X130574615Y-92866065D01*
X130568397Y-92858489D01*
X130563776Y-92849844D01*
X130560931Y-92840465D01*
X130559970Y-92830710D01*
X130559970Y-91330710D01*
X130560931Y-91320955D01*
X130563776Y-91311576D01*
X130568397Y-91302931D01*
X130574615Y-91295355D01*
X130582191Y-91289137D01*
X130590836Y-91284516D01*
X130600215Y-91281671D01*
X130609970Y-91280710D01*
X131159970Y-91280710D01*
X131159970Y-90880710D01*
X131160211Y-90875808D01*
X131161172Y-90866053D01*
X131163084Y-90856441D01*
X131165929Y-90847062D01*
X131169680Y-90838006D01*
X131174301Y-90829361D01*
X131179748Y-90821210D01*
X131185966Y-90813634D01*
X131192894Y-90806706D01*
X131200470Y-90800488D01*
X131208621Y-90795041D01*
X131217266Y-90790420D01*
X131226322Y-90786669D01*
X131235701Y-90783824D01*
X131245313Y-90781912D01*
X131255068Y-90780951D01*
X131259970Y-90780710D01*
X133659970Y-90780710D01*
X133664872Y-90780951D01*
G37*
D12*
X135649970Y-92040709D03*
D13*
X134379970Y-94580710D03*
X144539970Y-94580710D03*
D14*
X144959970Y-94580710D03*
X133959970Y-94580710D03*
D15*
X139459970Y-94580710D03*
D12*
X141999970Y-89500710D03*
X139459970Y-100480710D03*
X134459970Y-98280710D03*
D16*
X142259970Y-100480710D03*
D17*
X131359970Y-98280710D03*
D12*
X144459970Y-98280710D03*
X136919970Y-89500710D03*
X143269970Y-92040710D03*
%TD*%
D10*
%TO.C,SW17*%
X123584970Y-128870710D03*
X136284970Y-128870710D03*
D11*
G36*
X136739872Y-126280951D02*
G01*
X136749627Y-126281912D01*
X136759239Y-126283824D01*
X136768618Y-126286669D01*
X136777674Y-126290420D01*
X136786319Y-126295041D01*
X136794470Y-126300488D01*
X136802046Y-126306706D01*
X136808974Y-126313634D01*
X136815192Y-126321210D01*
X136820639Y-126329361D01*
X136825260Y-126338006D01*
X136829011Y-126347062D01*
X136831856Y-126356441D01*
X136833768Y-126366053D01*
X136834729Y-126375808D01*
X136834970Y-126380710D01*
X136834970Y-126780710D01*
X137484970Y-126780710D01*
X137494725Y-126781671D01*
X137504104Y-126784516D01*
X137512749Y-126789137D01*
X137520325Y-126795355D01*
X137526543Y-126802931D01*
X137531164Y-126811576D01*
X137534009Y-126820955D01*
X137534970Y-126830710D01*
X137534970Y-128330710D01*
X137534009Y-128340465D01*
X137531164Y-128349844D01*
X137526543Y-128358489D01*
X137520325Y-128366065D01*
X137512749Y-128372283D01*
X137504104Y-128376904D01*
X137494725Y-128379749D01*
X137484970Y-128380710D01*
X136834970Y-128380710D01*
X136834970Y-128780710D01*
X136834729Y-128785612D01*
X136833768Y-128795367D01*
X136831856Y-128804979D01*
X136829011Y-128814358D01*
X136825260Y-128823414D01*
X136820639Y-128832059D01*
X136815192Y-128840210D01*
X136808974Y-128847786D01*
X136802046Y-128854714D01*
X136794470Y-128860932D01*
X136786319Y-128866379D01*
X136777674Y-128871000D01*
X136768618Y-128874751D01*
X136759239Y-128877596D01*
X136749627Y-128879508D01*
X136739872Y-128880469D01*
X136734970Y-128880710D01*
X134834970Y-128880710D01*
X134830068Y-128880469D01*
X134820313Y-128879508D01*
X134810701Y-128877596D01*
X134801322Y-128874751D01*
X134790398Y-128869950D01*
X134778297Y-128862799D01*
X134772500Y-128858796D01*
X134272500Y-128458796D01*
X134268826Y-128455549D01*
X134261809Y-128448706D01*
X134255491Y-128441200D01*
X134249945Y-128433118D01*
X134245221Y-128424539D01*
X134241357Y-128415531D01*
X134238394Y-128406186D01*
X134236362Y-128396598D01*
X134235353Y-128388998D01*
X134235047Y-128383476D01*
X134234970Y-128380710D01*
X134234970Y-126380710D01*
X134235211Y-126375808D01*
X134236172Y-126366053D01*
X134238084Y-126356441D01*
X134240929Y-126347062D01*
X134244680Y-126338006D01*
X134249301Y-126329361D01*
X134254748Y-126321210D01*
X134260966Y-126313634D01*
X134267894Y-126306706D01*
X134275470Y-126300488D01*
X134283621Y-126295041D01*
X134292266Y-126290420D01*
X134301322Y-126286669D01*
X134310701Y-126283824D01*
X134320313Y-126281912D01*
X134330068Y-126280951D01*
X134334970Y-126280710D01*
X136734970Y-126280710D01*
X136739872Y-126280951D01*
G37*
G36*
X124139872Y-128880951D02*
G01*
X124149627Y-128881912D01*
X124159239Y-128883824D01*
X124168618Y-128886669D01*
X124177674Y-128890420D01*
X124186319Y-128895041D01*
X124194470Y-128900488D01*
X124202046Y-128906706D01*
X124208974Y-128913634D01*
X124215192Y-128921210D01*
X124220639Y-128929361D01*
X124225260Y-128938006D01*
X124229011Y-128947062D01*
X124231856Y-128956441D01*
X124233768Y-128966053D01*
X124234729Y-128975808D01*
X124234970Y-128980710D01*
X124234970Y-131380710D01*
X124234729Y-131385612D01*
X124233768Y-131395367D01*
X124231856Y-131404979D01*
X124229011Y-131414358D01*
X124225260Y-131423414D01*
X124220639Y-131432059D01*
X124215192Y-131440210D01*
X124208974Y-131447786D01*
X124202046Y-131454714D01*
X124194470Y-131460932D01*
X124186319Y-131466379D01*
X124177674Y-131471000D01*
X124168618Y-131474751D01*
X124159239Y-131477596D01*
X124149627Y-131479508D01*
X124139872Y-131480469D01*
X124134970Y-131480710D01*
X121734970Y-131480710D01*
X121730068Y-131480469D01*
X121720313Y-131479508D01*
X121710701Y-131477596D01*
X121701322Y-131474751D01*
X121692266Y-131471000D01*
X121683621Y-131466379D01*
X121675470Y-131460932D01*
X121667894Y-131454714D01*
X121660966Y-131447786D01*
X121654748Y-131440210D01*
X121649301Y-131432059D01*
X121644680Y-131423414D01*
X121640929Y-131414358D01*
X121638084Y-131404979D01*
X121636172Y-131395367D01*
X121635211Y-131385612D01*
X121634970Y-131380710D01*
X121634970Y-130980710D01*
X121084970Y-130980710D01*
X121075215Y-130979749D01*
X121065836Y-130976904D01*
X121057191Y-130972283D01*
X121049615Y-130966065D01*
X121043397Y-130958489D01*
X121038776Y-130949844D01*
X121035931Y-130940465D01*
X121034970Y-130930710D01*
X121034970Y-129430710D01*
X121035931Y-129420955D01*
X121038776Y-129411576D01*
X121043397Y-129402931D01*
X121049615Y-129395355D01*
X121057191Y-129389137D01*
X121065836Y-129384516D01*
X121075215Y-129381671D01*
X121084970Y-129380710D01*
X121634970Y-129380710D01*
X121634970Y-128980710D01*
X121635211Y-128975808D01*
X121636172Y-128966053D01*
X121638084Y-128956441D01*
X121640929Y-128947062D01*
X121644680Y-128938006D01*
X121649301Y-128929361D01*
X121654748Y-128921210D01*
X121660966Y-128913634D01*
X121667894Y-128906706D01*
X121675470Y-128900488D01*
X121683621Y-128895041D01*
X121692266Y-128890420D01*
X121701322Y-128886669D01*
X121710701Y-128883824D01*
X121720313Y-128881912D01*
X121730068Y-128880951D01*
X121734970Y-128880710D01*
X124134970Y-128880710D01*
X124139872Y-128880951D01*
G37*
D12*
X126124970Y-130140709D03*
D13*
X124854970Y-132680710D03*
X135014970Y-132680710D03*
D14*
X135434970Y-132680710D03*
X124434970Y-132680710D03*
D15*
X129934970Y-132680710D03*
D12*
X132474970Y-127600710D03*
X129934970Y-138580710D03*
X124934970Y-136380710D03*
D16*
X132734970Y-138580710D03*
D17*
X121834970Y-136380710D03*
D12*
X134934970Y-136380710D03*
X127394970Y-127600710D03*
X133744970Y-130140710D03*
%TD*%
D10*
%TO.C,SW8*%
X114059970Y-81245710D03*
X126759970Y-81245710D03*
D11*
G36*
X127214872Y-78655951D02*
G01*
X127224627Y-78656912D01*
X127234239Y-78658824D01*
X127243618Y-78661669D01*
X127252674Y-78665420D01*
X127261319Y-78670041D01*
X127269470Y-78675488D01*
X127277046Y-78681706D01*
X127283974Y-78688634D01*
X127290192Y-78696210D01*
X127295639Y-78704361D01*
X127300260Y-78713006D01*
X127304011Y-78722062D01*
X127306856Y-78731441D01*
X127308768Y-78741053D01*
X127309729Y-78750808D01*
X127309970Y-78755710D01*
X127309970Y-79155710D01*
X127959970Y-79155710D01*
X127969725Y-79156671D01*
X127979104Y-79159516D01*
X127987749Y-79164137D01*
X127995325Y-79170355D01*
X128001543Y-79177931D01*
X128006164Y-79186576D01*
X128009009Y-79195955D01*
X128009970Y-79205710D01*
X128009970Y-80705710D01*
X128009009Y-80715465D01*
X128006164Y-80724844D01*
X128001543Y-80733489D01*
X127995325Y-80741065D01*
X127987749Y-80747283D01*
X127979104Y-80751904D01*
X127969725Y-80754749D01*
X127959970Y-80755710D01*
X127309970Y-80755710D01*
X127309970Y-81155710D01*
X127309729Y-81160612D01*
X127308768Y-81170367D01*
X127306856Y-81179979D01*
X127304011Y-81189358D01*
X127300260Y-81198414D01*
X127295639Y-81207059D01*
X127290192Y-81215210D01*
X127283974Y-81222786D01*
X127277046Y-81229714D01*
X127269470Y-81235932D01*
X127261319Y-81241379D01*
X127252674Y-81246000D01*
X127243618Y-81249751D01*
X127234239Y-81252596D01*
X127224627Y-81254508D01*
X127214872Y-81255469D01*
X127209970Y-81255710D01*
X125309970Y-81255710D01*
X125305068Y-81255469D01*
X125295313Y-81254508D01*
X125285701Y-81252596D01*
X125276322Y-81249751D01*
X125265398Y-81244950D01*
X125253297Y-81237799D01*
X125247500Y-81233796D01*
X124747500Y-80833796D01*
X124743826Y-80830549D01*
X124736809Y-80823706D01*
X124730491Y-80816200D01*
X124724945Y-80808118D01*
X124720221Y-80799539D01*
X124716357Y-80790531D01*
X124713394Y-80781186D01*
X124711362Y-80771598D01*
X124710353Y-80763998D01*
X124710047Y-80758476D01*
X124709970Y-80755710D01*
X124709970Y-78755710D01*
X124710211Y-78750808D01*
X124711172Y-78741053D01*
X124713084Y-78731441D01*
X124715929Y-78722062D01*
X124719680Y-78713006D01*
X124724301Y-78704361D01*
X124729748Y-78696210D01*
X124735966Y-78688634D01*
X124742894Y-78681706D01*
X124750470Y-78675488D01*
X124758621Y-78670041D01*
X124767266Y-78665420D01*
X124776322Y-78661669D01*
X124785701Y-78658824D01*
X124795313Y-78656912D01*
X124805068Y-78655951D01*
X124809970Y-78655710D01*
X127209970Y-78655710D01*
X127214872Y-78655951D01*
G37*
G36*
X114614872Y-81255951D02*
G01*
X114624627Y-81256912D01*
X114634239Y-81258824D01*
X114643618Y-81261669D01*
X114652674Y-81265420D01*
X114661319Y-81270041D01*
X114669470Y-81275488D01*
X114677046Y-81281706D01*
X114683974Y-81288634D01*
X114690192Y-81296210D01*
X114695639Y-81304361D01*
X114700260Y-81313006D01*
X114704011Y-81322062D01*
X114706856Y-81331441D01*
X114708768Y-81341053D01*
X114709729Y-81350808D01*
X114709970Y-81355710D01*
X114709970Y-83755710D01*
X114709729Y-83760612D01*
X114708768Y-83770367D01*
X114706856Y-83779979D01*
X114704011Y-83789358D01*
X114700260Y-83798414D01*
X114695639Y-83807059D01*
X114690192Y-83815210D01*
X114683974Y-83822786D01*
X114677046Y-83829714D01*
X114669470Y-83835932D01*
X114661319Y-83841379D01*
X114652674Y-83846000D01*
X114643618Y-83849751D01*
X114634239Y-83852596D01*
X114624627Y-83854508D01*
X114614872Y-83855469D01*
X114609970Y-83855710D01*
X112209970Y-83855710D01*
X112205068Y-83855469D01*
X112195313Y-83854508D01*
X112185701Y-83852596D01*
X112176322Y-83849751D01*
X112167266Y-83846000D01*
X112158621Y-83841379D01*
X112150470Y-83835932D01*
X112142894Y-83829714D01*
X112135966Y-83822786D01*
X112129748Y-83815210D01*
X112124301Y-83807059D01*
X112119680Y-83798414D01*
X112115929Y-83789358D01*
X112113084Y-83779979D01*
X112111172Y-83770367D01*
X112110211Y-83760612D01*
X112109970Y-83755710D01*
X112109970Y-83355710D01*
X111559970Y-83355710D01*
X111550215Y-83354749D01*
X111540836Y-83351904D01*
X111532191Y-83347283D01*
X111524615Y-83341065D01*
X111518397Y-83333489D01*
X111513776Y-83324844D01*
X111510931Y-83315465D01*
X111509970Y-83305710D01*
X111509970Y-81805710D01*
X111510931Y-81795955D01*
X111513776Y-81786576D01*
X111518397Y-81777931D01*
X111524615Y-81770355D01*
X111532191Y-81764137D01*
X111540836Y-81759516D01*
X111550215Y-81756671D01*
X111559970Y-81755710D01*
X112109970Y-81755710D01*
X112109970Y-81355710D01*
X112110211Y-81350808D01*
X112111172Y-81341053D01*
X112113084Y-81331441D01*
X112115929Y-81322062D01*
X112119680Y-81313006D01*
X112124301Y-81304361D01*
X112129748Y-81296210D01*
X112135966Y-81288634D01*
X112142894Y-81281706D01*
X112150470Y-81275488D01*
X112158621Y-81270041D01*
X112167266Y-81265420D01*
X112176322Y-81261669D01*
X112185701Y-81258824D01*
X112195313Y-81256912D01*
X112205068Y-81255951D01*
X112209970Y-81255710D01*
X114609970Y-81255710D01*
X114614872Y-81255951D01*
G37*
D12*
X116599970Y-82515709D03*
D13*
X115329970Y-85055710D03*
X125489970Y-85055710D03*
D14*
X125909970Y-85055710D03*
X114909970Y-85055710D03*
D15*
X120409970Y-85055710D03*
D12*
X122949970Y-79975710D03*
X120409970Y-90955710D03*
X115409970Y-88755710D03*
D16*
X123209970Y-90955710D03*
D17*
X112309970Y-88755710D03*
D12*
X125409970Y-88755710D03*
X117869970Y-79975710D03*
X124219970Y-82515710D03*
%TD*%
D10*
%TO.C,SW4*%
X133109970Y-71720710D03*
X145809970Y-71720710D03*
D11*
G36*
X146264872Y-69130951D02*
G01*
X146274627Y-69131912D01*
X146284239Y-69133824D01*
X146293618Y-69136669D01*
X146302674Y-69140420D01*
X146311319Y-69145041D01*
X146319470Y-69150488D01*
X146327046Y-69156706D01*
X146333974Y-69163634D01*
X146340192Y-69171210D01*
X146345639Y-69179361D01*
X146350260Y-69188006D01*
X146354011Y-69197062D01*
X146356856Y-69206441D01*
X146358768Y-69216053D01*
X146359729Y-69225808D01*
X146359970Y-69230710D01*
X146359970Y-69630710D01*
X147009970Y-69630710D01*
X147019725Y-69631671D01*
X147029104Y-69634516D01*
X147037749Y-69639137D01*
X147045325Y-69645355D01*
X147051543Y-69652931D01*
X147056164Y-69661576D01*
X147059009Y-69670955D01*
X147059970Y-69680710D01*
X147059970Y-71180710D01*
X147059009Y-71190465D01*
X147056164Y-71199844D01*
X147051543Y-71208489D01*
X147045325Y-71216065D01*
X147037749Y-71222283D01*
X147029104Y-71226904D01*
X147019725Y-71229749D01*
X147009970Y-71230710D01*
X146359970Y-71230710D01*
X146359970Y-71630710D01*
X146359729Y-71635612D01*
X146358768Y-71645367D01*
X146356856Y-71654979D01*
X146354011Y-71664358D01*
X146350260Y-71673414D01*
X146345639Y-71682059D01*
X146340192Y-71690210D01*
X146333974Y-71697786D01*
X146327046Y-71704714D01*
X146319470Y-71710932D01*
X146311319Y-71716379D01*
X146302674Y-71721000D01*
X146293618Y-71724751D01*
X146284239Y-71727596D01*
X146274627Y-71729508D01*
X146264872Y-71730469D01*
X146259970Y-71730710D01*
X144359970Y-71730710D01*
X144355068Y-71730469D01*
X144345313Y-71729508D01*
X144335701Y-71727596D01*
X144326322Y-71724751D01*
X144315398Y-71719950D01*
X144303297Y-71712799D01*
X144297500Y-71708796D01*
X143797500Y-71308796D01*
X143793826Y-71305549D01*
X143786809Y-71298706D01*
X143780491Y-71291200D01*
X143774945Y-71283118D01*
X143770221Y-71274539D01*
X143766357Y-71265531D01*
X143763394Y-71256186D01*
X143761362Y-71246598D01*
X143760353Y-71238998D01*
X143760047Y-71233476D01*
X143759970Y-71230710D01*
X143759970Y-69230710D01*
X143760211Y-69225808D01*
X143761172Y-69216053D01*
X143763084Y-69206441D01*
X143765929Y-69197062D01*
X143769680Y-69188006D01*
X143774301Y-69179361D01*
X143779748Y-69171210D01*
X143785966Y-69163634D01*
X143792894Y-69156706D01*
X143800470Y-69150488D01*
X143808621Y-69145041D01*
X143817266Y-69140420D01*
X143826322Y-69136669D01*
X143835701Y-69133824D01*
X143845313Y-69131912D01*
X143855068Y-69130951D01*
X143859970Y-69130710D01*
X146259970Y-69130710D01*
X146264872Y-69130951D01*
G37*
G36*
X133664872Y-71730951D02*
G01*
X133674627Y-71731912D01*
X133684239Y-71733824D01*
X133693618Y-71736669D01*
X133702674Y-71740420D01*
X133711319Y-71745041D01*
X133719470Y-71750488D01*
X133727046Y-71756706D01*
X133733974Y-71763634D01*
X133740192Y-71771210D01*
X133745639Y-71779361D01*
X133750260Y-71788006D01*
X133754011Y-71797062D01*
X133756856Y-71806441D01*
X133758768Y-71816053D01*
X133759729Y-71825808D01*
X133759970Y-71830710D01*
X133759970Y-74230710D01*
X133759729Y-74235612D01*
X133758768Y-74245367D01*
X133756856Y-74254979D01*
X133754011Y-74264358D01*
X133750260Y-74273414D01*
X133745639Y-74282059D01*
X133740192Y-74290210D01*
X133733974Y-74297786D01*
X133727046Y-74304714D01*
X133719470Y-74310932D01*
X133711319Y-74316379D01*
X133702674Y-74321000D01*
X133693618Y-74324751D01*
X133684239Y-74327596D01*
X133674627Y-74329508D01*
X133664872Y-74330469D01*
X133659970Y-74330710D01*
X131259970Y-74330710D01*
X131255068Y-74330469D01*
X131245313Y-74329508D01*
X131235701Y-74327596D01*
X131226322Y-74324751D01*
X131217266Y-74321000D01*
X131208621Y-74316379D01*
X131200470Y-74310932D01*
X131192894Y-74304714D01*
X131185966Y-74297786D01*
X131179748Y-74290210D01*
X131174301Y-74282059D01*
X131169680Y-74273414D01*
X131165929Y-74264358D01*
X131163084Y-74254979D01*
X131161172Y-74245367D01*
X131160211Y-74235612D01*
X131159970Y-74230710D01*
X131159970Y-73830710D01*
X130609970Y-73830710D01*
X130600215Y-73829749D01*
X130590836Y-73826904D01*
X130582191Y-73822283D01*
X130574615Y-73816065D01*
X130568397Y-73808489D01*
X130563776Y-73799844D01*
X130560931Y-73790465D01*
X130559970Y-73780710D01*
X130559970Y-72280710D01*
X130560931Y-72270955D01*
X130563776Y-72261576D01*
X130568397Y-72252931D01*
X130574615Y-72245355D01*
X130582191Y-72239137D01*
X130590836Y-72234516D01*
X130600215Y-72231671D01*
X130609970Y-72230710D01*
X131159970Y-72230710D01*
X131159970Y-71830710D01*
X131160211Y-71825808D01*
X131161172Y-71816053D01*
X131163084Y-71806441D01*
X131165929Y-71797062D01*
X131169680Y-71788006D01*
X131174301Y-71779361D01*
X131179748Y-71771210D01*
X131185966Y-71763634D01*
X131192894Y-71756706D01*
X131200470Y-71750488D01*
X131208621Y-71745041D01*
X131217266Y-71740420D01*
X131226322Y-71736669D01*
X131235701Y-71733824D01*
X131245313Y-71731912D01*
X131255068Y-71730951D01*
X131259970Y-71730710D01*
X133659970Y-71730710D01*
X133664872Y-71730951D01*
G37*
D12*
X135649970Y-72990709D03*
D13*
X134379970Y-75530710D03*
X144539970Y-75530710D03*
D14*
X144959970Y-75530710D03*
X133959970Y-75530710D03*
D15*
X139459970Y-75530710D03*
D12*
X141999970Y-70450710D03*
X139459970Y-81430710D03*
X134459970Y-79230710D03*
D16*
X142259970Y-81430710D03*
D17*
X131359970Y-79230710D03*
D12*
X144459970Y-79230710D03*
X136919970Y-70450710D03*
X143269970Y-72990710D03*
%TD*%
D10*
%TO.C,SW18*%
X142634970Y-128870710D03*
X155334970Y-128870710D03*
D11*
G36*
X155789872Y-126280951D02*
G01*
X155799627Y-126281912D01*
X155809239Y-126283824D01*
X155818618Y-126286669D01*
X155827674Y-126290420D01*
X155836319Y-126295041D01*
X155844470Y-126300488D01*
X155852046Y-126306706D01*
X155858974Y-126313634D01*
X155865192Y-126321210D01*
X155870639Y-126329361D01*
X155875260Y-126338006D01*
X155879011Y-126347062D01*
X155881856Y-126356441D01*
X155883768Y-126366053D01*
X155884729Y-126375808D01*
X155884970Y-126380710D01*
X155884970Y-126780710D01*
X156534970Y-126780710D01*
X156544725Y-126781671D01*
X156554104Y-126784516D01*
X156562749Y-126789137D01*
X156570325Y-126795355D01*
X156576543Y-126802931D01*
X156581164Y-126811576D01*
X156584009Y-126820955D01*
X156584970Y-126830710D01*
X156584970Y-128330710D01*
X156584009Y-128340465D01*
X156581164Y-128349844D01*
X156576543Y-128358489D01*
X156570325Y-128366065D01*
X156562749Y-128372283D01*
X156554104Y-128376904D01*
X156544725Y-128379749D01*
X156534970Y-128380710D01*
X155884970Y-128380710D01*
X155884970Y-128780710D01*
X155884729Y-128785612D01*
X155883768Y-128795367D01*
X155881856Y-128804979D01*
X155879011Y-128814358D01*
X155875260Y-128823414D01*
X155870639Y-128832059D01*
X155865192Y-128840210D01*
X155858974Y-128847786D01*
X155852046Y-128854714D01*
X155844470Y-128860932D01*
X155836319Y-128866379D01*
X155827674Y-128871000D01*
X155818618Y-128874751D01*
X155809239Y-128877596D01*
X155799627Y-128879508D01*
X155789872Y-128880469D01*
X155784970Y-128880710D01*
X153884970Y-128880710D01*
X153880068Y-128880469D01*
X153870313Y-128879508D01*
X153860701Y-128877596D01*
X153851322Y-128874751D01*
X153840398Y-128869950D01*
X153828297Y-128862799D01*
X153822500Y-128858796D01*
X153322500Y-128458796D01*
X153318826Y-128455549D01*
X153311809Y-128448706D01*
X153305491Y-128441200D01*
X153299945Y-128433118D01*
X153295221Y-128424539D01*
X153291357Y-128415531D01*
X153288394Y-128406186D01*
X153286362Y-128396598D01*
X153285353Y-128388998D01*
X153285047Y-128383476D01*
X153284970Y-128380710D01*
X153284970Y-126380710D01*
X153285211Y-126375808D01*
X153286172Y-126366053D01*
X153288084Y-126356441D01*
X153290929Y-126347062D01*
X153294680Y-126338006D01*
X153299301Y-126329361D01*
X153304748Y-126321210D01*
X153310966Y-126313634D01*
X153317894Y-126306706D01*
X153325470Y-126300488D01*
X153333621Y-126295041D01*
X153342266Y-126290420D01*
X153351322Y-126286669D01*
X153360701Y-126283824D01*
X153370313Y-126281912D01*
X153380068Y-126280951D01*
X153384970Y-126280710D01*
X155784970Y-126280710D01*
X155789872Y-126280951D01*
G37*
G36*
X143189872Y-128880951D02*
G01*
X143199627Y-128881912D01*
X143209239Y-128883824D01*
X143218618Y-128886669D01*
X143227674Y-128890420D01*
X143236319Y-128895041D01*
X143244470Y-128900488D01*
X143252046Y-128906706D01*
X143258974Y-128913634D01*
X143265192Y-128921210D01*
X143270639Y-128929361D01*
X143275260Y-128938006D01*
X143279011Y-128947062D01*
X143281856Y-128956441D01*
X143283768Y-128966053D01*
X143284729Y-128975808D01*
X143284970Y-128980710D01*
X143284970Y-131380710D01*
X143284729Y-131385612D01*
X143283768Y-131395367D01*
X143281856Y-131404979D01*
X143279011Y-131414358D01*
X143275260Y-131423414D01*
X143270639Y-131432059D01*
X143265192Y-131440210D01*
X143258974Y-131447786D01*
X143252046Y-131454714D01*
X143244470Y-131460932D01*
X143236319Y-131466379D01*
X143227674Y-131471000D01*
X143218618Y-131474751D01*
X143209239Y-131477596D01*
X143199627Y-131479508D01*
X143189872Y-131480469D01*
X143184970Y-131480710D01*
X140784970Y-131480710D01*
X140780068Y-131480469D01*
X140770313Y-131479508D01*
X140760701Y-131477596D01*
X140751322Y-131474751D01*
X140742266Y-131471000D01*
X140733621Y-131466379D01*
X140725470Y-131460932D01*
X140717894Y-131454714D01*
X140710966Y-131447786D01*
X140704748Y-131440210D01*
X140699301Y-131432059D01*
X140694680Y-131423414D01*
X140690929Y-131414358D01*
X140688084Y-131404979D01*
X140686172Y-131395367D01*
X140685211Y-131385612D01*
X140684970Y-131380710D01*
X140684970Y-130980710D01*
X140134970Y-130980710D01*
X140125215Y-130979749D01*
X140115836Y-130976904D01*
X140107191Y-130972283D01*
X140099615Y-130966065D01*
X140093397Y-130958489D01*
X140088776Y-130949844D01*
X140085931Y-130940465D01*
X140084970Y-130930710D01*
X140084970Y-129430710D01*
X140085931Y-129420955D01*
X140088776Y-129411576D01*
X140093397Y-129402931D01*
X140099615Y-129395355D01*
X140107191Y-129389137D01*
X140115836Y-129384516D01*
X140125215Y-129381671D01*
X140134970Y-129380710D01*
X140684970Y-129380710D01*
X140684970Y-128980710D01*
X140685211Y-128975808D01*
X140686172Y-128966053D01*
X140688084Y-128956441D01*
X140690929Y-128947062D01*
X140694680Y-128938006D01*
X140699301Y-128929361D01*
X140704748Y-128921210D01*
X140710966Y-128913634D01*
X140717894Y-128906706D01*
X140725470Y-128900488D01*
X140733621Y-128895041D01*
X140742266Y-128890420D01*
X140751322Y-128886669D01*
X140760701Y-128883824D01*
X140770313Y-128881912D01*
X140780068Y-128880951D01*
X140784970Y-128880710D01*
X143184970Y-128880710D01*
X143189872Y-128880951D01*
G37*
D12*
X145174970Y-130140709D03*
D13*
X143904970Y-132680710D03*
X154064970Y-132680710D03*
D14*
X154484970Y-132680710D03*
X143484970Y-132680710D03*
D15*
X148984970Y-132680710D03*
D12*
X151524970Y-127600710D03*
X148984970Y-138580710D03*
X143984970Y-136380710D03*
D16*
X151784970Y-138580710D03*
D17*
X140884970Y-136380710D03*
D12*
X153984970Y-136380710D03*
X146444970Y-127600710D03*
X152794970Y-130140710D03*
%TD*%
D10*
%TO.C,SW5*%
X152159970Y-71720710D03*
X164859970Y-71720710D03*
D11*
G36*
X165314872Y-69130951D02*
G01*
X165324627Y-69131912D01*
X165334239Y-69133824D01*
X165343618Y-69136669D01*
X165352674Y-69140420D01*
X165361319Y-69145041D01*
X165369470Y-69150488D01*
X165377046Y-69156706D01*
X165383974Y-69163634D01*
X165390192Y-69171210D01*
X165395639Y-69179361D01*
X165400260Y-69188006D01*
X165404011Y-69197062D01*
X165406856Y-69206441D01*
X165408768Y-69216053D01*
X165409729Y-69225808D01*
X165409970Y-69230710D01*
X165409970Y-69630710D01*
X166059970Y-69630710D01*
X166069725Y-69631671D01*
X166079104Y-69634516D01*
X166087749Y-69639137D01*
X166095325Y-69645355D01*
X166101543Y-69652931D01*
X166106164Y-69661576D01*
X166109009Y-69670955D01*
X166109970Y-69680710D01*
X166109970Y-71180710D01*
X166109009Y-71190465D01*
X166106164Y-71199844D01*
X166101543Y-71208489D01*
X166095325Y-71216065D01*
X166087749Y-71222283D01*
X166079104Y-71226904D01*
X166069725Y-71229749D01*
X166059970Y-71230710D01*
X165409970Y-71230710D01*
X165409970Y-71630710D01*
X165409729Y-71635612D01*
X165408768Y-71645367D01*
X165406856Y-71654979D01*
X165404011Y-71664358D01*
X165400260Y-71673414D01*
X165395639Y-71682059D01*
X165390192Y-71690210D01*
X165383974Y-71697786D01*
X165377046Y-71704714D01*
X165369470Y-71710932D01*
X165361319Y-71716379D01*
X165352674Y-71721000D01*
X165343618Y-71724751D01*
X165334239Y-71727596D01*
X165324627Y-71729508D01*
X165314872Y-71730469D01*
X165309970Y-71730710D01*
X163409970Y-71730710D01*
X163405068Y-71730469D01*
X163395313Y-71729508D01*
X163385701Y-71727596D01*
X163376322Y-71724751D01*
X163365398Y-71719950D01*
X163353297Y-71712799D01*
X163347500Y-71708796D01*
X162847500Y-71308796D01*
X162843826Y-71305549D01*
X162836809Y-71298706D01*
X162830491Y-71291200D01*
X162824945Y-71283118D01*
X162820221Y-71274539D01*
X162816357Y-71265531D01*
X162813394Y-71256186D01*
X162811362Y-71246598D01*
X162810353Y-71238998D01*
X162810047Y-71233476D01*
X162809970Y-71230710D01*
X162809970Y-69230710D01*
X162810211Y-69225808D01*
X162811172Y-69216053D01*
X162813084Y-69206441D01*
X162815929Y-69197062D01*
X162819680Y-69188006D01*
X162824301Y-69179361D01*
X162829748Y-69171210D01*
X162835966Y-69163634D01*
X162842894Y-69156706D01*
X162850470Y-69150488D01*
X162858621Y-69145041D01*
X162867266Y-69140420D01*
X162876322Y-69136669D01*
X162885701Y-69133824D01*
X162895313Y-69131912D01*
X162905068Y-69130951D01*
X162909970Y-69130710D01*
X165309970Y-69130710D01*
X165314872Y-69130951D01*
G37*
G36*
X152714872Y-71730951D02*
G01*
X152724627Y-71731912D01*
X152734239Y-71733824D01*
X152743618Y-71736669D01*
X152752674Y-71740420D01*
X152761319Y-71745041D01*
X152769470Y-71750488D01*
X152777046Y-71756706D01*
X152783974Y-71763634D01*
X152790192Y-71771210D01*
X152795639Y-71779361D01*
X152800260Y-71788006D01*
X152804011Y-71797062D01*
X152806856Y-71806441D01*
X152808768Y-71816053D01*
X152809729Y-71825808D01*
X152809970Y-71830710D01*
X152809970Y-74230710D01*
X152809729Y-74235612D01*
X152808768Y-74245367D01*
X152806856Y-74254979D01*
X152804011Y-74264358D01*
X152800260Y-74273414D01*
X152795639Y-74282059D01*
X152790192Y-74290210D01*
X152783974Y-74297786D01*
X152777046Y-74304714D01*
X152769470Y-74310932D01*
X152761319Y-74316379D01*
X152752674Y-74321000D01*
X152743618Y-74324751D01*
X152734239Y-74327596D01*
X152724627Y-74329508D01*
X152714872Y-74330469D01*
X152709970Y-74330710D01*
X150309970Y-74330710D01*
X150305068Y-74330469D01*
X150295313Y-74329508D01*
X150285701Y-74327596D01*
X150276322Y-74324751D01*
X150267266Y-74321000D01*
X150258621Y-74316379D01*
X150250470Y-74310932D01*
X150242894Y-74304714D01*
X150235966Y-74297786D01*
X150229748Y-74290210D01*
X150224301Y-74282059D01*
X150219680Y-74273414D01*
X150215929Y-74264358D01*
X150213084Y-74254979D01*
X150211172Y-74245367D01*
X150210211Y-74235612D01*
X150209970Y-74230710D01*
X150209970Y-73830710D01*
X149659970Y-73830710D01*
X149650215Y-73829749D01*
X149640836Y-73826904D01*
X149632191Y-73822283D01*
X149624615Y-73816065D01*
X149618397Y-73808489D01*
X149613776Y-73799844D01*
X149610931Y-73790465D01*
X149609970Y-73780710D01*
X149609970Y-72280710D01*
X149610931Y-72270955D01*
X149613776Y-72261576D01*
X149618397Y-72252931D01*
X149624615Y-72245355D01*
X149632191Y-72239137D01*
X149640836Y-72234516D01*
X149650215Y-72231671D01*
X149659970Y-72230710D01*
X150209970Y-72230710D01*
X150209970Y-71830710D01*
X150210211Y-71825808D01*
X150211172Y-71816053D01*
X150213084Y-71806441D01*
X150215929Y-71797062D01*
X150219680Y-71788006D01*
X150224301Y-71779361D01*
X150229748Y-71771210D01*
X150235966Y-71763634D01*
X150242894Y-71756706D01*
X150250470Y-71750488D01*
X150258621Y-71745041D01*
X150267266Y-71740420D01*
X150276322Y-71736669D01*
X150285701Y-71733824D01*
X150295313Y-71731912D01*
X150305068Y-71730951D01*
X150309970Y-71730710D01*
X152709970Y-71730710D01*
X152714872Y-71730951D01*
G37*
D12*
X154699970Y-72990709D03*
D13*
X153429970Y-75530710D03*
X163589970Y-75530710D03*
D14*
X164009970Y-75530710D03*
X153009970Y-75530710D03*
D15*
X158509970Y-75530710D03*
D12*
X161049970Y-70450710D03*
X158509970Y-81430710D03*
X153509970Y-79230710D03*
D16*
X161309970Y-81430710D03*
D17*
X150409970Y-79230710D03*
D12*
X163509970Y-79230710D03*
X155969970Y-70450710D03*
X162319970Y-72990710D03*
%TD*%
D10*
%TO.C,SW12*%
X95009970Y-105058210D03*
X107709970Y-105058210D03*
D11*
G36*
X108164872Y-102468451D02*
G01*
X108174627Y-102469412D01*
X108184239Y-102471324D01*
X108193618Y-102474169D01*
X108202674Y-102477920D01*
X108211319Y-102482541D01*
X108219470Y-102487988D01*
X108227046Y-102494206D01*
X108233974Y-102501134D01*
X108240192Y-102508710D01*
X108245639Y-102516861D01*
X108250260Y-102525506D01*
X108254011Y-102534562D01*
X108256856Y-102543941D01*
X108258768Y-102553553D01*
X108259729Y-102563308D01*
X108259970Y-102568210D01*
X108259970Y-102968210D01*
X108909970Y-102968210D01*
X108919725Y-102969171D01*
X108929104Y-102972016D01*
X108937749Y-102976637D01*
X108945325Y-102982855D01*
X108951543Y-102990431D01*
X108956164Y-102999076D01*
X108959009Y-103008455D01*
X108959970Y-103018210D01*
X108959970Y-104518210D01*
X108959009Y-104527965D01*
X108956164Y-104537344D01*
X108951543Y-104545989D01*
X108945325Y-104553565D01*
X108937749Y-104559783D01*
X108929104Y-104564404D01*
X108919725Y-104567249D01*
X108909970Y-104568210D01*
X108259970Y-104568210D01*
X108259970Y-104968210D01*
X108259729Y-104973112D01*
X108258768Y-104982867D01*
X108256856Y-104992479D01*
X108254011Y-105001858D01*
X108250260Y-105010914D01*
X108245639Y-105019559D01*
X108240192Y-105027710D01*
X108233974Y-105035286D01*
X108227046Y-105042214D01*
X108219470Y-105048432D01*
X108211319Y-105053879D01*
X108202674Y-105058500D01*
X108193618Y-105062251D01*
X108184239Y-105065096D01*
X108174627Y-105067008D01*
X108164872Y-105067969D01*
X108159970Y-105068210D01*
X106259970Y-105068210D01*
X106255068Y-105067969D01*
X106245313Y-105067008D01*
X106235701Y-105065096D01*
X106226322Y-105062251D01*
X106215398Y-105057450D01*
X106203297Y-105050299D01*
X106197500Y-105046296D01*
X105697500Y-104646296D01*
X105693826Y-104643049D01*
X105686809Y-104636206D01*
X105680491Y-104628700D01*
X105674945Y-104620618D01*
X105670221Y-104612039D01*
X105666357Y-104603031D01*
X105663394Y-104593686D01*
X105661362Y-104584098D01*
X105660353Y-104576498D01*
X105660047Y-104570976D01*
X105659970Y-104568210D01*
X105659970Y-102568210D01*
X105660211Y-102563308D01*
X105661172Y-102553553D01*
X105663084Y-102543941D01*
X105665929Y-102534562D01*
X105669680Y-102525506D01*
X105674301Y-102516861D01*
X105679748Y-102508710D01*
X105685966Y-102501134D01*
X105692894Y-102494206D01*
X105700470Y-102487988D01*
X105708621Y-102482541D01*
X105717266Y-102477920D01*
X105726322Y-102474169D01*
X105735701Y-102471324D01*
X105745313Y-102469412D01*
X105755068Y-102468451D01*
X105759970Y-102468210D01*
X108159970Y-102468210D01*
X108164872Y-102468451D01*
G37*
G36*
X95564872Y-105068451D02*
G01*
X95574627Y-105069412D01*
X95584239Y-105071324D01*
X95593618Y-105074169D01*
X95602674Y-105077920D01*
X95611319Y-105082541D01*
X95619470Y-105087988D01*
X95627046Y-105094206D01*
X95633974Y-105101134D01*
X95640192Y-105108710D01*
X95645639Y-105116861D01*
X95650260Y-105125506D01*
X95654011Y-105134562D01*
X95656856Y-105143941D01*
X95658768Y-105153553D01*
X95659729Y-105163308D01*
X95659970Y-105168210D01*
X95659970Y-107568210D01*
X95659729Y-107573112D01*
X95658768Y-107582867D01*
X95656856Y-107592479D01*
X95654011Y-107601858D01*
X95650260Y-107610914D01*
X95645639Y-107619559D01*
X95640192Y-107627710D01*
X95633974Y-107635286D01*
X95627046Y-107642214D01*
X95619470Y-107648432D01*
X95611319Y-107653879D01*
X95602674Y-107658500D01*
X95593618Y-107662251D01*
X95584239Y-107665096D01*
X95574627Y-107667008D01*
X95564872Y-107667969D01*
X95559970Y-107668210D01*
X93159970Y-107668210D01*
X93155068Y-107667969D01*
X93145313Y-107667008D01*
X93135701Y-107665096D01*
X93126322Y-107662251D01*
X93117266Y-107658500D01*
X93108621Y-107653879D01*
X93100470Y-107648432D01*
X93092894Y-107642214D01*
X93085966Y-107635286D01*
X93079748Y-107627710D01*
X93074301Y-107619559D01*
X93069680Y-107610914D01*
X93065929Y-107601858D01*
X93063084Y-107592479D01*
X93061172Y-107582867D01*
X93060211Y-107573112D01*
X93059970Y-107568210D01*
X93059970Y-107168210D01*
X92509970Y-107168210D01*
X92500215Y-107167249D01*
X92490836Y-107164404D01*
X92482191Y-107159783D01*
X92474615Y-107153565D01*
X92468397Y-107145989D01*
X92463776Y-107137344D01*
X92460931Y-107127965D01*
X92459970Y-107118210D01*
X92459970Y-105618210D01*
X92460931Y-105608455D01*
X92463776Y-105599076D01*
X92468397Y-105590431D01*
X92474615Y-105582855D01*
X92482191Y-105576637D01*
X92490836Y-105572016D01*
X92500215Y-105569171D01*
X92509970Y-105568210D01*
X93059970Y-105568210D01*
X93059970Y-105168210D01*
X93060211Y-105163308D01*
X93061172Y-105153553D01*
X93063084Y-105143941D01*
X93065929Y-105134562D01*
X93069680Y-105125506D01*
X93074301Y-105116861D01*
X93079748Y-105108710D01*
X93085966Y-105101134D01*
X93092894Y-105094206D01*
X93100470Y-105087988D01*
X93108621Y-105082541D01*
X93117266Y-105077920D01*
X93126322Y-105074169D01*
X93135701Y-105071324D01*
X93145313Y-105069412D01*
X93155068Y-105068451D01*
X93159970Y-105068210D01*
X95559970Y-105068210D01*
X95564872Y-105068451D01*
G37*
D12*
X97549970Y-106328209D03*
D13*
X96279970Y-108868210D03*
X106439970Y-108868210D03*
D14*
X106859970Y-108868210D03*
X95859970Y-108868210D03*
D15*
X101359970Y-108868210D03*
D12*
X103899970Y-103788210D03*
X101359970Y-114768210D03*
X96359970Y-112568210D03*
D16*
X104159970Y-114768210D03*
D17*
X93259970Y-112568210D03*
D12*
X106359970Y-112568210D03*
X98819970Y-103788210D03*
X105169970Y-106328210D03*
%TD*%
D10*
%TO.C,SW14*%
X133109970Y-109820710D03*
X145809970Y-109820710D03*
D11*
G36*
X146264872Y-107230951D02*
G01*
X146274627Y-107231912D01*
X146284239Y-107233824D01*
X146293618Y-107236669D01*
X146302674Y-107240420D01*
X146311319Y-107245041D01*
X146319470Y-107250488D01*
X146327046Y-107256706D01*
X146333974Y-107263634D01*
X146340192Y-107271210D01*
X146345639Y-107279361D01*
X146350260Y-107288006D01*
X146354011Y-107297062D01*
X146356856Y-107306441D01*
X146358768Y-107316053D01*
X146359729Y-107325808D01*
X146359970Y-107330710D01*
X146359970Y-107730710D01*
X147009970Y-107730710D01*
X147019725Y-107731671D01*
X147029104Y-107734516D01*
X147037749Y-107739137D01*
X147045325Y-107745355D01*
X147051543Y-107752931D01*
X147056164Y-107761576D01*
X147059009Y-107770955D01*
X147059970Y-107780710D01*
X147059970Y-109280710D01*
X147059009Y-109290465D01*
X147056164Y-109299844D01*
X147051543Y-109308489D01*
X147045325Y-109316065D01*
X147037749Y-109322283D01*
X147029104Y-109326904D01*
X147019725Y-109329749D01*
X147009970Y-109330710D01*
X146359970Y-109330710D01*
X146359970Y-109730710D01*
X146359729Y-109735612D01*
X146358768Y-109745367D01*
X146356856Y-109754979D01*
X146354011Y-109764358D01*
X146350260Y-109773414D01*
X146345639Y-109782059D01*
X146340192Y-109790210D01*
X146333974Y-109797786D01*
X146327046Y-109804714D01*
X146319470Y-109810932D01*
X146311319Y-109816379D01*
X146302674Y-109821000D01*
X146293618Y-109824751D01*
X146284239Y-109827596D01*
X146274627Y-109829508D01*
X146264872Y-109830469D01*
X146259970Y-109830710D01*
X144359970Y-109830710D01*
X144355068Y-109830469D01*
X144345313Y-109829508D01*
X144335701Y-109827596D01*
X144326322Y-109824751D01*
X144315398Y-109819950D01*
X144303297Y-109812799D01*
X144297500Y-109808796D01*
X143797500Y-109408796D01*
X143793826Y-109405549D01*
X143786809Y-109398706D01*
X143780491Y-109391200D01*
X143774945Y-109383118D01*
X143770221Y-109374539D01*
X143766357Y-109365531D01*
X143763394Y-109356186D01*
X143761362Y-109346598D01*
X143760353Y-109338998D01*
X143760047Y-109333476D01*
X143759970Y-109330710D01*
X143759970Y-107330710D01*
X143760211Y-107325808D01*
X143761172Y-107316053D01*
X143763084Y-107306441D01*
X143765929Y-107297062D01*
X143769680Y-107288006D01*
X143774301Y-107279361D01*
X143779748Y-107271210D01*
X143785966Y-107263634D01*
X143792894Y-107256706D01*
X143800470Y-107250488D01*
X143808621Y-107245041D01*
X143817266Y-107240420D01*
X143826322Y-107236669D01*
X143835701Y-107233824D01*
X143845313Y-107231912D01*
X143855068Y-107230951D01*
X143859970Y-107230710D01*
X146259970Y-107230710D01*
X146264872Y-107230951D01*
G37*
G36*
X133664872Y-109830951D02*
G01*
X133674627Y-109831912D01*
X133684239Y-109833824D01*
X133693618Y-109836669D01*
X133702674Y-109840420D01*
X133711319Y-109845041D01*
X133719470Y-109850488D01*
X133727046Y-109856706D01*
X133733974Y-109863634D01*
X133740192Y-109871210D01*
X133745639Y-109879361D01*
X133750260Y-109888006D01*
X133754011Y-109897062D01*
X133756856Y-109906441D01*
X133758768Y-109916053D01*
X133759729Y-109925808D01*
X133759970Y-109930710D01*
X133759970Y-112330710D01*
X133759729Y-112335612D01*
X133758768Y-112345367D01*
X133756856Y-112354979D01*
X133754011Y-112364358D01*
X133750260Y-112373414D01*
X133745639Y-112382059D01*
X133740192Y-112390210D01*
X133733974Y-112397786D01*
X133727046Y-112404714D01*
X133719470Y-112410932D01*
X133711319Y-112416379D01*
X133702674Y-112421000D01*
X133693618Y-112424751D01*
X133684239Y-112427596D01*
X133674627Y-112429508D01*
X133664872Y-112430469D01*
X133659970Y-112430710D01*
X131259970Y-112430710D01*
X131255068Y-112430469D01*
X131245313Y-112429508D01*
X131235701Y-112427596D01*
X131226322Y-112424751D01*
X131217266Y-112421000D01*
X131208621Y-112416379D01*
X131200470Y-112410932D01*
X131192894Y-112404714D01*
X131185966Y-112397786D01*
X131179748Y-112390210D01*
X131174301Y-112382059D01*
X131169680Y-112373414D01*
X131165929Y-112364358D01*
X131163084Y-112354979D01*
X131161172Y-112345367D01*
X131160211Y-112335612D01*
X131159970Y-112330710D01*
X131159970Y-111930710D01*
X130609970Y-111930710D01*
X130600215Y-111929749D01*
X130590836Y-111926904D01*
X130582191Y-111922283D01*
X130574615Y-111916065D01*
X130568397Y-111908489D01*
X130563776Y-111899844D01*
X130560931Y-111890465D01*
X130559970Y-111880710D01*
X130559970Y-110380710D01*
X130560931Y-110370955D01*
X130563776Y-110361576D01*
X130568397Y-110352931D01*
X130574615Y-110345355D01*
X130582191Y-110339137D01*
X130590836Y-110334516D01*
X130600215Y-110331671D01*
X130609970Y-110330710D01*
X131159970Y-110330710D01*
X131159970Y-109930710D01*
X131160211Y-109925808D01*
X131161172Y-109916053D01*
X131163084Y-109906441D01*
X131165929Y-109897062D01*
X131169680Y-109888006D01*
X131174301Y-109879361D01*
X131179748Y-109871210D01*
X131185966Y-109863634D01*
X131192894Y-109856706D01*
X131200470Y-109850488D01*
X131208621Y-109845041D01*
X131217266Y-109840420D01*
X131226322Y-109836669D01*
X131235701Y-109833824D01*
X131245313Y-109831912D01*
X131255068Y-109830951D01*
X131259970Y-109830710D01*
X133659970Y-109830710D01*
X133664872Y-109830951D01*
G37*
D12*
X135649970Y-111090709D03*
D13*
X134379970Y-113630710D03*
X144539970Y-113630710D03*
D14*
X144959970Y-113630710D03*
X133959970Y-113630710D03*
D15*
X139459970Y-113630710D03*
D12*
X141999970Y-108550710D03*
X139459970Y-119530710D03*
X134459970Y-117330710D03*
D16*
X142259970Y-119530710D03*
D17*
X131359970Y-117330710D03*
D12*
X144459970Y-117330710D03*
X136919970Y-108550710D03*
X143269970Y-111090710D03*
%TD*%
D10*
%TO.C,SW6*%
X75959970Y-105058210D03*
X88659970Y-105058210D03*
D11*
G36*
X89114872Y-102468451D02*
G01*
X89124627Y-102469412D01*
X89134239Y-102471324D01*
X89143618Y-102474169D01*
X89152674Y-102477920D01*
X89161319Y-102482541D01*
X89169470Y-102487988D01*
X89177046Y-102494206D01*
X89183974Y-102501134D01*
X89190192Y-102508710D01*
X89195639Y-102516861D01*
X89200260Y-102525506D01*
X89204011Y-102534562D01*
X89206856Y-102543941D01*
X89208768Y-102553553D01*
X89209729Y-102563308D01*
X89209970Y-102568210D01*
X89209970Y-102968210D01*
X89859970Y-102968210D01*
X89869725Y-102969171D01*
X89879104Y-102972016D01*
X89887749Y-102976637D01*
X89895325Y-102982855D01*
X89901543Y-102990431D01*
X89906164Y-102999076D01*
X89909009Y-103008455D01*
X89909970Y-103018210D01*
X89909970Y-104518210D01*
X89909009Y-104527965D01*
X89906164Y-104537344D01*
X89901543Y-104545989D01*
X89895325Y-104553565D01*
X89887749Y-104559783D01*
X89879104Y-104564404D01*
X89869725Y-104567249D01*
X89859970Y-104568210D01*
X89209970Y-104568210D01*
X89209970Y-104968210D01*
X89209729Y-104973112D01*
X89208768Y-104982867D01*
X89206856Y-104992479D01*
X89204011Y-105001858D01*
X89200260Y-105010914D01*
X89195639Y-105019559D01*
X89190192Y-105027710D01*
X89183974Y-105035286D01*
X89177046Y-105042214D01*
X89169470Y-105048432D01*
X89161319Y-105053879D01*
X89152674Y-105058500D01*
X89143618Y-105062251D01*
X89134239Y-105065096D01*
X89124627Y-105067008D01*
X89114872Y-105067969D01*
X89109970Y-105068210D01*
X87209970Y-105068210D01*
X87205068Y-105067969D01*
X87195313Y-105067008D01*
X87185701Y-105065096D01*
X87176322Y-105062251D01*
X87165398Y-105057450D01*
X87153297Y-105050299D01*
X87147500Y-105046296D01*
X86647500Y-104646296D01*
X86643826Y-104643049D01*
X86636809Y-104636206D01*
X86630491Y-104628700D01*
X86624945Y-104620618D01*
X86620221Y-104612039D01*
X86616357Y-104603031D01*
X86613394Y-104593686D01*
X86611362Y-104584098D01*
X86610353Y-104576498D01*
X86610047Y-104570976D01*
X86609970Y-104568210D01*
X86609970Y-102568210D01*
X86610211Y-102563308D01*
X86611172Y-102553553D01*
X86613084Y-102543941D01*
X86615929Y-102534562D01*
X86619680Y-102525506D01*
X86624301Y-102516861D01*
X86629748Y-102508710D01*
X86635966Y-102501134D01*
X86642894Y-102494206D01*
X86650470Y-102487988D01*
X86658621Y-102482541D01*
X86667266Y-102477920D01*
X86676322Y-102474169D01*
X86685701Y-102471324D01*
X86695313Y-102469412D01*
X86705068Y-102468451D01*
X86709970Y-102468210D01*
X89109970Y-102468210D01*
X89114872Y-102468451D01*
G37*
G36*
X76514872Y-105068451D02*
G01*
X76524627Y-105069412D01*
X76534239Y-105071324D01*
X76543618Y-105074169D01*
X76552674Y-105077920D01*
X76561319Y-105082541D01*
X76569470Y-105087988D01*
X76577046Y-105094206D01*
X76583974Y-105101134D01*
X76590192Y-105108710D01*
X76595639Y-105116861D01*
X76600260Y-105125506D01*
X76604011Y-105134562D01*
X76606856Y-105143941D01*
X76608768Y-105153553D01*
X76609729Y-105163308D01*
X76609970Y-105168210D01*
X76609970Y-107568210D01*
X76609729Y-107573112D01*
X76608768Y-107582867D01*
X76606856Y-107592479D01*
X76604011Y-107601858D01*
X76600260Y-107610914D01*
X76595639Y-107619559D01*
X76590192Y-107627710D01*
X76583974Y-107635286D01*
X76577046Y-107642214D01*
X76569470Y-107648432D01*
X76561319Y-107653879D01*
X76552674Y-107658500D01*
X76543618Y-107662251D01*
X76534239Y-107665096D01*
X76524627Y-107667008D01*
X76514872Y-107667969D01*
X76509970Y-107668210D01*
X74109970Y-107668210D01*
X74105068Y-107667969D01*
X74095313Y-107667008D01*
X74085701Y-107665096D01*
X74076322Y-107662251D01*
X74067266Y-107658500D01*
X74058621Y-107653879D01*
X74050470Y-107648432D01*
X74042894Y-107642214D01*
X74035966Y-107635286D01*
X74029748Y-107627710D01*
X74024301Y-107619559D01*
X74019680Y-107610914D01*
X74015929Y-107601858D01*
X74013084Y-107592479D01*
X74011172Y-107582867D01*
X74010211Y-107573112D01*
X74009970Y-107568210D01*
X74009970Y-107168210D01*
X73459970Y-107168210D01*
X73450215Y-107167249D01*
X73440836Y-107164404D01*
X73432191Y-107159783D01*
X73424615Y-107153565D01*
X73418397Y-107145989D01*
X73413776Y-107137344D01*
X73410931Y-107127965D01*
X73409970Y-107118210D01*
X73409970Y-105618210D01*
X73410931Y-105608455D01*
X73413776Y-105599076D01*
X73418397Y-105590431D01*
X73424615Y-105582855D01*
X73432191Y-105576637D01*
X73440836Y-105572016D01*
X73450215Y-105569171D01*
X73459970Y-105568210D01*
X74009970Y-105568210D01*
X74009970Y-105168210D01*
X74010211Y-105163308D01*
X74011172Y-105153553D01*
X74013084Y-105143941D01*
X74015929Y-105134562D01*
X74019680Y-105125506D01*
X74024301Y-105116861D01*
X74029748Y-105108710D01*
X74035966Y-105101134D01*
X74042894Y-105094206D01*
X74050470Y-105087988D01*
X74058621Y-105082541D01*
X74067266Y-105077920D01*
X74076322Y-105074169D01*
X74085701Y-105071324D01*
X74095313Y-105069412D01*
X74105068Y-105068451D01*
X74109970Y-105068210D01*
X76509970Y-105068210D01*
X76514872Y-105068451D01*
G37*
D12*
X78499970Y-106328209D03*
D13*
X77229970Y-108868210D03*
X87389970Y-108868210D03*
D14*
X87809970Y-108868210D03*
X76809970Y-108868210D03*
D15*
X82309970Y-108868210D03*
D12*
X84849970Y-103788210D03*
X82309970Y-114768210D03*
X77309970Y-112568210D03*
D16*
X85109970Y-114768210D03*
D17*
X74209970Y-112568210D03*
D12*
X87309970Y-112568210D03*
X79769970Y-103788210D03*
X86119970Y-106328210D03*
%TD*%
D10*
%TO.C,SW13*%
X114059970Y-100295710D03*
X126759970Y-100295710D03*
D11*
G36*
X127214872Y-97705951D02*
G01*
X127224627Y-97706912D01*
X127234239Y-97708824D01*
X127243618Y-97711669D01*
X127252674Y-97715420D01*
X127261319Y-97720041D01*
X127269470Y-97725488D01*
X127277046Y-97731706D01*
X127283974Y-97738634D01*
X127290192Y-97746210D01*
X127295639Y-97754361D01*
X127300260Y-97763006D01*
X127304011Y-97772062D01*
X127306856Y-97781441D01*
X127308768Y-97791053D01*
X127309729Y-97800808D01*
X127309970Y-97805710D01*
X127309970Y-98205710D01*
X127959970Y-98205710D01*
X127969725Y-98206671D01*
X127979104Y-98209516D01*
X127987749Y-98214137D01*
X127995325Y-98220355D01*
X128001543Y-98227931D01*
X128006164Y-98236576D01*
X128009009Y-98245955D01*
X128009970Y-98255710D01*
X128009970Y-99755710D01*
X128009009Y-99765465D01*
X128006164Y-99774844D01*
X128001543Y-99783489D01*
X127995325Y-99791065D01*
X127987749Y-99797283D01*
X127979104Y-99801904D01*
X127969725Y-99804749D01*
X127959970Y-99805710D01*
X127309970Y-99805710D01*
X127309970Y-100205710D01*
X127309729Y-100210612D01*
X127308768Y-100220367D01*
X127306856Y-100229979D01*
X127304011Y-100239358D01*
X127300260Y-100248414D01*
X127295639Y-100257059D01*
X127290192Y-100265210D01*
X127283974Y-100272786D01*
X127277046Y-100279714D01*
X127269470Y-100285932D01*
X127261319Y-100291379D01*
X127252674Y-100296000D01*
X127243618Y-100299751D01*
X127234239Y-100302596D01*
X127224627Y-100304508D01*
X127214872Y-100305469D01*
X127209970Y-100305710D01*
X125309970Y-100305710D01*
X125305068Y-100305469D01*
X125295313Y-100304508D01*
X125285701Y-100302596D01*
X125276322Y-100299751D01*
X125265398Y-100294950D01*
X125253297Y-100287799D01*
X125247500Y-100283796D01*
X124747500Y-99883796D01*
X124743826Y-99880549D01*
X124736809Y-99873706D01*
X124730491Y-99866200D01*
X124724945Y-99858118D01*
X124720221Y-99849539D01*
X124716357Y-99840531D01*
X124713394Y-99831186D01*
X124711362Y-99821598D01*
X124710353Y-99813998D01*
X124710047Y-99808476D01*
X124709970Y-99805710D01*
X124709970Y-97805710D01*
X124710211Y-97800808D01*
X124711172Y-97791053D01*
X124713084Y-97781441D01*
X124715929Y-97772062D01*
X124719680Y-97763006D01*
X124724301Y-97754361D01*
X124729748Y-97746210D01*
X124735966Y-97738634D01*
X124742894Y-97731706D01*
X124750470Y-97725488D01*
X124758621Y-97720041D01*
X124767266Y-97715420D01*
X124776322Y-97711669D01*
X124785701Y-97708824D01*
X124795313Y-97706912D01*
X124805068Y-97705951D01*
X124809970Y-97705710D01*
X127209970Y-97705710D01*
X127214872Y-97705951D01*
G37*
G36*
X114614872Y-100305951D02*
G01*
X114624627Y-100306912D01*
X114634239Y-100308824D01*
X114643618Y-100311669D01*
X114652674Y-100315420D01*
X114661319Y-100320041D01*
X114669470Y-100325488D01*
X114677046Y-100331706D01*
X114683974Y-100338634D01*
X114690192Y-100346210D01*
X114695639Y-100354361D01*
X114700260Y-100363006D01*
X114704011Y-100372062D01*
X114706856Y-100381441D01*
X114708768Y-100391053D01*
X114709729Y-100400808D01*
X114709970Y-100405710D01*
X114709970Y-102805710D01*
X114709729Y-102810612D01*
X114708768Y-102820367D01*
X114706856Y-102829979D01*
X114704011Y-102839358D01*
X114700260Y-102848414D01*
X114695639Y-102857059D01*
X114690192Y-102865210D01*
X114683974Y-102872786D01*
X114677046Y-102879714D01*
X114669470Y-102885932D01*
X114661319Y-102891379D01*
X114652674Y-102896000D01*
X114643618Y-102899751D01*
X114634239Y-102902596D01*
X114624627Y-102904508D01*
X114614872Y-102905469D01*
X114609970Y-102905710D01*
X112209970Y-102905710D01*
X112205068Y-102905469D01*
X112195313Y-102904508D01*
X112185701Y-102902596D01*
X112176322Y-102899751D01*
X112167266Y-102896000D01*
X112158621Y-102891379D01*
X112150470Y-102885932D01*
X112142894Y-102879714D01*
X112135966Y-102872786D01*
X112129748Y-102865210D01*
X112124301Y-102857059D01*
X112119680Y-102848414D01*
X112115929Y-102839358D01*
X112113084Y-102829979D01*
X112111172Y-102820367D01*
X112110211Y-102810612D01*
X112109970Y-102805710D01*
X112109970Y-102405710D01*
X111559970Y-102405710D01*
X111550215Y-102404749D01*
X111540836Y-102401904D01*
X111532191Y-102397283D01*
X111524615Y-102391065D01*
X111518397Y-102383489D01*
X111513776Y-102374844D01*
X111510931Y-102365465D01*
X111509970Y-102355710D01*
X111509970Y-100855710D01*
X111510931Y-100845955D01*
X111513776Y-100836576D01*
X111518397Y-100827931D01*
X111524615Y-100820355D01*
X111532191Y-100814137D01*
X111540836Y-100809516D01*
X111550215Y-100806671D01*
X111559970Y-100805710D01*
X112109970Y-100805710D01*
X112109970Y-100405710D01*
X112110211Y-100400808D01*
X112111172Y-100391053D01*
X112113084Y-100381441D01*
X112115929Y-100372062D01*
X112119680Y-100363006D01*
X112124301Y-100354361D01*
X112129748Y-100346210D01*
X112135966Y-100338634D01*
X112142894Y-100331706D01*
X112150470Y-100325488D01*
X112158621Y-100320041D01*
X112167266Y-100315420D01*
X112176322Y-100311669D01*
X112185701Y-100308824D01*
X112195313Y-100306912D01*
X112205068Y-100305951D01*
X112209970Y-100305710D01*
X114609970Y-100305710D01*
X114614872Y-100305951D01*
G37*
D12*
X116599970Y-101565709D03*
D13*
X115329970Y-104105710D03*
X125489970Y-104105710D03*
D14*
X125909970Y-104105710D03*
X114909970Y-104105710D03*
D15*
X120409970Y-104105710D03*
D12*
X122949970Y-99025710D03*
X120409970Y-110005710D03*
X115409970Y-107805710D03*
D16*
X123209970Y-110005710D03*
D17*
X112309970Y-107805710D03*
D12*
X125409970Y-107805710D03*
X117869970Y-99025710D03*
X124219970Y-101565710D03*
%TD*%
D10*
%TO.C,SW11*%
X75959970Y-124108210D03*
X88659970Y-124108210D03*
D11*
G36*
X89114872Y-121518451D02*
G01*
X89124627Y-121519412D01*
X89134239Y-121521324D01*
X89143618Y-121524169D01*
X89152674Y-121527920D01*
X89161319Y-121532541D01*
X89169470Y-121537988D01*
X89177046Y-121544206D01*
X89183974Y-121551134D01*
X89190192Y-121558710D01*
X89195639Y-121566861D01*
X89200260Y-121575506D01*
X89204011Y-121584562D01*
X89206856Y-121593941D01*
X89208768Y-121603553D01*
X89209729Y-121613308D01*
X89209970Y-121618210D01*
X89209970Y-122018210D01*
X89859970Y-122018210D01*
X89869725Y-122019171D01*
X89879104Y-122022016D01*
X89887749Y-122026637D01*
X89895325Y-122032855D01*
X89901543Y-122040431D01*
X89906164Y-122049076D01*
X89909009Y-122058455D01*
X89909970Y-122068210D01*
X89909970Y-123568210D01*
X89909009Y-123577965D01*
X89906164Y-123587344D01*
X89901543Y-123595989D01*
X89895325Y-123603565D01*
X89887749Y-123609783D01*
X89879104Y-123614404D01*
X89869725Y-123617249D01*
X89859970Y-123618210D01*
X89209970Y-123618210D01*
X89209970Y-124018210D01*
X89209729Y-124023112D01*
X89208768Y-124032867D01*
X89206856Y-124042479D01*
X89204011Y-124051858D01*
X89200260Y-124060914D01*
X89195639Y-124069559D01*
X89190192Y-124077710D01*
X89183974Y-124085286D01*
X89177046Y-124092214D01*
X89169470Y-124098432D01*
X89161319Y-124103879D01*
X89152674Y-124108500D01*
X89143618Y-124112251D01*
X89134239Y-124115096D01*
X89124627Y-124117008D01*
X89114872Y-124117969D01*
X89109970Y-124118210D01*
X87209970Y-124118210D01*
X87205068Y-124117969D01*
X87195313Y-124117008D01*
X87185701Y-124115096D01*
X87176322Y-124112251D01*
X87165398Y-124107450D01*
X87153297Y-124100299D01*
X87147500Y-124096296D01*
X86647500Y-123696296D01*
X86643826Y-123693049D01*
X86636809Y-123686206D01*
X86630491Y-123678700D01*
X86624945Y-123670618D01*
X86620221Y-123662039D01*
X86616357Y-123653031D01*
X86613394Y-123643686D01*
X86611362Y-123634098D01*
X86610353Y-123626498D01*
X86610047Y-123620976D01*
X86609970Y-123618210D01*
X86609970Y-121618210D01*
X86610211Y-121613308D01*
X86611172Y-121603553D01*
X86613084Y-121593941D01*
X86615929Y-121584562D01*
X86619680Y-121575506D01*
X86624301Y-121566861D01*
X86629748Y-121558710D01*
X86635966Y-121551134D01*
X86642894Y-121544206D01*
X86650470Y-121537988D01*
X86658621Y-121532541D01*
X86667266Y-121527920D01*
X86676322Y-121524169D01*
X86685701Y-121521324D01*
X86695313Y-121519412D01*
X86705068Y-121518451D01*
X86709970Y-121518210D01*
X89109970Y-121518210D01*
X89114872Y-121518451D01*
G37*
G36*
X76514872Y-124118451D02*
G01*
X76524627Y-124119412D01*
X76534239Y-124121324D01*
X76543618Y-124124169D01*
X76552674Y-124127920D01*
X76561319Y-124132541D01*
X76569470Y-124137988D01*
X76577046Y-124144206D01*
X76583974Y-124151134D01*
X76590192Y-124158710D01*
X76595639Y-124166861D01*
X76600260Y-124175506D01*
X76604011Y-124184562D01*
X76606856Y-124193941D01*
X76608768Y-124203553D01*
X76609729Y-124213308D01*
X76609970Y-124218210D01*
X76609970Y-126618210D01*
X76609729Y-126623112D01*
X76608768Y-126632867D01*
X76606856Y-126642479D01*
X76604011Y-126651858D01*
X76600260Y-126660914D01*
X76595639Y-126669559D01*
X76590192Y-126677710D01*
X76583974Y-126685286D01*
X76577046Y-126692214D01*
X76569470Y-126698432D01*
X76561319Y-126703879D01*
X76552674Y-126708500D01*
X76543618Y-126712251D01*
X76534239Y-126715096D01*
X76524627Y-126717008D01*
X76514872Y-126717969D01*
X76509970Y-126718210D01*
X74109970Y-126718210D01*
X74105068Y-126717969D01*
X74095313Y-126717008D01*
X74085701Y-126715096D01*
X74076322Y-126712251D01*
X74067266Y-126708500D01*
X74058621Y-126703879D01*
X74050470Y-126698432D01*
X74042894Y-126692214D01*
X74035966Y-126685286D01*
X74029748Y-126677710D01*
X74024301Y-126669559D01*
X74019680Y-126660914D01*
X74015929Y-126651858D01*
X74013084Y-126642479D01*
X74011172Y-126632867D01*
X74010211Y-126623112D01*
X74009970Y-126618210D01*
X74009970Y-126218210D01*
X73459970Y-126218210D01*
X73450215Y-126217249D01*
X73440836Y-126214404D01*
X73432191Y-126209783D01*
X73424615Y-126203565D01*
X73418397Y-126195989D01*
X73413776Y-126187344D01*
X73410931Y-126177965D01*
X73409970Y-126168210D01*
X73409970Y-124668210D01*
X73410931Y-124658455D01*
X73413776Y-124649076D01*
X73418397Y-124640431D01*
X73424615Y-124632855D01*
X73432191Y-124626637D01*
X73440836Y-124622016D01*
X73450215Y-124619171D01*
X73459970Y-124618210D01*
X74009970Y-124618210D01*
X74009970Y-124218210D01*
X74010211Y-124213308D01*
X74011172Y-124203553D01*
X74013084Y-124193941D01*
X74015929Y-124184562D01*
X74019680Y-124175506D01*
X74024301Y-124166861D01*
X74029748Y-124158710D01*
X74035966Y-124151134D01*
X74042894Y-124144206D01*
X74050470Y-124137988D01*
X74058621Y-124132541D01*
X74067266Y-124127920D01*
X74076322Y-124124169D01*
X74085701Y-124121324D01*
X74095313Y-124119412D01*
X74105068Y-124118451D01*
X74109970Y-124118210D01*
X76509970Y-124118210D01*
X76514872Y-124118451D01*
G37*
D12*
X78499970Y-125378209D03*
D13*
X77229970Y-127918210D03*
X87389970Y-127918210D03*
D14*
X87809970Y-127918210D03*
X76809970Y-127918210D03*
D15*
X82309970Y-127918210D03*
D12*
X84849970Y-122838210D03*
X82309970Y-133818210D03*
X77309970Y-131618210D03*
D16*
X85109970Y-133818210D03*
D17*
X74209970Y-131618210D03*
D12*
X87309970Y-131618210D03*
X79769970Y-122838210D03*
X86119970Y-125378210D03*
%TD*%
D10*
%TO.C,SW2*%
X95009970Y-66958210D03*
X107709970Y-66958210D03*
D11*
G36*
X108164872Y-64368451D02*
G01*
X108174627Y-64369412D01*
X108184239Y-64371324D01*
X108193618Y-64374169D01*
X108202674Y-64377920D01*
X108211319Y-64382541D01*
X108219470Y-64387988D01*
X108227046Y-64394206D01*
X108233974Y-64401134D01*
X108240192Y-64408710D01*
X108245639Y-64416861D01*
X108250260Y-64425506D01*
X108254011Y-64434562D01*
X108256856Y-64443941D01*
X108258768Y-64453553D01*
X108259729Y-64463308D01*
X108259970Y-64468210D01*
X108259970Y-64868210D01*
X108909970Y-64868210D01*
X108919725Y-64869171D01*
X108929104Y-64872016D01*
X108937749Y-64876637D01*
X108945325Y-64882855D01*
X108951543Y-64890431D01*
X108956164Y-64899076D01*
X108959009Y-64908455D01*
X108959970Y-64918210D01*
X108959970Y-66418210D01*
X108959009Y-66427965D01*
X108956164Y-66437344D01*
X108951543Y-66445989D01*
X108945325Y-66453565D01*
X108937749Y-66459783D01*
X108929104Y-66464404D01*
X108919725Y-66467249D01*
X108909970Y-66468210D01*
X108259970Y-66468210D01*
X108259970Y-66868210D01*
X108259729Y-66873112D01*
X108258768Y-66882867D01*
X108256856Y-66892479D01*
X108254011Y-66901858D01*
X108250260Y-66910914D01*
X108245639Y-66919559D01*
X108240192Y-66927710D01*
X108233974Y-66935286D01*
X108227046Y-66942214D01*
X108219470Y-66948432D01*
X108211319Y-66953879D01*
X108202674Y-66958500D01*
X108193618Y-66962251D01*
X108184239Y-66965096D01*
X108174627Y-66967008D01*
X108164872Y-66967969D01*
X108159970Y-66968210D01*
X106259970Y-66968210D01*
X106255068Y-66967969D01*
X106245313Y-66967008D01*
X106235701Y-66965096D01*
X106226322Y-66962251D01*
X106215398Y-66957450D01*
X106203297Y-66950299D01*
X106197500Y-66946296D01*
X105697500Y-66546296D01*
X105693826Y-66543049D01*
X105686809Y-66536206D01*
X105680491Y-66528700D01*
X105674945Y-66520618D01*
X105670221Y-66512039D01*
X105666357Y-66503031D01*
X105663394Y-66493686D01*
X105661362Y-66484098D01*
X105660353Y-66476498D01*
X105660047Y-66470976D01*
X105659970Y-66468210D01*
X105659970Y-64468210D01*
X105660211Y-64463308D01*
X105661172Y-64453553D01*
X105663084Y-64443941D01*
X105665929Y-64434562D01*
X105669680Y-64425506D01*
X105674301Y-64416861D01*
X105679748Y-64408710D01*
X105685966Y-64401134D01*
X105692894Y-64394206D01*
X105700470Y-64387988D01*
X105708621Y-64382541D01*
X105717266Y-64377920D01*
X105726322Y-64374169D01*
X105735701Y-64371324D01*
X105745313Y-64369412D01*
X105755068Y-64368451D01*
X105759970Y-64368210D01*
X108159970Y-64368210D01*
X108164872Y-64368451D01*
G37*
G36*
X95564872Y-66968451D02*
G01*
X95574627Y-66969412D01*
X95584239Y-66971324D01*
X95593618Y-66974169D01*
X95602674Y-66977920D01*
X95611319Y-66982541D01*
X95619470Y-66987988D01*
X95627046Y-66994206D01*
X95633974Y-67001134D01*
X95640192Y-67008710D01*
X95645639Y-67016861D01*
X95650260Y-67025506D01*
X95654011Y-67034562D01*
X95656856Y-67043941D01*
X95658768Y-67053553D01*
X95659729Y-67063308D01*
X95659970Y-67068210D01*
X95659970Y-69468210D01*
X95659729Y-69473112D01*
X95658768Y-69482867D01*
X95656856Y-69492479D01*
X95654011Y-69501858D01*
X95650260Y-69510914D01*
X95645639Y-69519559D01*
X95640192Y-69527710D01*
X95633974Y-69535286D01*
X95627046Y-69542214D01*
X95619470Y-69548432D01*
X95611319Y-69553879D01*
X95602674Y-69558500D01*
X95593618Y-69562251D01*
X95584239Y-69565096D01*
X95574627Y-69567008D01*
X95564872Y-69567969D01*
X95559970Y-69568210D01*
X93159970Y-69568210D01*
X93155068Y-69567969D01*
X93145313Y-69567008D01*
X93135701Y-69565096D01*
X93126322Y-69562251D01*
X93117266Y-69558500D01*
X93108621Y-69553879D01*
X93100470Y-69548432D01*
X93092894Y-69542214D01*
X93085966Y-69535286D01*
X93079748Y-69527710D01*
X93074301Y-69519559D01*
X93069680Y-69510914D01*
X93065929Y-69501858D01*
X93063084Y-69492479D01*
X93061172Y-69482867D01*
X93060211Y-69473112D01*
X93059970Y-69468210D01*
X93059970Y-69068210D01*
X92509970Y-69068210D01*
X92500215Y-69067249D01*
X92490836Y-69064404D01*
X92482191Y-69059783D01*
X92474615Y-69053565D01*
X92468397Y-69045989D01*
X92463776Y-69037344D01*
X92460931Y-69027965D01*
X92459970Y-69018210D01*
X92459970Y-67518210D01*
X92460931Y-67508455D01*
X92463776Y-67499076D01*
X92468397Y-67490431D01*
X92474615Y-67482855D01*
X92482191Y-67476637D01*
X92490836Y-67472016D01*
X92500215Y-67469171D01*
X92509970Y-67468210D01*
X93059970Y-67468210D01*
X93059970Y-67068210D01*
X93060211Y-67063308D01*
X93061172Y-67053553D01*
X93063084Y-67043941D01*
X93065929Y-67034562D01*
X93069680Y-67025506D01*
X93074301Y-67016861D01*
X93079748Y-67008710D01*
X93085966Y-67001134D01*
X93092894Y-66994206D01*
X93100470Y-66987988D01*
X93108621Y-66982541D01*
X93117266Y-66977920D01*
X93126322Y-66974169D01*
X93135701Y-66971324D01*
X93145313Y-66969412D01*
X93155068Y-66968451D01*
X93159970Y-66968210D01*
X95559970Y-66968210D01*
X95564872Y-66968451D01*
G37*
D12*
X97549970Y-68228209D03*
D13*
X96279970Y-70768210D03*
X106439970Y-70768210D03*
D14*
X106859970Y-70768210D03*
X95859970Y-70768210D03*
D15*
X101359970Y-70768210D03*
D12*
X103899970Y-65688210D03*
X101359970Y-76668210D03*
X96359970Y-74468210D03*
D16*
X104159970Y-76668210D03*
D17*
X93259970Y-74468210D03*
D12*
X106359970Y-74468210D03*
X98819970Y-65688210D03*
X105169970Y-68228210D03*
%TD*%
D18*
%TO.C,D18*%
X158509970Y-139824460D03*
D19*
X158509970Y-132204460D03*
%TD*%
D20*
%TO.C,U1*%
X89136220Y-47114460D03*
X73896220Y-47114460D03*
X76436220Y-77594460D03*
X78976220Y-77594460D03*
X81516220Y-77594460D03*
X84056220Y-77594460D03*
X86596220Y-77594460D03*
X89136220Y-49654460D03*
X74124820Y-77594460D03*
X89136220Y-52194460D03*
X89136220Y-54734460D03*
X89136220Y-57274460D03*
X89136220Y-59814460D03*
X89136220Y-62354460D03*
X89136220Y-64894460D03*
X89136220Y-67434460D03*
X89136220Y-69974460D03*
X89136220Y-72514460D03*
X89136220Y-75054460D03*
X89136220Y-77594460D03*
X73896220Y-75054460D03*
X73896220Y-72514460D03*
X73896220Y-69974460D03*
X73896220Y-67434460D03*
X73896220Y-64894460D03*
X73896220Y-62354460D03*
X73896220Y-59814460D03*
X73896220Y-57274460D03*
X73896220Y-54734460D03*
X73896220Y-52194460D03*
D21*
X73896220Y-49654460D03*
%TD*%
D17*
%TO.C,SW16*%
X113384970Y-125180710D03*
D22*
X110884970Y-125180710D03*
X108384970Y-125180710D03*
D23*
X116484970Y-132680710D03*
X105284970Y-132680710D03*
D22*
X113384970Y-139680710D03*
X108384970Y-139680710D03*
%TD*%
D18*
%TO.C,D2*%
X109138720Y-80293210D03*
D19*
X101518720Y-80293210D03*
%TD*%
D18*
%TO.C,D15*%
X161684970Y-123155710D03*
D19*
X169304970Y-123155710D03*
%TD*%
D24*
%TO.C,SW21*%
X140239720Y-63721710D03*
D25*
X139229720Y-61231710D03*
X134229720Y-61231710D03*
D24*
X133229720Y-63721710D03*
D26*
X136729720Y-60021710D03*
%TD*%
D10*
%TO.C,SW3*%
X114059970Y-62195710D03*
X126759970Y-62195710D03*
D11*
G36*
X127214872Y-59605951D02*
G01*
X127224627Y-59606912D01*
X127234239Y-59608824D01*
X127243618Y-59611669D01*
X127252674Y-59615420D01*
X127261319Y-59620041D01*
X127269470Y-59625488D01*
X127277046Y-59631706D01*
X127283974Y-59638634D01*
X127290192Y-59646210D01*
X127295639Y-59654361D01*
X127300260Y-59663006D01*
X127304011Y-59672062D01*
X127306856Y-59681441D01*
X127308768Y-59691053D01*
X127309729Y-59700808D01*
X127309970Y-59705710D01*
X127309970Y-60105710D01*
X127959970Y-60105710D01*
X127969725Y-60106671D01*
X127979104Y-60109516D01*
X127987749Y-60114137D01*
X127995325Y-60120355D01*
X128001543Y-60127931D01*
X128006164Y-60136576D01*
X128009009Y-60145955D01*
X128009970Y-60155710D01*
X128009970Y-61655710D01*
X128009009Y-61665465D01*
X128006164Y-61674844D01*
X128001543Y-61683489D01*
X127995325Y-61691065D01*
X127987749Y-61697283D01*
X127979104Y-61701904D01*
X127969725Y-61704749D01*
X127959970Y-61705710D01*
X127309970Y-61705710D01*
X127309970Y-62105710D01*
X127309729Y-62110612D01*
X127308768Y-62120367D01*
X127306856Y-62129979D01*
X127304011Y-62139358D01*
X127300260Y-62148414D01*
X127295639Y-62157059D01*
X127290192Y-62165210D01*
X127283974Y-62172786D01*
X127277046Y-62179714D01*
X127269470Y-62185932D01*
X127261319Y-62191379D01*
X127252674Y-62196000D01*
X127243618Y-62199751D01*
X127234239Y-62202596D01*
X127224627Y-62204508D01*
X127214872Y-62205469D01*
X127209970Y-62205710D01*
X125309970Y-62205710D01*
X125305068Y-62205469D01*
X125295313Y-62204508D01*
X125285701Y-62202596D01*
X125276322Y-62199751D01*
X125265398Y-62194950D01*
X125253297Y-62187799D01*
X125247500Y-62183796D01*
X124747500Y-61783796D01*
X124743826Y-61780549D01*
X124736809Y-61773706D01*
X124730491Y-61766200D01*
X124724945Y-61758118D01*
X124720221Y-61749539D01*
X124716357Y-61740531D01*
X124713394Y-61731186D01*
X124711362Y-61721598D01*
X124710353Y-61713998D01*
X124710047Y-61708476D01*
X124709970Y-61705710D01*
X124709970Y-59705710D01*
X124710211Y-59700808D01*
X124711172Y-59691053D01*
X124713084Y-59681441D01*
X124715929Y-59672062D01*
X124719680Y-59663006D01*
X124724301Y-59654361D01*
X124729748Y-59646210D01*
X124735966Y-59638634D01*
X124742894Y-59631706D01*
X124750470Y-59625488D01*
X124758621Y-59620041D01*
X124767266Y-59615420D01*
X124776322Y-59611669D01*
X124785701Y-59608824D01*
X124795313Y-59606912D01*
X124805068Y-59605951D01*
X124809970Y-59605710D01*
X127209970Y-59605710D01*
X127214872Y-59605951D01*
G37*
G36*
X114614872Y-62205951D02*
G01*
X114624627Y-62206912D01*
X114634239Y-62208824D01*
X114643618Y-62211669D01*
X114652674Y-62215420D01*
X114661319Y-62220041D01*
X114669470Y-62225488D01*
X114677046Y-62231706D01*
X114683974Y-62238634D01*
X114690192Y-62246210D01*
X114695639Y-62254361D01*
X114700260Y-62263006D01*
X114704011Y-62272062D01*
X114706856Y-62281441D01*
X114708768Y-62291053D01*
X114709729Y-62300808D01*
X114709970Y-62305710D01*
X114709970Y-64705710D01*
X114709729Y-64710612D01*
X114708768Y-64720367D01*
X114706856Y-64729979D01*
X114704011Y-64739358D01*
X114700260Y-64748414D01*
X114695639Y-64757059D01*
X114690192Y-64765210D01*
X114683974Y-64772786D01*
X114677046Y-64779714D01*
X114669470Y-64785932D01*
X114661319Y-64791379D01*
X114652674Y-64796000D01*
X114643618Y-64799751D01*
X114634239Y-64802596D01*
X114624627Y-64804508D01*
X114614872Y-64805469D01*
X114609970Y-64805710D01*
X112209970Y-64805710D01*
X112205068Y-64805469D01*
X112195313Y-64804508D01*
X112185701Y-64802596D01*
X112176322Y-64799751D01*
X112167266Y-64796000D01*
X112158621Y-64791379D01*
X112150470Y-64785932D01*
X112142894Y-64779714D01*
X112135966Y-64772786D01*
X112129748Y-64765210D01*
X112124301Y-64757059D01*
X112119680Y-64748414D01*
X112115929Y-64739358D01*
X112113084Y-64729979D01*
X112111172Y-64720367D01*
X112110211Y-64710612D01*
X112109970Y-64705710D01*
X112109970Y-64305710D01*
X111559970Y-64305710D01*
X111550215Y-64304749D01*
X111540836Y-64301904D01*
X111532191Y-64297283D01*
X111524615Y-64291065D01*
X111518397Y-64283489D01*
X111513776Y-64274844D01*
X111510931Y-64265465D01*
X111509970Y-64255710D01*
X111509970Y-62755710D01*
X111510931Y-62745955D01*
X111513776Y-62736576D01*
X111518397Y-62727931D01*
X111524615Y-62720355D01*
X111532191Y-62714137D01*
X111540836Y-62709516D01*
X111550215Y-62706671D01*
X111559970Y-62705710D01*
X112109970Y-62705710D01*
X112109970Y-62305710D01*
X112110211Y-62300808D01*
X112111172Y-62291053D01*
X112113084Y-62281441D01*
X112115929Y-62272062D01*
X112119680Y-62263006D01*
X112124301Y-62254361D01*
X112129748Y-62246210D01*
X112135966Y-62238634D01*
X112142894Y-62231706D01*
X112150470Y-62225488D01*
X112158621Y-62220041D01*
X112167266Y-62215420D01*
X112176322Y-62211669D01*
X112185701Y-62208824D01*
X112195313Y-62206912D01*
X112205068Y-62205951D01*
X112209970Y-62205710D01*
X114609970Y-62205710D01*
X114614872Y-62205951D01*
G37*
D12*
X116599970Y-63465709D03*
D13*
X115329970Y-66005710D03*
X125489970Y-66005710D03*
D14*
X125909970Y-66005710D03*
X114909970Y-66005710D03*
D15*
X120409970Y-66005710D03*
D12*
X122949970Y-60925710D03*
X120409970Y-71905710D03*
X115409970Y-69705710D03*
D16*
X123209970Y-71905710D03*
D17*
X112309970Y-69705710D03*
D12*
X125409970Y-69705710D03*
X117869970Y-60925710D03*
X124219970Y-63465710D03*
%TD*%
D10*
%TO.C,SW10*%
X152159970Y-90770710D03*
X164859970Y-90770710D03*
D11*
G36*
X165314872Y-88180951D02*
G01*
X165324627Y-88181912D01*
X165334239Y-88183824D01*
X165343618Y-88186669D01*
X165352674Y-88190420D01*
X165361319Y-88195041D01*
X165369470Y-88200488D01*
X165377046Y-88206706D01*
X165383974Y-88213634D01*
X165390192Y-88221210D01*
X165395639Y-88229361D01*
X165400260Y-88238006D01*
X165404011Y-88247062D01*
X165406856Y-88256441D01*
X165408768Y-88266053D01*
X165409729Y-88275808D01*
X165409970Y-88280710D01*
X165409970Y-88680710D01*
X166059970Y-88680710D01*
X166069725Y-88681671D01*
X166079104Y-88684516D01*
X166087749Y-88689137D01*
X166095325Y-88695355D01*
X166101543Y-88702931D01*
X166106164Y-88711576D01*
X166109009Y-88720955D01*
X166109970Y-88730710D01*
X166109970Y-90230710D01*
X166109009Y-90240465D01*
X166106164Y-90249844D01*
X166101543Y-90258489D01*
X166095325Y-90266065D01*
X166087749Y-90272283D01*
X166079104Y-90276904D01*
X166069725Y-90279749D01*
X166059970Y-90280710D01*
X165409970Y-90280710D01*
X165409970Y-90680710D01*
X165409729Y-90685612D01*
X165408768Y-90695367D01*
X165406856Y-90704979D01*
X165404011Y-90714358D01*
X165400260Y-90723414D01*
X165395639Y-90732059D01*
X165390192Y-90740210D01*
X165383974Y-90747786D01*
X165377046Y-90754714D01*
X165369470Y-90760932D01*
X165361319Y-90766379D01*
X165352674Y-90771000D01*
X165343618Y-90774751D01*
X165334239Y-90777596D01*
X165324627Y-90779508D01*
X165314872Y-90780469D01*
X165309970Y-90780710D01*
X163409970Y-90780710D01*
X163405068Y-90780469D01*
X163395313Y-90779508D01*
X163385701Y-90777596D01*
X163376322Y-90774751D01*
X163365398Y-90769950D01*
X163353297Y-90762799D01*
X163347500Y-90758796D01*
X162847500Y-90358796D01*
X162843826Y-90355549D01*
X162836809Y-90348706D01*
X162830491Y-90341200D01*
X162824945Y-90333118D01*
X162820221Y-90324539D01*
X162816357Y-90315531D01*
X162813394Y-90306186D01*
X162811362Y-90296598D01*
X162810353Y-90288998D01*
X162810047Y-90283476D01*
X162809970Y-90280710D01*
X162809970Y-88280710D01*
X162810211Y-88275808D01*
X162811172Y-88266053D01*
X162813084Y-88256441D01*
X162815929Y-88247062D01*
X162819680Y-88238006D01*
X162824301Y-88229361D01*
X162829748Y-88221210D01*
X162835966Y-88213634D01*
X162842894Y-88206706D01*
X162850470Y-88200488D01*
X162858621Y-88195041D01*
X162867266Y-88190420D01*
X162876322Y-88186669D01*
X162885701Y-88183824D01*
X162895313Y-88181912D01*
X162905068Y-88180951D01*
X162909970Y-88180710D01*
X165309970Y-88180710D01*
X165314872Y-88180951D01*
G37*
G36*
X152714872Y-90780951D02*
G01*
X152724627Y-90781912D01*
X152734239Y-90783824D01*
X152743618Y-90786669D01*
X152752674Y-90790420D01*
X152761319Y-90795041D01*
X152769470Y-90800488D01*
X152777046Y-90806706D01*
X152783974Y-90813634D01*
X152790192Y-90821210D01*
X152795639Y-90829361D01*
X152800260Y-90838006D01*
X152804011Y-90847062D01*
X152806856Y-90856441D01*
X152808768Y-90866053D01*
X152809729Y-90875808D01*
X152809970Y-90880710D01*
X152809970Y-93280710D01*
X152809729Y-93285612D01*
X152808768Y-93295367D01*
X152806856Y-93304979D01*
X152804011Y-93314358D01*
X152800260Y-93323414D01*
X152795639Y-93332059D01*
X152790192Y-93340210D01*
X152783974Y-93347786D01*
X152777046Y-93354714D01*
X152769470Y-93360932D01*
X152761319Y-93366379D01*
X152752674Y-93371000D01*
X152743618Y-93374751D01*
X152734239Y-93377596D01*
X152724627Y-93379508D01*
X152714872Y-93380469D01*
X152709970Y-93380710D01*
X150309970Y-93380710D01*
X150305068Y-93380469D01*
X150295313Y-93379508D01*
X150285701Y-93377596D01*
X150276322Y-93374751D01*
X150267266Y-93371000D01*
X150258621Y-93366379D01*
X150250470Y-93360932D01*
X150242894Y-93354714D01*
X150235966Y-93347786D01*
X150229748Y-93340210D01*
X150224301Y-93332059D01*
X150219680Y-93323414D01*
X150215929Y-93314358D01*
X150213084Y-93304979D01*
X150211172Y-93295367D01*
X150210211Y-93285612D01*
X150209970Y-93280710D01*
X150209970Y-92880710D01*
X149659970Y-92880710D01*
X149650215Y-92879749D01*
X149640836Y-92876904D01*
X149632191Y-92872283D01*
X149624615Y-92866065D01*
X149618397Y-92858489D01*
X149613776Y-92849844D01*
X149610931Y-92840465D01*
X149609970Y-92830710D01*
X149609970Y-91330710D01*
X149610931Y-91320955D01*
X149613776Y-91311576D01*
X149618397Y-91302931D01*
X149624615Y-91295355D01*
X149632191Y-91289137D01*
X149640836Y-91284516D01*
X149650215Y-91281671D01*
X149659970Y-91280710D01*
X150209970Y-91280710D01*
X150209970Y-90880710D01*
X150210211Y-90875808D01*
X150211172Y-90866053D01*
X150213084Y-90856441D01*
X150215929Y-90847062D01*
X150219680Y-90838006D01*
X150224301Y-90829361D01*
X150229748Y-90821210D01*
X150235966Y-90813634D01*
X150242894Y-90806706D01*
X150250470Y-90800488D01*
X150258621Y-90795041D01*
X150267266Y-90790420D01*
X150276322Y-90786669D01*
X150285701Y-90783824D01*
X150295313Y-90781912D01*
X150305068Y-90780951D01*
X150309970Y-90780710D01*
X152709970Y-90780710D01*
X152714872Y-90780951D01*
G37*
D12*
X154699970Y-92040709D03*
D13*
X153429970Y-94580710D03*
X163589970Y-94580710D03*
D14*
X164009970Y-94580710D03*
X153009970Y-94580710D03*
D15*
X158509970Y-94580710D03*
D12*
X161049970Y-89500710D03*
X158509970Y-100480710D03*
X153509970Y-98280710D03*
D16*
X161309970Y-100480710D03*
D17*
X150409970Y-98280710D03*
D12*
X163509970Y-98280710D03*
X155969970Y-89500710D03*
X162319970Y-92040710D03*
%TD*%
D10*
%TO.C,SW7*%
X95009970Y-86008210D03*
X107709970Y-86008210D03*
D11*
G36*
X108164872Y-83418451D02*
G01*
X108174627Y-83419412D01*
X108184239Y-83421324D01*
X108193618Y-83424169D01*
X108202674Y-83427920D01*
X108211319Y-83432541D01*
X108219470Y-83437988D01*
X108227046Y-83444206D01*
X108233974Y-83451134D01*
X108240192Y-83458710D01*
X108245639Y-83466861D01*
X108250260Y-83475506D01*
X108254011Y-83484562D01*
X108256856Y-83493941D01*
X108258768Y-83503553D01*
X108259729Y-83513308D01*
X108259970Y-83518210D01*
X108259970Y-83918210D01*
X108909970Y-83918210D01*
X108919725Y-83919171D01*
X108929104Y-83922016D01*
X108937749Y-83926637D01*
X108945325Y-83932855D01*
X108951543Y-83940431D01*
X108956164Y-83949076D01*
X108959009Y-83958455D01*
X108959970Y-83968210D01*
X108959970Y-85468210D01*
X108959009Y-85477965D01*
X108956164Y-85487344D01*
X108951543Y-85495989D01*
X108945325Y-85503565D01*
X108937749Y-85509783D01*
X108929104Y-85514404D01*
X108919725Y-85517249D01*
X108909970Y-85518210D01*
X108259970Y-85518210D01*
X108259970Y-85918210D01*
X108259729Y-85923112D01*
X108258768Y-85932867D01*
X108256856Y-85942479D01*
X108254011Y-85951858D01*
X108250260Y-85960914D01*
X108245639Y-85969559D01*
X108240192Y-85977710D01*
X108233974Y-85985286D01*
X108227046Y-85992214D01*
X108219470Y-85998432D01*
X108211319Y-86003879D01*
X108202674Y-86008500D01*
X108193618Y-86012251D01*
X108184239Y-86015096D01*
X108174627Y-86017008D01*
X108164872Y-86017969D01*
X108159970Y-86018210D01*
X106259970Y-86018210D01*
X106255068Y-86017969D01*
X106245313Y-86017008D01*
X106235701Y-86015096D01*
X106226322Y-86012251D01*
X106215398Y-86007450D01*
X106203297Y-86000299D01*
X106197500Y-85996296D01*
X105697500Y-85596296D01*
X105693826Y-85593049D01*
X105686809Y-85586206D01*
X105680491Y-85578700D01*
X105674945Y-85570618D01*
X105670221Y-85562039D01*
X105666357Y-85553031D01*
X105663394Y-85543686D01*
X105661362Y-85534098D01*
X105660353Y-85526498D01*
X105660047Y-85520976D01*
X105659970Y-85518210D01*
X105659970Y-83518210D01*
X105660211Y-83513308D01*
X105661172Y-83503553D01*
X105663084Y-83493941D01*
X105665929Y-83484562D01*
X105669680Y-83475506D01*
X105674301Y-83466861D01*
X105679748Y-83458710D01*
X105685966Y-83451134D01*
X105692894Y-83444206D01*
X105700470Y-83437988D01*
X105708621Y-83432541D01*
X105717266Y-83427920D01*
X105726322Y-83424169D01*
X105735701Y-83421324D01*
X105745313Y-83419412D01*
X105755068Y-83418451D01*
X105759970Y-83418210D01*
X108159970Y-83418210D01*
X108164872Y-83418451D01*
G37*
G36*
X95564872Y-86018451D02*
G01*
X95574627Y-86019412D01*
X95584239Y-86021324D01*
X95593618Y-86024169D01*
X95602674Y-86027920D01*
X95611319Y-86032541D01*
X95619470Y-86037988D01*
X95627046Y-86044206D01*
X95633974Y-86051134D01*
X95640192Y-86058710D01*
X95645639Y-86066861D01*
X95650260Y-86075506D01*
X95654011Y-86084562D01*
X95656856Y-86093941D01*
X95658768Y-86103553D01*
X95659729Y-86113308D01*
X95659970Y-86118210D01*
X95659970Y-88518210D01*
X95659729Y-88523112D01*
X95658768Y-88532867D01*
X95656856Y-88542479D01*
X95654011Y-88551858D01*
X95650260Y-88560914D01*
X95645639Y-88569559D01*
X95640192Y-88577710D01*
X95633974Y-88585286D01*
X95627046Y-88592214D01*
X95619470Y-88598432D01*
X95611319Y-88603879D01*
X95602674Y-88608500D01*
X95593618Y-88612251D01*
X95584239Y-88615096D01*
X95574627Y-88617008D01*
X95564872Y-88617969D01*
X95559970Y-88618210D01*
X93159970Y-88618210D01*
X93155068Y-88617969D01*
X93145313Y-88617008D01*
X93135701Y-88615096D01*
X93126322Y-88612251D01*
X93117266Y-88608500D01*
X93108621Y-88603879D01*
X93100470Y-88598432D01*
X93092894Y-88592214D01*
X93085966Y-88585286D01*
X93079748Y-88577710D01*
X93074301Y-88569559D01*
X93069680Y-88560914D01*
X93065929Y-88551858D01*
X93063084Y-88542479D01*
X93061172Y-88532867D01*
X93060211Y-88523112D01*
X93059970Y-88518210D01*
X93059970Y-88118210D01*
X92509970Y-88118210D01*
X92500215Y-88117249D01*
X92490836Y-88114404D01*
X92482191Y-88109783D01*
X92474615Y-88103565D01*
X92468397Y-88095989D01*
X92463776Y-88087344D01*
X92460931Y-88077965D01*
X92459970Y-88068210D01*
X92459970Y-86568210D01*
X92460931Y-86558455D01*
X92463776Y-86549076D01*
X92468397Y-86540431D01*
X92474615Y-86532855D01*
X92482191Y-86526637D01*
X92490836Y-86522016D01*
X92500215Y-86519171D01*
X92509970Y-86518210D01*
X93059970Y-86518210D01*
X93059970Y-86118210D01*
X93060211Y-86113308D01*
X93061172Y-86103553D01*
X93063084Y-86093941D01*
X93065929Y-86084562D01*
X93069680Y-86075506D01*
X93074301Y-86066861D01*
X93079748Y-86058710D01*
X93085966Y-86051134D01*
X93092894Y-86044206D01*
X93100470Y-86037988D01*
X93108621Y-86032541D01*
X93117266Y-86027920D01*
X93126322Y-86024169D01*
X93135701Y-86021324D01*
X93145313Y-86019412D01*
X93155068Y-86018451D01*
X93159970Y-86018210D01*
X95559970Y-86018210D01*
X95564872Y-86018451D01*
G37*
D12*
X97549970Y-87278209D03*
D13*
X96279970Y-89818210D03*
X106439970Y-89818210D03*
D14*
X106859970Y-89818210D03*
X95859970Y-89818210D03*
D15*
X101359970Y-89818210D03*
D12*
X103899970Y-84738210D03*
X101359970Y-95718210D03*
X96359970Y-93518210D03*
D16*
X104159970Y-95718210D03*
D17*
X93259970Y-93518210D03*
D12*
X106359970Y-93518210D03*
X98819970Y-84738210D03*
X105169970Y-87278210D03*
%TD*%
D10*
%TO.C,SW19*%
X161684970Y-128870710D03*
X174384970Y-128870710D03*
D11*
G36*
X174839872Y-126280951D02*
G01*
X174849627Y-126281912D01*
X174859239Y-126283824D01*
X174868618Y-126286669D01*
X174877674Y-126290420D01*
X174886319Y-126295041D01*
X174894470Y-126300488D01*
X174902046Y-126306706D01*
X174908974Y-126313634D01*
X174915192Y-126321210D01*
X174920639Y-126329361D01*
X174925260Y-126338006D01*
X174929011Y-126347062D01*
X174931856Y-126356441D01*
X174933768Y-126366053D01*
X174934729Y-126375808D01*
X174934970Y-126380710D01*
X174934970Y-126780710D01*
X175584970Y-126780710D01*
X175594725Y-126781671D01*
X175604104Y-126784516D01*
X175612749Y-126789137D01*
X175620325Y-126795355D01*
X175626543Y-126802931D01*
X175631164Y-126811576D01*
X175634009Y-126820955D01*
X175634970Y-126830710D01*
X175634970Y-128330710D01*
X175634009Y-128340465D01*
X175631164Y-128349844D01*
X175626543Y-128358489D01*
X175620325Y-128366065D01*
X175612749Y-128372283D01*
X175604104Y-128376904D01*
X175594725Y-128379749D01*
X175584970Y-128380710D01*
X174934970Y-128380710D01*
X174934970Y-128780710D01*
X174934729Y-128785612D01*
X174933768Y-128795367D01*
X174931856Y-128804979D01*
X174929011Y-128814358D01*
X174925260Y-128823414D01*
X174920639Y-128832059D01*
X174915192Y-128840210D01*
X174908974Y-128847786D01*
X174902046Y-128854714D01*
X174894470Y-128860932D01*
X174886319Y-128866379D01*
X174877674Y-128871000D01*
X174868618Y-128874751D01*
X174859239Y-128877596D01*
X174849627Y-128879508D01*
X174839872Y-128880469D01*
X174834970Y-128880710D01*
X172934970Y-128880710D01*
X172930068Y-128880469D01*
X172920313Y-128879508D01*
X172910701Y-128877596D01*
X172901322Y-128874751D01*
X172890398Y-128869950D01*
X172878297Y-128862799D01*
X172872500Y-128858796D01*
X172372500Y-128458796D01*
X172368826Y-128455549D01*
X172361809Y-128448706D01*
X172355491Y-128441200D01*
X172349945Y-128433118D01*
X172345221Y-128424539D01*
X172341357Y-128415531D01*
X172338394Y-128406186D01*
X172336362Y-128396598D01*
X172335353Y-128388998D01*
X172335047Y-128383476D01*
X172334970Y-128380710D01*
X172334970Y-126380710D01*
X172335211Y-126375808D01*
X172336172Y-126366053D01*
X172338084Y-126356441D01*
X172340929Y-126347062D01*
X172344680Y-126338006D01*
X172349301Y-126329361D01*
X172354748Y-126321210D01*
X172360966Y-126313634D01*
X172367894Y-126306706D01*
X172375470Y-126300488D01*
X172383621Y-126295041D01*
X172392266Y-126290420D01*
X172401322Y-126286669D01*
X172410701Y-126283824D01*
X172420313Y-126281912D01*
X172430068Y-126280951D01*
X172434970Y-126280710D01*
X174834970Y-126280710D01*
X174839872Y-126280951D01*
G37*
G36*
X162239872Y-128880951D02*
G01*
X162249627Y-128881912D01*
X162259239Y-128883824D01*
X162268618Y-128886669D01*
X162277674Y-128890420D01*
X162286319Y-128895041D01*
X162294470Y-128900488D01*
X162302046Y-128906706D01*
X162308974Y-128913634D01*
X162315192Y-128921210D01*
X162320639Y-128929361D01*
X162325260Y-128938006D01*
X162329011Y-128947062D01*
X162331856Y-128956441D01*
X162333768Y-128966053D01*
X162334729Y-128975808D01*
X162334970Y-128980710D01*
X162334970Y-131380710D01*
X162334729Y-131385612D01*
X162333768Y-131395367D01*
X162331856Y-131404979D01*
X162329011Y-131414358D01*
X162325260Y-131423414D01*
X162320639Y-131432059D01*
X162315192Y-131440210D01*
X162308974Y-131447786D01*
X162302046Y-131454714D01*
X162294470Y-131460932D01*
X162286319Y-131466379D01*
X162277674Y-131471000D01*
X162268618Y-131474751D01*
X162259239Y-131477596D01*
X162249627Y-131479508D01*
X162239872Y-131480469D01*
X162234970Y-131480710D01*
X159834970Y-131480710D01*
X159830068Y-131480469D01*
X159820313Y-131479508D01*
X159810701Y-131477596D01*
X159801322Y-131474751D01*
X159792266Y-131471000D01*
X159783621Y-131466379D01*
X159775470Y-131460932D01*
X159767894Y-131454714D01*
X159760966Y-131447786D01*
X159754748Y-131440210D01*
X159749301Y-131432059D01*
X159744680Y-131423414D01*
X159740929Y-131414358D01*
X159738084Y-131404979D01*
X159736172Y-131395367D01*
X159735211Y-131385612D01*
X159734970Y-131380710D01*
X159734970Y-130980710D01*
X159184970Y-130980710D01*
X159175215Y-130979749D01*
X159165836Y-130976904D01*
X159157191Y-130972283D01*
X159149615Y-130966065D01*
X159143397Y-130958489D01*
X159138776Y-130949844D01*
X159135931Y-130940465D01*
X159134970Y-130930710D01*
X159134970Y-129430710D01*
X159135931Y-129420955D01*
X159138776Y-129411576D01*
X159143397Y-129402931D01*
X159149615Y-129395355D01*
X159157191Y-129389137D01*
X159165836Y-129384516D01*
X159175215Y-129381671D01*
X159184970Y-129380710D01*
X159734970Y-129380710D01*
X159734970Y-128980710D01*
X159735211Y-128975808D01*
X159736172Y-128966053D01*
X159738084Y-128956441D01*
X159740929Y-128947062D01*
X159744680Y-128938006D01*
X159749301Y-128929361D01*
X159754748Y-128921210D01*
X159760966Y-128913634D01*
X159767894Y-128906706D01*
X159775470Y-128900488D01*
X159783621Y-128895041D01*
X159792266Y-128890420D01*
X159801322Y-128886669D01*
X159810701Y-128883824D01*
X159820313Y-128881912D01*
X159830068Y-128880951D01*
X159834970Y-128880710D01*
X162234970Y-128880710D01*
X162239872Y-128880951D01*
G37*
D12*
X164224970Y-130140709D03*
D13*
X162954970Y-132680710D03*
X173114970Y-132680710D03*
D14*
X173534970Y-132680710D03*
X162534970Y-132680710D03*
D15*
X168034970Y-132680710D03*
D12*
X170574970Y-127600710D03*
X168034970Y-138580710D03*
X163034970Y-136380710D03*
D16*
X170834970Y-138580710D03*
D17*
X159934970Y-136380710D03*
D12*
X173034970Y-136380710D03*
X165494970Y-127600710D03*
X171844970Y-130140710D03*
%TD*%
D18*
%TO.C,D13*%
X128188720Y-113630710D03*
D19*
X120568720Y-113630710D03*
%TD*%
D18*
%TO.C,D1*%
X91834970Y-82674460D03*
D19*
X91834970Y-90294460D03*
%TD*%
D18*
%TO.C,D8*%
X125172470Y-94580710D03*
D19*
X117552470Y-94580710D03*
%TD*%
D27*
%TO.C,PJ1*%
X148984970Y-59505710D03*
D28*
X146684970Y-54905710D03*
X146684970Y-61905710D03*
D27*
X148984970Y-56505710D03*
X148984970Y-63505710D03*
X144384970Y-64605710D03*
X153584970Y-64605710D03*
D28*
X151284970Y-54905710D03*
X151284970Y-61905710D03*
%TD*%
D18*
%TO.C,D3*%
X128188720Y-75530710D03*
D19*
X120568720Y-75530710D03*
%TD*%
D18*
%TO.C,D14*%
X147238720Y-123155710D03*
D19*
X139618720Y-123155710D03*
%TD*%
D18*
%TO.C,D19*%
X177559970Y-139824460D03*
D19*
X177559970Y-132204460D03*
%TD*%
D18*
%TO.C,D4*%
X147238720Y-85055710D03*
D19*
X139618720Y-85055710D03*
%TD*%
D18*
%TO.C,D5*%
X151366220Y-85055710D03*
D19*
X158986220Y-85055710D03*
%TD*%
D18*
%TO.C,D6*%
X91834970Y-101724460D03*
D19*
X91834970Y-109344460D03*
%TD*%
D18*
%TO.C,D16*%
X101359970Y-139665710D03*
D19*
X101359970Y-132045710D03*
%TD*%
D18*
%TO.C,D12*%
X114650520Y-118297960D03*
D19*
X107030520Y-118297960D03*
%TD*%
D18*
%TO.C,D10*%
X151524970Y-104105710D03*
D19*
X159144970Y-104105710D03*
%TD*%
D18*
%TO.C,D17*%
X139459970Y-139824460D03*
D19*
X139459970Y-132204460D03*
%TD*%
D18*
%TO.C,D7*%
X109138720Y-99343210D03*
D19*
X101518720Y-99343210D03*
%TD*%
D18*
%TO.C,D9*%
X147238720Y-104105710D03*
D19*
X139618720Y-104105710D03*
%TD*%
D29*
%TO.C,C1*%
X129611120Y-49378360D03*
X129611120Y-51378360D03*
%TD*%
D30*
%TO.C,SW20*%
X163291220Y-62830710D03*
X160891220Y-62830710D03*
X158491220Y-62830710D03*
%TD*%
D18*
%TO.C,D11*%
X85961220Y-119186960D03*
D19*
X78341220Y-119186960D03*
%TD*%
D10*
%TO.C,SW1*%
X75959970Y-86008210D03*
X88659970Y-86008210D03*
D11*
G36*
X89114872Y-83418451D02*
G01*
X89124627Y-83419412D01*
X89134239Y-83421324D01*
X89143618Y-83424169D01*
X89152674Y-83427920D01*
X89161319Y-83432541D01*
X89169470Y-83437988D01*
X89177046Y-83444206D01*
X89183974Y-83451134D01*
X89190192Y-83458710D01*
X89195639Y-83466861D01*
X89200260Y-83475506D01*
X89204011Y-83484562D01*
X89206856Y-83493941D01*
X89208768Y-83503553D01*
X89209729Y-83513308D01*
X89209970Y-83518210D01*
X89209970Y-83918210D01*
X89859970Y-83918210D01*
X89869725Y-83919171D01*
X89879104Y-83922016D01*
X89887749Y-83926637D01*
X89895325Y-83932855D01*
X89901543Y-83940431D01*
X89906164Y-83949076D01*
X89909009Y-83958455D01*
X89909970Y-83968210D01*
X89909970Y-85468210D01*
X89909009Y-85477965D01*
X89906164Y-85487344D01*
X89901543Y-85495989D01*
X89895325Y-85503565D01*
X89887749Y-85509783D01*
X89879104Y-85514404D01*
X89869725Y-85517249D01*
X89859970Y-85518210D01*
X89209970Y-85518210D01*
X89209970Y-85918210D01*
X89209729Y-85923112D01*
X89208768Y-85932867D01*
X89206856Y-85942479D01*
X89204011Y-85951858D01*
X89200260Y-85960914D01*
X89195639Y-85969559D01*
X89190192Y-85977710D01*
X89183974Y-85985286D01*
X89177046Y-85992214D01*
X89169470Y-85998432D01*
X89161319Y-86003879D01*
X89152674Y-86008500D01*
X89143618Y-86012251D01*
X89134239Y-86015096D01*
X89124627Y-86017008D01*
X89114872Y-86017969D01*
X89109970Y-86018210D01*
X87209970Y-86018210D01*
X87205068Y-86017969D01*
X87195313Y-86017008D01*
X87185701Y-86015096D01*
X87176322Y-86012251D01*
X87165398Y-86007450D01*
X87153297Y-86000299D01*
X87147500Y-85996296D01*
X86647500Y-85596296D01*
X86643826Y-85593049D01*
X86636809Y-85586206D01*
X86630491Y-85578700D01*
X86624945Y-85570618D01*
X86620221Y-85562039D01*
X86616357Y-85553031D01*
X86613394Y-85543686D01*
X86611362Y-85534098D01*
X86610353Y-85526498D01*
X86610047Y-85520976D01*
X86609970Y-85518210D01*
X86609970Y-83518210D01*
X86610211Y-83513308D01*
X86611172Y-83503553D01*
X86613084Y-83493941D01*
X86615929Y-83484562D01*
X86619680Y-83475506D01*
X86624301Y-83466861D01*
X86629748Y-83458710D01*
X86635966Y-83451134D01*
X86642894Y-83444206D01*
X86650470Y-83437988D01*
X86658621Y-83432541D01*
X86667266Y-83427920D01*
X86676322Y-83424169D01*
X86685701Y-83421324D01*
X86695313Y-83419412D01*
X86705068Y-83418451D01*
X86709970Y-83418210D01*
X89109970Y-83418210D01*
X89114872Y-83418451D01*
G37*
G36*
X76514872Y-86018451D02*
G01*
X76524627Y-86019412D01*
X76534239Y-86021324D01*
X76543618Y-86024169D01*
X76552674Y-86027920D01*
X76561319Y-86032541D01*
X76569470Y-86037988D01*
X76577046Y-86044206D01*
X76583974Y-86051134D01*
X76590192Y-86058710D01*
X76595639Y-86066861D01*
X76600260Y-86075506D01*
X76604011Y-86084562D01*
X76606856Y-86093941D01*
X76608768Y-86103553D01*
X76609729Y-86113308D01*
X76609970Y-86118210D01*
X76609970Y-88518210D01*
X76609729Y-88523112D01*
X76608768Y-88532867D01*
X76606856Y-88542479D01*
X76604011Y-88551858D01*
X76600260Y-88560914D01*
X76595639Y-88569559D01*
X76590192Y-88577710D01*
X76583974Y-88585286D01*
X76577046Y-88592214D01*
X76569470Y-88598432D01*
X76561319Y-88603879D01*
X76552674Y-88608500D01*
X76543618Y-88612251D01*
X76534239Y-88615096D01*
X76524627Y-88617008D01*
X76514872Y-88617969D01*
X76509970Y-88618210D01*
X74109970Y-88618210D01*
X74105068Y-88617969D01*
X74095313Y-88617008D01*
X74085701Y-88615096D01*
X74076322Y-88612251D01*
X74067266Y-88608500D01*
X74058621Y-88603879D01*
X74050470Y-88598432D01*
X74042894Y-88592214D01*
X74035966Y-88585286D01*
X74029748Y-88577710D01*
X74024301Y-88569559D01*
X74019680Y-88560914D01*
X74015929Y-88551858D01*
X74013084Y-88542479D01*
X74011172Y-88532867D01*
X74010211Y-88523112D01*
X74009970Y-88518210D01*
X74009970Y-88118210D01*
X73459970Y-88118210D01*
X73450215Y-88117249D01*
X73440836Y-88114404D01*
X73432191Y-88109783D01*
X73424615Y-88103565D01*
X73418397Y-88095989D01*
X73413776Y-88087344D01*
X73410931Y-88077965D01*
X73409970Y-88068210D01*
X73409970Y-86568210D01*
X73410931Y-86558455D01*
X73413776Y-86549076D01*
X73418397Y-86540431D01*
X73424615Y-86532855D01*
X73432191Y-86526637D01*
X73440836Y-86522016D01*
X73450215Y-86519171D01*
X73459970Y-86518210D01*
X74009970Y-86518210D01*
X74009970Y-86118210D01*
X74010211Y-86113308D01*
X74011172Y-86103553D01*
X74013084Y-86093941D01*
X74015929Y-86084562D01*
X74019680Y-86075506D01*
X74024301Y-86066861D01*
X74029748Y-86058710D01*
X74035966Y-86051134D01*
X74042894Y-86044206D01*
X74050470Y-86037988D01*
X74058621Y-86032541D01*
X74067266Y-86027920D01*
X74076322Y-86024169D01*
X74085701Y-86021324D01*
X74095313Y-86019412D01*
X74105068Y-86018451D01*
X74109970Y-86018210D01*
X76509970Y-86018210D01*
X76514872Y-86018451D01*
G37*
D12*
X78499970Y-87278209D03*
D13*
X77229970Y-89818210D03*
X87389970Y-89818210D03*
D14*
X87809970Y-89818210D03*
X76809970Y-89818210D03*
D15*
X82309970Y-89818210D03*
D12*
X84849970Y-84738210D03*
X82309970Y-95718210D03*
X77309970Y-93518210D03*
D16*
X85109970Y-95718210D03*
D17*
X74209970Y-93518210D03*
D12*
X87309970Y-93518210D03*
X79769970Y-84738210D03*
X86119970Y-87278210D03*
%TD*%
D31*
%TO.C,L2*%
X175191420Y-115336320D03*
X171991020Y-115336320D03*
X171991020Y-110337600D03*
X175191420Y-110337600D03*
%TD*%
M02*
