%TF.GenerationSoftware,KiCad,Pcbnew,(5.1.6)-1*%
%TF.CreationDate,2021-05-04T17:20:08-05:00*%
%TF.ProjectId,FlatDox,466c6174-446f-4782-9e6b-696361645f70,rev?*%
%TF.SameCoordinates,Original*%
%TF.FileFunction,Paste,Top*%
%TF.FilePolarity,Positive*%
%FSLAX46Y46*%
G04 Gerber Fmt 4.6, Leading zero omitted, Abs format (unit mm)*
G04 Created by KiCad (PCBNEW (5.1.6)-1) date 2021-05-04 17:20:08*
%MOMM*%
%LPD*%
G01*
G04 APERTURE LIST*
%ADD10C,0.100000*%
%ADD11R,2.000000X2.000000*%
%ADD12R,1.800000X2.000000*%
%ADD13R,0.899160X1.501140*%
G04 APERTURE END LIST*
D10*
%TO.C,SW15*%
G36*
X154019725Y-107281671D02*
G01*
X154029104Y-107284516D01*
X154037749Y-107289137D01*
X154045325Y-107295355D01*
X154051543Y-107302931D01*
X154056164Y-107311576D01*
X154059009Y-107320955D01*
X154059970Y-107330710D01*
X154059970Y-109330710D01*
X154059009Y-109340465D01*
X154056164Y-109349844D01*
X154051543Y-109358489D01*
X154045325Y-109366065D01*
X154037705Y-109372313D01*
X153437705Y-109772313D01*
X153429056Y-109776924D01*
X153419673Y-109779759D01*
X153409970Y-109780710D01*
X151609970Y-109780710D01*
X151600215Y-109779749D01*
X151590836Y-109776904D01*
X151582191Y-109772283D01*
X151574615Y-109766065D01*
X151568397Y-109758489D01*
X151563776Y-109749844D01*
X151560931Y-109740465D01*
X151559970Y-109730710D01*
X151559970Y-109280710D01*
X150959970Y-109280710D01*
X150959970Y-107780710D01*
X151559970Y-107780710D01*
X151559970Y-107330710D01*
X151560931Y-107320955D01*
X151563776Y-107311576D01*
X151568397Y-107302931D01*
X151574615Y-107295355D01*
X151582191Y-107289137D01*
X151590836Y-107284516D01*
X151600215Y-107281671D01*
X151609970Y-107280710D01*
X154009970Y-107280710D01*
X154019725Y-107281671D01*
G37*
G36*
X166619725Y-109881671D02*
G01*
X166629104Y-109884516D01*
X166637749Y-109889137D01*
X166645325Y-109895355D01*
X166651543Y-109902931D01*
X166656164Y-109911576D01*
X166659009Y-109920955D01*
X166659970Y-109930710D01*
X166659970Y-110380710D01*
X167359970Y-110380710D01*
X167359970Y-111880710D01*
X166659970Y-111880710D01*
X166659970Y-112330710D01*
X166659009Y-112340465D01*
X166656164Y-112349844D01*
X166651543Y-112358489D01*
X166645325Y-112366065D01*
X166637749Y-112372283D01*
X166629104Y-112376904D01*
X166619725Y-112379749D01*
X166609970Y-112380710D01*
X164209970Y-112380710D01*
X164200215Y-112379749D01*
X164190836Y-112376904D01*
X164182191Y-112372283D01*
X164174615Y-112366065D01*
X164168397Y-112358489D01*
X164163776Y-112349844D01*
X164160931Y-112340465D01*
X164159970Y-112330710D01*
X164159970Y-109930710D01*
X164160931Y-109920955D01*
X164163776Y-109911576D01*
X164168397Y-109902931D01*
X164174615Y-109895355D01*
X164182191Y-109889137D01*
X164190836Y-109884516D01*
X164200215Y-109881671D01*
X164209970Y-109880710D01*
X166609970Y-109880710D01*
X166619725Y-109881671D01*
G37*
D11*
X166609970Y-117330710D03*
D12*
X155709970Y-119530710D03*
%TD*%
D10*
%TO.C,SW9*%
G36*
X134969725Y-88231671D02*
G01*
X134979104Y-88234516D01*
X134987749Y-88239137D01*
X134995325Y-88245355D01*
X135001543Y-88252931D01*
X135006164Y-88261576D01*
X135009009Y-88270955D01*
X135009970Y-88280710D01*
X135009970Y-90280710D01*
X135009009Y-90290465D01*
X135006164Y-90299844D01*
X135001543Y-90308489D01*
X134995325Y-90316065D01*
X134987705Y-90322313D01*
X134387705Y-90722313D01*
X134379056Y-90726924D01*
X134369673Y-90729759D01*
X134359970Y-90730710D01*
X132559970Y-90730710D01*
X132550215Y-90729749D01*
X132540836Y-90726904D01*
X132532191Y-90722283D01*
X132524615Y-90716065D01*
X132518397Y-90708489D01*
X132513776Y-90699844D01*
X132510931Y-90690465D01*
X132509970Y-90680710D01*
X132509970Y-90230710D01*
X131909970Y-90230710D01*
X131909970Y-88730710D01*
X132509970Y-88730710D01*
X132509970Y-88280710D01*
X132510931Y-88270955D01*
X132513776Y-88261576D01*
X132518397Y-88252931D01*
X132524615Y-88245355D01*
X132532191Y-88239137D01*
X132540836Y-88234516D01*
X132550215Y-88231671D01*
X132559970Y-88230710D01*
X134959970Y-88230710D01*
X134969725Y-88231671D01*
G37*
G36*
X147569725Y-90831671D02*
G01*
X147579104Y-90834516D01*
X147587749Y-90839137D01*
X147595325Y-90845355D01*
X147601543Y-90852931D01*
X147606164Y-90861576D01*
X147609009Y-90870955D01*
X147609970Y-90880710D01*
X147609970Y-91330710D01*
X148309970Y-91330710D01*
X148309970Y-92830710D01*
X147609970Y-92830710D01*
X147609970Y-93280710D01*
X147609009Y-93290465D01*
X147606164Y-93299844D01*
X147601543Y-93308489D01*
X147595325Y-93316065D01*
X147587749Y-93322283D01*
X147579104Y-93326904D01*
X147569725Y-93329749D01*
X147559970Y-93330710D01*
X145159970Y-93330710D01*
X145150215Y-93329749D01*
X145140836Y-93326904D01*
X145132191Y-93322283D01*
X145124615Y-93316065D01*
X145118397Y-93308489D01*
X145113776Y-93299844D01*
X145110931Y-93290465D01*
X145109970Y-93280710D01*
X145109970Y-90880710D01*
X145110931Y-90870955D01*
X145113776Y-90861576D01*
X145118397Y-90852931D01*
X145124615Y-90845355D01*
X145132191Y-90839137D01*
X145140836Y-90834516D01*
X145150215Y-90831671D01*
X145159970Y-90830710D01*
X147559970Y-90830710D01*
X147569725Y-90831671D01*
G37*
D11*
X147559970Y-98280710D03*
D12*
X136659970Y-100480710D03*
%TD*%
D10*
%TO.C,SW17*%
G36*
X125444725Y-126331671D02*
G01*
X125454104Y-126334516D01*
X125462749Y-126339137D01*
X125470325Y-126345355D01*
X125476543Y-126352931D01*
X125481164Y-126361576D01*
X125484009Y-126370955D01*
X125484970Y-126380710D01*
X125484970Y-128380710D01*
X125484009Y-128390465D01*
X125481164Y-128399844D01*
X125476543Y-128408489D01*
X125470325Y-128416065D01*
X125462705Y-128422313D01*
X124862705Y-128822313D01*
X124854056Y-128826924D01*
X124844673Y-128829759D01*
X124834970Y-128830710D01*
X123034970Y-128830710D01*
X123025215Y-128829749D01*
X123015836Y-128826904D01*
X123007191Y-128822283D01*
X122999615Y-128816065D01*
X122993397Y-128808489D01*
X122988776Y-128799844D01*
X122985931Y-128790465D01*
X122984970Y-128780710D01*
X122984970Y-128330710D01*
X122384970Y-128330710D01*
X122384970Y-126830710D01*
X122984970Y-126830710D01*
X122984970Y-126380710D01*
X122985931Y-126370955D01*
X122988776Y-126361576D01*
X122993397Y-126352931D01*
X122999615Y-126345355D01*
X123007191Y-126339137D01*
X123015836Y-126334516D01*
X123025215Y-126331671D01*
X123034970Y-126330710D01*
X125434970Y-126330710D01*
X125444725Y-126331671D01*
G37*
G36*
X138044725Y-128931671D02*
G01*
X138054104Y-128934516D01*
X138062749Y-128939137D01*
X138070325Y-128945355D01*
X138076543Y-128952931D01*
X138081164Y-128961576D01*
X138084009Y-128970955D01*
X138084970Y-128980710D01*
X138084970Y-129430710D01*
X138784970Y-129430710D01*
X138784970Y-130930710D01*
X138084970Y-130930710D01*
X138084970Y-131380710D01*
X138084009Y-131390465D01*
X138081164Y-131399844D01*
X138076543Y-131408489D01*
X138070325Y-131416065D01*
X138062749Y-131422283D01*
X138054104Y-131426904D01*
X138044725Y-131429749D01*
X138034970Y-131430710D01*
X135634970Y-131430710D01*
X135625215Y-131429749D01*
X135615836Y-131426904D01*
X135607191Y-131422283D01*
X135599615Y-131416065D01*
X135593397Y-131408489D01*
X135588776Y-131399844D01*
X135585931Y-131390465D01*
X135584970Y-131380710D01*
X135584970Y-128980710D01*
X135585931Y-128970955D01*
X135588776Y-128961576D01*
X135593397Y-128952931D01*
X135599615Y-128945355D01*
X135607191Y-128939137D01*
X135615836Y-128934516D01*
X135625215Y-128931671D01*
X135634970Y-128930710D01*
X138034970Y-128930710D01*
X138044725Y-128931671D01*
G37*
D11*
X138034970Y-136380710D03*
D12*
X127134970Y-138580710D03*
%TD*%
D10*
%TO.C,SW8*%
G36*
X115919725Y-78706671D02*
G01*
X115929104Y-78709516D01*
X115937749Y-78714137D01*
X115945325Y-78720355D01*
X115951543Y-78727931D01*
X115956164Y-78736576D01*
X115959009Y-78745955D01*
X115959970Y-78755710D01*
X115959970Y-80755710D01*
X115959009Y-80765465D01*
X115956164Y-80774844D01*
X115951543Y-80783489D01*
X115945325Y-80791065D01*
X115937705Y-80797313D01*
X115337705Y-81197313D01*
X115329056Y-81201924D01*
X115319673Y-81204759D01*
X115309970Y-81205710D01*
X113509970Y-81205710D01*
X113500215Y-81204749D01*
X113490836Y-81201904D01*
X113482191Y-81197283D01*
X113474615Y-81191065D01*
X113468397Y-81183489D01*
X113463776Y-81174844D01*
X113460931Y-81165465D01*
X113459970Y-81155710D01*
X113459970Y-80705710D01*
X112859970Y-80705710D01*
X112859970Y-79205710D01*
X113459970Y-79205710D01*
X113459970Y-78755710D01*
X113460931Y-78745955D01*
X113463776Y-78736576D01*
X113468397Y-78727931D01*
X113474615Y-78720355D01*
X113482191Y-78714137D01*
X113490836Y-78709516D01*
X113500215Y-78706671D01*
X113509970Y-78705710D01*
X115909970Y-78705710D01*
X115919725Y-78706671D01*
G37*
G36*
X128519725Y-81306671D02*
G01*
X128529104Y-81309516D01*
X128537749Y-81314137D01*
X128545325Y-81320355D01*
X128551543Y-81327931D01*
X128556164Y-81336576D01*
X128559009Y-81345955D01*
X128559970Y-81355710D01*
X128559970Y-81805710D01*
X129259970Y-81805710D01*
X129259970Y-83305710D01*
X128559970Y-83305710D01*
X128559970Y-83755710D01*
X128559009Y-83765465D01*
X128556164Y-83774844D01*
X128551543Y-83783489D01*
X128545325Y-83791065D01*
X128537749Y-83797283D01*
X128529104Y-83801904D01*
X128519725Y-83804749D01*
X128509970Y-83805710D01*
X126109970Y-83805710D01*
X126100215Y-83804749D01*
X126090836Y-83801904D01*
X126082191Y-83797283D01*
X126074615Y-83791065D01*
X126068397Y-83783489D01*
X126063776Y-83774844D01*
X126060931Y-83765465D01*
X126059970Y-83755710D01*
X126059970Y-81355710D01*
X126060931Y-81345955D01*
X126063776Y-81336576D01*
X126068397Y-81327931D01*
X126074615Y-81320355D01*
X126082191Y-81314137D01*
X126090836Y-81309516D01*
X126100215Y-81306671D01*
X126109970Y-81305710D01*
X128509970Y-81305710D01*
X128519725Y-81306671D01*
G37*
D11*
X128509970Y-88755710D03*
D12*
X117609970Y-90955710D03*
%TD*%
D10*
%TO.C,SW4*%
G36*
X134969725Y-69181671D02*
G01*
X134979104Y-69184516D01*
X134987749Y-69189137D01*
X134995325Y-69195355D01*
X135001543Y-69202931D01*
X135006164Y-69211576D01*
X135009009Y-69220955D01*
X135009970Y-69230710D01*
X135009970Y-71230710D01*
X135009009Y-71240465D01*
X135006164Y-71249844D01*
X135001543Y-71258489D01*
X134995325Y-71266065D01*
X134987705Y-71272313D01*
X134387705Y-71672313D01*
X134379056Y-71676924D01*
X134369673Y-71679759D01*
X134359970Y-71680710D01*
X132559970Y-71680710D01*
X132550215Y-71679749D01*
X132540836Y-71676904D01*
X132532191Y-71672283D01*
X132524615Y-71666065D01*
X132518397Y-71658489D01*
X132513776Y-71649844D01*
X132510931Y-71640465D01*
X132509970Y-71630710D01*
X132509970Y-71180710D01*
X131909970Y-71180710D01*
X131909970Y-69680710D01*
X132509970Y-69680710D01*
X132509970Y-69230710D01*
X132510931Y-69220955D01*
X132513776Y-69211576D01*
X132518397Y-69202931D01*
X132524615Y-69195355D01*
X132532191Y-69189137D01*
X132540836Y-69184516D01*
X132550215Y-69181671D01*
X132559970Y-69180710D01*
X134959970Y-69180710D01*
X134969725Y-69181671D01*
G37*
G36*
X147569725Y-71781671D02*
G01*
X147579104Y-71784516D01*
X147587749Y-71789137D01*
X147595325Y-71795355D01*
X147601543Y-71802931D01*
X147606164Y-71811576D01*
X147609009Y-71820955D01*
X147609970Y-71830710D01*
X147609970Y-72280710D01*
X148309970Y-72280710D01*
X148309970Y-73780710D01*
X147609970Y-73780710D01*
X147609970Y-74230710D01*
X147609009Y-74240465D01*
X147606164Y-74249844D01*
X147601543Y-74258489D01*
X147595325Y-74266065D01*
X147587749Y-74272283D01*
X147579104Y-74276904D01*
X147569725Y-74279749D01*
X147559970Y-74280710D01*
X145159970Y-74280710D01*
X145150215Y-74279749D01*
X145140836Y-74276904D01*
X145132191Y-74272283D01*
X145124615Y-74266065D01*
X145118397Y-74258489D01*
X145113776Y-74249844D01*
X145110931Y-74240465D01*
X145109970Y-74230710D01*
X145109970Y-71830710D01*
X145110931Y-71820955D01*
X145113776Y-71811576D01*
X145118397Y-71802931D01*
X145124615Y-71795355D01*
X145132191Y-71789137D01*
X145140836Y-71784516D01*
X145150215Y-71781671D01*
X145159970Y-71780710D01*
X147559970Y-71780710D01*
X147569725Y-71781671D01*
G37*
D11*
X147559970Y-79230710D03*
D12*
X136659970Y-81430710D03*
%TD*%
D10*
%TO.C,SW18*%
G36*
X144494725Y-126331671D02*
G01*
X144504104Y-126334516D01*
X144512749Y-126339137D01*
X144520325Y-126345355D01*
X144526543Y-126352931D01*
X144531164Y-126361576D01*
X144534009Y-126370955D01*
X144534970Y-126380710D01*
X144534970Y-128380710D01*
X144534009Y-128390465D01*
X144531164Y-128399844D01*
X144526543Y-128408489D01*
X144520325Y-128416065D01*
X144512705Y-128422313D01*
X143912705Y-128822313D01*
X143904056Y-128826924D01*
X143894673Y-128829759D01*
X143884970Y-128830710D01*
X142084970Y-128830710D01*
X142075215Y-128829749D01*
X142065836Y-128826904D01*
X142057191Y-128822283D01*
X142049615Y-128816065D01*
X142043397Y-128808489D01*
X142038776Y-128799844D01*
X142035931Y-128790465D01*
X142034970Y-128780710D01*
X142034970Y-128330710D01*
X141434970Y-128330710D01*
X141434970Y-126830710D01*
X142034970Y-126830710D01*
X142034970Y-126380710D01*
X142035931Y-126370955D01*
X142038776Y-126361576D01*
X142043397Y-126352931D01*
X142049615Y-126345355D01*
X142057191Y-126339137D01*
X142065836Y-126334516D01*
X142075215Y-126331671D01*
X142084970Y-126330710D01*
X144484970Y-126330710D01*
X144494725Y-126331671D01*
G37*
G36*
X157094725Y-128931671D02*
G01*
X157104104Y-128934516D01*
X157112749Y-128939137D01*
X157120325Y-128945355D01*
X157126543Y-128952931D01*
X157131164Y-128961576D01*
X157134009Y-128970955D01*
X157134970Y-128980710D01*
X157134970Y-129430710D01*
X157834970Y-129430710D01*
X157834970Y-130930710D01*
X157134970Y-130930710D01*
X157134970Y-131380710D01*
X157134009Y-131390465D01*
X157131164Y-131399844D01*
X157126543Y-131408489D01*
X157120325Y-131416065D01*
X157112749Y-131422283D01*
X157104104Y-131426904D01*
X157094725Y-131429749D01*
X157084970Y-131430710D01*
X154684970Y-131430710D01*
X154675215Y-131429749D01*
X154665836Y-131426904D01*
X154657191Y-131422283D01*
X154649615Y-131416065D01*
X154643397Y-131408489D01*
X154638776Y-131399844D01*
X154635931Y-131390465D01*
X154634970Y-131380710D01*
X154634970Y-128980710D01*
X154635931Y-128970955D01*
X154638776Y-128961576D01*
X154643397Y-128952931D01*
X154649615Y-128945355D01*
X154657191Y-128939137D01*
X154665836Y-128934516D01*
X154675215Y-128931671D01*
X154684970Y-128930710D01*
X157084970Y-128930710D01*
X157094725Y-128931671D01*
G37*
D11*
X157084970Y-136380710D03*
D12*
X146184970Y-138580710D03*
%TD*%
D10*
%TO.C,SW5*%
G36*
X154019725Y-69181671D02*
G01*
X154029104Y-69184516D01*
X154037749Y-69189137D01*
X154045325Y-69195355D01*
X154051543Y-69202931D01*
X154056164Y-69211576D01*
X154059009Y-69220955D01*
X154059970Y-69230710D01*
X154059970Y-71230710D01*
X154059009Y-71240465D01*
X154056164Y-71249844D01*
X154051543Y-71258489D01*
X154045325Y-71266065D01*
X154037705Y-71272313D01*
X153437705Y-71672313D01*
X153429056Y-71676924D01*
X153419673Y-71679759D01*
X153409970Y-71680710D01*
X151609970Y-71680710D01*
X151600215Y-71679749D01*
X151590836Y-71676904D01*
X151582191Y-71672283D01*
X151574615Y-71666065D01*
X151568397Y-71658489D01*
X151563776Y-71649844D01*
X151560931Y-71640465D01*
X151559970Y-71630710D01*
X151559970Y-71180710D01*
X150959970Y-71180710D01*
X150959970Y-69680710D01*
X151559970Y-69680710D01*
X151559970Y-69230710D01*
X151560931Y-69220955D01*
X151563776Y-69211576D01*
X151568397Y-69202931D01*
X151574615Y-69195355D01*
X151582191Y-69189137D01*
X151590836Y-69184516D01*
X151600215Y-69181671D01*
X151609970Y-69180710D01*
X154009970Y-69180710D01*
X154019725Y-69181671D01*
G37*
G36*
X166619725Y-71781671D02*
G01*
X166629104Y-71784516D01*
X166637749Y-71789137D01*
X166645325Y-71795355D01*
X166651543Y-71802931D01*
X166656164Y-71811576D01*
X166659009Y-71820955D01*
X166659970Y-71830710D01*
X166659970Y-72280710D01*
X167359970Y-72280710D01*
X167359970Y-73780710D01*
X166659970Y-73780710D01*
X166659970Y-74230710D01*
X166659009Y-74240465D01*
X166656164Y-74249844D01*
X166651543Y-74258489D01*
X166645325Y-74266065D01*
X166637749Y-74272283D01*
X166629104Y-74276904D01*
X166619725Y-74279749D01*
X166609970Y-74280710D01*
X164209970Y-74280710D01*
X164200215Y-74279749D01*
X164190836Y-74276904D01*
X164182191Y-74272283D01*
X164174615Y-74266065D01*
X164168397Y-74258489D01*
X164163776Y-74249844D01*
X164160931Y-74240465D01*
X164159970Y-74230710D01*
X164159970Y-71830710D01*
X164160931Y-71820955D01*
X164163776Y-71811576D01*
X164168397Y-71802931D01*
X164174615Y-71795355D01*
X164182191Y-71789137D01*
X164190836Y-71784516D01*
X164200215Y-71781671D01*
X164209970Y-71780710D01*
X166609970Y-71780710D01*
X166619725Y-71781671D01*
G37*
D11*
X166609970Y-79230710D03*
D12*
X155709970Y-81430710D03*
%TD*%
D10*
%TO.C,SW12*%
G36*
X96869725Y-102519171D02*
G01*
X96879104Y-102522016D01*
X96887749Y-102526637D01*
X96895325Y-102532855D01*
X96901543Y-102540431D01*
X96906164Y-102549076D01*
X96909009Y-102558455D01*
X96909970Y-102568210D01*
X96909970Y-104568210D01*
X96909009Y-104577965D01*
X96906164Y-104587344D01*
X96901543Y-104595989D01*
X96895325Y-104603565D01*
X96887705Y-104609813D01*
X96287705Y-105009813D01*
X96279056Y-105014424D01*
X96269673Y-105017259D01*
X96259970Y-105018210D01*
X94459970Y-105018210D01*
X94450215Y-105017249D01*
X94440836Y-105014404D01*
X94432191Y-105009783D01*
X94424615Y-105003565D01*
X94418397Y-104995989D01*
X94413776Y-104987344D01*
X94410931Y-104977965D01*
X94409970Y-104968210D01*
X94409970Y-104518210D01*
X93809970Y-104518210D01*
X93809970Y-103018210D01*
X94409970Y-103018210D01*
X94409970Y-102568210D01*
X94410931Y-102558455D01*
X94413776Y-102549076D01*
X94418397Y-102540431D01*
X94424615Y-102532855D01*
X94432191Y-102526637D01*
X94440836Y-102522016D01*
X94450215Y-102519171D01*
X94459970Y-102518210D01*
X96859970Y-102518210D01*
X96869725Y-102519171D01*
G37*
G36*
X109469725Y-105119171D02*
G01*
X109479104Y-105122016D01*
X109487749Y-105126637D01*
X109495325Y-105132855D01*
X109501543Y-105140431D01*
X109506164Y-105149076D01*
X109509009Y-105158455D01*
X109509970Y-105168210D01*
X109509970Y-105618210D01*
X110209970Y-105618210D01*
X110209970Y-107118210D01*
X109509970Y-107118210D01*
X109509970Y-107568210D01*
X109509009Y-107577965D01*
X109506164Y-107587344D01*
X109501543Y-107595989D01*
X109495325Y-107603565D01*
X109487749Y-107609783D01*
X109479104Y-107614404D01*
X109469725Y-107617249D01*
X109459970Y-107618210D01*
X107059970Y-107618210D01*
X107050215Y-107617249D01*
X107040836Y-107614404D01*
X107032191Y-107609783D01*
X107024615Y-107603565D01*
X107018397Y-107595989D01*
X107013776Y-107587344D01*
X107010931Y-107577965D01*
X107009970Y-107568210D01*
X107009970Y-105168210D01*
X107010931Y-105158455D01*
X107013776Y-105149076D01*
X107018397Y-105140431D01*
X107024615Y-105132855D01*
X107032191Y-105126637D01*
X107040836Y-105122016D01*
X107050215Y-105119171D01*
X107059970Y-105118210D01*
X109459970Y-105118210D01*
X109469725Y-105119171D01*
G37*
D11*
X109459970Y-112568210D03*
D12*
X98559970Y-114768210D03*
%TD*%
D10*
%TO.C,SW14*%
G36*
X134969725Y-107281671D02*
G01*
X134979104Y-107284516D01*
X134987749Y-107289137D01*
X134995325Y-107295355D01*
X135001543Y-107302931D01*
X135006164Y-107311576D01*
X135009009Y-107320955D01*
X135009970Y-107330710D01*
X135009970Y-109330710D01*
X135009009Y-109340465D01*
X135006164Y-109349844D01*
X135001543Y-109358489D01*
X134995325Y-109366065D01*
X134987705Y-109372313D01*
X134387705Y-109772313D01*
X134379056Y-109776924D01*
X134369673Y-109779759D01*
X134359970Y-109780710D01*
X132559970Y-109780710D01*
X132550215Y-109779749D01*
X132540836Y-109776904D01*
X132532191Y-109772283D01*
X132524615Y-109766065D01*
X132518397Y-109758489D01*
X132513776Y-109749844D01*
X132510931Y-109740465D01*
X132509970Y-109730710D01*
X132509970Y-109280710D01*
X131909970Y-109280710D01*
X131909970Y-107780710D01*
X132509970Y-107780710D01*
X132509970Y-107330710D01*
X132510931Y-107320955D01*
X132513776Y-107311576D01*
X132518397Y-107302931D01*
X132524615Y-107295355D01*
X132532191Y-107289137D01*
X132540836Y-107284516D01*
X132550215Y-107281671D01*
X132559970Y-107280710D01*
X134959970Y-107280710D01*
X134969725Y-107281671D01*
G37*
G36*
X147569725Y-109881671D02*
G01*
X147579104Y-109884516D01*
X147587749Y-109889137D01*
X147595325Y-109895355D01*
X147601543Y-109902931D01*
X147606164Y-109911576D01*
X147609009Y-109920955D01*
X147609970Y-109930710D01*
X147609970Y-110380710D01*
X148309970Y-110380710D01*
X148309970Y-111880710D01*
X147609970Y-111880710D01*
X147609970Y-112330710D01*
X147609009Y-112340465D01*
X147606164Y-112349844D01*
X147601543Y-112358489D01*
X147595325Y-112366065D01*
X147587749Y-112372283D01*
X147579104Y-112376904D01*
X147569725Y-112379749D01*
X147559970Y-112380710D01*
X145159970Y-112380710D01*
X145150215Y-112379749D01*
X145140836Y-112376904D01*
X145132191Y-112372283D01*
X145124615Y-112366065D01*
X145118397Y-112358489D01*
X145113776Y-112349844D01*
X145110931Y-112340465D01*
X145109970Y-112330710D01*
X145109970Y-109930710D01*
X145110931Y-109920955D01*
X145113776Y-109911576D01*
X145118397Y-109902931D01*
X145124615Y-109895355D01*
X145132191Y-109889137D01*
X145140836Y-109884516D01*
X145150215Y-109881671D01*
X145159970Y-109880710D01*
X147559970Y-109880710D01*
X147569725Y-109881671D01*
G37*
D11*
X147559970Y-117330710D03*
D12*
X136659970Y-119530710D03*
%TD*%
D10*
%TO.C,SW6*%
G36*
X77819725Y-102519171D02*
G01*
X77829104Y-102522016D01*
X77837749Y-102526637D01*
X77845325Y-102532855D01*
X77851543Y-102540431D01*
X77856164Y-102549076D01*
X77859009Y-102558455D01*
X77859970Y-102568210D01*
X77859970Y-104568210D01*
X77859009Y-104577965D01*
X77856164Y-104587344D01*
X77851543Y-104595989D01*
X77845325Y-104603565D01*
X77837705Y-104609813D01*
X77237705Y-105009813D01*
X77229056Y-105014424D01*
X77219673Y-105017259D01*
X77209970Y-105018210D01*
X75409970Y-105018210D01*
X75400215Y-105017249D01*
X75390836Y-105014404D01*
X75382191Y-105009783D01*
X75374615Y-105003565D01*
X75368397Y-104995989D01*
X75363776Y-104987344D01*
X75360931Y-104977965D01*
X75359970Y-104968210D01*
X75359970Y-104518210D01*
X74759970Y-104518210D01*
X74759970Y-103018210D01*
X75359970Y-103018210D01*
X75359970Y-102568210D01*
X75360931Y-102558455D01*
X75363776Y-102549076D01*
X75368397Y-102540431D01*
X75374615Y-102532855D01*
X75382191Y-102526637D01*
X75390836Y-102522016D01*
X75400215Y-102519171D01*
X75409970Y-102518210D01*
X77809970Y-102518210D01*
X77819725Y-102519171D01*
G37*
G36*
X90419725Y-105119171D02*
G01*
X90429104Y-105122016D01*
X90437749Y-105126637D01*
X90445325Y-105132855D01*
X90451543Y-105140431D01*
X90456164Y-105149076D01*
X90459009Y-105158455D01*
X90459970Y-105168210D01*
X90459970Y-105618210D01*
X91159970Y-105618210D01*
X91159970Y-107118210D01*
X90459970Y-107118210D01*
X90459970Y-107568210D01*
X90459009Y-107577965D01*
X90456164Y-107587344D01*
X90451543Y-107595989D01*
X90445325Y-107603565D01*
X90437749Y-107609783D01*
X90429104Y-107614404D01*
X90419725Y-107617249D01*
X90409970Y-107618210D01*
X88009970Y-107618210D01*
X88000215Y-107617249D01*
X87990836Y-107614404D01*
X87982191Y-107609783D01*
X87974615Y-107603565D01*
X87968397Y-107595989D01*
X87963776Y-107587344D01*
X87960931Y-107577965D01*
X87959970Y-107568210D01*
X87959970Y-105168210D01*
X87960931Y-105158455D01*
X87963776Y-105149076D01*
X87968397Y-105140431D01*
X87974615Y-105132855D01*
X87982191Y-105126637D01*
X87990836Y-105122016D01*
X88000215Y-105119171D01*
X88009970Y-105118210D01*
X90409970Y-105118210D01*
X90419725Y-105119171D01*
G37*
D11*
X90409970Y-112568210D03*
D12*
X79509970Y-114768210D03*
%TD*%
D10*
%TO.C,SW13*%
G36*
X115919725Y-97756671D02*
G01*
X115929104Y-97759516D01*
X115937749Y-97764137D01*
X115945325Y-97770355D01*
X115951543Y-97777931D01*
X115956164Y-97786576D01*
X115959009Y-97795955D01*
X115959970Y-97805710D01*
X115959970Y-99805710D01*
X115959009Y-99815465D01*
X115956164Y-99824844D01*
X115951543Y-99833489D01*
X115945325Y-99841065D01*
X115937705Y-99847313D01*
X115337705Y-100247313D01*
X115329056Y-100251924D01*
X115319673Y-100254759D01*
X115309970Y-100255710D01*
X113509970Y-100255710D01*
X113500215Y-100254749D01*
X113490836Y-100251904D01*
X113482191Y-100247283D01*
X113474615Y-100241065D01*
X113468397Y-100233489D01*
X113463776Y-100224844D01*
X113460931Y-100215465D01*
X113459970Y-100205710D01*
X113459970Y-99755710D01*
X112859970Y-99755710D01*
X112859970Y-98255710D01*
X113459970Y-98255710D01*
X113459970Y-97805710D01*
X113460931Y-97795955D01*
X113463776Y-97786576D01*
X113468397Y-97777931D01*
X113474615Y-97770355D01*
X113482191Y-97764137D01*
X113490836Y-97759516D01*
X113500215Y-97756671D01*
X113509970Y-97755710D01*
X115909970Y-97755710D01*
X115919725Y-97756671D01*
G37*
G36*
X128519725Y-100356671D02*
G01*
X128529104Y-100359516D01*
X128537749Y-100364137D01*
X128545325Y-100370355D01*
X128551543Y-100377931D01*
X128556164Y-100386576D01*
X128559009Y-100395955D01*
X128559970Y-100405710D01*
X128559970Y-100855710D01*
X129259970Y-100855710D01*
X129259970Y-102355710D01*
X128559970Y-102355710D01*
X128559970Y-102805710D01*
X128559009Y-102815465D01*
X128556164Y-102824844D01*
X128551543Y-102833489D01*
X128545325Y-102841065D01*
X128537749Y-102847283D01*
X128529104Y-102851904D01*
X128519725Y-102854749D01*
X128509970Y-102855710D01*
X126109970Y-102855710D01*
X126100215Y-102854749D01*
X126090836Y-102851904D01*
X126082191Y-102847283D01*
X126074615Y-102841065D01*
X126068397Y-102833489D01*
X126063776Y-102824844D01*
X126060931Y-102815465D01*
X126059970Y-102805710D01*
X126059970Y-100405710D01*
X126060931Y-100395955D01*
X126063776Y-100386576D01*
X126068397Y-100377931D01*
X126074615Y-100370355D01*
X126082191Y-100364137D01*
X126090836Y-100359516D01*
X126100215Y-100356671D01*
X126109970Y-100355710D01*
X128509970Y-100355710D01*
X128519725Y-100356671D01*
G37*
D11*
X128509970Y-107805710D03*
D12*
X117609970Y-110005710D03*
%TD*%
D10*
%TO.C,SW11*%
G36*
X77819725Y-121569171D02*
G01*
X77829104Y-121572016D01*
X77837749Y-121576637D01*
X77845325Y-121582855D01*
X77851543Y-121590431D01*
X77856164Y-121599076D01*
X77859009Y-121608455D01*
X77859970Y-121618210D01*
X77859970Y-123618210D01*
X77859009Y-123627965D01*
X77856164Y-123637344D01*
X77851543Y-123645989D01*
X77845325Y-123653565D01*
X77837705Y-123659813D01*
X77237705Y-124059813D01*
X77229056Y-124064424D01*
X77219673Y-124067259D01*
X77209970Y-124068210D01*
X75409970Y-124068210D01*
X75400215Y-124067249D01*
X75390836Y-124064404D01*
X75382191Y-124059783D01*
X75374615Y-124053565D01*
X75368397Y-124045989D01*
X75363776Y-124037344D01*
X75360931Y-124027965D01*
X75359970Y-124018210D01*
X75359970Y-123568210D01*
X74759970Y-123568210D01*
X74759970Y-122068210D01*
X75359970Y-122068210D01*
X75359970Y-121618210D01*
X75360931Y-121608455D01*
X75363776Y-121599076D01*
X75368397Y-121590431D01*
X75374615Y-121582855D01*
X75382191Y-121576637D01*
X75390836Y-121572016D01*
X75400215Y-121569171D01*
X75409970Y-121568210D01*
X77809970Y-121568210D01*
X77819725Y-121569171D01*
G37*
G36*
X90419725Y-124169171D02*
G01*
X90429104Y-124172016D01*
X90437749Y-124176637D01*
X90445325Y-124182855D01*
X90451543Y-124190431D01*
X90456164Y-124199076D01*
X90459009Y-124208455D01*
X90459970Y-124218210D01*
X90459970Y-124668210D01*
X91159970Y-124668210D01*
X91159970Y-126168210D01*
X90459970Y-126168210D01*
X90459970Y-126618210D01*
X90459009Y-126627965D01*
X90456164Y-126637344D01*
X90451543Y-126645989D01*
X90445325Y-126653565D01*
X90437749Y-126659783D01*
X90429104Y-126664404D01*
X90419725Y-126667249D01*
X90409970Y-126668210D01*
X88009970Y-126668210D01*
X88000215Y-126667249D01*
X87990836Y-126664404D01*
X87982191Y-126659783D01*
X87974615Y-126653565D01*
X87968397Y-126645989D01*
X87963776Y-126637344D01*
X87960931Y-126627965D01*
X87959970Y-126618210D01*
X87959970Y-124218210D01*
X87960931Y-124208455D01*
X87963776Y-124199076D01*
X87968397Y-124190431D01*
X87974615Y-124182855D01*
X87982191Y-124176637D01*
X87990836Y-124172016D01*
X88000215Y-124169171D01*
X88009970Y-124168210D01*
X90409970Y-124168210D01*
X90419725Y-124169171D01*
G37*
D11*
X90409970Y-131618210D03*
D12*
X79509970Y-133818210D03*
%TD*%
D10*
%TO.C,SW2*%
G36*
X96869725Y-64419171D02*
G01*
X96879104Y-64422016D01*
X96887749Y-64426637D01*
X96895325Y-64432855D01*
X96901543Y-64440431D01*
X96906164Y-64449076D01*
X96909009Y-64458455D01*
X96909970Y-64468210D01*
X96909970Y-66468210D01*
X96909009Y-66477965D01*
X96906164Y-66487344D01*
X96901543Y-66495989D01*
X96895325Y-66503565D01*
X96887705Y-66509813D01*
X96287705Y-66909813D01*
X96279056Y-66914424D01*
X96269673Y-66917259D01*
X96259970Y-66918210D01*
X94459970Y-66918210D01*
X94450215Y-66917249D01*
X94440836Y-66914404D01*
X94432191Y-66909783D01*
X94424615Y-66903565D01*
X94418397Y-66895989D01*
X94413776Y-66887344D01*
X94410931Y-66877965D01*
X94409970Y-66868210D01*
X94409970Y-66418210D01*
X93809970Y-66418210D01*
X93809970Y-64918210D01*
X94409970Y-64918210D01*
X94409970Y-64468210D01*
X94410931Y-64458455D01*
X94413776Y-64449076D01*
X94418397Y-64440431D01*
X94424615Y-64432855D01*
X94432191Y-64426637D01*
X94440836Y-64422016D01*
X94450215Y-64419171D01*
X94459970Y-64418210D01*
X96859970Y-64418210D01*
X96869725Y-64419171D01*
G37*
G36*
X109469725Y-67019171D02*
G01*
X109479104Y-67022016D01*
X109487749Y-67026637D01*
X109495325Y-67032855D01*
X109501543Y-67040431D01*
X109506164Y-67049076D01*
X109509009Y-67058455D01*
X109509970Y-67068210D01*
X109509970Y-67518210D01*
X110209970Y-67518210D01*
X110209970Y-69018210D01*
X109509970Y-69018210D01*
X109509970Y-69468210D01*
X109509009Y-69477965D01*
X109506164Y-69487344D01*
X109501543Y-69495989D01*
X109495325Y-69503565D01*
X109487749Y-69509783D01*
X109479104Y-69514404D01*
X109469725Y-69517249D01*
X109459970Y-69518210D01*
X107059970Y-69518210D01*
X107050215Y-69517249D01*
X107040836Y-69514404D01*
X107032191Y-69509783D01*
X107024615Y-69503565D01*
X107018397Y-69495989D01*
X107013776Y-69487344D01*
X107010931Y-69477965D01*
X107009970Y-69468210D01*
X107009970Y-67068210D01*
X107010931Y-67058455D01*
X107013776Y-67049076D01*
X107018397Y-67040431D01*
X107024615Y-67032855D01*
X107032191Y-67026637D01*
X107040836Y-67022016D01*
X107050215Y-67019171D01*
X107059970Y-67018210D01*
X109459970Y-67018210D01*
X109469725Y-67019171D01*
G37*
D11*
X109459970Y-74468210D03*
D12*
X98559970Y-76668210D03*
%TD*%
D10*
%TO.C,SW3*%
G36*
X115919725Y-59656671D02*
G01*
X115929104Y-59659516D01*
X115937749Y-59664137D01*
X115945325Y-59670355D01*
X115951543Y-59677931D01*
X115956164Y-59686576D01*
X115959009Y-59695955D01*
X115959970Y-59705710D01*
X115959970Y-61705710D01*
X115959009Y-61715465D01*
X115956164Y-61724844D01*
X115951543Y-61733489D01*
X115945325Y-61741065D01*
X115937705Y-61747313D01*
X115337705Y-62147313D01*
X115329056Y-62151924D01*
X115319673Y-62154759D01*
X115309970Y-62155710D01*
X113509970Y-62155710D01*
X113500215Y-62154749D01*
X113490836Y-62151904D01*
X113482191Y-62147283D01*
X113474615Y-62141065D01*
X113468397Y-62133489D01*
X113463776Y-62124844D01*
X113460931Y-62115465D01*
X113459970Y-62105710D01*
X113459970Y-61655710D01*
X112859970Y-61655710D01*
X112859970Y-60155710D01*
X113459970Y-60155710D01*
X113459970Y-59705710D01*
X113460931Y-59695955D01*
X113463776Y-59686576D01*
X113468397Y-59677931D01*
X113474615Y-59670355D01*
X113482191Y-59664137D01*
X113490836Y-59659516D01*
X113500215Y-59656671D01*
X113509970Y-59655710D01*
X115909970Y-59655710D01*
X115919725Y-59656671D01*
G37*
G36*
X128519725Y-62256671D02*
G01*
X128529104Y-62259516D01*
X128537749Y-62264137D01*
X128545325Y-62270355D01*
X128551543Y-62277931D01*
X128556164Y-62286576D01*
X128559009Y-62295955D01*
X128559970Y-62305710D01*
X128559970Y-62755710D01*
X129259970Y-62755710D01*
X129259970Y-64255710D01*
X128559970Y-64255710D01*
X128559970Y-64705710D01*
X128559009Y-64715465D01*
X128556164Y-64724844D01*
X128551543Y-64733489D01*
X128545325Y-64741065D01*
X128537749Y-64747283D01*
X128529104Y-64751904D01*
X128519725Y-64754749D01*
X128509970Y-64755710D01*
X126109970Y-64755710D01*
X126100215Y-64754749D01*
X126090836Y-64751904D01*
X126082191Y-64747283D01*
X126074615Y-64741065D01*
X126068397Y-64733489D01*
X126063776Y-64724844D01*
X126060931Y-64715465D01*
X126059970Y-64705710D01*
X126059970Y-62305710D01*
X126060931Y-62295955D01*
X126063776Y-62286576D01*
X126068397Y-62277931D01*
X126074615Y-62270355D01*
X126082191Y-62264137D01*
X126090836Y-62259516D01*
X126100215Y-62256671D01*
X126109970Y-62255710D01*
X128509970Y-62255710D01*
X128519725Y-62256671D01*
G37*
D11*
X128509970Y-69705710D03*
D12*
X117609970Y-71905710D03*
%TD*%
D10*
%TO.C,SW10*%
G36*
X154019725Y-88231671D02*
G01*
X154029104Y-88234516D01*
X154037749Y-88239137D01*
X154045325Y-88245355D01*
X154051543Y-88252931D01*
X154056164Y-88261576D01*
X154059009Y-88270955D01*
X154059970Y-88280710D01*
X154059970Y-90280710D01*
X154059009Y-90290465D01*
X154056164Y-90299844D01*
X154051543Y-90308489D01*
X154045325Y-90316065D01*
X154037705Y-90322313D01*
X153437705Y-90722313D01*
X153429056Y-90726924D01*
X153419673Y-90729759D01*
X153409970Y-90730710D01*
X151609970Y-90730710D01*
X151600215Y-90729749D01*
X151590836Y-90726904D01*
X151582191Y-90722283D01*
X151574615Y-90716065D01*
X151568397Y-90708489D01*
X151563776Y-90699844D01*
X151560931Y-90690465D01*
X151559970Y-90680710D01*
X151559970Y-90230710D01*
X150959970Y-90230710D01*
X150959970Y-88730710D01*
X151559970Y-88730710D01*
X151559970Y-88280710D01*
X151560931Y-88270955D01*
X151563776Y-88261576D01*
X151568397Y-88252931D01*
X151574615Y-88245355D01*
X151582191Y-88239137D01*
X151590836Y-88234516D01*
X151600215Y-88231671D01*
X151609970Y-88230710D01*
X154009970Y-88230710D01*
X154019725Y-88231671D01*
G37*
G36*
X166619725Y-90831671D02*
G01*
X166629104Y-90834516D01*
X166637749Y-90839137D01*
X166645325Y-90845355D01*
X166651543Y-90852931D01*
X166656164Y-90861576D01*
X166659009Y-90870955D01*
X166659970Y-90880710D01*
X166659970Y-91330710D01*
X167359970Y-91330710D01*
X167359970Y-92830710D01*
X166659970Y-92830710D01*
X166659970Y-93280710D01*
X166659009Y-93290465D01*
X166656164Y-93299844D01*
X166651543Y-93308489D01*
X166645325Y-93316065D01*
X166637749Y-93322283D01*
X166629104Y-93326904D01*
X166619725Y-93329749D01*
X166609970Y-93330710D01*
X164209970Y-93330710D01*
X164200215Y-93329749D01*
X164190836Y-93326904D01*
X164182191Y-93322283D01*
X164174615Y-93316065D01*
X164168397Y-93308489D01*
X164163776Y-93299844D01*
X164160931Y-93290465D01*
X164159970Y-93280710D01*
X164159970Y-90880710D01*
X164160931Y-90870955D01*
X164163776Y-90861576D01*
X164168397Y-90852931D01*
X164174615Y-90845355D01*
X164182191Y-90839137D01*
X164190836Y-90834516D01*
X164200215Y-90831671D01*
X164209970Y-90830710D01*
X166609970Y-90830710D01*
X166619725Y-90831671D01*
G37*
D11*
X166609970Y-98280710D03*
D12*
X155709970Y-100480710D03*
%TD*%
D10*
%TO.C,SW7*%
G36*
X96869725Y-83469171D02*
G01*
X96879104Y-83472016D01*
X96887749Y-83476637D01*
X96895325Y-83482855D01*
X96901543Y-83490431D01*
X96906164Y-83499076D01*
X96909009Y-83508455D01*
X96909970Y-83518210D01*
X96909970Y-85518210D01*
X96909009Y-85527965D01*
X96906164Y-85537344D01*
X96901543Y-85545989D01*
X96895325Y-85553565D01*
X96887705Y-85559813D01*
X96287705Y-85959813D01*
X96279056Y-85964424D01*
X96269673Y-85967259D01*
X96259970Y-85968210D01*
X94459970Y-85968210D01*
X94450215Y-85967249D01*
X94440836Y-85964404D01*
X94432191Y-85959783D01*
X94424615Y-85953565D01*
X94418397Y-85945989D01*
X94413776Y-85937344D01*
X94410931Y-85927965D01*
X94409970Y-85918210D01*
X94409970Y-85468210D01*
X93809970Y-85468210D01*
X93809970Y-83968210D01*
X94409970Y-83968210D01*
X94409970Y-83518210D01*
X94410931Y-83508455D01*
X94413776Y-83499076D01*
X94418397Y-83490431D01*
X94424615Y-83482855D01*
X94432191Y-83476637D01*
X94440836Y-83472016D01*
X94450215Y-83469171D01*
X94459970Y-83468210D01*
X96859970Y-83468210D01*
X96869725Y-83469171D01*
G37*
G36*
X109469725Y-86069171D02*
G01*
X109479104Y-86072016D01*
X109487749Y-86076637D01*
X109495325Y-86082855D01*
X109501543Y-86090431D01*
X109506164Y-86099076D01*
X109509009Y-86108455D01*
X109509970Y-86118210D01*
X109509970Y-86568210D01*
X110209970Y-86568210D01*
X110209970Y-88068210D01*
X109509970Y-88068210D01*
X109509970Y-88518210D01*
X109509009Y-88527965D01*
X109506164Y-88537344D01*
X109501543Y-88545989D01*
X109495325Y-88553565D01*
X109487749Y-88559783D01*
X109479104Y-88564404D01*
X109469725Y-88567249D01*
X109459970Y-88568210D01*
X107059970Y-88568210D01*
X107050215Y-88567249D01*
X107040836Y-88564404D01*
X107032191Y-88559783D01*
X107024615Y-88553565D01*
X107018397Y-88545989D01*
X107013776Y-88537344D01*
X107010931Y-88527965D01*
X107009970Y-88518210D01*
X107009970Y-86118210D01*
X107010931Y-86108455D01*
X107013776Y-86099076D01*
X107018397Y-86090431D01*
X107024615Y-86082855D01*
X107032191Y-86076637D01*
X107040836Y-86072016D01*
X107050215Y-86069171D01*
X107059970Y-86068210D01*
X109459970Y-86068210D01*
X109469725Y-86069171D01*
G37*
D11*
X109459970Y-93518210D03*
D12*
X98559970Y-95718210D03*
%TD*%
D10*
%TO.C,SW19*%
G36*
X163544725Y-126331671D02*
G01*
X163554104Y-126334516D01*
X163562749Y-126339137D01*
X163570325Y-126345355D01*
X163576543Y-126352931D01*
X163581164Y-126361576D01*
X163584009Y-126370955D01*
X163584970Y-126380710D01*
X163584970Y-128380710D01*
X163584009Y-128390465D01*
X163581164Y-128399844D01*
X163576543Y-128408489D01*
X163570325Y-128416065D01*
X163562705Y-128422313D01*
X162962705Y-128822313D01*
X162954056Y-128826924D01*
X162944673Y-128829759D01*
X162934970Y-128830710D01*
X161134970Y-128830710D01*
X161125215Y-128829749D01*
X161115836Y-128826904D01*
X161107191Y-128822283D01*
X161099615Y-128816065D01*
X161093397Y-128808489D01*
X161088776Y-128799844D01*
X161085931Y-128790465D01*
X161084970Y-128780710D01*
X161084970Y-128330710D01*
X160484970Y-128330710D01*
X160484970Y-126830710D01*
X161084970Y-126830710D01*
X161084970Y-126380710D01*
X161085931Y-126370955D01*
X161088776Y-126361576D01*
X161093397Y-126352931D01*
X161099615Y-126345355D01*
X161107191Y-126339137D01*
X161115836Y-126334516D01*
X161125215Y-126331671D01*
X161134970Y-126330710D01*
X163534970Y-126330710D01*
X163544725Y-126331671D01*
G37*
G36*
X176144725Y-128931671D02*
G01*
X176154104Y-128934516D01*
X176162749Y-128939137D01*
X176170325Y-128945355D01*
X176176543Y-128952931D01*
X176181164Y-128961576D01*
X176184009Y-128970955D01*
X176184970Y-128980710D01*
X176184970Y-129430710D01*
X176884970Y-129430710D01*
X176884970Y-130930710D01*
X176184970Y-130930710D01*
X176184970Y-131380710D01*
X176184009Y-131390465D01*
X176181164Y-131399844D01*
X176176543Y-131408489D01*
X176170325Y-131416065D01*
X176162749Y-131422283D01*
X176154104Y-131426904D01*
X176144725Y-131429749D01*
X176134970Y-131430710D01*
X173734970Y-131430710D01*
X173725215Y-131429749D01*
X173715836Y-131426904D01*
X173707191Y-131422283D01*
X173699615Y-131416065D01*
X173693397Y-131408489D01*
X173688776Y-131399844D01*
X173685931Y-131390465D01*
X173684970Y-131380710D01*
X173684970Y-128980710D01*
X173685931Y-128970955D01*
X173688776Y-128961576D01*
X173693397Y-128952931D01*
X173699615Y-128945355D01*
X173707191Y-128939137D01*
X173715836Y-128934516D01*
X173725215Y-128931671D01*
X173734970Y-128930710D01*
X176134970Y-128930710D01*
X176144725Y-128931671D01*
G37*
D11*
X176134970Y-136380710D03*
D12*
X165234970Y-138580710D03*
%TD*%
D13*
%TO.C,L1*%
X171991020Y-115336320D03*
X175191420Y-115336320D03*
X175191420Y-110337600D03*
X171991020Y-110337600D03*
%TD*%
D10*
%TO.C,SW1*%
G36*
X77819725Y-83469171D02*
G01*
X77829104Y-83472016D01*
X77837749Y-83476637D01*
X77845325Y-83482855D01*
X77851543Y-83490431D01*
X77856164Y-83499076D01*
X77859009Y-83508455D01*
X77859970Y-83518210D01*
X77859970Y-85518210D01*
X77859009Y-85527965D01*
X77856164Y-85537344D01*
X77851543Y-85545989D01*
X77845325Y-85553565D01*
X77837705Y-85559813D01*
X77237705Y-85959813D01*
X77229056Y-85964424D01*
X77219673Y-85967259D01*
X77209970Y-85968210D01*
X75409970Y-85968210D01*
X75400215Y-85967249D01*
X75390836Y-85964404D01*
X75382191Y-85959783D01*
X75374615Y-85953565D01*
X75368397Y-85945989D01*
X75363776Y-85937344D01*
X75360931Y-85927965D01*
X75359970Y-85918210D01*
X75359970Y-85468210D01*
X74759970Y-85468210D01*
X74759970Y-83968210D01*
X75359970Y-83968210D01*
X75359970Y-83518210D01*
X75360931Y-83508455D01*
X75363776Y-83499076D01*
X75368397Y-83490431D01*
X75374615Y-83482855D01*
X75382191Y-83476637D01*
X75390836Y-83472016D01*
X75400215Y-83469171D01*
X75409970Y-83468210D01*
X77809970Y-83468210D01*
X77819725Y-83469171D01*
G37*
G36*
X90419725Y-86069171D02*
G01*
X90429104Y-86072016D01*
X90437749Y-86076637D01*
X90445325Y-86082855D01*
X90451543Y-86090431D01*
X90456164Y-86099076D01*
X90459009Y-86108455D01*
X90459970Y-86118210D01*
X90459970Y-86568210D01*
X91159970Y-86568210D01*
X91159970Y-88068210D01*
X90459970Y-88068210D01*
X90459970Y-88518210D01*
X90459009Y-88527965D01*
X90456164Y-88537344D01*
X90451543Y-88545989D01*
X90445325Y-88553565D01*
X90437749Y-88559783D01*
X90429104Y-88564404D01*
X90419725Y-88567249D01*
X90409970Y-88568210D01*
X88009970Y-88568210D01*
X88000215Y-88567249D01*
X87990836Y-88564404D01*
X87982191Y-88559783D01*
X87974615Y-88553565D01*
X87968397Y-88545989D01*
X87963776Y-88537344D01*
X87960931Y-88527965D01*
X87959970Y-88518210D01*
X87959970Y-86118210D01*
X87960931Y-86108455D01*
X87963776Y-86099076D01*
X87968397Y-86090431D01*
X87974615Y-86082855D01*
X87982191Y-86076637D01*
X87990836Y-86072016D01*
X88000215Y-86069171D01*
X88009970Y-86068210D01*
X90409970Y-86068210D01*
X90419725Y-86069171D01*
G37*
D11*
X90409970Y-93518210D03*
D12*
X79509970Y-95718210D03*
%TD*%
M02*
