M48
; DRILL file {KiCad (5.1.6)-1} date 08/19/20 15:35:22
; FORMAT={-:-/ absolute / inch / decimal}
; #@! TF.CreationDate,2020-08-19T15:35:22-05:00
; #@! TF.GenerationSoftware,Kicad,Pcbnew,(5.1.6)-1
; #@! TF.FileFunction,NonPlated,1,2,NPTH
FMAT,2
INCH
T1C0.0310
T2C0.0472
T3C0.0591
T4C0.0709
T5C0.0748
T6C0.0787
T7C0.1339
%
G90
G05
T1
X4.6638Y-4.1546
X4.7138Y-4.1546
X4.7638Y-4.1546
X4.8138Y-4.1546
X4.8638Y-4.1546
T2
X3.4507Y-2.6159
X3.8618Y-2.6159
X5.7007Y-2.0534
X6.1118Y-2.0534
X5.6418Y-0.9863
X4.2007Y-2.4284
X4.6118Y-2.4284
X2.7007Y-1.8659
X3.1118Y-1.8659
X5.7007Y-2.8034
X6.1118Y-2.8034
X4.2007Y-1.6784
X4.6118Y-1.6784
X4.5757Y-3.5534
X4.9868Y-3.5534
X3.4507Y-1.1159
X3.8618Y-1.1159
X4.9507Y-1.3034
X5.3618Y-1.3034
X5.7007Y-1.3034
X6.1118Y-1.3034
X4.9507Y-2.0534
X5.3618Y-2.0534
X4.2007Y-0.9284
X4.6118Y-0.9284
X5.3257Y-3.5534
X5.7368Y-3.5534
X2.7007Y-3.3659
X3.1118Y-3.3659
X3.4507Y-1.8659
X3.8618Y-1.8659
X2.7007Y-2.6159
X3.1118Y-2.6159
X6.0757Y-3.5534
X6.4868Y-3.5534
X4.9507Y-2.8034
X5.3618Y-2.8034
T3
X5.0969Y-0.7817
X5.0969Y-1.0573
X5.2781Y-0.7817
X5.2781Y-1.0573
T4
X5.7062Y-2.9688
X6.1063Y-2.9688
X4.2062Y-1.8438
X4.6063Y-1.8438
X4.5812Y-3.7188
X4.9813Y-3.7188
X3.4562Y-1.2812
X3.8562Y-1.2812
X4.9562Y-1.4688
X5.3563Y-1.4688
X5.7062Y-1.4688
X6.1063Y-1.4688
X4.9562Y-2.2188
X5.3563Y-2.2188
X4.2062Y-1.0938
X4.6063Y-1.0938
X5.3312Y-3.7188
X5.7313Y-3.7188
X2.7062Y-3.5312
X3.1062Y-3.5312
X3.4562Y-2.0312
X3.8562Y-2.0312
X2.7062Y-2.7812
X3.1062Y-2.7812
X6.0812Y-3.7188
X6.4813Y-3.7188
X4.9562Y-2.9688
X5.3563Y-2.9688
X3.4562Y-2.7812
X3.8562Y-2.7812
X5.7062Y-2.2188
X6.1063Y-2.2188
X4.2062Y-2.5938
X4.6063Y-2.5938
X2.7062Y-2.0312
X3.1062Y-2.0312
T5
X5.3147Y-3.7188
X5.7478Y-3.7188
X2.6897Y-3.5312
X3.1228Y-3.5312
X3.4397Y-2.0312
X3.8728Y-2.0312
X2.6897Y-2.7812
X3.1228Y-2.7812
X6.0647Y-3.7188
X6.4978Y-3.7188
X4.9397Y-2.9688
X5.3728Y-2.9688
X3.4397Y-2.7812
X3.8728Y-2.7812
X5.6897Y-2.2188
X6.1228Y-2.2188
X4.1897Y-2.5938
X4.6228Y-2.5938
X2.6897Y-2.0312
X3.1228Y-2.0312
X5.6897Y-2.9688
X6.1228Y-2.9688
X4.1897Y-1.8438
X4.6228Y-1.8438
X4.5647Y-3.7188
X4.9978Y-3.7188
X3.4397Y-1.2812
X3.8728Y-1.2812
X4.9397Y-1.4688
X5.3728Y-1.4688
X5.6897Y-1.4688
X6.1228Y-1.4688
X4.9397Y-2.2188
X5.3728Y-2.2188
X4.1897Y-1.0938
X4.6228Y-1.0938
T6
X5.5312Y-6.8372
X3.2812Y-3.5312
X4.6849Y-6.0882
X3.2811Y-4.7759
X5.9062Y-4.8665
X5.5314Y-1.47
X3.3771Y-1.6555
X4.6851Y-2.219
X5.9064Y-3.4407
X3.3769Y-6.6517
T7
X3.6562Y-2.7812
X3.6562Y-2.7812
X5.9062Y-2.2188
X5.9062Y-2.2188
X4.4062Y-2.5938
X4.4062Y-2.5938
X2.9062Y-2.0312
X2.9062Y-2.0312
X5.9062Y-2.9688
X5.9062Y-2.9688
X4.4062Y-1.8438
X4.4062Y-1.8438
X4.7812Y-3.7188
X4.7812Y-3.7188
X3.6562Y-1.2812
X3.6562Y-1.2812
X5.1562Y-1.4688
X5.1562Y-1.4688
X5.9062Y-1.4688
X5.9062Y-1.4688
X5.1562Y-2.2188
X5.1562Y-2.2188
X4.4062Y-1.0938
X4.4062Y-1.0938
X5.5312Y-3.7188
X5.5312Y-3.7188
X2.9062Y-3.5312
X2.9062Y-3.5312
X3.6562Y-2.0312
X3.6562Y-2.0312
X2.9062Y-2.7812
X2.9062Y-2.7812
X6.2812Y-3.7188
X6.2812Y-3.7188
X5.1562Y-2.9688
X5.1562Y-2.9688
T0
M30
