G04 #@! TF.GenerationSoftware,KiCad,Pcbnew,(5.1.6)-1*
G04 #@! TF.CreationDate,2020-08-19T15:34:48-05:00*
G04 #@! TF.ProjectId,CurvedChoc,43757276-6564-4436-986f-632e6b696361,rev?*
G04 #@! TF.SameCoordinates,Original*
G04 #@! TF.FileFunction,Legend,Top*
G04 #@! TF.FilePolarity,Positive*
%FSLAX46Y46*%
G04 Gerber Fmt 4.6, Leading zero omitted, Abs format (unit mm)*
G04 Created by KiCad (PCBNEW (5.1.6)-1) date 2020-08-19 15:34:48*
%MOMM*%
%LPD*%
G01*
G04 APERTURE LIST*
%ADD10C,0.120000*%
%ADD11C,0.150000*%
%ADD12C,0.381000*%
%ADD13C,0.300000*%
%ADD14C,0.100000*%
%ADD15C,0.125000*%
%ADD16C,2.102000*%
%ADD17C,0.889400*%
%ADD18R,4.102000X2.102000*%
%ADD19R,2.102000X2.102000*%
%ADD20R,2.102000X3.302000*%
%ADD21C,1.102000*%
%ADD22C,1.854600*%
%ADD23R,1.854600X1.854600*%
%ADD24C,1.302000*%
%ADD25C,3.502000*%
%ADD26C,2.002000*%
%ADD27C,1.902000*%
%ADD28C,2.202000*%
%ADD29C,1.852000*%
%ADD30O,1.702000X2.302000*%
%ADD31C,1.602000*%
%ADD32R,1.753000X1.753000*%
%ADD33C,1.753000*%
G04 APERTURE END LIST*
D10*
X102393750Y-93956250D02*
X102393750Y-94956250D01*
X102893750Y-94456250D02*
X101893750Y-94456250D01*
X98893750Y-100556250D02*
X96493750Y-100556250D01*
X103693750Y-100556250D02*
X101093750Y-100556250D01*
X108293750Y-100556250D02*
X105893750Y-100556250D01*
X106493750Y-87256250D02*
X106193750Y-86956250D01*
X106493750Y-86656250D02*
X106493750Y-87256250D01*
X106193750Y-86956250D02*
X106493750Y-86656250D01*
X108293750Y-88356250D02*
X96493750Y-88356250D01*
X108293750Y-92456250D02*
X108293750Y-88356250D01*
X96493750Y-92456250D02*
X96493750Y-88356250D01*
X96493750Y-100556250D02*
X96493750Y-96456250D01*
X108293750Y-96456250D02*
X108293750Y-100556250D01*
X105393750Y-94456250D02*
G75*
G03*
X105393750Y-94456250I-3000000J0D01*
G01*
D11*
X121825000Y-29900000D02*
X125825000Y-29900000D01*
X125825000Y-29900000D02*
X125825000Y-20900000D01*
X121825000Y-29900000D02*
X121825000Y-20900000D01*
X125825000Y-20900000D02*
X121825000Y-20900000D01*
D12*
X103028750Y-19685000D02*
X103028750Y-50165000D01*
X103028750Y-50165000D02*
X120808750Y-50165000D01*
X120808750Y-50165000D02*
X120808750Y-19685000D01*
X105568750Y-19685000D02*
X105568750Y-22225000D01*
X105568750Y-22225000D02*
X103028750Y-22225000D01*
D11*
G36*
X116850318Y-25564360D02*
G01*
X116850318Y-25864360D01*
X116750318Y-25864360D01*
X116750318Y-25564360D01*
X116850318Y-25564360D01*
G37*
X116850318Y-25564360D02*
X116850318Y-25864360D01*
X116750318Y-25864360D01*
X116750318Y-25564360D01*
X116850318Y-25564360D01*
G36*
X116650318Y-25964360D02*
G01*
X116650318Y-26064360D01*
X116550318Y-26064360D01*
X116550318Y-25964360D01*
X116650318Y-25964360D01*
G37*
X116650318Y-25964360D02*
X116650318Y-26064360D01*
X116550318Y-26064360D01*
X116550318Y-25964360D01*
X116650318Y-25964360D01*
G36*
X116850318Y-25564360D02*
G01*
X116850318Y-25664360D01*
X116350318Y-25664360D01*
X116350318Y-25564360D01*
X116850318Y-25564360D01*
G37*
X116850318Y-25564360D02*
X116850318Y-25664360D01*
X116350318Y-25664360D01*
X116350318Y-25564360D01*
X116850318Y-25564360D01*
G36*
X116450318Y-25564360D02*
G01*
X116450318Y-26364360D01*
X116350318Y-26364360D01*
X116350318Y-25564360D01*
X116450318Y-25564360D01*
G37*
X116450318Y-25564360D02*
X116450318Y-26364360D01*
X116350318Y-26364360D01*
X116350318Y-25564360D01*
X116450318Y-25564360D01*
G36*
X116850318Y-26164360D02*
G01*
X116850318Y-26364360D01*
X116750318Y-26364360D01*
X116750318Y-26164360D01*
X116850318Y-26164360D01*
G37*
X116850318Y-26164360D02*
X116850318Y-26364360D01*
X116750318Y-26364360D01*
X116750318Y-26164360D01*
X116850318Y-26164360D01*
D12*
X120808750Y-19685000D02*
X120808750Y-17145000D01*
X120808750Y-17145000D02*
X103028750Y-17145000D01*
X103028750Y-17145000D02*
X103028750Y-19685000D01*
X105568750Y-19685000D02*
X103028750Y-19685000D01*
D13*
X153193750Y-89376250D02*
X153193750Y-88106250D01*
X153193750Y-88106250D02*
X154463750Y-88106250D01*
X165893750Y-100806250D02*
X164623750Y-100806250D01*
X165893750Y-99536250D02*
X165893750Y-100806250D01*
X164623750Y-88106250D02*
X165893750Y-88106250D01*
X153193750Y-99536250D02*
X153193750Y-100806250D01*
X153193750Y-100806250D02*
X154463750Y-100806250D01*
X165893750Y-88106250D02*
X165893750Y-89376250D01*
X134143750Y-89376250D02*
X134143750Y-88106250D01*
X134143750Y-88106250D02*
X135413750Y-88106250D01*
X146843750Y-100806250D02*
X145573750Y-100806250D01*
X146843750Y-99536250D02*
X146843750Y-100806250D01*
X145573750Y-88106250D02*
X146843750Y-88106250D01*
X134143750Y-99536250D02*
X134143750Y-100806250D01*
X134143750Y-100806250D02*
X135413750Y-100806250D01*
X146843750Y-88106250D02*
X146843750Y-89376250D01*
X115093750Y-89376250D02*
X115093750Y-88106250D01*
X115093750Y-88106250D02*
X116363750Y-88106250D01*
X127793750Y-100806250D02*
X126523750Y-100806250D01*
X127793750Y-99536250D02*
X127793750Y-100806250D01*
X126523750Y-88106250D02*
X127793750Y-88106250D01*
X115093750Y-99536250D02*
X115093750Y-100806250D01*
X115093750Y-100806250D02*
X116363750Y-100806250D01*
X127793750Y-88106250D02*
X127793750Y-89376250D01*
X143668750Y-70326250D02*
X143668750Y-69056250D01*
X143668750Y-69056250D02*
X144938750Y-69056250D01*
X156368750Y-81756250D02*
X155098750Y-81756250D01*
X156368750Y-80486250D02*
X156368750Y-81756250D01*
X155098750Y-69056250D02*
X156368750Y-69056250D01*
X143668750Y-80486250D02*
X143668750Y-81756250D01*
X143668750Y-81756250D02*
X144938750Y-81756250D01*
X156368750Y-69056250D02*
X156368750Y-70326250D01*
X124618750Y-70326250D02*
X124618750Y-69056250D01*
X124618750Y-69056250D02*
X125888750Y-69056250D01*
X137318750Y-81756250D02*
X136048750Y-81756250D01*
X137318750Y-80486250D02*
X137318750Y-81756250D01*
X136048750Y-69056250D02*
X137318750Y-69056250D01*
X124618750Y-80486250D02*
X124618750Y-81756250D01*
X124618750Y-81756250D02*
X125888750Y-81756250D01*
X137318750Y-69056250D02*
X137318750Y-70326250D01*
X105568750Y-60801250D02*
X105568750Y-59531250D01*
X105568750Y-59531250D02*
X106838750Y-59531250D01*
X118268750Y-72231250D02*
X116998750Y-72231250D01*
X118268750Y-70961250D02*
X118268750Y-72231250D01*
X116998750Y-59531250D02*
X118268750Y-59531250D01*
X105568750Y-70961250D02*
X105568750Y-72231250D01*
X105568750Y-72231250D02*
X106838750Y-72231250D01*
X118268750Y-59531250D02*
X118268750Y-60801250D01*
X86518750Y-65563750D02*
X86518750Y-64293750D01*
X86518750Y-64293750D02*
X87788750Y-64293750D01*
X99218750Y-76993750D02*
X97948750Y-76993750D01*
X99218750Y-75723750D02*
X99218750Y-76993750D01*
X97948750Y-64293750D02*
X99218750Y-64293750D01*
X86518750Y-75723750D02*
X86518750Y-76993750D01*
X86518750Y-76993750D02*
X87788750Y-76993750D01*
X99218750Y-64293750D02*
X99218750Y-65563750D01*
X67468750Y-84613750D02*
X67468750Y-83343750D01*
X67468750Y-83343750D02*
X68738750Y-83343750D01*
X80168750Y-96043750D02*
X78898750Y-96043750D01*
X80168750Y-94773750D02*
X80168750Y-96043750D01*
X78898750Y-83343750D02*
X80168750Y-83343750D01*
X67468750Y-94773750D02*
X67468750Y-96043750D01*
X67468750Y-96043750D02*
X68738750Y-96043750D01*
X80168750Y-83343750D02*
X80168750Y-84613750D01*
X143668750Y-51276250D02*
X143668750Y-50006250D01*
X143668750Y-50006250D02*
X144938750Y-50006250D01*
X156368750Y-62706250D02*
X155098750Y-62706250D01*
X156368750Y-61436250D02*
X156368750Y-62706250D01*
X155098750Y-50006250D02*
X156368750Y-50006250D01*
X143668750Y-61436250D02*
X143668750Y-62706250D01*
X143668750Y-62706250D02*
X144938750Y-62706250D01*
X156368750Y-50006250D02*
X156368750Y-51276250D01*
X124618750Y-51276250D02*
X124618750Y-50006250D01*
X124618750Y-50006250D02*
X125888750Y-50006250D01*
X137318750Y-62706250D02*
X136048750Y-62706250D01*
X137318750Y-61436250D02*
X137318750Y-62706250D01*
X136048750Y-50006250D02*
X137318750Y-50006250D01*
X124618750Y-61436250D02*
X124618750Y-62706250D01*
X124618750Y-62706250D02*
X125888750Y-62706250D01*
X137318750Y-50006250D02*
X137318750Y-51276250D01*
X105568750Y-41751250D02*
X105568750Y-40481250D01*
X105568750Y-40481250D02*
X106838750Y-40481250D01*
X118268750Y-53181250D02*
X116998750Y-53181250D01*
X118268750Y-51911250D02*
X118268750Y-53181250D01*
X116998750Y-40481250D02*
X118268750Y-40481250D01*
X105568750Y-51911250D02*
X105568750Y-53181250D01*
X105568750Y-53181250D02*
X106838750Y-53181250D01*
X118268750Y-40481250D02*
X118268750Y-41751250D01*
X86518750Y-46513750D02*
X86518750Y-45243750D01*
X86518750Y-45243750D02*
X87788750Y-45243750D01*
X99218750Y-57943750D02*
X97948750Y-57943750D01*
X99218750Y-56673750D02*
X99218750Y-57943750D01*
X97948750Y-45243750D02*
X99218750Y-45243750D01*
X86518750Y-56673750D02*
X86518750Y-57943750D01*
X86518750Y-57943750D02*
X87788750Y-57943750D01*
X99218750Y-45243750D02*
X99218750Y-46513750D01*
X67468750Y-65563750D02*
X67468750Y-64293750D01*
X67468750Y-64293750D02*
X68738750Y-64293750D01*
X80168750Y-76993750D02*
X78898750Y-76993750D01*
X80168750Y-75723750D02*
X80168750Y-76993750D01*
X78898750Y-64293750D02*
X80168750Y-64293750D01*
X67468750Y-75723750D02*
X67468750Y-76993750D01*
X67468750Y-76993750D02*
X68738750Y-76993750D01*
X80168750Y-64293750D02*
X80168750Y-65563750D01*
X143668750Y-32226250D02*
X143668750Y-30956250D01*
X143668750Y-30956250D02*
X144938750Y-30956250D01*
X156368750Y-43656250D02*
X155098750Y-43656250D01*
X156368750Y-42386250D02*
X156368750Y-43656250D01*
X155098750Y-30956250D02*
X156368750Y-30956250D01*
X143668750Y-42386250D02*
X143668750Y-43656250D01*
X143668750Y-43656250D02*
X144938750Y-43656250D01*
X156368750Y-30956250D02*
X156368750Y-32226250D01*
X124618750Y-32226250D02*
X124618750Y-30956250D01*
X124618750Y-30956250D02*
X125888750Y-30956250D01*
X137318750Y-43656250D02*
X136048750Y-43656250D01*
X137318750Y-42386250D02*
X137318750Y-43656250D01*
X136048750Y-30956250D02*
X137318750Y-30956250D01*
X124618750Y-42386250D02*
X124618750Y-43656250D01*
X124618750Y-43656250D02*
X125888750Y-43656250D01*
X137318750Y-30956250D02*
X137318750Y-32226250D01*
X105568750Y-22701250D02*
X105568750Y-21431250D01*
X105568750Y-21431250D02*
X106838750Y-21431250D01*
X118268750Y-34131250D02*
X116998750Y-34131250D01*
X118268750Y-32861250D02*
X118268750Y-34131250D01*
X116998750Y-21431250D02*
X118268750Y-21431250D01*
X105568750Y-32861250D02*
X105568750Y-34131250D01*
X105568750Y-34131250D02*
X106838750Y-34131250D01*
X118268750Y-21431250D02*
X118268750Y-22701250D01*
X86518750Y-27463750D02*
X86518750Y-26193750D01*
X86518750Y-26193750D02*
X87788750Y-26193750D01*
X99218750Y-38893750D02*
X97948750Y-38893750D01*
X99218750Y-37623750D02*
X99218750Y-38893750D01*
X97948750Y-26193750D02*
X99218750Y-26193750D01*
X86518750Y-37623750D02*
X86518750Y-38893750D01*
X86518750Y-38893750D02*
X87788750Y-38893750D01*
X99218750Y-26193750D02*
X99218750Y-27463750D01*
X67468750Y-46513750D02*
X67468750Y-45243750D01*
X67468750Y-45243750D02*
X68738750Y-45243750D01*
X80168750Y-57943750D02*
X78898750Y-57943750D01*
X80168750Y-56673750D02*
X80168750Y-57943750D01*
X78898750Y-45243750D02*
X80168750Y-45243750D01*
X67468750Y-56673750D02*
X67468750Y-57943750D01*
X67468750Y-57943750D02*
X68738750Y-57943750D01*
X80168750Y-45243750D02*
X80168750Y-46513750D01*
D10*
X141122750Y-27851000D02*
X141122750Y-28391000D01*
X144792750Y-21191000D02*
X144792750Y-28911000D01*
X141122750Y-21711000D02*
X141122750Y-22251000D01*
X141122750Y-28391000D02*
X140892750Y-28391000D01*
X141122750Y-23351000D02*
X141122750Y-26751000D01*
X144792750Y-28911000D02*
X140892750Y-28911000D01*
X144792750Y-21191000D02*
X140892750Y-21191000D01*
X141122750Y-21711000D02*
X140892750Y-21711000D01*
D11*
X132262500Y-16256250D02*
X126662500Y-16256250D01*
X126662500Y-18256250D02*
X126662500Y-16256250D01*
X132262500Y-18256250D02*
X132262500Y-16256250D01*
X126412500Y-18256250D02*
X126412500Y-30356250D01*
X132512500Y-18256250D02*
X132512500Y-30356250D01*
X132512500Y-30356250D02*
X126412500Y-30356250D01*
X132512500Y-18256250D02*
X126412500Y-18256250D01*
X113474500Y-88455500D02*
X111950500Y-88455500D01*
X111950500Y-88455500D02*
X111950500Y-92519500D01*
X111950500Y-92519500D02*
X113474500Y-92519500D01*
X113474500Y-92519500D02*
X113474500Y-88455500D01*
D14*
G36*
X111950500Y-89217500D02*
G01*
X113474500Y-89217500D01*
X113474500Y-88963500D01*
X111950500Y-88963500D01*
X111950500Y-89217500D01*
G37*
X111950500Y-89217500D02*
X113474500Y-89217500D01*
X113474500Y-88963500D01*
X111950500Y-88963500D01*
X111950500Y-89217500D01*
D11*
X157511750Y-84963000D02*
X157511750Y-86487000D01*
X157511750Y-86487000D02*
X161575750Y-86487000D01*
X161575750Y-86487000D02*
X161575750Y-84963000D01*
X161575750Y-84963000D02*
X157511750Y-84963000D01*
D14*
G36*
X158273750Y-86487000D02*
G01*
X158273750Y-84963000D01*
X158019750Y-84963000D01*
X158019750Y-86487000D01*
X158273750Y-86487000D01*
G37*
X158273750Y-86487000D02*
X158273750Y-84963000D01*
X158019750Y-84963000D01*
X158019750Y-86487000D01*
X158273750Y-86487000D01*
D11*
X138461750Y-84963000D02*
X138461750Y-86487000D01*
X138461750Y-86487000D02*
X142525750Y-86487000D01*
X142525750Y-86487000D02*
X142525750Y-84963000D01*
X142525750Y-84963000D02*
X138461750Y-84963000D01*
D14*
G36*
X139223750Y-86487000D02*
G01*
X139223750Y-84963000D01*
X138969750Y-84963000D01*
X138969750Y-86487000D01*
X139223750Y-86487000D01*
G37*
X139223750Y-86487000D02*
X139223750Y-84963000D01*
X138969750Y-84963000D01*
X138969750Y-86487000D01*
X139223750Y-86487000D01*
G36*
X120173750Y-86487000D02*
G01*
X120173750Y-84963000D01*
X119919750Y-84963000D01*
X119919750Y-86487000D01*
X120173750Y-86487000D01*
G37*
X120173750Y-86487000D02*
X120173750Y-84963000D01*
X119919750Y-84963000D01*
X119919750Y-86487000D01*
X120173750Y-86487000D01*
D11*
X123475750Y-84963000D02*
X119411750Y-84963000D01*
X123475750Y-86487000D02*
X123475750Y-84963000D01*
X119411750Y-86487000D02*
X123475750Y-86487000D01*
X119411750Y-84963000D02*
X119411750Y-86487000D01*
X147986750Y-83375500D02*
X147986750Y-84899500D01*
X147986750Y-84899500D02*
X152050750Y-84899500D01*
X152050750Y-84899500D02*
X152050750Y-83375500D01*
X152050750Y-83375500D02*
X147986750Y-83375500D01*
D14*
G36*
X148748750Y-84899500D02*
G01*
X148748750Y-83375500D01*
X148494750Y-83375500D01*
X148494750Y-84899500D01*
X148748750Y-84899500D01*
G37*
X148748750Y-84899500D02*
X148748750Y-83375500D01*
X148494750Y-83375500D01*
X148494750Y-84899500D01*
X148748750Y-84899500D01*
D11*
X128936750Y-83375500D02*
X128936750Y-84899500D01*
X128936750Y-84899500D02*
X133000750Y-84899500D01*
X133000750Y-84899500D02*
X133000750Y-83375500D01*
X133000750Y-83375500D02*
X128936750Y-83375500D01*
D14*
G36*
X129698750Y-84899500D02*
G01*
X129698750Y-83375500D01*
X129444750Y-83375500D01*
X129444750Y-84899500D01*
X129698750Y-84899500D01*
G37*
X129698750Y-84899500D02*
X129698750Y-83375500D01*
X129444750Y-83375500D01*
X129444750Y-84899500D01*
X129698750Y-84899500D01*
D11*
X109886750Y-73850500D02*
X109886750Y-75374500D01*
X109886750Y-75374500D02*
X113950750Y-75374500D01*
X113950750Y-75374500D02*
X113950750Y-73850500D01*
X113950750Y-73850500D02*
X109886750Y-73850500D01*
D14*
G36*
X110648750Y-75374500D02*
G01*
X110648750Y-73850500D01*
X110394750Y-73850500D01*
X110394750Y-75374500D01*
X110648750Y-75374500D01*
G37*
X110648750Y-75374500D02*
X110648750Y-73850500D01*
X110394750Y-73850500D01*
X110394750Y-75374500D01*
X110648750Y-75374500D01*
D11*
X90836750Y-78613000D02*
X90836750Y-80137000D01*
X90836750Y-80137000D02*
X94900750Y-80137000D01*
X94900750Y-80137000D02*
X94900750Y-78613000D01*
X94900750Y-78613000D02*
X90836750Y-78613000D01*
D14*
G36*
X91598750Y-80137000D02*
G01*
X91598750Y-78613000D01*
X91344750Y-78613000D01*
X91344750Y-80137000D01*
X91598750Y-80137000D01*
G37*
X91598750Y-80137000D02*
X91598750Y-78613000D01*
X91344750Y-78613000D01*
X91344750Y-80137000D01*
X91598750Y-80137000D01*
D11*
X71786750Y-80200500D02*
X71786750Y-81724500D01*
X71786750Y-81724500D02*
X75850750Y-81724500D01*
X75850750Y-81724500D02*
X75850750Y-80200500D01*
X75850750Y-80200500D02*
X71786750Y-80200500D01*
D14*
G36*
X72548750Y-81724500D02*
G01*
X72548750Y-80200500D01*
X72294750Y-80200500D01*
X72294750Y-81724500D01*
X72548750Y-81724500D01*
G37*
X72548750Y-81724500D02*
X72548750Y-80200500D01*
X72294750Y-80200500D01*
X72294750Y-81724500D01*
X72548750Y-81724500D01*
D11*
X147986750Y-64325500D02*
X147986750Y-65849500D01*
X147986750Y-65849500D02*
X152050750Y-65849500D01*
X152050750Y-65849500D02*
X152050750Y-64325500D01*
X152050750Y-64325500D02*
X147986750Y-64325500D01*
D14*
G36*
X148748750Y-65849500D02*
G01*
X148748750Y-64325500D01*
X148494750Y-64325500D01*
X148494750Y-65849500D01*
X148748750Y-65849500D01*
G37*
X148748750Y-65849500D02*
X148748750Y-64325500D01*
X148494750Y-64325500D01*
X148494750Y-65849500D01*
X148748750Y-65849500D01*
D11*
X128936750Y-64325500D02*
X128936750Y-65849500D01*
X128936750Y-65849500D02*
X133000750Y-65849500D01*
X133000750Y-65849500D02*
X133000750Y-64325500D01*
X133000750Y-64325500D02*
X128936750Y-64325500D01*
D14*
G36*
X129698750Y-65849500D02*
G01*
X129698750Y-64325500D01*
X129444750Y-64325500D01*
X129444750Y-65849500D01*
X129698750Y-65849500D01*
G37*
X129698750Y-65849500D02*
X129698750Y-64325500D01*
X129444750Y-64325500D01*
X129444750Y-65849500D01*
X129698750Y-65849500D01*
D11*
X109886750Y-54800500D02*
X109886750Y-56324500D01*
X109886750Y-56324500D02*
X113950750Y-56324500D01*
X113950750Y-56324500D02*
X113950750Y-54800500D01*
X113950750Y-54800500D02*
X109886750Y-54800500D01*
D14*
G36*
X110648750Y-56324500D02*
G01*
X110648750Y-54800500D01*
X110394750Y-54800500D01*
X110394750Y-56324500D01*
X110648750Y-56324500D01*
G37*
X110648750Y-56324500D02*
X110648750Y-54800500D01*
X110394750Y-54800500D01*
X110394750Y-56324500D01*
X110648750Y-56324500D01*
D11*
X90836750Y-59563000D02*
X90836750Y-61087000D01*
X90836750Y-61087000D02*
X94900750Y-61087000D01*
X94900750Y-61087000D02*
X94900750Y-59563000D01*
X94900750Y-59563000D02*
X90836750Y-59563000D01*
D14*
G36*
X91598750Y-61087000D02*
G01*
X91598750Y-59563000D01*
X91344750Y-59563000D01*
X91344750Y-61087000D01*
X91598750Y-61087000D01*
G37*
X91598750Y-61087000D02*
X91598750Y-59563000D01*
X91344750Y-59563000D01*
X91344750Y-61087000D01*
X91598750Y-61087000D01*
D11*
X71786750Y-61150500D02*
X71786750Y-62674500D01*
X71786750Y-62674500D02*
X75850750Y-62674500D01*
X75850750Y-62674500D02*
X75850750Y-61150500D01*
X75850750Y-61150500D02*
X71786750Y-61150500D01*
D14*
G36*
X72548750Y-62674500D02*
G01*
X72548750Y-61150500D01*
X72294750Y-61150500D01*
X72294750Y-62674500D01*
X72548750Y-62674500D01*
G37*
X72548750Y-62674500D02*
X72548750Y-61150500D01*
X72294750Y-61150500D01*
X72294750Y-62674500D01*
X72548750Y-62674500D01*
D11*
X147986750Y-45275500D02*
X147986750Y-46799500D01*
X147986750Y-46799500D02*
X152050750Y-46799500D01*
X152050750Y-46799500D02*
X152050750Y-45275500D01*
X152050750Y-45275500D02*
X147986750Y-45275500D01*
D14*
G36*
X148748750Y-46799500D02*
G01*
X148748750Y-45275500D01*
X148494750Y-45275500D01*
X148494750Y-46799500D01*
X148748750Y-46799500D01*
G37*
X148748750Y-46799500D02*
X148748750Y-45275500D01*
X148494750Y-45275500D01*
X148494750Y-46799500D01*
X148748750Y-46799500D01*
D11*
X128936750Y-45275500D02*
X128936750Y-46799500D01*
X128936750Y-46799500D02*
X133000750Y-46799500D01*
X133000750Y-46799500D02*
X133000750Y-45275500D01*
X133000750Y-45275500D02*
X128936750Y-45275500D01*
D14*
G36*
X129698750Y-46799500D02*
G01*
X129698750Y-45275500D01*
X129444750Y-45275500D01*
X129444750Y-46799500D01*
X129698750Y-46799500D01*
G37*
X129698750Y-46799500D02*
X129698750Y-45275500D01*
X129444750Y-45275500D01*
X129444750Y-46799500D01*
X129698750Y-46799500D01*
D11*
X109886750Y-35750500D02*
X109886750Y-37274500D01*
X109886750Y-37274500D02*
X113950750Y-37274500D01*
X113950750Y-37274500D02*
X113950750Y-35750500D01*
X113950750Y-35750500D02*
X109886750Y-35750500D01*
D14*
G36*
X110648750Y-37274500D02*
G01*
X110648750Y-35750500D01*
X110394750Y-35750500D01*
X110394750Y-37274500D01*
X110648750Y-37274500D01*
G37*
X110648750Y-37274500D02*
X110648750Y-35750500D01*
X110394750Y-35750500D01*
X110394750Y-37274500D01*
X110648750Y-37274500D01*
D11*
X90836750Y-40513000D02*
X90836750Y-42037000D01*
X90836750Y-42037000D02*
X94900750Y-42037000D01*
X94900750Y-42037000D02*
X94900750Y-40513000D01*
X94900750Y-40513000D02*
X90836750Y-40513000D01*
D14*
G36*
X91598750Y-42037000D02*
G01*
X91598750Y-40513000D01*
X91344750Y-40513000D01*
X91344750Y-42037000D01*
X91598750Y-42037000D01*
G37*
X91598750Y-42037000D02*
X91598750Y-40513000D01*
X91344750Y-40513000D01*
X91344750Y-42037000D01*
X91598750Y-42037000D01*
D11*
X71786750Y-42100500D02*
X71786750Y-43624500D01*
X71786750Y-43624500D02*
X75850750Y-43624500D01*
X75850750Y-43624500D02*
X75850750Y-42100500D01*
X75850750Y-42100500D02*
X71786750Y-42100500D01*
D14*
G36*
X72548750Y-43624500D02*
G01*
X72548750Y-42100500D01*
X72294750Y-42100500D01*
X72294750Y-43624500D01*
X72548750Y-43624500D01*
G37*
X72548750Y-43624500D02*
X72548750Y-42100500D01*
X72294750Y-42100500D01*
X72294750Y-43624500D01*
X72548750Y-43624500D01*
D11*
X173487003Y-100452216D02*
X173487003Y-100928407D01*
X172487003Y-100928407D01*
X173487003Y-99595073D02*
X173487003Y-100166502D01*
X173487003Y-99880788D02*
X172487003Y-99880788D01*
X172629861Y-99976026D01*
X172725099Y-100071264D01*
X172772718Y-100166502D01*
X102804511Y-96477773D02*
X102852130Y-96334916D01*
X102852130Y-96096821D01*
X102804511Y-96001583D01*
X102756892Y-95953964D01*
X102661654Y-95906345D01*
X102566416Y-95906345D01*
X102471178Y-95953964D01*
X102423559Y-96001583D01*
X102375940Y-96096821D01*
X102328321Y-96287297D01*
X102280702Y-96382535D01*
X102233083Y-96430154D01*
X102137845Y-96477773D01*
X102042607Y-96477773D01*
X101947369Y-96430154D01*
X101899750Y-96382535D01*
X101852130Y-96287297D01*
X101852130Y-96049202D01*
X101899750Y-95906345D01*
X101852130Y-95573011D02*
X102852130Y-95334916D01*
X102137845Y-95144440D01*
X102852130Y-94953964D01*
X101852130Y-94715869D01*
X102852130Y-93811107D02*
X102852130Y-94382535D01*
X102852130Y-94096821D02*
X101852130Y-94096821D01*
X101994988Y-94192059D01*
X102090226Y-94287297D01*
X102137845Y-94382535D01*
X102280702Y-93239678D02*
X102233083Y-93334916D01*
X102185464Y-93382535D01*
X102090226Y-93430154D01*
X102042607Y-93430154D01*
X101947369Y-93382535D01*
X101899750Y-93334916D01*
X101852130Y-93239678D01*
X101852130Y-93049202D01*
X101899750Y-92953964D01*
X101947369Y-92906345D01*
X102042607Y-92858726D01*
X102090226Y-92858726D01*
X102185464Y-92906345D01*
X102233083Y-92953964D01*
X102280702Y-93049202D01*
X102280702Y-93239678D01*
X102328321Y-93334916D01*
X102375940Y-93382535D01*
X102471178Y-93430154D01*
X102661654Y-93430154D01*
X102756892Y-93382535D01*
X102804511Y-93334916D01*
X102852130Y-93239678D01*
X102852130Y-93049202D01*
X102804511Y-92953964D01*
X102756892Y-92906345D01*
X102661654Y-92858726D01*
X102471178Y-92858726D01*
X102375940Y-92906345D01*
X102328321Y-92953964D01*
X102280702Y-93049202D01*
X121383761Y-27046333D02*
X121431380Y-26903476D01*
X121431380Y-26665380D01*
X121383761Y-26570142D01*
X121336142Y-26522523D01*
X121240904Y-26474904D01*
X121145666Y-26474904D01*
X121050428Y-26522523D01*
X121002809Y-26570142D01*
X120955190Y-26665380D01*
X120907571Y-26855857D01*
X120859952Y-26951095D01*
X120812333Y-26998714D01*
X120717095Y-27046333D01*
X120621857Y-27046333D01*
X120526619Y-26998714D01*
X120479000Y-26951095D01*
X120431380Y-26855857D01*
X120431380Y-26617761D01*
X120479000Y-26474904D01*
X120431380Y-26141571D02*
X121431380Y-25903476D01*
X120717095Y-25713000D01*
X121431380Y-25522523D01*
X120431380Y-25284428D01*
X121431380Y-24379666D02*
X121431380Y-24951095D01*
X121431380Y-24665380D02*
X120431380Y-24665380D01*
X120574238Y-24760619D01*
X120669476Y-24855857D01*
X120717095Y-24951095D01*
X106156401Y-20516904D02*
X106613544Y-20516904D01*
X106384973Y-21316904D02*
X106384973Y-20516904D01*
X106804020Y-20516904D02*
X107337354Y-21316904D01*
X107337354Y-20516904D02*
X106804020Y-21316904D01*
X107794497Y-20516904D02*
X107870687Y-20516904D01*
X107946878Y-20555000D01*
X107984973Y-20593095D01*
X108023068Y-20669285D01*
X108061163Y-20821666D01*
X108061163Y-21012142D01*
X108023068Y-21164523D01*
X107984973Y-21240714D01*
X107946878Y-21278809D01*
X107870687Y-21316904D01*
X107794497Y-21316904D01*
X107718306Y-21278809D01*
X107680211Y-21240714D01*
X107642116Y-21164523D01*
X107604020Y-21012142D01*
X107604020Y-20821666D01*
X107642116Y-20669285D01*
X107680211Y-20593095D01*
X107718306Y-20555000D01*
X107794497Y-20516904D01*
X108975449Y-20478809D02*
X108289735Y-21507380D01*
X109242116Y-21316904D02*
X109242116Y-20516904D01*
X109432592Y-20516904D01*
X109546878Y-20555000D01*
X109623068Y-20631190D01*
X109661163Y-20707380D01*
X109699258Y-20859761D01*
X109699258Y-20974047D01*
X109661163Y-21126428D01*
X109623068Y-21202619D01*
X109546878Y-21278809D01*
X109432592Y-21316904D01*
X109242116Y-21316904D01*
X109965925Y-20516904D02*
X110461163Y-20516904D01*
X110194497Y-20821666D01*
X110308782Y-20821666D01*
X110384973Y-20859761D01*
X110423068Y-20897857D01*
X110461163Y-20974047D01*
X110461163Y-21164523D01*
X110423068Y-21240714D01*
X110384973Y-21278809D01*
X110308782Y-21316904D01*
X110080211Y-21316904D01*
X110004020Y-21278809D01*
X109965925Y-21240714D01*
X105867273Y-23856904D02*
X105867273Y-23056904D01*
X106057750Y-23056904D01*
X106172035Y-23095000D01*
X106248226Y-23171190D01*
X106286321Y-23247380D01*
X106324416Y-23399761D01*
X106324416Y-23514047D01*
X106286321Y-23666428D01*
X106248226Y-23742619D01*
X106172035Y-23818809D01*
X106057750Y-23856904D01*
X105867273Y-23856904D01*
X106629178Y-23133095D02*
X106667273Y-23095000D01*
X106743464Y-23056904D01*
X106933940Y-23056904D01*
X107010130Y-23095000D01*
X107048226Y-23133095D01*
X107086321Y-23209285D01*
X107086321Y-23285476D01*
X107048226Y-23399761D01*
X106591083Y-23856904D01*
X107086321Y-23856904D01*
X105867273Y-34016904D02*
X105867273Y-33216904D01*
X106057750Y-33216904D01*
X106172035Y-33255000D01*
X106248226Y-33331190D01*
X106286321Y-33407380D01*
X106324416Y-33559761D01*
X106324416Y-33674047D01*
X106286321Y-33826428D01*
X106248226Y-33902619D01*
X106172035Y-33978809D01*
X106057750Y-34016904D01*
X105867273Y-34016904D01*
X106819654Y-33216904D02*
X106895845Y-33216904D01*
X106972035Y-33255000D01*
X107010130Y-33293095D01*
X107048226Y-33369285D01*
X107086321Y-33521666D01*
X107086321Y-33712142D01*
X107048226Y-33864523D01*
X107010130Y-33940714D01*
X106972035Y-33978809D01*
X106895845Y-34016904D01*
X106819654Y-34016904D01*
X106743464Y-33978809D01*
X106705369Y-33940714D01*
X106667273Y-33864523D01*
X106629178Y-33712142D01*
X106629178Y-33521666D01*
X106667273Y-33369285D01*
X106705369Y-33293095D01*
X106743464Y-33255000D01*
X106819654Y-33216904D01*
X105867273Y-31476904D02*
X105867273Y-30676904D01*
X106057750Y-30676904D01*
X106172035Y-30715000D01*
X106248226Y-30791190D01*
X106286321Y-30867380D01*
X106324416Y-31019761D01*
X106324416Y-31134047D01*
X106286321Y-31286428D01*
X106248226Y-31362619D01*
X106172035Y-31438809D01*
X106057750Y-31476904D01*
X105867273Y-31476904D01*
X107086321Y-31476904D02*
X106629178Y-31476904D01*
X106857750Y-31476904D02*
X106857750Y-30676904D01*
X106781559Y-30791190D01*
X106705369Y-30867380D01*
X106629178Y-30905476D01*
X105848226Y-28175000D02*
X105772035Y-28136904D01*
X105657750Y-28136904D01*
X105543464Y-28175000D01*
X105467273Y-28251190D01*
X105429178Y-28327380D01*
X105391083Y-28479761D01*
X105391083Y-28594047D01*
X105429178Y-28746428D01*
X105467273Y-28822619D01*
X105543464Y-28898809D01*
X105657750Y-28936904D01*
X105733940Y-28936904D01*
X105848226Y-28898809D01*
X105886321Y-28860714D01*
X105886321Y-28594047D01*
X105733940Y-28594047D01*
X106229178Y-28936904D02*
X106229178Y-28136904D01*
X106686321Y-28936904D01*
X106686321Y-28136904D01*
X107067273Y-28936904D02*
X107067273Y-28136904D01*
X107257750Y-28136904D01*
X107372035Y-28175000D01*
X107448226Y-28251190D01*
X107486321Y-28327380D01*
X107524416Y-28479761D01*
X107524416Y-28594047D01*
X107486321Y-28746428D01*
X107448226Y-28822619D01*
X107372035Y-28898809D01*
X107257750Y-28936904D01*
X107067273Y-28936904D01*
X105848226Y-25635000D02*
X105772035Y-25596904D01*
X105657750Y-25596904D01*
X105543464Y-25635000D01*
X105467273Y-25711190D01*
X105429178Y-25787380D01*
X105391083Y-25939761D01*
X105391083Y-26054047D01*
X105429178Y-26206428D01*
X105467273Y-26282619D01*
X105543464Y-26358809D01*
X105657750Y-26396904D01*
X105733940Y-26396904D01*
X105848226Y-26358809D01*
X105886321Y-26320714D01*
X105886321Y-26054047D01*
X105733940Y-26054047D01*
X106229178Y-26396904D02*
X106229178Y-25596904D01*
X106686321Y-26396904D01*
X106686321Y-25596904D01*
X107067273Y-26396904D02*
X107067273Y-25596904D01*
X107257750Y-25596904D01*
X107372035Y-25635000D01*
X107448226Y-25711190D01*
X107486321Y-25787380D01*
X107524416Y-25939761D01*
X107524416Y-26054047D01*
X107486321Y-26206428D01*
X107448226Y-26282619D01*
X107372035Y-26358809D01*
X107257750Y-26396904D01*
X107067273Y-26396904D01*
X105867273Y-36556904D02*
X105867273Y-35756904D01*
X106057750Y-35756904D01*
X106172035Y-35795000D01*
X106248226Y-35871190D01*
X106286321Y-35947380D01*
X106324416Y-36099761D01*
X106324416Y-36214047D01*
X106286321Y-36366428D01*
X106248226Y-36442619D01*
X106172035Y-36518809D01*
X106057750Y-36556904D01*
X105867273Y-36556904D01*
X107010130Y-36023571D02*
X107010130Y-36556904D01*
X106819654Y-35718809D02*
X106629178Y-36290238D01*
X107124416Y-36290238D01*
X106324416Y-39020714D02*
X106286321Y-39058809D01*
X106172035Y-39096904D01*
X106095845Y-39096904D01*
X105981559Y-39058809D01*
X105905369Y-38982619D01*
X105867273Y-38906428D01*
X105829178Y-38754047D01*
X105829178Y-38639761D01*
X105867273Y-38487380D01*
X105905369Y-38411190D01*
X105981559Y-38335000D01*
X106095845Y-38296904D01*
X106172035Y-38296904D01*
X106286321Y-38335000D01*
X106324416Y-38373095D01*
X107010130Y-38296904D02*
X106857750Y-38296904D01*
X106781559Y-38335000D01*
X106743464Y-38373095D01*
X106667273Y-38487380D01*
X106629178Y-38639761D01*
X106629178Y-38944523D01*
X106667273Y-39020714D01*
X106705369Y-39058809D01*
X106781559Y-39096904D01*
X106933940Y-39096904D01*
X107010130Y-39058809D01*
X107048226Y-39020714D01*
X107086321Y-38944523D01*
X107086321Y-38754047D01*
X107048226Y-38677857D01*
X107010130Y-38639761D01*
X106933940Y-38601666D01*
X106781559Y-38601666D01*
X106705369Y-38639761D01*
X106667273Y-38677857D01*
X106629178Y-38754047D01*
X105867273Y-41636904D02*
X105867273Y-40836904D01*
X106057750Y-40836904D01*
X106172035Y-40875000D01*
X106248226Y-40951190D01*
X106286321Y-41027380D01*
X106324416Y-41179761D01*
X106324416Y-41294047D01*
X106286321Y-41446428D01*
X106248226Y-41522619D01*
X106172035Y-41598809D01*
X106057750Y-41636904D01*
X105867273Y-41636904D01*
X106591083Y-40836904D02*
X107124416Y-40836904D01*
X106781559Y-41636904D01*
X105905369Y-43757857D02*
X106172035Y-43757857D01*
X106286321Y-44176904D02*
X105905369Y-44176904D01*
X105905369Y-43376904D01*
X106286321Y-43376904D01*
X106972035Y-43376904D02*
X106819654Y-43376904D01*
X106743464Y-43415000D01*
X106705369Y-43453095D01*
X106629178Y-43567380D01*
X106591083Y-43719761D01*
X106591083Y-44024523D01*
X106629178Y-44100714D01*
X106667273Y-44138809D01*
X106743464Y-44176904D01*
X106895845Y-44176904D01*
X106972035Y-44138809D01*
X107010130Y-44100714D01*
X107048226Y-44024523D01*
X107048226Y-43834047D01*
X107010130Y-43757857D01*
X106972035Y-43719761D01*
X106895845Y-43681666D01*
X106743464Y-43681666D01*
X106667273Y-43719761D01*
X106629178Y-43757857D01*
X106591083Y-43834047D01*
X106133940Y-46297857D02*
X106248226Y-46335952D01*
X106286321Y-46374047D01*
X106324416Y-46450238D01*
X106324416Y-46564523D01*
X106286321Y-46640714D01*
X106248226Y-46678809D01*
X106172035Y-46716904D01*
X105867273Y-46716904D01*
X105867273Y-45916904D01*
X106133940Y-45916904D01*
X106210130Y-45955000D01*
X106248226Y-45993095D01*
X106286321Y-46069285D01*
X106286321Y-46145476D01*
X106248226Y-46221666D01*
X106210130Y-46259761D01*
X106133940Y-46297857D01*
X105867273Y-46297857D01*
X107010130Y-46183571D02*
X107010130Y-46716904D01*
X106819654Y-45878809D02*
X106629178Y-46450238D01*
X107124416Y-46450238D01*
X106133940Y-48837857D02*
X106248226Y-48875952D01*
X106286321Y-48914047D01*
X106324416Y-48990238D01*
X106324416Y-49104523D01*
X106286321Y-49180714D01*
X106248226Y-49218809D01*
X106172035Y-49256904D01*
X105867273Y-49256904D01*
X105867273Y-48456904D01*
X106133940Y-48456904D01*
X106210130Y-48495000D01*
X106248226Y-48533095D01*
X106286321Y-48609285D01*
X106286321Y-48685476D01*
X106248226Y-48761666D01*
X106210130Y-48799761D01*
X106133940Y-48837857D01*
X105867273Y-48837857D01*
X107048226Y-48456904D02*
X106667273Y-48456904D01*
X106629178Y-48837857D01*
X106667273Y-48799761D01*
X106743464Y-48761666D01*
X106933940Y-48761666D01*
X107010130Y-48799761D01*
X107048226Y-48837857D01*
X107086321Y-48914047D01*
X107086321Y-49104523D01*
X107048226Y-49180714D01*
X107010130Y-49218809D01*
X106933940Y-49256904D01*
X106743464Y-49256904D01*
X106667273Y-49218809D01*
X106629178Y-49180714D01*
X117055940Y-48837857D02*
X117170226Y-48875952D01*
X117208321Y-48914047D01*
X117246416Y-48990238D01*
X117246416Y-49104523D01*
X117208321Y-49180714D01*
X117170226Y-49218809D01*
X117094035Y-49256904D01*
X116789273Y-49256904D01*
X116789273Y-48456904D01*
X117055940Y-48456904D01*
X117132130Y-48495000D01*
X117170226Y-48533095D01*
X117208321Y-48609285D01*
X117208321Y-48685476D01*
X117170226Y-48761666D01*
X117132130Y-48799761D01*
X117055940Y-48837857D01*
X116789273Y-48837857D01*
X117932130Y-48456904D02*
X117779750Y-48456904D01*
X117703559Y-48495000D01*
X117665464Y-48533095D01*
X117589273Y-48647380D01*
X117551178Y-48799761D01*
X117551178Y-49104523D01*
X117589273Y-49180714D01*
X117627369Y-49218809D01*
X117703559Y-49256904D01*
X117855940Y-49256904D01*
X117932130Y-49218809D01*
X117970226Y-49180714D01*
X118008321Y-49104523D01*
X118008321Y-48914047D01*
X117970226Y-48837857D01*
X117932130Y-48799761D01*
X117855940Y-48761666D01*
X117703559Y-48761666D01*
X117627369Y-48799761D01*
X117589273Y-48837857D01*
X117551178Y-48914047D01*
X117055940Y-43757857D02*
X117170226Y-43795952D01*
X117208321Y-43834047D01*
X117246416Y-43910238D01*
X117246416Y-44024523D01*
X117208321Y-44100714D01*
X117170226Y-44138809D01*
X117094035Y-44176904D01*
X116789273Y-44176904D01*
X116789273Y-43376904D01*
X117055940Y-43376904D01*
X117132130Y-43415000D01*
X117170226Y-43453095D01*
X117208321Y-43529285D01*
X117208321Y-43605476D01*
X117170226Y-43681666D01*
X117132130Y-43719761D01*
X117055940Y-43757857D01*
X116789273Y-43757857D01*
X117513083Y-43376904D02*
X118008321Y-43376904D01*
X117741654Y-43681666D01*
X117855940Y-43681666D01*
X117932130Y-43719761D01*
X117970226Y-43757857D01*
X118008321Y-43834047D01*
X118008321Y-44024523D01*
X117970226Y-44100714D01*
X117932130Y-44138809D01*
X117855940Y-44176904D01*
X117627369Y-44176904D01*
X117551178Y-44138809D01*
X117513083Y-44100714D01*
X117055940Y-41217857D02*
X117170226Y-41255952D01*
X117208321Y-41294047D01*
X117246416Y-41370238D01*
X117246416Y-41484523D01*
X117208321Y-41560714D01*
X117170226Y-41598809D01*
X117094035Y-41636904D01*
X116789273Y-41636904D01*
X116789273Y-40836904D01*
X117055940Y-40836904D01*
X117132130Y-40875000D01*
X117170226Y-40913095D01*
X117208321Y-40989285D01*
X117208321Y-41065476D01*
X117170226Y-41141666D01*
X117132130Y-41179761D01*
X117055940Y-41217857D01*
X116789273Y-41217857D01*
X118008321Y-41636904D02*
X117551178Y-41636904D01*
X117779750Y-41636904D02*
X117779750Y-40836904D01*
X117703559Y-40951190D01*
X117627369Y-41027380D01*
X117551178Y-41065476D01*
X117113083Y-31057857D02*
X116846416Y-31057857D01*
X116846416Y-31476904D02*
X116846416Y-30676904D01*
X117227369Y-30676904D01*
X117874988Y-30943571D02*
X117874988Y-31476904D01*
X117684511Y-30638809D02*
X117494035Y-31210238D01*
X117989273Y-31210238D01*
X116313083Y-28136904D02*
X116579750Y-28936904D01*
X116846416Y-28136904D01*
X117570226Y-28860714D02*
X117532130Y-28898809D01*
X117417845Y-28936904D01*
X117341654Y-28936904D01*
X117227369Y-28898809D01*
X117151178Y-28822619D01*
X117113083Y-28746428D01*
X117074988Y-28594047D01*
X117074988Y-28479761D01*
X117113083Y-28327380D01*
X117151178Y-28251190D01*
X117227369Y-28175000D01*
X117341654Y-28136904D01*
X117417845Y-28136904D01*
X117532130Y-28175000D01*
X117570226Y-28213095D01*
X118370226Y-28860714D02*
X118332130Y-28898809D01*
X118217845Y-28936904D01*
X118141654Y-28936904D01*
X118027369Y-28898809D01*
X117951178Y-28822619D01*
X117913083Y-28746428D01*
X117874988Y-28594047D01*
X117874988Y-28479761D01*
X117913083Y-28327380D01*
X117951178Y-28251190D01*
X118027369Y-28175000D01*
X118141654Y-28136904D01*
X118217845Y-28136904D01*
X118332130Y-28175000D01*
X118370226Y-28213095D01*
X117118536Y-26328809D02*
X117232822Y-26366904D01*
X117423298Y-26366904D01*
X117499489Y-26328809D01*
X117537584Y-26290714D01*
X117575679Y-26214523D01*
X117575679Y-26138333D01*
X117537584Y-26062142D01*
X117499489Y-26024047D01*
X117423298Y-25985952D01*
X117270917Y-25947857D01*
X117194727Y-25909761D01*
X117156631Y-25871666D01*
X117118536Y-25795476D01*
X117118536Y-25719285D01*
X117156631Y-25643095D01*
X117194727Y-25605000D01*
X117270917Y-25566904D01*
X117461393Y-25566904D01*
X117575679Y-25605000D01*
X117804250Y-25566904D02*
X118261393Y-25566904D01*
X118032822Y-26366904D02*
X118032822Y-25566904D01*
X116770226Y-23095000D02*
X116694035Y-23056904D01*
X116579750Y-23056904D01*
X116465464Y-23095000D01*
X116389273Y-23171190D01*
X116351178Y-23247380D01*
X116313083Y-23399761D01*
X116313083Y-23514047D01*
X116351178Y-23666428D01*
X116389273Y-23742619D01*
X116465464Y-23818809D01*
X116579750Y-23856904D01*
X116655940Y-23856904D01*
X116770226Y-23818809D01*
X116808321Y-23780714D01*
X116808321Y-23514047D01*
X116655940Y-23514047D01*
X117151178Y-23856904D02*
X117151178Y-23056904D01*
X117608321Y-23856904D01*
X117608321Y-23056904D01*
X117989273Y-23856904D02*
X117989273Y-23056904D01*
X118179750Y-23056904D01*
X118294035Y-23095000D01*
X118370226Y-23171190D01*
X118408321Y-23247380D01*
X118446416Y-23399761D01*
X118446416Y-23514047D01*
X118408321Y-23666428D01*
X118370226Y-23742619D01*
X118294035Y-23818809D01*
X118179750Y-23856904D01*
X117989273Y-23856904D01*
X116827369Y-21316904D02*
X116560702Y-20935952D01*
X116370226Y-21316904D02*
X116370226Y-20516904D01*
X116674988Y-20516904D01*
X116751178Y-20555000D01*
X116789273Y-20593095D01*
X116827369Y-20669285D01*
X116827369Y-20783571D01*
X116789273Y-20859761D01*
X116751178Y-20897857D01*
X116674988Y-20935952D01*
X116370226Y-20935952D01*
X117132130Y-21088333D02*
X117513083Y-21088333D01*
X117055940Y-21316904D02*
X117322607Y-20516904D01*
X117589273Y-21316904D01*
X117779750Y-20516904D02*
X117970226Y-21316904D01*
X118122607Y-20745476D01*
X118274988Y-21316904D01*
X118465464Y-20516904D01*
X117113083Y-33597857D02*
X116846416Y-33597857D01*
X116846416Y-34016904D02*
X116846416Y-33216904D01*
X117227369Y-33216904D01*
X117913083Y-33216904D02*
X117532130Y-33216904D01*
X117494035Y-33597857D01*
X117532130Y-33559761D01*
X117608321Y-33521666D01*
X117798797Y-33521666D01*
X117874988Y-33559761D01*
X117913083Y-33597857D01*
X117951178Y-33674047D01*
X117951178Y-33864523D01*
X117913083Y-33940714D01*
X117874988Y-33978809D01*
X117798797Y-34016904D01*
X117608321Y-34016904D01*
X117532130Y-33978809D01*
X117494035Y-33940714D01*
X117113083Y-36137857D02*
X116846416Y-36137857D01*
X116846416Y-36556904D02*
X116846416Y-35756904D01*
X117227369Y-35756904D01*
X117874988Y-35756904D02*
X117722607Y-35756904D01*
X117646416Y-35795000D01*
X117608321Y-35833095D01*
X117532130Y-35947380D01*
X117494035Y-36099761D01*
X117494035Y-36404523D01*
X117532130Y-36480714D01*
X117570226Y-36518809D01*
X117646416Y-36556904D01*
X117798797Y-36556904D01*
X117874988Y-36518809D01*
X117913083Y-36480714D01*
X117951178Y-36404523D01*
X117951178Y-36214047D01*
X117913083Y-36137857D01*
X117874988Y-36099761D01*
X117798797Y-36061666D01*
X117646416Y-36061666D01*
X117570226Y-36099761D01*
X117532130Y-36137857D01*
X117494035Y-36214047D01*
X117113083Y-38677857D02*
X116846416Y-38677857D01*
X116846416Y-39096904D02*
X116846416Y-38296904D01*
X117227369Y-38296904D01*
X117455940Y-38296904D02*
X117989273Y-38296904D01*
X117646416Y-39096904D01*
X117055940Y-46297857D02*
X117170226Y-46335952D01*
X117208321Y-46374047D01*
X117246416Y-46450238D01*
X117246416Y-46564523D01*
X117208321Y-46640714D01*
X117170226Y-46678809D01*
X117094035Y-46716904D01*
X116789273Y-46716904D01*
X116789273Y-45916904D01*
X117055940Y-45916904D01*
X117132130Y-45955000D01*
X117170226Y-45993095D01*
X117208321Y-46069285D01*
X117208321Y-46145476D01*
X117170226Y-46221666D01*
X117132130Y-46259761D01*
X117055940Y-46297857D01*
X116789273Y-46297857D01*
X117551178Y-45993095D02*
X117589273Y-45955000D01*
X117665464Y-45916904D01*
X117855940Y-45916904D01*
X117932130Y-45955000D01*
X117970226Y-45993095D01*
X118008321Y-46069285D01*
X118008321Y-46145476D01*
X117970226Y-46259761D01*
X117513083Y-46716904D01*
X118008321Y-46716904D01*
X139726261Y-26405582D02*
X139773880Y-26262725D01*
X139773880Y-26024629D01*
X139726261Y-25929391D01*
X139678642Y-25881772D01*
X139583404Y-25834153D01*
X139488166Y-25834153D01*
X139392928Y-25881772D01*
X139345309Y-25929391D01*
X139297690Y-26024629D01*
X139250071Y-26215106D01*
X139202452Y-26310344D01*
X139154833Y-26357963D01*
X139059595Y-26405582D01*
X138964357Y-26405582D01*
X138869119Y-26357963D01*
X138821500Y-26310344D01*
X138773880Y-26215106D01*
X138773880Y-25977010D01*
X138821500Y-25834153D01*
X138773880Y-25500820D02*
X139773880Y-25262725D01*
X139059595Y-25072249D01*
X139773880Y-24881772D01*
X138773880Y-24643677D01*
X138869119Y-24310344D02*
X138821500Y-24262725D01*
X138773880Y-24167487D01*
X138773880Y-23929391D01*
X138821500Y-23834153D01*
X138869119Y-23786534D01*
X138964357Y-23738915D01*
X139059595Y-23738915D01*
X139202452Y-23786534D01*
X139773880Y-24357963D01*
X139773880Y-23738915D01*
X128214880Y-26625297D02*
X127214880Y-26625297D01*
X127214880Y-26244345D01*
X127262500Y-26149107D01*
X127310119Y-26101488D01*
X127405357Y-26053869D01*
X127548214Y-26053869D01*
X127643452Y-26101488D01*
X127691071Y-26149107D01*
X127738690Y-26244345D01*
X127738690Y-26625297D01*
X127214880Y-25339583D02*
X127929166Y-25339583D01*
X128072023Y-25387202D01*
X128167261Y-25482440D01*
X128214880Y-25625297D01*
X128214880Y-25720535D01*
X127833928Y-24863392D02*
X127833928Y-24101488D01*
X127214880Y-23720535D02*
X127214880Y-23101488D01*
X127595833Y-23434821D01*
X127595833Y-23291964D01*
X127643452Y-23196726D01*
X127691071Y-23149107D01*
X127786309Y-23101488D01*
X128024404Y-23101488D01*
X128119642Y-23149107D01*
X128167261Y-23196726D01*
X128214880Y-23291964D01*
X128214880Y-23577678D01*
X128167261Y-23672916D01*
X128119642Y-23720535D01*
X127310119Y-22720535D02*
X127262500Y-22672916D01*
X127214880Y-22577678D01*
X127214880Y-22339583D01*
X127262500Y-22244345D01*
X127310119Y-22196726D01*
X127405357Y-22149107D01*
X127500595Y-22149107D01*
X127643452Y-22196726D01*
X128214880Y-22768154D01*
X128214880Y-22149107D01*
X127214880Y-21530059D02*
X127214880Y-21434821D01*
X127262500Y-21339583D01*
X127310119Y-21291964D01*
X127405357Y-21244345D01*
X127595833Y-21196726D01*
X127833928Y-21196726D01*
X128024404Y-21244345D01*
X128119642Y-21291964D01*
X128167261Y-21339583D01*
X128214880Y-21434821D01*
X128214880Y-21530059D01*
X128167261Y-21625297D01*
X128119642Y-21672916D01*
X128024404Y-21720535D01*
X127833928Y-21768154D01*
X127595833Y-21768154D01*
X127405357Y-21720535D01*
X127310119Y-21672916D01*
X127262500Y-21625297D01*
X127214880Y-21530059D01*
X127929166Y-20815773D02*
X127929166Y-20339583D01*
X128214880Y-20911011D02*
X127214880Y-20577678D01*
X128214880Y-20244345D01*
D15*
X113029166Y-91591500D02*
X112329166Y-91591500D01*
X112329166Y-91424833D01*
X112362500Y-91324833D01*
X112429166Y-91258166D01*
X112495833Y-91224833D01*
X112629166Y-91191500D01*
X112729166Y-91191500D01*
X112862500Y-91224833D01*
X112929166Y-91258166D01*
X112995833Y-91324833D01*
X113029166Y-91424833D01*
X113029166Y-91591500D01*
X113029166Y-90524833D02*
X113029166Y-90924833D01*
X113029166Y-90724833D02*
X112329166Y-90724833D01*
X112429166Y-90791500D01*
X112495833Y-90858166D01*
X112529166Y-90924833D01*
X113029166Y-90191500D02*
X113029166Y-90058166D01*
X112995833Y-89991500D01*
X112962500Y-89958166D01*
X112862500Y-89891500D01*
X112729166Y-89858166D01*
X112462500Y-89858166D01*
X112395833Y-89891500D01*
X112362500Y-89924833D01*
X112329166Y-89991500D01*
X112329166Y-90124833D01*
X112362500Y-90191500D01*
X112395833Y-90224833D01*
X112462500Y-90258166D01*
X112629166Y-90258166D01*
X112695833Y-90224833D01*
X112729166Y-90191500D01*
X112762500Y-90124833D01*
X112762500Y-89991500D01*
X112729166Y-89924833D01*
X112695833Y-89891500D01*
X112629166Y-89858166D01*
X158947750Y-86041666D02*
X158947750Y-85341666D01*
X159114416Y-85341666D01*
X159214416Y-85375000D01*
X159281083Y-85441666D01*
X159314416Y-85508333D01*
X159347750Y-85641666D01*
X159347750Y-85741666D01*
X159314416Y-85875000D01*
X159281083Y-85941666D01*
X159214416Y-86008333D01*
X159114416Y-86041666D01*
X158947750Y-86041666D01*
X160014416Y-86041666D02*
X159614416Y-86041666D01*
X159814416Y-86041666D02*
X159814416Y-85341666D01*
X159747750Y-85441666D01*
X159681083Y-85508333D01*
X159614416Y-85541666D01*
X160414416Y-85641666D02*
X160347750Y-85608333D01*
X160314416Y-85575000D01*
X160281083Y-85508333D01*
X160281083Y-85475000D01*
X160314416Y-85408333D01*
X160347750Y-85375000D01*
X160414416Y-85341666D01*
X160547750Y-85341666D01*
X160614416Y-85375000D01*
X160647750Y-85408333D01*
X160681083Y-85475000D01*
X160681083Y-85508333D01*
X160647750Y-85575000D01*
X160614416Y-85608333D01*
X160547750Y-85641666D01*
X160414416Y-85641666D01*
X160347750Y-85675000D01*
X160314416Y-85708333D01*
X160281083Y-85775000D01*
X160281083Y-85908333D01*
X160314416Y-85975000D01*
X160347750Y-86008333D01*
X160414416Y-86041666D01*
X160547750Y-86041666D01*
X160614416Y-86008333D01*
X160647750Y-85975000D01*
X160681083Y-85908333D01*
X160681083Y-85775000D01*
X160647750Y-85708333D01*
X160614416Y-85675000D01*
X160547750Y-85641666D01*
X139897750Y-86041666D02*
X139897750Y-85341666D01*
X140064416Y-85341666D01*
X140164416Y-85375000D01*
X140231083Y-85441666D01*
X140264416Y-85508333D01*
X140297750Y-85641666D01*
X140297750Y-85741666D01*
X140264416Y-85875000D01*
X140231083Y-85941666D01*
X140164416Y-86008333D01*
X140064416Y-86041666D01*
X139897750Y-86041666D01*
X140964416Y-86041666D02*
X140564416Y-86041666D01*
X140764416Y-86041666D02*
X140764416Y-85341666D01*
X140697750Y-85441666D01*
X140631083Y-85508333D01*
X140564416Y-85541666D01*
X141197750Y-85341666D02*
X141664416Y-85341666D01*
X141364416Y-86041666D01*
X120847750Y-86041666D02*
X120847750Y-85341666D01*
X121014416Y-85341666D01*
X121114416Y-85375000D01*
X121181083Y-85441666D01*
X121214416Y-85508333D01*
X121247750Y-85641666D01*
X121247750Y-85741666D01*
X121214416Y-85875000D01*
X121181083Y-85941666D01*
X121114416Y-86008333D01*
X121014416Y-86041666D01*
X120847750Y-86041666D01*
X121914416Y-86041666D02*
X121514416Y-86041666D01*
X121714416Y-86041666D02*
X121714416Y-85341666D01*
X121647750Y-85441666D01*
X121581083Y-85508333D01*
X121514416Y-85541666D01*
X122514416Y-85341666D02*
X122381083Y-85341666D01*
X122314416Y-85375000D01*
X122281083Y-85408333D01*
X122214416Y-85508333D01*
X122181083Y-85641666D01*
X122181083Y-85908333D01*
X122214416Y-85975000D01*
X122247750Y-86008333D01*
X122314416Y-86041666D01*
X122447750Y-86041666D01*
X122514416Y-86008333D01*
X122547750Y-85975000D01*
X122581083Y-85908333D01*
X122581083Y-85741666D01*
X122547750Y-85675000D01*
X122514416Y-85641666D01*
X122447750Y-85608333D01*
X122314416Y-85608333D01*
X122247750Y-85641666D01*
X122214416Y-85675000D01*
X122181083Y-85741666D01*
X149422750Y-84454166D02*
X149422750Y-83754166D01*
X149589416Y-83754166D01*
X149689416Y-83787500D01*
X149756083Y-83854166D01*
X149789416Y-83920833D01*
X149822750Y-84054166D01*
X149822750Y-84154166D01*
X149789416Y-84287500D01*
X149756083Y-84354166D01*
X149689416Y-84420833D01*
X149589416Y-84454166D01*
X149422750Y-84454166D01*
X150489416Y-84454166D02*
X150089416Y-84454166D01*
X150289416Y-84454166D02*
X150289416Y-83754166D01*
X150222750Y-83854166D01*
X150156083Y-83920833D01*
X150089416Y-83954166D01*
X151122750Y-83754166D02*
X150789416Y-83754166D01*
X150756083Y-84087500D01*
X150789416Y-84054166D01*
X150856083Y-84020833D01*
X151022750Y-84020833D01*
X151089416Y-84054166D01*
X151122750Y-84087500D01*
X151156083Y-84154166D01*
X151156083Y-84320833D01*
X151122750Y-84387500D01*
X151089416Y-84420833D01*
X151022750Y-84454166D01*
X150856083Y-84454166D01*
X150789416Y-84420833D01*
X150756083Y-84387500D01*
X130372750Y-84454166D02*
X130372750Y-83754166D01*
X130539416Y-83754166D01*
X130639416Y-83787500D01*
X130706083Y-83854166D01*
X130739416Y-83920833D01*
X130772750Y-84054166D01*
X130772750Y-84154166D01*
X130739416Y-84287500D01*
X130706083Y-84354166D01*
X130639416Y-84420833D01*
X130539416Y-84454166D01*
X130372750Y-84454166D01*
X131439416Y-84454166D02*
X131039416Y-84454166D01*
X131239416Y-84454166D02*
X131239416Y-83754166D01*
X131172750Y-83854166D01*
X131106083Y-83920833D01*
X131039416Y-83954166D01*
X132039416Y-83987500D02*
X132039416Y-84454166D01*
X131872750Y-83720833D02*
X131706083Y-84220833D01*
X132139416Y-84220833D01*
X111322750Y-74929166D02*
X111322750Y-74229166D01*
X111489416Y-74229166D01*
X111589416Y-74262500D01*
X111656083Y-74329166D01*
X111689416Y-74395833D01*
X111722750Y-74529166D01*
X111722750Y-74629166D01*
X111689416Y-74762500D01*
X111656083Y-74829166D01*
X111589416Y-74895833D01*
X111489416Y-74929166D01*
X111322750Y-74929166D01*
X112389416Y-74929166D02*
X111989416Y-74929166D01*
X112189416Y-74929166D02*
X112189416Y-74229166D01*
X112122750Y-74329166D01*
X112056083Y-74395833D01*
X111989416Y-74429166D01*
X112622750Y-74229166D02*
X113056083Y-74229166D01*
X112822750Y-74495833D01*
X112922750Y-74495833D01*
X112989416Y-74529166D01*
X113022750Y-74562500D01*
X113056083Y-74629166D01*
X113056083Y-74795833D01*
X113022750Y-74862500D01*
X112989416Y-74895833D01*
X112922750Y-74929166D01*
X112722750Y-74929166D01*
X112656083Y-74895833D01*
X112622750Y-74862500D01*
X92272750Y-79691666D02*
X92272750Y-78991666D01*
X92439416Y-78991666D01*
X92539416Y-79025000D01*
X92606083Y-79091666D01*
X92639416Y-79158333D01*
X92672750Y-79291666D01*
X92672750Y-79391666D01*
X92639416Y-79525000D01*
X92606083Y-79591666D01*
X92539416Y-79658333D01*
X92439416Y-79691666D01*
X92272750Y-79691666D01*
X93339416Y-79691666D02*
X92939416Y-79691666D01*
X93139416Y-79691666D02*
X93139416Y-78991666D01*
X93072750Y-79091666D01*
X93006083Y-79158333D01*
X92939416Y-79191666D01*
X93606083Y-79058333D02*
X93639416Y-79025000D01*
X93706083Y-78991666D01*
X93872750Y-78991666D01*
X93939416Y-79025000D01*
X93972750Y-79058333D01*
X94006083Y-79125000D01*
X94006083Y-79191666D01*
X93972750Y-79291666D01*
X93572750Y-79691666D01*
X94006083Y-79691666D01*
X73222750Y-81279166D02*
X73222750Y-80579166D01*
X73389416Y-80579166D01*
X73489416Y-80612500D01*
X73556083Y-80679166D01*
X73589416Y-80745833D01*
X73622750Y-80879166D01*
X73622750Y-80979166D01*
X73589416Y-81112500D01*
X73556083Y-81179166D01*
X73489416Y-81245833D01*
X73389416Y-81279166D01*
X73222750Y-81279166D01*
X74289416Y-81279166D02*
X73889416Y-81279166D01*
X74089416Y-81279166D02*
X74089416Y-80579166D01*
X74022750Y-80679166D01*
X73956083Y-80745833D01*
X73889416Y-80779166D01*
X74956083Y-81279166D02*
X74556083Y-81279166D01*
X74756083Y-81279166D02*
X74756083Y-80579166D01*
X74689416Y-80679166D01*
X74622750Y-80745833D01*
X74556083Y-80779166D01*
X149422750Y-65404166D02*
X149422750Y-64704166D01*
X149589416Y-64704166D01*
X149689416Y-64737500D01*
X149756083Y-64804166D01*
X149789416Y-64870833D01*
X149822750Y-65004166D01*
X149822750Y-65104166D01*
X149789416Y-65237500D01*
X149756083Y-65304166D01*
X149689416Y-65370833D01*
X149589416Y-65404166D01*
X149422750Y-65404166D01*
X150489416Y-65404166D02*
X150089416Y-65404166D01*
X150289416Y-65404166D02*
X150289416Y-64704166D01*
X150222750Y-64804166D01*
X150156083Y-64870833D01*
X150089416Y-64904166D01*
X150922750Y-64704166D02*
X150989416Y-64704166D01*
X151056083Y-64737500D01*
X151089416Y-64770833D01*
X151122750Y-64837500D01*
X151156083Y-64970833D01*
X151156083Y-65137500D01*
X151122750Y-65270833D01*
X151089416Y-65337500D01*
X151056083Y-65370833D01*
X150989416Y-65404166D01*
X150922750Y-65404166D01*
X150856083Y-65370833D01*
X150822750Y-65337500D01*
X150789416Y-65270833D01*
X150756083Y-65137500D01*
X150756083Y-64970833D01*
X150789416Y-64837500D01*
X150822750Y-64770833D01*
X150856083Y-64737500D01*
X150922750Y-64704166D01*
X130706083Y-65404166D02*
X130706083Y-64704166D01*
X130872750Y-64704166D01*
X130972750Y-64737500D01*
X131039416Y-64804166D01*
X131072750Y-64870833D01*
X131106083Y-65004166D01*
X131106083Y-65104166D01*
X131072750Y-65237500D01*
X131039416Y-65304166D01*
X130972750Y-65370833D01*
X130872750Y-65404166D01*
X130706083Y-65404166D01*
X131439416Y-65404166D02*
X131572750Y-65404166D01*
X131639416Y-65370833D01*
X131672750Y-65337500D01*
X131739416Y-65237500D01*
X131772750Y-65104166D01*
X131772750Y-64837500D01*
X131739416Y-64770833D01*
X131706083Y-64737500D01*
X131639416Y-64704166D01*
X131506083Y-64704166D01*
X131439416Y-64737500D01*
X131406083Y-64770833D01*
X131372750Y-64837500D01*
X131372750Y-65004166D01*
X131406083Y-65070833D01*
X131439416Y-65104166D01*
X131506083Y-65137500D01*
X131639416Y-65137500D01*
X131706083Y-65104166D01*
X131739416Y-65070833D01*
X131772750Y-65004166D01*
X111656083Y-55879166D02*
X111656083Y-55179166D01*
X111822750Y-55179166D01*
X111922750Y-55212500D01*
X111989416Y-55279166D01*
X112022750Y-55345833D01*
X112056083Y-55479166D01*
X112056083Y-55579166D01*
X112022750Y-55712500D01*
X111989416Y-55779166D01*
X111922750Y-55845833D01*
X111822750Y-55879166D01*
X111656083Y-55879166D01*
X112456083Y-55479166D02*
X112389416Y-55445833D01*
X112356083Y-55412500D01*
X112322750Y-55345833D01*
X112322750Y-55312500D01*
X112356083Y-55245833D01*
X112389416Y-55212500D01*
X112456083Y-55179166D01*
X112589416Y-55179166D01*
X112656083Y-55212500D01*
X112689416Y-55245833D01*
X112722750Y-55312500D01*
X112722750Y-55345833D01*
X112689416Y-55412500D01*
X112656083Y-55445833D01*
X112589416Y-55479166D01*
X112456083Y-55479166D01*
X112389416Y-55512500D01*
X112356083Y-55545833D01*
X112322750Y-55612500D01*
X112322750Y-55745833D01*
X112356083Y-55812500D01*
X112389416Y-55845833D01*
X112456083Y-55879166D01*
X112589416Y-55879166D01*
X112656083Y-55845833D01*
X112689416Y-55812500D01*
X112722750Y-55745833D01*
X112722750Y-55612500D01*
X112689416Y-55545833D01*
X112656083Y-55512500D01*
X112589416Y-55479166D01*
X92606083Y-60641666D02*
X92606083Y-59941666D01*
X92772750Y-59941666D01*
X92872750Y-59975000D01*
X92939416Y-60041666D01*
X92972750Y-60108333D01*
X93006083Y-60241666D01*
X93006083Y-60341666D01*
X92972750Y-60475000D01*
X92939416Y-60541666D01*
X92872750Y-60608333D01*
X92772750Y-60641666D01*
X92606083Y-60641666D01*
X93239416Y-59941666D02*
X93706083Y-59941666D01*
X93406083Y-60641666D01*
X73556083Y-62229166D02*
X73556083Y-61529166D01*
X73722750Y-61529166D01*
X73822750Y-61562500D01*
X73889416Y-61629166D01*
X73922750Y-61695833D01*
X73956083Y-61829166D01*
X73956083Y-61929166D01*
X73922750Y-62062500D01*
X73889416Y-62129166D01*
X73822750Y-62195833D01*
X73722750Y-62229166D01*
X73556083Y-62229166D01*
X74556083Y-61529166D02*
X74422750Y-61529166D01*
X74356083Y-61562500D01*
X74322750Y-61595833D01*
X74256083Y-61695833D01*
X74222750Y-61829166D01*
X74222750Y-62095833D01*
X74256083Y-62162500D01*
X74289416Y-62195833D01*
X74356083Y-62229166D01*
X74489416Y-62229166D01*
X74556083Y-62195833D01*
X74589416Y-62162500D01*
X74622750Y-62095833D01*
X74622750Y-61929166D01*
X74589416Y-61862500D01*
X74556083Y-61829166D01*
X74489416Y-61795833D01*
X74356083Y-61795833D01*
X74289416Y-61829166D01*
X74256083Y-61862500D01*
X74222750Y-61929166D01*
X149756083Y-46354166D02*
X149756083Y-45654166D01*
X149922750Y-45654166D01*
X150022750Y-45687500D01*
X150089416Y-45754166D01*
X150122750Y-45820833D01*
X150156083Y-45954166D01*
X150156083Y-46054166D01*
X150122750Y-46187500D01*
X150089416Y-46254166D01*
X150022750Y-46320833D01*
X149922750Y-46354166D01*
X149756083Y-46354166D01*
X150789416Y-45654166D02*
X150456083Y-45654166D01*
X150422750Y-45987500D01*
X150456083Y-45954166D01*
X150522750Y-45920833D01*
X150689416Y-45920833D01*
X150756083Y-45954166D01*
X150789416Y-45987500D01*
X150822750Y-46054166D01*
X150822750Y-46220833D01*
X150789416Y-46287500D01*
X150756083Y-46320833D01*
X150689416Y-46354166D01*
X150522750Y-46354166D01*
X150456083Y-46320833D01*
X150422750Y-46287500D01*
X130706083Y-46354166D02*
X130706083Y-45654166D01*
X130872750Y-45654166D01*
X130972750Y-45687500D01*
X131039416Y-45754166D01*
X131072750Y-45820833D01*
X131106083Y-45954166D01*
X131106083Y-46054166D01*
X131072750Y-46187500D01*
X131039416Y-46254166D01*
X130972750Y-46320833D01*
X130872750Y-46354166D01*
X130706083Y-46354166D01*
X131706083Y-45887500D02*
X131706083Y-46354166D01*
X131539416Y-45620833D02*
X131372750Y-46120833D01*
X131806083Y-46120833D01*
X111656083Y-36829166D02*
X111656083Y-36129166D01*
X111822750Y-36129166D01*
X111922750Y-36162500D01*
X111989416Y-36229166D01*
X112022750Y-36295833D01*
X112056083Y-36429166D01*
X112056083Y-36529166D01*
X112022750Y-36662500D01*
X111989416Y-36729166D01*
X111922750Y-36795833D01*
X111822750Y-36829166D01*
X111656083Y-36829166D01*
X112289416Y-36129166D02*
X112722750Y-36129166D01*
X112489416Y-36395833D01*
X112589416Y-36395833D01*
X112656083Y-36429166D01*
X112689416Y-36462500D01*
X112722750Y-36529166D01*
X112722750Y-36695833D01*
X112689416Y-36762500D01*
X112656083Y-36795833D01*
X112589416Y-36829166D01*
X112389416Y-36829166D01*
X112322750Y-36795833D01*
X112289416Y-36762500D01*
X92352083Y-41591666D02*
X92352083Y-40891666D01*
X92518750Y-40891666D01*
X92618750Y-40925000D01*
X92685416Y-40991666D01*
X92718750Y-41058333D01*
X92752083Y-41191666D01*
X92752083Y-41291666D01*
X92718750Y-41425000D01*
X92685416Y-41491666D01*
X92618750Y-41558333D01*
X92518750Y-41591666D01*
X92352083Y-41591666D01*
X93018750Y-40958333D02*
X93052083Y-40925000D01*
X93118750Y-40891666D01*
X93285416Y-40891666D01*
X93352083Y-40925000D01*
X93385416Y-40958333D01*
X93418750Y-41025000D01*
X93418750Y-41091666D01*
X93385416Y-41191666D01*
X92985416Y-41591666D01*
X93418750Y-41591666D01*
X73556083Y-43179166D02*
X73556083Y-42479166D01*
X73722750Y-42479166D01*
X73822750Y-42512500D01*
X73889416Y-42579166D01*
X73922750Y-42645833D01*
X73956083Y-42779166D01*
X73956083Y-42879166D01*
X73922750Y-43012500D01*
X73889416Y-43079166D01*
X73822750Y-43145833D01*
X73722750Y-43179166D01*
X73556083Y-43179166D01*
X74622750Y-43179166D02*
X74222750Y-43179166D01*
X74422750Y-43179166D02*
X74422750Y-42479166D01*
X74356083Y-42579166D01*
X74289416Y-42645833D01*
X74222750Y-42679166D01*
%LPC*%
D16*
X85773260Y-168953180D03*
X85778340Y-42049700D03*
X118996460Y-154640280D03*
X119001540Y-56362600D03*
X140492480Y-173664880D03*
X140497560Y-37338000D03*
X150017480Y-123609100D03*
X150022560Y-87393780D03*
X83338670Y-121309130D03*
X83343750Y-89693750D03*
D17*
X118460520Y-105526840D03*
X119730520Y-105526840D03*
X123540520Y-105526840D03*
X122270520Y-105526840D03*
X121000520Y-105526840D03*
D18*
X176034623Y-97285550D03*
X176034623Y-103285550D03*
X176034623Y-100285550D03*
D19*
X104893750Y-86956250D03*
D16*
X102393750Y-86956250D03*
X99893750Y-86956250D03*
D20*
X107993750Y-94456250D03*
X96793750Y-94456250D03*
D16*
X104893750Y-101456250D03*
X99893750Y-101456250D03*
D21*
X123825000Y-27800000D03*
X123825000Y-25400000D03*
X123825000Y-23000000D03*
D22*
X119538750Y-20955000D03*
X104298750Y-48895000D03*
X119538750Y-23495000D03*
X119538750Y-26035000D03*
X119538750Y-28575000D03*
X119538750Y-31115000D03*
X119538750Y-33655000D03*
X119538750Y-36195000D03*
X119538750Y-38735000D03*
X119538750Y-41275000D03*
X119538750Y-43815000D03*
X119538750Y-46355000D03*
X119538750Y-48895000D03*
X104298750Y-46355000D03*
X104298750Y-43815000D03*
X104298750Y-41275000D03*
X104298750Y-38735000D03*
X104298750Y-36195000D03*
X104298750Y-33655000D03*
X104298750Y-31115000D03*
X104298750Y-28575000D03*
X104298750Y-26035000D03*
X104298750Y-23495000D03*
D23*
X104298750Y-20955000D03*
D24*
X154323750Y-90256250D03*
D16*
X164543750Y-98256250D03*
X159543750Y-100356250D03*
X154543750Y-98256250D03*
D25*
X159543750Y-94456250D03*
D26*
X165043750Y-94456250D03*
X154043750Y-94456250D03*
D24*
X164763750Y-90256250D03*
D16*
X162083750Y-89376250D03*
X157043750Y-90456250D03*
X162043750Y-89956250D03*
D27*
X154463750Y-94456250D03*
D16*
X155733750Y-91916250D03*
X163353750Y-91916250D03*
X157003750Y-89376250D03*
X162043750Y-90456250D03*
D27*
X164623750Y-94456250D03*
D16*
X157043750Y-89956250D03*
D25*
X159543750Y-94456250D03*
D24*
X135273750Y-90256250D03*
D16*
X145493750Y-98256250D03*
X140493750Y-100356250D03*
X135493750Y-98256250D03*
D25*
X140493750Y-94456250D03*
D26*
X145993750Y-94456250D03*
X134993750Y-94456250D03*
D24*
X145713750Y-90256250D03*
D16*
X143033750Y-89376250D03*
X137993750Y-90456250D03*
X142993750Y-89956250D03*
D27*
X135413750Y-94456250D03*
D16*
X136683750Y-91916250D03*
X144303750Y-91916250D03*
X137953750Y-89376250D03*
X142993750Y-90456250D03*
D27*
X145573750Y-94456250D03*
D16*
X137993750Y-89956250D03*
D25*
X140493750Y-94456250D03*
D24*
X116223750Y-90256250D03*
D16*
X126443750Y-98256250D03*
X121443750Y-100356250D03*
X116443750Y-98256250D03*
D25*
X121443750Y-94456250D03*
D26*
X126943750Y-94456250D03*
X115943750Y-94456250D03*
D24*
X126663750Y-90256250D03*
D16*
X123983750Y-89376250D03*
X118943750Y-90456250D03*
X123943750Y-89956250D03*
D27*
X116363750Y-94456250D03*
D16*
X117633750Y-91916250D03*
X125253750Y-91916250D03*
X118903750Y-89376250D03*
X123943750Y-90456250D03*
D27*
X126523750Y-94456250D03*
D16*
X118943750Y-89956250D03*
D25*
X121443750Y-94456250D03*
D24*
X144798750Y-71206250D03*
D16*
X155018750Y-79206250D03*
X150018750Y-81306250D03*
X145018750Y-79206250D03*
D25*
X150018750Y-75406250D03*
D26*
X155518750Y-75406250D03*
X144518750Y-75406250D03*
D24*
X155238750Y-71206250D03*
D16*
X152558750Y-70326250D03*
X147518750Y-71406250D03*
X152518750Y-70906250D03*
D27*
X144938750Y-75406250D03*
D16*
X146208750Y-72866250D03*
X153828750Y-72866250D03*
X147478750Y-70326250D03*
X152518750Y-71406250D03*
D27*
X155098750Y-75406250D03*
D16*
X147518750Y-70906250D03*
D25*
X150018750Y-75406250D03*
D24*
X125748750Y-71206250D03*
D16*
X135968750Y-79206250D03*
X130968750Y-81306250D03*
X125968750Y-79206250D03*
D25*
X130968750Y-75406250D03*
D26*
X136468750Y-75406250D03*
X125468750Y-75406250D03*
D24*
X136188750Y-71206250D03*
D16*
X133508750Y-70326250D03*
X128468750Y-71406250D03*
X133468750Y-70906250D03*
D27*
X125888750Y-75406250D03*
D16*
X127158750Y-72866250D03*
X134778750Y-72866250D03*
X128428750Y-70326250D03*
X133468750Y-71406250D03*
D27*
X136048750Y-75406250D03*
D16*
X128468750Y-70906250D03*
D25*
X130968750Y-75406250D03*
D24*
X106698750Y-61681250D03*
D16*
X116918750Y-69681250D03*
X111918750Y-71781250D03*
X106918750Y-69681250D03*
D25*
X111918750Y-65881250D03*
D26*
X117418750Y-65881250D03*
X106418750Y-65881250D03*
D24*
X117138750Y-61681250D03*
D16*
X114458750Y-60801250D03*
X109418750Y-61881250D03*
X114418750Y-61381250D03*
D27*
X106838750Y-65881250D03*
D16*
X108108750Y-63341250D03*
X115728750Y-63341250D03*
X109378750Y-60801250D03*
X114418750Y-61881250D03*
D27*
X116998750Y-65881250D03*
D16*
X109418750Y-61381250D03*
D25*
X111918750Y-65881250D03*
D24*
X87648750Y-66443750D03*
D16*
X97868750Y-74443750D03*
X92868750Y-76543750D03*
X87868750Y-74443750D03*
D25*
X92868750Y-70643750D03*
D26*
X98368750Y-70643750D03*
X87368750Y-70643750D03*
D24*
X98088750Y-66443750D03*
D16*
X95408750Y-65563750D03*
X90368750Y-66643750D03*
X95368750Y-66143750D03*
D27*
X87788750Y-70643750D03*
D16*
X89058750Y-68103750D03*
X96678750Y-68103750D03*
X90328750Y-65563750D03*
X95368750Y-66643750D03*
D27*
X97948750Y-70643750D03*
D16*
X90368750Y-66143750D03*
D25*
X92868750Y-70643750D03*
D24*
X68598750Y-85493750D03*
D16*
X78818750Y-93493750D03*
X73818750Y-95593750D03*
X68818750Y-93493750D03*
D25*
X73818750Y-89693750D03*
D26*
X79318750Y-89693750D03*
X68318750Y-89693750D03*
D24*
X79038750Y-85493750D03*
D16*
X76358750Y-84613750D03*
X71318750Y-85693750D03*
X76318750Y-85193750D03*
D27*
X68738750Y-89693750D03*
D16*
X70008750Y-87153750D03*
X77628750Y-87153750D03*
X71278750Y-84613750D03*
X76318750Y-85693750D03*
D27*
X78898750Y-89693750D03*
D16*
X71318750Y-85193750D03*
D25*
X73818750Y-89693750D03*
D24*
X144798750Y-52156250D03*
D16*
X155018750Y-60156250D03*
X150018750Y-62256250D03*
X145018750Y-60156250D03*
D25*
X150018750Y-56356250D03*
D26*
X155518750Y-56356250D03*
X144518750Y-56356250D03*
D24*
X155238750Y-52156250D03*
D16*
X152558750Y-51276250D03*
X147518750Y-52356250D03*
X152518750Y-51856250D03*
D27*
X144938750Y-56356250D03*
D16*
X146208750Y-53816250D03*
X153828750Y-53816250D03*
X147478750Y-51276250D03*
X152518750Y-52356250D03*
D27*
X155098750Y-56356250D03*
D16*
X147518750Y-51856250D03*
D25*
X150018750Y-56356250D03*
D24*
X125748750Y-52156250D03*
D16*
X135968750Y-60156250D03*
X130968750Y-62256250D03*
X125968750Y-60156250D03*
D25*
X130968750Y-56356250D03*
D26*
X136468750Y-56356250D03*
X125468750Y-56356250D03*
D24*
X136188750Y-52156250D03*
D16*
X133508750Y-51276250D03*
X128468750Y-52356250D03*
X133468750Y-51856250D03*
D27*
X125888750Y-56356250D03*
D16*
X127158750Y-53816250D03*
X134778750Y-53816250D03*
X128428750Y-51276250D03*
X133468750Y-52356250D03*
D27*
X136048750Y-56356250D03*
D16*
X128468750Y-51856250D03*
D25*
X130968750Y-56356250D03*
D24*
X106698750Y-42631250D03*
D16*
X116918750Y-50631250D03*
X111918750Y-52731250D03*
X106918750Y-50631250D03*
D25*
X111918750Y-46831250D03*
D26*
X117418750Y-46831250D03*
X106418750Y-46831250D03*
D24*
X117138750Y-42631250D03*
D16*
X114458750Y-41751250D03*
X109418750Y-42831250D03*
X114418750Y-42331250D03*
D27*
X106838750Y-46831250D03*
D16*
X108108750Y-44291250D03*
X115728750Y-44291250D03*
X109378750Y-41751250D03*
X114418750Y-42831250D03*
D27*
X116998750Y-46831250D03*
D16*
X109418750Y-42331250D03*
D25*
X111918750Y-46831250D03*
D24*
X87648750Y-47393750D03*
D16*
X97868750Y-55393750D03*
X92868750Y-57493750D03*
X87868750Y-55393750D03*
D25*
X92868750Y-51593750D03*
D26*
X98368750Y-51593750D03*
X87368750Y-51593750D03*
D24*
X98088750Y-47393750D03*
D16*
X95408750Y-46513750D03*
X90368750Y-47593750D03*
X95368750Y-47093750D03*
D27*
X87788750Y-51593750D03*
D16*
X89058750Y-49053750D03*
X96678750Y-49053750D03*
X90328750Y-46513750D03*
X95368750Y-47593750D03*
D27*
X97948750Y-51593750D03*
D16*
X90368750Y-47093750D03*
D25*
X92868750Y-51593750D03*
D24*
X68598750Y-66443750D03*
D16*
X78818750Y-74443750D03*
X73818750Y-76543750D03*
X68818750Y-74443750D03*
D25*
X73818750Y-70643750D03*
D26*
X79318750Y-70643750D03*
X68318750Y-70643750D03*
D24*
X79038750Y-66443750D03*
D16*
X76358750Y-65563750D03*
X71318750Y-66643750D03*
X76318750Y-66143750D03*
D27*
X68738750Y-70643750D03*
D16*
X70008750Y-68103750D03*
X77628750Y-68103750D03*
X71278750Y-65563750D03*
X76318750Y-66643750D03*
D27*
X78898750Y-70643750D03*
D16*
X71318750Y-66143750D03*
D25*
X73818750Y-70643750D03*
D24*
X144798750Y-33106250D03*
D16*
X155018750Y-41106250D03*
X150018750Y-43206250D03*
X145018750Y-41106250D03*
D25*
X150018750Y-37306250D03*
D26*
X155518750Y-37306250D03*
X144518750Y-37306250D03*
D24*
X155238750Y-33106250D03*
D16*
X152558750Y-32226250D03*
X147518750Y-33306250D03*
X152518750Y-32806250D03*
D27*
X144938750Y-37306250D03*
D16*
X146208750Y-34766250D03*
X153828750Y-34766250D03*
X147478750Y-32226250D03*
X152518750Y-33306250D03*
D27*
X155098750Y-37306250D03*
D16*
X147518750Y-32806250D03*
D25*
X150018750Y-37306250D03*
D24*
X125748750Y-33106250D03*
D16*
X135968750Y-41106250D03*
X130968750Y-43206250D03*
X125968750Y-41106250D03*
D25*
X130968750Y-37306250D03*
D26*
X136468750Y-37306250D03*
X125468750Y-37306250D03*
D24*
X136188750Y-33106250D03*
D16*
X133508750Y-32226250D03*
X128468750Y-33306250D03*
X133468750Y-32806250D03*
D27*
X125888750Y-37306250D03*
D16*
X127158750Y-34766250D03*
X134778750Y-34766250D03*
X128428750Y-32226250D03*
X133468750Y-33306250D03*
D27*
X136048750Y-37306250D03*
D16*
X128468750Y-32806250D03*
D25*
X130968750Y-37306250D03*
D24*
X106698750Y-23581250D03*
D16*
X116918750Y-31581250D03*
X111918750Y-33681250D03*
X106918750Y-31581250D03*
D25*
X111918750Y-27781250D03*
D26*
X117418750Y-27781250D03*
X106418750Y-27781250D03*
D24*
X117138750Y-23581250D03*
D16*
X114458750Y-22701250D03*
X109418750Y-23781250D03*
X114418750Y-23281250D03*
D27*
X106838750Y-27781250D03*
D16*
X108108750Y-25241250D03*
X115728750Y-25241250D03*
X109378750Y-22701250D03*
X114418750Y-23781250D03*
D27*
X116998750Y-27781250D03*
D16*
X109418750Y-23281250D03*
D25*
X111918750Y-27781250D03*
D24*
X87648750Y-28343750D03*
D16*
X97868750Y-36343750D03*
X92868750Y-38443750D03*
X87868750Y-36343750D03*
D25*
X92868750Y-32543750D03*
D26*
X98368750Y-32543750D03*
X87368750Y-32543750D03*
D24*
X98088750Y-28343750D03*
D16*
X95408750Y-27463750D03*
X90368750Y-28543750D03*
X95368750Y-28043750D03*
D27*
X87788750Y-32543750D03*
D16*
X89058750Y-30003750D03*
X96678750Y-30003750D03*
X90328750Y-27463750D03*
X95368750Y-28543750D03*
D27*
X97948750Y-32543750D03*
D16*
X90368750Y-28043750D03*
D25*
X92868750Y-32543750D03*
D24*
X68598750Y-47393750D03*
D16*
X78818750Y-55393750D03*
X73818750Y-57493750D03*
X68818750Y-55393750D03*
D25*
X73818750Y-51593750D03*
D26*
X79318750Y-51593750D03*
X68318750Y-51593750D03*
D24*
X79038750Y-47393750D03*
D16*
X76358750Y-46513750D03*
X71318750Y-47593750D03*
X76318750Y-47093750D03*
D27*
X68738750Y-51593750D03*
D16*
X70008750Y-49053750D03*
X77628750Y-49053750D03*
X71278750Y-46513750D03*
X76318750Y-47593750D03*
D27*
X78898750Y-51593750D03*
D16*
X71318750Y-47093750D03*
D25*
X73818750Y-51593750D03*
D28*
X139602750Y-28561000D03*
D29*
X142092750Y-27551000D03*
X142092750Y-22551000D03*
D28*
X139602750Y-21551000D03*
D24*
X143302750Y-25051000D03*
D30*
X131762500Y-24456250D03*
D31*
X129462500Y-19856250D03*
X129462500Y-26856250D03*
D30*
X131762500Y-21456250D03*
X131762500Y-28456250D03*
X127162500Y-29556250D03*
X136362500Y-29556250D03*
D31*
X134062500Y-19856250D03*
X134062500Y-26856250D03*
D32*
X112712500Y-86677500D03*
D33*
X112712500Y-94297500D03*
D32*
X155733750Y-85725000D03*
D33*
X163353750Y-85725000D03*
D32*
X136683750Y-85725000D03*
D33*
X144303750Y-85725000D03*
X125253750Y-85725000D03*
D32*
X117633750Y-85725000D03*
X146208750Y-84137500D03*
D33*
X153828750Y-84137500D03*
D32*
X127158750Y-84137500D03*
D33*
X134778750Y-84137500D03*
D32*
X108108750Y-74612500D03*
D33*
X115728750Y-74612500D03*
D32*
X89058750Y-79375000D03*
D33*
X96678750Y-79375000D03*
D32*
X70008750Y-80962500D03*
D33*
X77628750Y-80962500D03*
D32*
X146208750Y-65087500D03*
D33*
X153828750Y-65087500D03*
D32*
X127158750Y-65087500D03*
D33*
X134778750Y-65087500D03*
D32*
X108108750Y-55562500D03*
D33*
X115728750Y-55562500D03*
D32*
X89058750Y-60325000D03*
D33*
X96678750Y-60325000D03*
D32*
X70008750Y-61912500D03*
D33*
X77628750Y-61912500D03*
D32*
X146208750Y-46037500D03*
D33*
X153828750Y-46037500D03*
D32*
X127158750Y-46037500D03*
D33*
X134778750Y-46037500D03*
D32*
X108108750Y-36512500D03*
D33*
X115728750Y-36512500D03*
D32*
X89058750Y-41275000D03*
D33*
X96678750Y-41275000D03*
D32*
X70008750Y-42862500D03*
D33*
X77628750Y-42862500D03*
M02*
