%TF.GenerationSoftware,KiCad,Pcbnew,(5.1.6)-1*%
%TF.CreationDate,2021-05-04T17:20:08-05:00*%
%TF.ProjectId,FlatDox,466c6174-446f-4782-9e6b-696361645f70,rev?*%
%TF.SameCoordinates,Original*%
%TF.FileFunction,Legend,Top*%
%TF.FilePolarity,Positive*%
%FSLAX46Y46*%
G04 Gerber Fmt 4.6, Leading zero omitted, Abs format (unit mm)*
G04 Created by KiCad (PCBNEW (5.1.6)-1) date 2021-05-04 17:20:08*
%MOMM*%
%LPD*%
G01*
G04 APERTURE LIST*
%ADD10C,0.150000*%
%ADD11C,0.300000*%
%ADD12C,0.100000*%
%ADD13C,0.381000*%
%ADD14C,0.120000*%
%ADD15C,0.200000*%
%ADD16C,0.125000*%
G04 APERTURE END LIST*
D10*
X92564320Y-43926760D02*
X122564320Y-43926760D01*
X92564320Y-43926760D02*
X92564320Y-55915560D01*
X122564320Y-43926760D02*
X122564320Y-55926760D01*
X122564320Y-55926760D02*
X92564320Y-55915560D01*
X105086091Y-49722731D02*
X105228948Y-49770350D01*
X105276567Y-49817969D01*
X105324186Y-49913207D01*
X105324186Y-50056064D01*
X105276567Y-50151302D01*
X105228948Y-50198921D01*
X105133710Y-50246540D01*
X104752758Y-50246540D01*
X104752758Y-49246540D01*
X105086091Y-49246540D01*
X105181329Y-49294160D01*
X105228948Y-49341779D01*
X105276567Y-49437017D01*
X105276567Y-49532255D01*
X105228948Y-49627493D01*
X105181329Y-49675112D01*
X105086091Y-49722731D01*
X104752758Y-49722731D01*
X106181329Y-50246540D02*
X106181329Y-49722731D01*
X106133710Y-49627493D01*
X106038472Y-49579874D01*
X105847996Y-49579874D01*
X105752758Y-49627493D01*
X106181329Y-50198921D02*
X106086091Y-50246540D01*
X105847996Y-50246540D01*
X105752758Y-50198921D01*
X105705139Y-50103683D01*
X105705139Y-50008445D01*
X105752758Y-49913207D01*
X105847996Y-49865588D01*
X106086091Y-49865588D01*
X106181329Y-49817969D01*
X106514662Y-49579874D02*
X106895615Y-49579874D01*
X106657520Y-49246540D02*
X106657520Y-50103683D01*
X106705139Y-50198921D01*
X106800377Y-50246540D01*
X106895615Y-50246540D01*
X107086091Y-49579874D02*
X107467043Y-49579874D01*
X107228948Y-49246540D02*
X107228948Y-50103683D01*
X107276567Y-50198921D01*
X107371805Y-50246540D01*
X107467043Y-50246540D01*
X108181329Y-50198921D02*
X108086091Y-50246540D01*
X107895615Y-50246540D01*
X107800377Y-50198921D01*
X107752758Y-50103683D01*
X107752758Y-49722731D01*
X107800377Y-49627493D01*
X107895615Y-49579874D01*
X108086091Y-49579874D01*
X108181329Y-49627493D01*
X108228948Y-49722731D01*
X108228948Y-49817969D01*
X107752758Y-49913207D01*
X108657520Y-50246540D02*
X108657520Y-49579874D01*
X108657520Y-49770350D02*
X108705139Y-49675112D01*
X108752758Y-49627493D01*
X108847996Y-49579874D01*
X108943234Y-49579874D01*
X109181329Y-49579874D02*
X109419424Y-50246540D01*
X109657520Y-49579874D02*
X109419424Y-50246540D01*
X109324186Y-50484636D01*
X109276567Y-50532255D01*
X109181329Y-50579874D01*
%TO.C,SW15*%
X160789970Y-121130710D02*
X160789970Y-121830710D01*
X165784970Y-115030710D02*
X165809970Y-119630709D01*
X156209971Y-117230710D02*
X156209971Y-121830710D01*
X162009970Y-119655710D02*
X165784970Y-119655710D01*
X161084970Y-115005710D02*
X165784970Y-115005710D01*
X156234970Y-117205710D02*
X158784970Y-117205710D01*
X156234970Y-121855710D02*
X160784970Y-121855710D01*
X153709970Y-110780710D02*
X158759970Y-110826710D01*
X153709970Y-110734710D02*
X153709970Y-106826710D01*
X153709970Y-106826710D02*
X162334970Y-106826710D01*
X164609970Y-108780710D02*
X164609970Y-112725710D01*
X164609970Y-112734710D02*
X160999970Y-112734710D01*
D11*
X164859970Y-118710710D02*
X164859970Y-119980710D01*
X152159970Y-107280710D02*
X153429970Y-107280710D01*
X164859970Y-119980710D02*
X163589970Y-119980710D01*
X152159970Y-108550710D02*
X152159970Y-107280710D01*
D10*
X160789969Y-121080709D02*
G75*
G02*
X162009970Y-119660710I1320000J99999D01*
G01*
X161079970Y-115030710D02*
G75*
G02*
X158709970Y-117200710I-2270000J100000D01*
G01*
X160994971Y-112710709D02*
G75*
G03*
X158734970Y-110830710I-2070000J-190001D01*
G01*
X164598970Y-108710710D02*
G75*
G03*
X162334970Y-106826710I-2074000J-190000D01*
G01*
%TO.C,SW9*%
X141739970Y-102080710D02*
X141739970Y-102780710D01*
X146734970Y-95980710D02*
X146759970Y-100580709D01*
X137159971Y-98180710D02*
X137159971Y-102780710D01*
X142959970Y-100605710D02*
X146734970Y-100605710D01*
X142034970Y-95955710D02*
X146734970Y-95955710D01*
X137184970Y-98155710D02*
X139734970Y-98155710D01*
X137184970Y-102805710D02*
X141734970Y-102805710D01*
X134659970Y-91730710D02*
X139709970Y-91776710D01*
X134659970Y-91684710D02*
X134659970Y-87776710D01*
X134659970Y-87776710D02*
X143284970Y-87776710D01*
X145559970Y-89730710D02*
X145559970Y-93675710D01*
X145559970Y-93684710D02*
X141949970Y-93684710D01*
D11*
X145809970Y-99660710D02*
X145809970Y-100930710D01*
X133109970Y-88230710D02*
X134379970Y-88230710D01*
X145809970Y-100930710D02*
X144539970Y-100930710D01*
X133109970Y-89500710D02*
X133109970Y-88230710D01*
D10*
X141739969Y-102030709D02*
G75*
G02*
X142959970Y-100610710I1320000J99999D01*
G01*
X142029970Y-95980710D02*
G75*
G02*
X139659970Y-98150710I-2270000J100000D01*
G01*
X141944971Y-93660709D02*
G75*
G03*
X139684970Y-91780710I-2070000J-190001D01*
G01*
X145548970Y-89660710D02*
G75*
G03*
X143284970Y-87776710I-2074000J-190000D01*
G01*
%TO.C,SW17*%
X132214970Y-140180710D02*
X132214970Y-140880710D01*
X137209970Y-134080710D02*
X137234970Y-138680709D01*
X127634971Y-136280710D02*
X127634971Y-140880710D01*
X133434970Y-138705710D02*
X137209970Y-138705710D01*
X132509970Y-134055710D02*
X137209970Y-134055710D01*
X127659970Y-136255710D02*
X130209970Y-136255710D01*
X127659970Y-140905710D02*
X132209970Y-140905710D01*
X125134970Y-129830710D02*
X130184970Y-129876710D01*
X125134970Y-129784710D02*
X125134970Y-125876710D01*
X125134970Y-125876710D02*
X133759970Y-125876710D01*
X136034970Y-127830710D02*
X136034970Y-131775710D01*
X136034970Y-131784710D02*
X132424970Y-131784710D01*
D11*
X136284970Y-137760710D02*
X136284970Y-139030710D01*
X123584970Y-126330710D02*
X124854970Y-126330710D01*
X136284970Y-139030710D02*
X135014970Y-139030710D01*
X123584970Y-127600710D02*
X123584970Y-126330710D01*
D10*
X132214969Y-140130709D02*
G75*
G02*
X133434970Y-138710710I1320000J99999D01*
G01*
X132504970Y-134080710D02*
G75*
G02*
X130134970Y-136250710I-2270000J100000D01*
G01*
X132419971Y-131760709D02*
G75*
G03*
X130159970Y-129880710I-2070000J-190001D01*
G01*
X136023970Y-127760710D02*
G75*
G03*
X133759970Y-125876710I-2074000J-190000D01*
G01*
%TO.C,SW8*%
X122689970Y-92555710D02*
X122689970Y-93255710D01*
X127684970Y-86455710D02*
X127709970Y-91055709D01*
X118109971Y-88655710D02*
X118109971Y-93255710D01*
X123909970Y-91080710D02*
X127684970Y-91080710D01*
X122984970Y-86430710D02*
X127684970Y-86430710D01*
X118134970Y-88630710D02*
X120684970Y-88630710D01*
X118134970Y-93280710D02*
X122684970Y-93280710D01*
X115609970Y-82205710D02*
X120659970Y-82251710D01*
X115609970Y-82159710D02*
X115609970Y-78251710D01*
X115609970Y-78251710D02*
X124234970Y-78251710D01*
X126509970Y-80205710D02*
X126509970Y-84150710D01*
X126509970Y-84159710D02*
X122899970Y-84159710D01*
D11*
X126759970Y-90135710D02*
X126759970Y-91405710D01*
X114059970Y-78705710D02*
X115329970Y-78705710D01*
X126759970Y-91405710D02*
X125489970Y-91405710D01*
X114059970Y-79975710D02*
X114059970Y-78705710D01*
D10*
X122689969Y-92505709D02*
G75*
G02*
X123909970Y-91085710I1320000J99999D01*
G01*
X122979970Y-86455710D02*
G75*
G02*
X120609970Y-88625710I-2270000J100000D01*
G01*
X122894971Y-84135709D02*
G75*
G03*
X120634970Y-82255710I-2070000J-190001D01*
G01*
X126498970Y-80135710D02*
G75*
G03*
X124234970Y-78251710I-2074000J-190000D01*
G01*
%TO.C,SW4*%
X141739970Y-83030710D02*
X141739970Y-83730710D01*
X146734970Y-76930710D02*
X146759970Y-81530709D01*
X137159971Y-79130710D02*
X137159971Y-83730710D01*
X142959970Y-81555710D02*
X146734970Y-81555710D01*
X142034970Y-76905710D02*
X146734970Y-76905710D01*
X137184970Y-79105710D02*
X139734970Y-79105710D01*
X137184970Y-83755710D02*
X141734970Y-83755710D01*
X134659970Y-72680710D02*
X139709970Y-72726710D01*
X134659970Y-72634710D02*
X134659970Y-68726710D01*
X134659970Y-68726710D02*
X143284970Y-68726710D01*
X145559970Y-70680710D02*
X145559970Y-74625710D01*
X145559970Y-74634710D02*
X141949970Y-74634710D01*
D11*
X145809970Y-80610710D02*
X145809970Y-81880710D01*
X133109970Y-69180710D02*
X134379970Y-69180710D01*
X145809970Y-81880710D02*
X144539970Y-81880710D01*
X133109970Y-70450710D02*
X133109970Y-69180710D01*
D10*
X141739969Y-82980709D02*
G75*
G02*
X142959970Y-81560710I1320000J99999D01*
G01*
X142029970Y-76930710D02*
G75*
G02*
X139659970Y-79100710I-2270000J100000D01*
G01*
X141944971Y-74610709D02*
G75*
G03*
X139684970Y-72730710I-2070000J-190001D01*
G01*
X145548970Y-70610710D02*
G75*
G03*
X143284970Y-68726710I-2074000J-190000D01*
G01*
%TO.C,SW18*%
X151264970Y-140180710D02*
X151264970Y-140880710D01*
X156259970Y-134080710D02*
X156284970Y-138680709D01*
X146684971Y-136280710D02*
X146684971Y-140880710D01*
X152484970Y-138705710D02*
X156259970Y-138705710D01*
X151559970Y-134055710D02*
X156259970Y-134055710D01*
X146709970Y-136255710D02*
X149259970Y-136255710D01*
X146709970Y-140905710D02*
X151259970Y-140905710D01*
X144184970Y-129830710D02*
X149234970Y-129876710D01*
X144184970Y-129784710D02*
X144184970Y-125876710D01*
X144184970Y-125876710D02*
X152809970Y-125876710D01*
X155084970Y-127830710D02*
X155084970Y-131775710D01*
X155084970Y-131784710D02*
X151474970Y-131784710D01*
D11*
X155334970Y-137760710D02*
X155334970Y-139030710D01*
X142634970Y-126330710D02*
X143904970Y-126330710D01*
X155334970Y-139030710D02*
X154064970Y-139030710D01*
X142634970Y-127600710D02*
X142634970Y-126330710D01*
D10*
X151264969Y-140130709D02*
G75*
G02*
X152484970Y-138710710I1320000J99999D01*
G01*
X151554970Y-134080710D02*
G75*
G02*
X149184970Y-136250710I-2270000J100000D01*
G01*
X151469971Y-131760709D02*
G75*
G03*
X149209970Y-129880710I-2070000J-190001D01*
G01*
X155073970Y-127760710D02*
G75*
G03*
X152809970Y-125876710I-2074000J-190000D01*
G01*
%TO.C,SW5*%
X160789970Y-83030710D02*
X160789970Y-83730710D01*
X165784970Y-76930710D02*
X165809970Y-81530709D01*
X156209971Y-79130710D02*
X156209971Y-83730710D01*
X162009970Y-81555710D02*
X165784970Y-81555710D01*
X161084970Y-76905710D02*
X165784970Y-76905710D01*
X156234970Y-79105710D02*
X158784970Y-79105710D01*
X156234970Y-83755710D02*
X160784970Y-83755710D01*
X153709970Y-72680710D02*
X158759970Y-72726710D01*
X153709970Y-72634710D02*
X153709970Y-68726710D01*
X153709970Y-68726710D02*
X162334970Y-68726710D01*
X164609970Y-70680710D02*
X164609970Y-74625710D01*
X164609970Y-74634710D02*
X160999970Y-74634710D01*
D11*
X164859970Y-80610710D02*
X164859970Y-81880710D01*
X152159970Y-69180710D02*
X153429970Y-69180710D01*
X164859970Y-81880710D02*
X163589970Y-81880710D01*
X152159970Y-70450710D02*
X152159970Y-69180710D01*
D10*
X160789969Y-82980709D02*
G75*
G02*
X162009970Y-81560710I1320000J99999D01*
G01*
X161079970Y-76930710D02*
G75*
G02*
X158709970Y-79100710I-2270000J100000D01*
G01*
X160994971Y-74610709D02*
G75*
G03*
X158734970Y-72730710I-2070000J-190001D01*
G01*
X164598970Y-70610710D02*
G75*
G03*
X162334970Y-68726710I-2074000J-190000D01*
G01*
%TO.C,SW12*%
X103639970Y-116368210D02*
X103639970Y-117068210D01*
X108634970Y-110268210D02*
X108659970Y-114868209D01*
X99059971Y-112468210D02*
X99059971Y-117068210D01*
X104859970Y-114893210D02*
X108634970Y-114893210D01*
X103934970Y-110243210D02*
X108634970Y-110243210D01*
X99084970Y-112443210D02*
X101634970Y-112443210D01*
X99084970Y-117093210D02*
X103634970Y-117093210D01*
X96559970Y-106018210D02*
X101609970Y-106064210D01*
X96559970Y-105972210D02*
X96559970Y-102064210D01*
X96559970Y-102064210D02*
X105184970Y-102064210D01*
X107459970Y-104018210D02*
X107459970Y-107963210D01*
X107459970Y-107972210D02*
X103849970Y-107972210D01*
D11*
X107709970Y-113948210D02*
X107709970Y-115218210D01*
X95009970Y-102518210D02*
X96279970Y-102518210D01*
X107709970Y-115218210D02*
X106439970Y-115218210D01*
X95009970Y-103788210D02*
X95009970Y-102518210D01*
D10*
X103639969Y-116318209D02*
G75*
G02*
X104859970Y-114898210I1320000J99999D01*
G01*
X103929970Y-110268210D02*
G75*
G02*
X101559970Y-112438210I-2270000J100000D01*
G01*
X103844971Y-107948209D02*
G75*
G03*
X101584970Y-106068210I-2070000J-190001D01*
G01*
X107448970Y-103948210D02*
G75*
G03*
X105184970Y-102064210I-2074000J-190000D01*
G01*
%TO.C,SW14*%
X141739970Y-121130710D02*
X141739970Y-121830710D01*
X146734970Y-115030710D02*
X146759970Y-119630709D01*
X137159971Y-117230710D02*
X137159971Y-121830710D01*
X142959970Y-119655710D02*
X146734970Y-119655710D01*
X142034970Y-115005710D02*
X146734970Y-115005710D01*
X137184970Y-117205710D02*
X139734970Y-117205710D01*
X137184970Y-121855710D02*
X141734970Y-121855710D01*
X134659970Y-110780710D02*
X139709970Y-110826710D01*
X134659970Y-110734710D02*
X134659970Y-106826710D01*
X134659970Y-106826710D02*
X143284970Y-106826710D01*
X145559970Y-108780710D02*
X145559970Y-112725710D01*
X145559970Y-112734710D02*
X141949970Y-112734710D01*
D11*
X145809970Y-118710710D02*
X145809970Y-119980710D01*
X133109970Y-107280710D02*
X134379970Y-107280710D01*
X145809970Y-119980710D02*
X144539970Y-119980710D01*
X133109970Y-108550710D02*
X133109970Y-107280710D01*
D10*
X141739969Y-121080709D02*
G75*
G02*
X142959970Y-119660710I1320000J99999D01*
G01*
X142029970Y-115030710D02*
G75*
G02*
X139659970Y-117200710I-2270000J100000D01*
G01*
X141944971Y-112710709D02*
G75*
G03*
X139684970Y-110830710I-2070000J-190001D01*
G01*
X145548970Y-108710710D02*
G75*
G03*
X143284970Y-106826710I-2074000J-190000D01*
G01*
%TO.C,SW6*%
X84589970Y-116368210D02*
X84589970Y-117068210D01*
X89584970Y-110268210D02*
X89609970Y-114868209D01*
X80009971Y-112468210D02*
X80009971Y-117068210D01*
X85809970Y-114893210D02*
X89584970Y-114893210D01*
X84884970Y-110243210D02*
X89584970Y-110243210D01*
X80034970Y-112443210D02*
X82584970Y-112443210D01*
X80034970Y-117093210D02*
X84584970Y-117093210D01*
X77509970Y-106018210D02*
X82559970Y-106064210D01*
X77509970Y-105972210D02*
X77509970Y-102064210D01*
X77509970Y-102064210D02*
X86134970Y-102064210D01*
X88409970Y-104018210D02*
X88409970Y-107963210D01*
X88409970Y-107972210D02*
X84799970Y-107972210D01*
D11*
X88659970Y-113948210D02*
X88659970Y-115218210D01*
X75959970Y-102518210D02*
X77229970Y-102518210D01*
X88659970Y-115218210D02*
X87389970Y-115218210D01*
X75959970Y-103788210D02*
X75959970Y-102518210D01*
D10*
X84589969Y-116318209D02*
G75*
G02*
X85809970Y-114898210I1320000J99999D01*
G01*
X84879970Y-110268210D02*
G75*
G02*
X82509970Y-112438210I-2270000J100000D01*
G01*
X84794971Y-107948209D02*
G75*
G03*
X82534970Y-106068210I-2070000J-190001D01*
G01*
X88398970Y-103948210D02*
G75*
G03*
X86134970Y-102064210I-2074000J-190000D01*
G01*
%TO.C,SW13*%
X122689970Y-111605710D02*
X122689970Y-112305710D01*
X127684970Y-105505710D02*
X127709970Y-110105709D01*
X118109971Y-107705710D02*
X118109971Y-112305710D01*
X123909970Y-110130710D02*
X127684970Y-110130710D01*
X122984970Y-105480710D02*
X127684970Y-105480710D01*
X118134970Y-107680710D02*
X120684970Y-107680710D01*
X118134970Y-112330710D02*
X122684970Y-112330710D01*
X115609970Y-101255710D02*
X120659970Y-101301710D01*
X115609970Y-101209710D02*
X115609970Y-97301710D01*
X115609970Y-97301710D02*
X124234970Y-97301710D01*
X126509970Y-99255710D02*
X126509970Y-103200710D01*
X126509970Y-103209710D02*
X122899970Y-103209710D01*
D11*
X126759970Y-109185710D02*
X126759970Y-110455710D01*
X114059970Y-97755710D02*
X115329970Y-97755710D01*
X126759970Y-110455710D02*
X125489970Y-110455710D01*
X114059970Y-99025710D02*
X114059970Y-97755710D01*
D10*
X122689969Y-111555709D02*
G75*
G02*
X123909970Y-110135710I1320000J99999D01*
G01*
X122979970Y-105505710D02*
G75*
G02*
X120609970Y-107675710I-2270000J100000D01*
G01*
X122894971Y-103185709D02*
G75*
G03*
X120634970Y-101305710I-2070000J-190001D01*
G01*
X126498970Y-99185710D02*
G75*
G03*
X124234970Y-97301710I-2074000J-190000D01*
G01*
%TO.C,SW11*%
X84589970Y-135418210D02*
X84589970Y-136118210D01*
X89584970Y-129318210D02*
X89609970Y-133918209D01*
X80009971Y-131518210D02*
X80009971Y-136118210D01*
X85809970Y-133943210D02*
X89584970Y-133943210D01*
X84884970Y-129293210D02*
X89584970Y-129293210D01*
X80034970Y-131493210D02*
X82584970Y-131493210D01*
X80034970Y-136143210D02*
X84584970Y-136143210D01*
X77509970Y-125068210D02*
X82559970Y-125114210D01*
X77509970Y-125022210D02*
X77509970Y-121114210D01*
X77509970Y-121114210D02*
X86134970Y-121114210D01*
X88409970Y-123068210D02*
X88409970Y-127013210D01*
X88409970Y-127022210D02*
X84799970Y-127022210D01*
D11*
X88659970Y-132998210D02*
X88659970Y-134268210D01*
X75959970Y-121568210D02*
X77229970Y-121568210D01*
X88659970Y-134268210D02*
X87389970Y-134268210D01*
X75959970Y-122838210D02*
X75959970Y-121568210D01*
D10*
X84589969Y-135368209D02*
G75*
G02*
X85809970Y-133948210I1320000J99999D01*
G01*
X84879970Y-129318210D02*
G75*
G02*
X82509970Y-131488210I-2270000J100000D01*
G01*
X84794971Y-126998209D02*
G75*
G03*
X82534970Y-125118210I-2070000J-190001D01*
G01*
X88398970Y-122998210D02*
G75*
G03*
X86134970Y-121114210I-2074000J-190000D01*
G01*
%TO.C,SW2*%
X103639970Y-78268210D02*
X103639970Y-78968210D01*
X108634970Y-72168210D02*
X108659970Y-76768209D01*
X99059971Y-74368210D02*
X99059971Y-78968210D01*
X104859970Y-76793210D02*
X108634970Y-76793210D01*
X103934970Y-72143210D02*
X108634970Y-72143210D01*
X99084970Y-74343210D02*
X101634970Y-74343210D01*
X99084970Y-78993210D02*
X103634970Y-78993210D01*
X96559970Y-67918210D02*
X101609970Y-67964210D01*
X96559970Y-67872210D02*
X96559970Y-63964210D01*
X96559970Y-63964210D02*
X105184970Y-63964210D01*
X107459970Y-65918210D02*
X107459970Y-69863210D01*
X107459970Y-69872210D02*
X103849970Y-69872210D01*
D11*
X107709970Y-75848210D02*
X107709970Y-77118210D01*
X95009970Y-64418210D02*
X96279970Y-64418210D01*
X107709970Y-77118210D02*
X106439970Y-77118210D01*
X95009970Y-65688210D02*
X95009970Y-64418210D01*
D10*
X103639969Y-78218209D02*
G75*
G02*
X104859970Y-76798210I1320000J99999D01*
G01*
X103929970Y-72168210D02*
G75*
G02*
X101559970Y-74338210I-2270000J100000D01*
G01*
X103844971Y-69848209D02*
G75*
G03*
X101584970Y-67968210I-2070000J-190001D01*
G01*
X107448970Y-65848210D02*
G75*
G03*
X105184970Y-63964210I-2074000J-190000D01*
G01*
%TO.C,D18*%
X157747970Y-138046460D02*
X159271970Y-138046460D01*
X159271970Y-138046460D02*
X159271970Y-133982460D01*
X159271970Y-133982460D02*
X157747970Y-133982460D01*
X157747970Y-133982460D02*
X157747970Y-138046460D01*
D12*
G36*
X159271970Y-137284460D02*
G01*
X157747970Y-137284460D01*
X157747970Y-137538460D01*
X159271970Y-137538460D01*
X159271970Y-137284460D01*
G37*
X159271970Y-137284460D02*
X157747970Y-137284460D01*
X157747970Y-137538460D01*
X159271970Y-137538460D01*
X159271970Y-137284460D01*
D13*
%TO.C,U1*%
X72626220Y-48384460D02*
X72626220Y-78864460D01*
X72626220Y-78864460D02*
X90406220Y-78864460D01*
X90406220Y-78864460D02*
X90406220Y-48384460D01*
X75166220Y-48384460D02*
X75166220Y-50924460D01*
X75166220Y-50924460D02*
X72626220Y-50924460D01*
D10*
G36*
X86447788Y-54263820D02*
G01*
X86447788Y-54563820D01*
X86347788Y-54563820D01*
X86347788Y-54263820D01*
X86447788Y-54263820D01*
G37*
X86447788Y-54263820D02*
X86447788Y-54563820D01*
X86347788Y-54563820D01*
X86347788Y-54263820D01*
X86447788Y-54263820D01*
G36*
X86247788Y-54663820D02*
G01*
X86247788Y-54763820D01*
X86147788Y-54763820D01*
X86147788Y-54663820D01*
X86247788Y-54663820D01*
G37*
X86247788Y-54663820D02*
X86247788Y-54763820D01*
X86147788Y-54763820D01*
X86147788Y-54663820D01*
X86247788Y-54663820D01*
G36*
X86447788Y-54263820D02*
G01*
X86447788Y-54363820D01*
X85947788Y-54363820D01*
X85947788Y-54263820D01*
X86447788Y-54263820D01*
G37*
X86447788Y-54263820D02*
X86447788Y-54363820D01*
X85947788Y-54363820D01*
X85947788Y-54263820D01*
X86447788Y-54263820D01*
G36*
X86047788Y-54263820D02*
G01*
X86047788Y-55063820D01*
X85947788Y-55063820D01*
X85947788Y-54263820D01*
X86047788Y-54263820D01*
G37*
X86047788Y-54263820D02*
X86047788Y-55063820D01*
X85947788Y-55063820D01*
X85947788Y-54263820D01*
X86047788Y-54263820D01*
G36*
X86447788Y-54863820D02*
G01*
X86447788Y-55063820D01*
X86347788Y-55063820D01*
X86347788Y-54863820D01*
X86447788Y-54863820D01*
G37*
X86447788Y-54863820D02*
X86447788Y-55063820D01*
X86347788Y-55063820D01*
X86347788Y-54863820D01*
X86447788Y-54863820D01*
D13*
X90406220Y-48384460D02*
X90406220Y-45844460D01*
X90406220Y-45844460D02*
X72626220Y-45844460D01*
X72626220Y-45844460D02*
X72626220Y-48384460D01*
X75166220Y-48384460D02*
X72626220Y-48384460D01*
D14*
%TO.C,SW16*%
X113884970Y-132680710D02*
G75*
G03*
X113884970Y-132680710I-3000000J0D01*
G01*
X116784970Y-134680710D02*
X116784970Y-138780710D01*
X104984970Y-138780710D02*
X104984970Y-134680710D01*
X104984970Y-130680710D02*
X104984970Y-126580710D01*
X116784970Y-130680710D02*
X116784970Y-126580710D01*
X116784970Y-126580710D02*
X104984970Y-126580710D01*
X114684970Y-125180710D02*
X114984970Y-124880710D01*
X114984970Y-124880710D02*
X114984970Y-125480710D01*
X114984970Y-125480710D02*
X114684970Y-125180710D01*
X116784970Y-138780710D02*
X114384970Y-138780710D01*
X112184970Y-138780710D02*
X109584970Y-138780710D01*
X107384970Y-138780710D02*
X104984970Y-138780710D01*
X111384970Y-132680710D02*
X110384970Y-132680710D01*
X110884970Y-132180710D02*
X110884970Y-133180710D01*
D10*
%TO.C,D2*%
X107360720Y-81055210D02*
X107360720Y-79531210D01*
X107360720Y-79531210D02*
X103296720Y-79531210D01*
X103296720Y-79531210D02*
X103296720Y-81055210D01*
X103296720Y-81055210D02*
X107360720Y-81055210D01*
D12*
G36*
X106598720Y-79531210D02*
G01*
X106598720Y-81055210D01*
X106852720Y-81055210D01*
X106852720Y-79531210D01*
X106598720Y-79531210D01*
G37*
X106598720Y-79531210D02*
X106598720Y-81055210D01*
X106852720Y-81055210D01*
X106852720Y-79531210D01*
X106598720Y-79531210D01*
D10*
%TO.C,D15*%
X163462970Y-122393710D02*
X163462970Y-123917710D01*
X163462970Y-123917710D02*
X167526970Y-123917710D01*
X167526970Y-123917710D02*
X167526970Y-122393710D01*
X167526970Y-122393710D02*
X163462970Y-122393710D01*
D12*
G36*
X164224970Y-123917710D02*
G01*
X164224970Y-122393710D01*
X163970970Y-122393710D01*
X163970970Y-123917710D01*
X164224970Y-123917710D01*
G37*
X164224970Y-123917710D02*
X164224970Y-122393710D01*
X163970970Y-122393710D01*
X163970970Y-123917710D01*
X164224970Y-123917710D01*
D14*
%TO.C,SW21*%
X139529720Y-62201710D02*
X140069720Y-62201710D01*
X132869720Y-58531710D02*
X140589720Y-58531710D01*
X133389720Y-62201710D02*
X133929720Y-62201710D01*
X140069720Y-62201710D02*
X140069720Y-62431710D01*
X135029720Y-62201710D02*
X138429720Y-62201710D01*
X140589720Y-58531710D02*
X140589720Y-62431710D01*
X132869720Y-58531710D02*
X132869720Y-62431710D01*
X133389720Y-62201710D02*
X133389720Y-62431710D01*
D10*
%TO.C,SW3*%
X122689970Y-73505710D02*
X122689970Y-74205710D01*
X127684970Y-67405710D02*
X127709970Y-72005709D01*
X118109971Y-69605710D02*
X118109971Y-74205710D01*
X123909970Y-72030710D02*
X127684970Y-72030710D01*
X122984970Y-67380710D02*
X127684970Y-67380710D01*
X118134970Y-69580710D02*
X120684970Y-69580710D01*
X118134970Y-74230710D02*
X122684970Y-74230710D01*
X115609970Y-63155710D02*
X120659970Y-63201710D01*
X115609970Y-63109710D02*
X115609970Y-59201710D01*
X115609970Y-59201710D02*
X124234970Y-59201710D01*
X126509970Y-61155710D02*
X126509970Y-65100710D01*
X126509970Y-65109710D02*
X122899970Y-65109710D01*
D11*
X126759970Y-71085710D02*
X126759970Y-72355710D01*
X114059970Y-59655710D02*
X115329970Y-59655710D01*
X126759970Y-72355710D02*
X125489970Y-72355710D01*
X114059970Y-60925710D02*
X114059970Y-59655710D01*
D10*
X122689969Y-73455709D02*
G75*
G02*
X123909970Y-72035710I1320000J99999D01*
G01*
X122979970Y-67405710D02*
G75*
G02*
X120609970Y-69575710I-2270000J100000D01*
G01*
X122894971Y-65085709D02*
G75*
G03*
X120634970Y-63205710I-2070000J-190001D01*
G01*
X126498970Y-61085710D02*
G75*
G03*
X124234970Y-59201710I-2074000J-190000D01*
G01*
%TO.C,SW10*%
X160789970Y-102080710D02*
X160789970Y-102780710D01*
X165784970Y-95980710D02*
X165809970Y-100580709D01*
X156209971Y-98180710D02*
X156209971Y-102780710D01*
X162009970Y-100605710D02*
X165784970Y-100605710D01*
X161084970Y-95955710D02*
X165784970Y-95955710D01*
X156234970Y-98155710D02*
X158784970Y-98155710D01*
X156234970Y-102805710D02*
X160784970Y-102805710D01*
X153709970Y-91730710D02*
X158759970Y-91776710D01*
X153709970Y-91684710D02*
X153709970Y-87776710D01*
X153709970Y-87776710D02*
X162334970Y-87776710D01*
X164609970Y-89730710D02*
X164609970Y-93675710D01*
X164609970Y-93684710D02*
X160999970Y-93684710D01*
D11*
X164859970Y-99660710D02*
X164859970Y-100930710D01*
X152159970Y-88230710D02*
X153429970Y-88230710D01*
X164859970Y-100930710D02*
X163589970Y-100930710D01*
X152159970Y-89500710D02*
X152159970Y-88230710D01*
D10*
X160789969Y-102030709D02*
G75*
G02*
X162009970Y-100610710I1320000J99999D01*
G01*
X161079970Y-95980710D02*
G75*
G02*
X158709970Y-98150710I-2270000J100000D01*
G01*
X160994971Y-93660709D02*
G75*
G03*
X158734970Y-91780710I-2070000J-190001D01*
G01*
X164598970Y-89660710D02*
G75*
G03*
X162334970Y-87776710I-2074000J-190000D01*
G01*
%TO.C,SW7*%
X103639970Y-97318210D02*
X103639970Y-98018210D01*
X108634970Y-91218210D02*
X108659970Y-95818209D01*
X99059971Y-93418210D02*
X99059971Y-98018210D01*
X104859970Y-95843210D02*
X108634970Y-95843210D01*
X103934970Y-91193210D02*
X108634970Y-91193210D01*
X99084970Y-93393210D02*
X101634970Y-93393210D01*
X99084970Y-98043210D02*
X103634970Y-98043210D01*
X96559970Y-86968210D02*
X101609970Y-87014210D01*
X96559970Y-86922210D02*
X96559970Y-83014210D01*
X96559970Y-83014210D02*
X105184970Y-83014210D01*
X107459970Y-84968210D02*
X107459970Y-88913210D01*
X107459970Y-88922210D02*
X103849970Y-88922210D01*
D11*
X107709970Y-94898210D02*
X107709970Y-96168210D01*
X95009970Y-83468210D02*
X96279970Y-83468210D01*
X107709970Y-96168210D02*
X106439970Y-96168210D01*
X95009970Y-84738210D02*
X95009970Y-83468210D01*
D10*
X103639969Y-97268209D02*
G75*
G02*
X104859970Y-95848210I1320000J99999D01*
G01*
X103929970Y-91218210D02*
G75*
G02*
X101559970Y-93388210I-2270000J100000D01*
G01*
X103844971Y-88898209D02*
G75*
G03*
X101584970Y-87018210I-2070000J-190001D01*
G01*
X107448970Y-84898210D02*
G75*
G03*
X105184970Y-83014210I-2074000J-190000D01*
G01*
%TO.C,SW19*%
X170314970Y-140180710D02*
X170314970Y-140880710D01*
X175309970Y-134080710D02*
X175334970Y-138680709D01*
X165734971Y-136280710D02*
X165734971Y-140880710D01*
X171534970Y-138705710D02*
X175309970Y-138705710D01*
X170609970Y-134055710D02*
X175309970Y-134055710D01*
X165759970Y-136255710D02*
X168309970Y-136255710D01*
X165759970Y-140905710D02*
X170309970Y-140905710D01*
X163234970Y-129830710D02*
X168284970Y-129876710D01*
X163234970Y-129784710D02*
X163234970Y-125876710D01*
X163234970Y-125876710D02*
X171859970Y-125876710D01*
X174134970Y-127830710D02*
X174134970Y-131775710D01*
X174134970Y-131784710D02*
X170524970Y-131784710D01*
D11*
X174384970Y-137760710D02*
X174384970Y-139030710D01*
X161684970Y-126330710D02*
X162954970Y-126330710D01*
X174384970Y-139030710D02*
X173114970Y-139030710D01*
X161684970Y-127600710D02*
X161684970Y-126330710D01*
D10*
X170314969Y-140130709D02*
G75*
G02*
X171534970Y-138710710I1320000J99999D01*
G01*
X170604970Y-134080710D02*
G75*
G02*
X168234970Y-136250710I-2270000J100000D01*
G01*
X170519971Y-131760709D02*
G75*
G03*
X168259970Y-129880710I-2070000J-190001D01*
G01*
X174123970Y-127760710D02*
G75*
G03*
X171859970Y-125876710I-2074000J-190000D01*
G01*
%TO.C,D13*%
X126410720Y-114392710D02*
X126410720Y-112868710D01*
X126410720Y-112868710D02*
X122346720Y-112868710D01*
X122346720Y-112868710D02*
X122346720Y-114392710D01*
X122346720Y-114392710D02*
X126410720Y-114392710D01*
D12*
G36*
X125648720Y-112868710D02*
G01*
X125648720Y-114392710D01*
X125902720Y-114392710D01*
X125902720Y-112868710D01*
X125648720Y-112868710D01*
G37*
X125648720Y-112868710D02*
X125648720Y-114392710D01*
X125902720Y-114392710D01*
X125902720Y-112868710D01*
X125648720Y-112868710D01*
D10*
%TO.C,D1*%
X92596970Y-84452460D02*
X91072970Y-84452460D01*
X91072970Y-84452460D02*
X91072970Y-88516460D01*
X91072970Y-88516460D02*
X92596970Y-88516460D01*
X92596970Y-88516460D02*
X92596970Y-84452460D01*
D12*
G36*
X91072970Y-85214460D02*
G01*
X92596970Y-85214460D01*
X92596970Y-84960460D01*
X91072970Y-84960460D01*
X91072970Y-85214460D01*
G37*
X91072970Y-85214460D02*
X92596970Y-85214460D01*
X92596970Y-84960460D01*
X91072970Y-84960460D01*
X91072970Y-85214460D01*
D10*
%TO.C,D8*%
X123394470Y-95342710D02*
X123394470Y-93818710D01*
X123394470Y-93818710D02*
X119330470Y-93818710D01*
X119330470Y-93818710D02*
X119330470Y-95342710D01*
X119330470Y-95342710D02*
X123394470Y-95342710D01*
D12*
G36*
X122632470Y-93818710D02*
G01*
X122632470Y-95342710D01*
X122886470Y-95342710D01*
X122886470Y-93818710D01*
X122632470Y-93818710D01*
G37*
X122632470Y-93818710D02*
X122632470Y-95342710D01*
X122886470Y-95342710D01*
X122886470Y-93818710D01*
X122632470Y-93818710D01*
D10*
%TO.C,PJ1*%
X149484970Y-51305710D02*
X143884970Y-51305710D01*
X143884970Y-53305710D02*
X143884970Y-51305710D01*
X149484970Y-53305710D02*
X149484970Y-51305710D01*
X143634970Y-53305710D02*
X143634970Y-65405710D01*
X149734970Y-53305710D02*
X149734970Y-65405710D01*
X149734970Y-65405710D02*
X143634970Y-65405710D01*
X149734970Y-53305710D02*
X143634970Y-53305710D01*
%TO.C,D3*%
X126410720Y-76292710D02*
X126410720Y-74768710D01*
X126410720Y-74768710D02*
X122346720Y-74768710D01*
X122346720Y-74768710D02*
X122346720Y-76292710D01*
X122346720Y-76292710D02*
X126410720Y-76292710D01*
D12*
G36*
X125648720Y-74768710D02*
G01*
X125648720Y-76292710D01*
X125902720Y-76292710D01*
X125902720Y-74768710D01*
X125648720Y-74768710D01*
G37*
X125648720Y-74768710D02*
X125648720Y-76292710D01*
X125902720Y-76292710D01*
X125902720Y-74768710D01*
X125648720Y-74768710D01*
D10*
%TO.C,D14*%
X145460720Y-123917710D02*
X145460720Y-122393710D01*
X145460720Y-122393710D02*
X141396720Y-122393710D01*
X141396720Y-122393710D02*
X141396720Y-123917710D01*
X141396720Y-123917710D02*
X145460720Y-123917710D01*
D12*
G36*
X144698720Y-122393710D02*
G01*
X144698720Y-123917710D01*
X144952720Y-123917710D01*
X144952720Y-122393710D01*
X144698720Y-122393710D01*
G37*
X144698720Y-122393710D02*
X144698720Y-123917710D01*
X144952720Y-123917710D01*
X144952720Y-122393710D01*
X144698720Y-122393710D01*
D10*
%TO.C,D19*%
X176797970Y-138046460D02*
X178321970Y-138046460D01*
X178321970Y-138046460D02*
X178321970Y-133982460D01*
X178321970Y-133982460D02*
X176797970Y-133982460D01*
X176797970Y-133982460D02*
X176797970Y-138046460D01*
D12*
G36*
X178321970Y-137284460D02*
G01*
X176797970Y-137284460D01*
X176797970Y-137538460D01*
X178321970Y-137538460D01*
X178321970Y-137284460D01*
G37*
X178321970Y-137284460D02*
X176797970Y-137284460D01*
X176797970Y-137538460D01*
X178321970Y-137538460D01*
X178321970Y-137284460D01*
D10*
%TO.C,D4*%
X145460720Y-85817710D02*
X145460720Y-84293710D01*
X145460720Y-84293710D02*
X141396720Y-84293710D01*
X141396720Y-84293710D02*
X141396720Y-85817710D01*
X141396720Y-85817710D02*
X145460720Y-85817710D01*
D12*
G36*
X144698720Y-84293710D02*
G01*
X144698720Y-85817710D01*
X144952720Y-85817710D01*
X144952720Y-84293710D01*
X144698720Y-84293710D01*
G37*
X144698720Y-84293710D02*
X144698720Y-85817710D01*
X144952720Y-85817710D01*
X144952720Y-84293710D01*
X144698720Y-84293710D01*
D10*
%TO.C,D5*%
X153144220Y-84293710D02*
X153144220Y-85817710D01*
X153144220Y-85817710D02*
X157208220Y-85817710D01*
X157208220Y-85817710D02*
X157208220Y-84293710D01*
X157208220Y-84293710D02*
X153144220Y-84293710D01*
D12*
G36*
X153906220Y-85817710D02*
G01*
X153906220Y-84293710D01*
X153652220Y-84293710D01*
X153652220Y-85817710D01*
X153906220Y-85817710D01*
G37*
X153906220Y-85817710D02*
X153906220Y-84293710D01*
X153652220Y-84293710D01*
X153652220Y-85817710D01*
X153906220Y-85817710D01*
D10*
%TO.C,D6*%
X92596970Y-103502460D02*
X91072970Y-103502460D01*
X91072970Y-103502460D02*
X91072970Y-107566460D01*
X91072970Y-107566460D02*
X92596970Y-107566460D01*
X92596970Y-107566460D02*
X92596970Y-103502460D01*
D12*
G36*
X91072970Y-104264460D02*
G01*
X92596970Y-104264460D01*
X92596970Y-104010460D01*
X91072970Y-104010460D01*
X91072970Y-104264460D01*
G37*
X91072970Y-104264460D02*
X92596970Y-104264460D01*
X92596970Y-104010460D01*
X91072970Y-104010460D01*
X91072970Y-104264460D01*
D10*
%TO.C,D16*%
X100597970Y-137887710D02*
X102121970Y-137887710D01*
X102121970Y-137887710D02*
X102121970Y-133823710D01*
X102121970Y-133823710D02*
X100597970Y-133823710D01*
X100597970Y-133823710D02*
X100597970Y-137887710D01*
D12*
G36*
X102121970Y-137125710D02*
G01*
X100597970Y-137125710D01*
X100597970Y-137379710D01*
X102121970Y-137379710D01*
X102121970Y-137125710D01*
G37*
X102121970Y-137125710D02*
X100597970Y-137125710D01*
X100597970Y-137379710D01*
X102121970Y-137379710D01*
X102121970Y-137125710D01*
D10*
%TO.C,D12*%
X112872520Y-119059960D02*
X112872520Y-117535960D01*
X112872520Y-117535960D02*
X108808520Y-117535960D01*
X108808520Y-117535960D02*
X108808520Y-119059960D01*
X108808520Y-119059960D02*
X112872520Y-119059960D01*
D12*
G36*
X112110520Y-117535960D02*
G01*
X112110520Y-119059960D01*
X112364520Y-119059960D01*
X112364520Y-117535960D01*
X112110520Y-117535960D01*
G37*
X112110520Y-117535960D02*
X112110520Y-119059960D01*
X112364520Y-119059960D01*
X112364520Y-117535960D01*
X112110520Y-117535960D01*
D10*
%TO.C,D10*%
X153302970Y-103343710D02*
X153302970Y-104867710D01*
X153302970Y-104867710D02*
X157366970Y-104867710D01*
X157366970Y-104867710D02*
X157366970Y-103343710D01*
X157366970Y-103343710D02*
X153302970Y-103343710D01*
D12*
G36*
X154064970Y-104867710D02*
G01*
X154064970Y-103343710D01*
X153810970Y-103343710D01*
X153810970Y-104867710D01*
X154064970Y-104867710D01*
G37*
X154064970Y-104867710D02*
X154064970Y-103343710D01*
X153810970Y-103343710D01*
X153810970Y-104867710D01*
X154064970Y-104867710D01*
D10*
%TO.C,D17*%
X138697970Y-138046460D02*
X140221970Y-138046460D01*
X140221970Y-138046460D02*
X140221970Y-133982460D01*
X140221970Y-133982460D02*
X138697970Y-133982460D01*
X138697970Y-133982460D02*
X138697970Y-138046460D01*
D12*
G36*
X140221970Y-137284460D02*
G01*
X138697970Y-137284460D01*
X138697970Y-137538460D01*
X140221970Y-137538460D01*
X140221970Y-137284460D01*
G37*
X140221970Y-137284460D02*
X138697970Y-137284460D01*
X138697970Y-137538460D01*
X140221970Y-137538460D01*
X140221970Y-137284460D01*
D10*
%TO.C,L1*%
X176091220Y-112636960D02*
X173841220Y-110336960D01*
D15*
X176091220Y-110636960D02*
X176091220Y-115336960D01*
X175841220Y-110336960D02*
X171091220Y-110336960D01*
X176091220Y-110636960D02*
X175841220Y-110336960D01*
X171091220Y-115336960D02*
X171091220Y-110336960D01*
X176090580Y-115336320D02*
X171091860Y-115336320D01*
D10*
%TO.C,D7*%
X107360720Y-100105210D02*
X107360720Y-98581210D01*
X107360720Y-98581210D02*
X103296720Y-98581210D01*
X103296720Y-98581210D02*
X103296720Y-100105210D01*
X103296720Y-100105210D02*
X107360720Y-100105210D01*
D12*
G36*
X106598720Y-98581210D02*
G01*
X106598720Y-100105210D01*
X106852720Y-100105210D01*
X106852720Y-98581210D01*
X106598720Y-98581210D01*
G37*
X106598720Y-98581210D02*
X106598720Y-100105210D01*
X106852720Y-100105210D01*
X106852720Y-98581210D01*
X106598720Y-98581210D01*
D10*
%TO.C,D9*%
X145460720Y-104867710D02*
X145460720Y-103343710D01*
X145460720Y-103343710D02*
X141396720Y-103343710D01*
X141396720Y-103343710D02*
X141396720Y-104867710D01*
X141396720Y-104867710D02*
X145460720Y-104867710D01*
D12*
G36*
X144698720Y-103343710D02*
G01*
X144698720Y-104867710D01*
X144952720Y-104867710D01*
X144952720Y-103343710D01*
X144698720Y-103343710D01*
G37*
X144698720Y-103343710D02*
X144698720Y-104867710D01*
X144952720Y-104867710D01*
X144952720Y-103343710D01*
X144698720Y-103343710D01*
D14*
%TO.C,C1*%
X133611120Y-54053360D02*
X133611120Y-46703360D01*
X127611120Y-46703360D02*
X133611120Y-46703360D01*
X127611120Y-54053360D02*
X133611120Y-54053360D01*
X127611120Y-54053360D02*
X127611120Y-46703360D01*
D10*
%TO.C,SW20*%
X165391220Y-64830710D02*
X165391220Y-60830710D01*
X165391220Y-60830710D02*
X156391220Y-60830710D01*
X165391220Y-64830710D02*
X156391220Y-64830710D01*
X156391220Y-60830710D02*
X156391220Y-64830710D01*
%TO.C,D11*%
X84183220Y-119948960D02*
X84183220Y-118424960D01*
X84183220Y-118424960D02*
X80119220Y-118424960D01*
X80119220Y-118424960D02*
X80119220Y-119948960D01*
X80119220Y-119948960D02*
X84183220Y-119948960D01*
D12*
G36*
X83421220Y-118424960D02*
G01*
X83421220Y-119948960D01*
X83675220Y-119948960D01*
X83675220Y-118424960D01*
X83421220Y-118424960D01*
G37*
X83421220Y-118424960D02*
X83421220Y-119948960D01*
X83675220Y-119948960D01*
X83675220Y-118424960D01*
X83421220Y-118424960D01*
D10*
%TO.C,SW1*%
X84589970Y-97318210D02*
X84589970Y-98018210D01*
X89584970Y-91218210D02*
X89609970Y-95818209D01*
X80009971Y-93418210D02*
X80009971Y-98018210D01*
X85809970Y-95843210D02*
X89584970Y-95843210D01*
X84884970Y-91193210D02*
X89584970Y-91193210D01*
X80034970Y-93393210D02*
X82584970Y-93393210D01*
X80034970Y-98043210D02*
X84584970Y-98043210D01*
X77509970Y-86968210D02*
X82559970Y-87014210D01*
X77509970Y-86922210D02*
X77509970Y-83014210D01*
X77509970Y-83014210D02*
X86134970Y-83014210D01*
X88409970Y-84968210D02*
X88409970Y-88913210D01*
X88409970Y-88922210D02*
X84799970Y-88922210D01*
D11*
X88659970Y-94898210D02*
X88659970Y-96168210D01*
X75959970Y-83468210D02*
X77229970Y-83468210D01*
X88659970Y-96168210D02*
X87389970Y-96168210D01*
X75959970Y-84738210D02*
X75959970Y-83468210D01*
D10*
X84589969Y-97268209D02*
G75*
G02*
X85809970Y-95848210I1320000J99999D01*
G01*
X84879970Y-91218210D02*
G75*
G02*
X82509970Y-93388210I-2270000J100000D01*
G01*
X84794971Y-88898209D02*
G75*
G03*
X82534970Y-87018210I-2070000J-190001D01*
G01*
X88398970Y-84898210D02*
G75*
G03*
X86134970Y-83014210I-2074000J-190000D01*
G01*
%TO.C,D18*%
D16*
X158826636Y-136610460D02*
X158126636Y-136610460D01*
X158126636Y-136443793D01*
X158159970Y-136343793D01*
X158226636Y-136277126D01*
X158293303Y-136243793D01*
X158426636Y-136210460D01*
X158526636Y-136210460D01*
X158659970Y-136243793D01*
X158726636Y-136277126D01*
X158793303Y-136343793D01*
X158826636Y-136443793D01*
X158826636Y-136610460D01*
X158826636Y-135543793D02*
X158826636Y-135943793D01*
X158826636Y-135743793D02*
X158126636Y-135743793D01*
X158226636Y-135810460D01*
X158293303Y-135877126D01*
X158326636Y-135943793D01*
X158426636Y-135143793D02*
X158393303Y-135210460D01*
X158359970Y-135243793D01*
X158293303Y-135277126D01*
X158259970Y-135277126D01*
X158193303Y-135243793D01*
X158159970Y-135210460D01*
X158126636Y-135143793D01*
X158126636Y-135010460D01*
X158159970Y-134943793D01*
X158193303Y-134910460D01*
X158259970Y-134877126D01*
X158293303Y-134877126D01*
X158359970Y-134910460D01*
X158393303Y-134943793D01*
X158426636Y-135010460D01*
X158426636Y-135143793D01*
X158459970Y-135210460D01*
X158493303Y-135243793D01*
X158559970Y-135277126D01*
X158693303Y-135277126D01*
X158759970Y-135243793D01*
X158793303Y-135210460D01*
X158826636Y-135143793D01*
X158826636Y-135010460D01*
X158793303Y-134943793D01*
X158759970Y-134910460D01*
X158693303Y-134877126D01*
X158559970Y-134877126D01*
X158493303Y-134910460D01*
X158459970Y-134943793D01*
X158426636Y-135010460D01*
%TO.C,U1*%
D10*
X86539124Y-47057317D02*
X86653410Y-47095412D01*
X86691505Y-47133507D01*
X86729600Y-47209698D01*
X86729600Y-47323983D01*
X86691505Y-47400174D01*
X86653410Y-47438269D01*
X86577220Y-47476364D01*
X86272458Y-47476364D01*
X86272458Y-46676364D01*
X86539124Y-46676364D01*
X86615315Y-46714460D01*
X86653410Y-46752555D01*
X86691505Y-46828745D01*
X86691505Y-46904936D01*
X86653410Y-46981126D01*
X86615315Y-47019221D01*
X86539124Y-47057317D01*
X86272458Y-47057317D01*
X87072458Y-47171602D02*
X87681981Y-47171602D01*
X87377220Y-47476364D02*
X87377220Y-46866840D01*
X75871124Y-47057317D02*
X75985410Y-47095412D01*
X76023505Y-47133507D01*
X76061600Y-47209698D01*
X76061600Y-47323983D01*
X76023505Y-47400174D01*
X75985410Y-47438269D01*
X75909220Y-47476364D01*
X75604458Y-47476364D01*
X75604458Y-46676364D01*
X75871124Y-46676364D01*
X75947315Y-46714460D01*
X75985410Y-46752555D01*
X76023505Y-46828745D01*
X76023505Y-46904936D01*
X75985410Y-46981126D01*
X75947315Y-47019221D01*
X75871124Y-47057317D01*
X75604458Y-47057317D01*
X76404458Y-47171602D02*
X77013981Y-47171602D01*
X78385743Y-76386364D02*
X78385743Y-75586364D01*
X78576220Y-75586364D01*
X78690505Y-75624460D01*
X78766696Y-75700650D01*
X78804791Y-75776840D01*
X78842886Y-75929221D01*
X78842886Y-76043507D01*
X78804791Y-76195888D01*
X78766696Y-76272079D01*
X78690505Y-76348269D01*
X78576220Y-76386364D01*
X78385743Y-76386364D01*
X79566696Y-75586364D02*
X79185743Y-75586364D01*
X79147648Y-75967317D01*
X79185743Y-75929221D01*
X79261934Y-75891126D01*
X79452410Y-75891126D01*
X79528600Y-75929221D01*
X79566696Y-75967317D01*
X79604791Y-76043507D01*
X79604791Y-76233983D01*
X79566696Y-76310174D01*
X79528600Y-76348269D01*
X79452410Y-76386364D01*
X79261934Y-76386364D01*
X79185743Y-76348269D01*
X79147648Y-76310174D01*
X83789553Y-75967317D02*
X83522886Y-75967317D01*
X83522886Y-76386364D02*
X83522886Y-75586364D01*
X83903839Y-75586364D01*
X84627648Y-76386364D02*
X84170505Y-76386364D01*
X84399077Y-76386364D02*
X84399077Y-75586364D01*
X84322886Y-75700650D01*
X84246696Y-75776840D01*
X84170505Y-75814936D01*
X81382886Y-76310174D02*
X81344791Y-76348269D01*
X81230505Y-76386364D01*
X81154315Y-76386364D01*
X81040029Y-76348269D01*
X80963839Y-76272079D01*
X80925743Y-76195888D01*
X80887648Y-76043507D01*
X80887648Y-75929221D01*
X80925743Y-75776840D01*
X80963839Y-75700650D01*
X81040029Y-75624460D01*
X81154315Y-75586364D01*
X81230505Y-75586364D01*
X81344791Y-75624460D01*
X81382886Y-75662555D01*
X81649553Y-75586364D02*
X82182886Y-75586364D01*
X81840029Y-76386364D01*
X87680517Y-76489451D02*
X87774798Y-76442311D01*
X87821939Y-76442311D01*
X87892649Y-76465881D01*
X87963360Y-76536592D01*
X87986930Y-76607302D01*
X87986930Y-76654443D01*
X87963360Y-76725153D01*
X87774798Y-76913715D01*
X87279823Y-76418740D01*
X87444815Y-76253749D01*
X87515526Y-76230179D01*
X87562666Y-76230179D01*
X87633377Y-76253749D01*
X87680517Y-76300889D01*
X87704087Y-76371600D01*
X87704087Y-76418740D01*
X87680517Y-76489451D01*
X87515526Y-76654443D01*
X87986930Y-75711634D02*
X87892649Y-75805915D01*
X87869079Y-75876625D01*
X87869079Y-75923766D01*
X87892649Y-76041617D01*
X87963360Y-76159468D01*
X88151922Y-76348030D01*
X88222632Y-76371600D01*
X88269773Y-76371600D01*
X88340484Y-76348030D01*
X88434764Y-76253749D01*
X88458335Y-76183038D01*
X88458335Y-76135898D01*
X88434764Y-76065187D01*
X88316913Y-75947336D01*
X88246203Y-75923766D01*
X88199062Y-75923766D01*
X88128352Y-75947336D01*
X88034071Y-76041617D01*
X88010500Y-76112327D01*
X88010500Y-76159468D01*
X88034071Y-76230179D01*
X85782886Y-76174460D02*
X85549553Y-76174460D01*
X85549553Y-76541126D02*
X85549553Y-75841126D01*
X85882886Y-75841126D01*
X86282886Y-75841126D02*
X86349553Y-75841126D01*
X86416220Y-75874460D01*
X86449553Y-75907793D01*
X86482886Y-75974460D01*
X86516220Y-76107793D01*
X86516220Y-76274460D01*
X86482886Y-76407793D01*
X86449553Y-76474460D01*
X86416220Y-76507793D01*
X86349553Y-76541126D01*
X86282886Y-76541126D01*
X86216220Y-76507793D01*
X86182886Y-76474460D01*
X86149553Y-76407793D01*
X86116220Y-76274460D01*
X86116220Y-76107793D01*
X86149553Y-75974460D01*
X86182886Y-75907793D01*
X86216220Y-75874460D01*
X86282886Y-75841126D01*
X76732886Y-76174460D02*
X76832886Y-76207793D01*
X76866220Y-76241126D01*
X76899553Y-76307793D01*
X76899553Y-76407793D01*
X76866220Y-76474460D01*
X76832886Y-76507793D01*
X76766220Y-76541126D01*
X76499553Y-76541126D01*
X76499553Y-75841126D01*
X76732886Y-75841126D01*
X76799553Y-75874460D01*
X76832886Y-75907793D01*
X76866220Y-75974460D01*
X76866220Y-76041126D01*
X76832886Y-76107793D01*
X76799553Y-76141126D01*
X76732886Y-76174460D01*
X76499553Y-76174460D01*
X77132886Y-75841126D02*
X77599553Y-75841126D01*
X77299553Y-76541126D01*
X75753871Y-49216364D02*
X76211014Y-49216364D01*
X75982443Y-50016364D02*
X75982443Y-49216364D01*
X76401490Y-49216364D02*
X76934824Y-50016364D01*
X76934824Y-49216364D02*
X76401490Y-50016364D01*
X77391967Y-49216364D02*
X77468157Y-49216364D01*
X77544348Y-49254460D01*
X77582443Y-49292555D01*
X77620538Y-49368745D01*
X77658633Y-49521126D01*
X77658633Y-49711602D01*
X77620538Y-49863983D01*
X77582443Y-49940174D01*
X77544348Y-49978269D01*
X77468157Y-50016364D01*
X77391967Y-50016364D01*
X77315776Y-49978269D01*
X77277681Y-49940174D01*
X77239586Y-49863983D01*
X77201490Y-49711602D01*
X77201490Y-49521126D01*
X77239586Y-49368745D01*
X77277681Y-49292555D01*
X77315776Y-49254460D01*
X77391967Y-49216364D01*
X78572919Y-49178269D02*
X77887205Y-50206840D01*
X78839586Y-50016364D02*
X78839586Y-49216364D01*
X79030062Y-49216364D01*
X79144348Y-49254460D01*
X79220538Y-49330650D01*
X79258633Y-49406840D01*
X79296728Y-49559221D01*
X79296728Y-49673507D01*
X79258633Y-49825888D01*
X79220538Y-49902079D01*
X79144348Y-49978269D01*
X79030062Y-50016364D01*
X78839586Y-50016364D01*
X79563395Y-49216364D02*
X80058633Y-49216364D01*
X79791967Y-49521126D01*
X79906252Y-49521126D01*
X79982443Y-49559221D01*
X80020538Y-49597317D01*
X80058633Y-49673507D01*
X80058633Y-49863983D01*
X80020538Y-49940174D01*
X79982443Y-49978269D01*
X79906252Y-50016364D01*
X79677681Y-50016364D01*
X79601490Y-49978269D01*
X79563395Y-49940174D01*
X75464743Y-52556364D02*
X75464743Y-51756364D01*
X75655220Y-51756364D01*
X75769505Y-51794460D01*
X75845696Y-51870650D01*
X75883791Y-51946840D01*
X75921886Y-52099221D01*
X75921886Y-52213507D01*
X75883791Y-52365888D01*
X75845696Y-52442079D01*
X75769505Y-52518269D01*
X75655220Y-52556364D01*
X75464743Y-52556364D01*
X76226648Y-51832555D02*
X76264743Y-51794460D01*
X76340934Y-51756364D01*
X76531410Y-51756364D01*
X76607600Y-51794460D01*
X76645696Y-51832555D01*
X76683791Y-51908745D01*
X76683791Y-51984936D01*
X76645696Y-52099221D01*
X76188553Y-52556364D01*
X76683791Y-52556364D01*
X75464743Y-62716364D02*
X75464743Y-61916364D01*
X75655220Y-61916364D01*
X75769505Y-61954460D01*
X75845696Y-62030650D01*
X75883791Y-62106840D01*
X75921886Y-62259221D01*
X75921886Y-62373507D01*
X75883791Y-62525888D01*
X75845696Y-62602079D01*
X75769505Y-62678269D01*
X75655220Y-62716364D01*
X75464743Y-62716364D01*
X76417124Y-61916364D02*
X76493315Y-61916364D01*
X76569505Y-61954460D01*
X76607600Y-61992555D01*
X76645696Y-62068745D01*
X76683791Y-62221126D01*
X76683791Y-62411602D01*
X76645696Y-62563983D01*
X76607600Y-62640174D01*
X76569505Y-62678269D01*
X76493315Y-62716364D01*
X76417124Y-62716364D01*
X76340934Y-62678269D01*
X76302839Y-62640174D01*
X76264743Y-62563983D01*
X76226648Y-62411602D01*
X76226648Y-62221126D01*
X76264743Y-62068745D01*
X76302839Y-61992555D01*
X76340934Y-61954460D01*
X76417124Y-61916364D01*
X75464743Y-60176364D02*
X75464743Y-59376364D01*
X75655220Y-59376364D01*
X75769505Y-59414460D01*
X75845696Y-59490650D01*
X75883791Y-59566840D01*
X75921886Y-59719221D01*
X75921886Y-59833507D01*
X75883791Y-59985888D01*
X75845696Y-60062079D01*
X75769505Y-60138269D01*
X75655220Y-60176364D01*
X75464743Y-60176364D01*
X76683791Y-60176364D02*
X76226648Y-60176364D01*
X76455220Y-60176364D02*
X76455220Y-59376364D01*
X76379029Y-59490650D01*
X76302839Y-59566840D01*
X76226648Y-59604936D01*
X75445696Y-56874460D02*
X75369505Y-56836364D01*
X75255220Y-56836364D01*
X75140934Y-56874460D01*
X75064743Y-56950650D01*
X75026648Y-57026840D01*
X74988553Y-57179221D01*
X74988553Y-57293507D01*
X75026648Y-57445888D01*
X75064743Y-57522079D01*
X75140934Y-57598269D01*
X75255220Y-57636364D01*
X75331410Y-57636364D01*
X75445696Y-57598269D01*
X75483791Y-57560174D01*
X75483791Y-57293507D01*
X75331410Y-57293507D01*
X75826648Y-57636364D02*
X75826648Y-56836364D01*
X76283791Y-57636364D01*
X76283791Y-56836364D01*
X76664743Y-57636364D02*
X76664743Y-56836364D01*
X76855220Y-56836364D01*
X76969505Y-56874460D01*
X77045696Y-56950650D01*
X77083791Y-57026840D01*
X77121886Y-57179221D01*
X77121886Y-57293507D01*
X77083791Y-57445888D01*
X77045696Y-57522079D01*
X76969505Y-57598269D01*
X76855220Y-57636364D01*
X76664743Y-57636364D01*
X75445696Y-54334460D02*
X75369505Y-54296364D01*
X75255220Y-54296364D01*
X75140934Y-54334460D01*
X75064743Y-54410650D01*
X75026648Y-54486840D01*
X74988553Y-54639221D01*
X74988553Y-54753507D01*
X75026648Y-54905888D01*
X75064743Y-54982079D01*
X75140934Y-55058269D01*
X75255220Y-55096364D01*
X75331410Y-55096364D01*
X75445696Y-55058269D01*
X75483791Y-55020174D01*
X75483791Y-54753507D01*
X75331410Y-54753507D01*
X75826648Y-55096364D02*
X75826648Y-54296364D01*
X76283791Y-55096364D01*
X76283791Y-54296364D01*
X76664743Y-55096364D02*
X76664743Y-54296364D01*
X76855220Y-54296364D01*
X76969505Y-54334460D01*
X77045696Y-54410650D01*
X77083791Y-54486840D01*
X77121886Y-54639221D01*
X77121886Y-54753507D01*
X77083791Y-54905888D01*
X77045696Y-54982079D01*
X76969505Y-55058269D01*
X76855220Y-55096364D01*
X76664743Y-55096364D01*
X75464743Y-65256364D02*
X75464743Y-64456364D01*
X75655220Y-64456364D01*
X75769505Y-64494460D01*
X75845696Y-64570650D01*
X75883791Y-64646840D01*
X75921886Y-64799221D01*
X75921886Y-64913507D01*
X75883791Y-65065888D01*
X75845696Y-65142079D01*
X75769505Y-65218269D01*
X75655220Y-65256364D01*
X75464743Y-65256364D01*
X76607600Y-64723031D02*
X76607600Y-65256364D01*
X76417124Y-64418269D02*
X76226648Y-64989698D01*
X76721886Y-64989698D01*
X75921886Y-67720174D02*
X75883791Y-67758269D01*
X75769505Y-67796364D01*
X75693315Y-67796364D01*
X75579029Y-67758269D01*
X75502839Y-67682079D01*
X75464743Y-67605888D01*
X75426648Y-67453507D01*
X75426648Y-67339221D01*
X75464743Y-67186840D01*
X75502839Y-67110650D01*
X75579029Y-67034460D01*
X75693315Y-66996364D01*
X75769505Y-66996364D01*
X75883791Y-67034460D01*
X75921886Y-67072555D01*
X76607600Y-66996364D02*
X76455220Y-66996364D01*
X76379029Y-67034460D01*
X76340934Y-67072555D01*
X76264743Y-67186840D01*
X76226648Y-67339221D01*
X76226648Y-67643983D01*
X76264743Y-67720174D01*
X76302839Y-67758269D01*
X76379029Y-67796364D01*
X76531410Y-67796364D01*
X76607600Y-67758269D01*
X76645696Y-67720174D01*
X76683791Y-67643983D01*
X76683791Y-67453507D01*
X76645696Y-67377317D01*
X76607600Y-67339221D01*
X76531410Y-67301126D01*
X76379029Y-67301126D01*
X76302839Y-67339221D01*
X76264743Y-67377317D01*
X76226648Y-67453507D01*
X75464743Y-70336364D02*
X75464743Y-69536364D01*
X75655220Y-69536364D01*
X75769505Y-69574460D01*
X75845696Y-69650650D01*
X75883791Y-69726840D01*
X75921886Y-69879221D01*
X75921886Y-69993507D01*
X75883791Y-70145888D01*
X75845696Y-70222079D01*
X75769505Y-70298269D01*
X75655220Y-70336364D01*
X75464743Y-70336364D01*
X76188553Y-69536364D02*
X76721886Y-69536364D01*
X76379029Y-70336364D01*
X75502839Y-72457317D02*
X75769505Y-72457317D01*
X75883791Y-72876364D02*
X75502839Y-72876364D01*
X75502839Y-72076364D01*
X75883791Y-72076364D01*
X76569505Y-72076364D02*
X76417124Y-72076364D01*
X76340934Y-72114460D01*
X76302839Y-72152555D01*
X76226648Y-72266840D01*
X76188553Y-72419221D01*
X76188553Y-72723983D01*
X76226648Y-72800174D01*
X76264743Y-72838269D01*
X76340934Y-72876364D01*
X76493315Y-72876364D01*
X76569505Y-72838269D01*
X76607600Y-72800174D01*
X76645696Y-72723983D01*
X76645696Y-72533507D01*
X76607600Y-72457317D01*
X76569505Y-72419221D01*
X76493315Y-72381126D01*
X76340934Y-72381126D01*
X76264743Y-72419221D01*
X76226648Y-72457317D01*
X76188553Y-72533507D01*
X75731410Y-74997317D02*
X75845696Y-75035412D01*
X75883791Y-75073507D01*
X75921886Y-75149698D01*
X75921886Y-75263983D01*
X75883791Y-75340174D01*
X75845696Y-75378269D01*
X75769505Y-75416364D01*
X75464743Y-75416364D01*
X75464743Y-74616364D01*
X75731410Y-74616364D01*
X75807600Y-74654460D01*
X75845696Y-74692555D01*
X75883791Y-74768745D01*
X75883791Y-74844936D01*
X75845696Y-74921126D01*
X75807600Y-74959221D01*
X75731410Y-74997317D01*
X75464743Y-74997317D01*
X76607600Y-74883031D02*
X76607600Y-75416364D01*
X76417124Y-74578269D02*
X76226648Y-75149698D01*
X76721886Y-75149698D01*
X74951228Y-76088757D02*
X74998368Y-76183038D01*
X74998368Y-76230179D01*
X74974798Y-76300889D01*
X74904087Y-76371600D01*
X74833377Y-76395170D01*
X74786236Y-76395170D01*
X74715526Y-76371600D01*
X74526964Y-76183038D01*
X75021939Y-75688063D01*
X75186930Y-75853055D01*
X75210500Y-75923766D01*
X75210500Y-75970906D01*
X75186930Y-76041617D01*
X75139790Y-76088757D01*
X75069079Y-76112327D01*
X75021939Y-76112327D01*
X74951228Y-76088757D01*
X74786236Y-75923766D01*
X75752616Y-76418740D02*
X75516913Y-76183038D01*
X75257641Y-76395170D01*
X75304781Y-76395170D01*
X75375492Y-76418740D01*
X75493343Y-76536592D01*
X75516913Y-76607302D01*
X75516913Y-76654443D01*
X75493343Y-76725153D01*
X75375492Y-76843004D01*
X75304781Y-76866575D01*
X75257641Y-76866575D01*
X75186930Y-76843004D01*
X75069079Y-76725153D01*
X75045509Y-76654443D01*
X75045509Y-76607302D01*
X86653410Y-72457317D02*
X86767696Y-72495412D01*
X86805791Y-72533507D01*
X86843886Y-72609698D01*
X86843886Y-72723983D01*
X86805791Y-72800174D01*
X86767696Y-72838269D01*
X86691505Y-72876364D01*
X86386743Y-72876364D01*
X86386743Y-72076364D01*
X86653410Y-72076364D01*
X86729600Y-72114460D01*
X86767696Y-72152555D01*
X86805791Y-72228745D01*
X86805791Y-72304936D01*
X86767696Y-72381126D01*
X86729600Y-72419221D01*
X86653410Y-72457317D01*
X86386743Y-72457317D01*
X87110553Y-72076364D02*
X87605791Y-72076364D01*
X87339124Y-72381126D01*
X87453410Y-72381126D01*
X87529600Y-72419221D01*
X87567696Y-72457317D01*
X87605791Y-72533507D01*
X87605791Y-72723983D01*
X87567696Y-72800174D01*
X87529600Y-72838269D01*
X87453410Y-72876364D01*
X87224839Y-72876364D01*
X87148648Y-72838269D01*
X87110553Y-72800174D01*
X86653410Y-69917317D02*
X86767696Y-69955412D01*
X86805791Y-69993507D01*
X86843886Y-70069698D01*
X86843886Y-70183983D01*
X86805791Y-70260174D01*
X86767696Y-70298269D01*
X86691505Y-70336364D01*
X86386743Y-70336364D01*
X86386743Y-69536364D01*
X86653410Y-69536364D01*
X86729600Y-69574460D01*
X86767696Y-69612555D01*
X86805791Y-69688745D01*
X86805791Y-69764936D01*
X86767696Y-69841126D01*
X86729600Y-69879221D01*
X86653410Y-69917317D01*
X86386743Y-69917317D01*
X87605791Y-70336364D02*
X87148648Y-70336364D01*
X87377220Y-70336364D02*
X87377220Y-69536364D01*
X87301029Y-69650650D01*
X87224839Y-69726840D01*
X87148648Y-69764936D01*
X86710553Y-59757317D02*
X86443886Y-59757317D01*
X86443886Y-60176364D02*
X86443886Y-59376364D01*
X86824839Y-59376364D01*
X87472458Y-59643031D02*
X87472458Y-60176364D01*
X87281981Y-59338269D02*
X87091505Y-59909698D01*
X87586743Y-59909698D01*
X85910553Y-56836364D02*
X86177220Y-57636364D01*
X86443886Y-56836364D01*
X87167696Y-57560174D02*
X87129600Y-57598269D01*
X87015315Y-57636364D01*
X86939124Y-57636364D01*
X86824839Y-57598269D01*
X86748648Y-57522079D01*
X86710553Y-57445888D01*
X86672458Y-57293507D01*
X86672458Y-57179221D01*
X86710553Y-57026840D01*
X86748648Y-56950650D01*
X86824839Y-56874460D01*
X86939124Y-56836364D01*
X87015315Y-56836364D01*
X87129600Y-56874460D01*
X87167696Y-56912555D01*
X87967696Y-57560174D02*
X87929600Y-57598269D01*
X87815315Y-57636364D01*
X87739124Y-57636364D01*
X87624839Y-57598269D01*
X87548648Y-57522079D01*
X87510553Y-57445888D01*
X87472458Y-57293507D01*
X87472458Y-57179221D01*
X87510553Y-57026840D01*
X87548648Y-56950650D01*
X87624839Y-56874460D01*
X87739124Y-56836364D01*
X87815315Y-56836364D01*
X87929600Y-56874460D01*
X87967696Y-56912555D01*
X86716006Y-55028269D02*
X86830292Y-55066364D01*
X87020768Y-55066364D01*
X87096959Y-55028269D01*
X87135054Y-54990174D01*
X87173149Y-54913983D01*
X87173149Y-54837793D01*
X87135054Y-54761602D01*
X87096959Y-54723507D01*
X87020768Y-54685412D01*
X86868387Y-54647317D01*
X86792197Y-54609221D01*
X86754101Y-54571126D01*
X86716006Y-54494936D01*
X86716006Y-54418745D01*
X86754101Y-54342555D01*
X86792197Y-54304460D01*
X86868387Y-54266364D01*
X87058863Y-54266364D01*
X87173149Y-54304460D01*
X87401720Y-54266364D02*
X87858863Y-54266364D01*
X87630292Y-55066364D02*
X87630292Y-54266364D01*
X86367696Y-51794460D02*
X86291505Y-51756364D01*
X86177220Y-51756364D01*
X86062934Y-51794460D01*
X85986743Y-51870650D01*
X85948648Y-51946840D01*
X85910553Y-52099221D01*
X85910553Y-52213507D01*
X85948648Y-52365888D01*
X85986743Y-52442079D01*
X86062934Y-52518269D01*
X86177220Y-52556364D01*
X86253410Y-52556364D01*
X86367696Y-52518269D01*
X86405791Y-52480174D01*
X86405791Y-52213507D01*
X86253410Y-52213507D01*
X86748648Y-52556364D02*
X86748648Y-51756364D01*
X87205791Y-52556364D01*
X87205791Y-51756364D01*
X87586743Y-52556364D02*
X87586743Y-51756364D01*
X87777220Y-51756364D01*
X87891505Y-51794460D01*
X87967696Y-51870650D01*
X88005791Y-51946840D01*
X88043886Y-52099221D01*
X88043886Y-52213507D01*
X88005791Y-52365888D01*
X87967696Y-52442079D01*
X87891505Y-52518269D01*
X87777220Y-52556364D01*
X87586743Y-52556364D01*
X86653410Y-49597317D02*
X86767696Y-49635412D01*
X86805791Y-49673507D01*
X86843886Y-49749698D01*
X86843886Y-49863983D01*
X86805791Y-49940174D01*
X86767696Y-49978269D01*
X86691505Y-50016364D01*
X86386743Y-50016364D01*
X86386743Y-49216364D01*
X86653410Y-49216364D01*
X86729600Y-49254460D01*
X86767696Y-49292555D01*
X86805791Y-49368745D01*
X86805791Y-49444936D01*
X86767696Y-49521126D01*
X86729600Y-49559221D01*
X86653410Y-49597317D01*
X86386743Y-49597317D01*
X87339124Y-49216364D02*
X87415315Y-49216364D01*
X87491505Y-49254460D01*
X87529600Y-49292555D01*
X87567696Y-49368745D01*
X87605791Y-49521126D01*
X87605791Y-49711602D01*
X87567696Y-49863983D01*
X87529600Y-49940174D01*
X87491505Y-49978269D01*
X87415315Y-50016364D01*
X87339124Y-50016364D01*
X87262934Y-49978269D01*
X87224839Y-49940174D01*
X87186743Y-49863983D01*
X87148648Y-49711602D01*
X87148648Y-49521126D01*
X87186743Y-49368745D01*
X87224839Y-49292555D01*
X87262934Y-49254460D01*
X87339124Y-49216364D01*
X86710553Y-62297317D02*
X86443886Y-62297317D01*
X86443886Y-62716364D02*
X86443886Y-61916364D01*
X86824839Y-61916364D01*
X87510553Y-61916364D02*
X87129600Y-61916364D01*
X87091505Y-62297317D01*
X87129600Y-62259221D01*
X87205791Y-62221126D01*
X87396267Y-62221126D01*
X87472458Y-62259221D01*
X87510553Y-62297317D01*
X87548648Y-62373507D01*
X87548648Y-62563983D01*
X87510553Y-62640174D01*
X87472458Y-62678269D01*
X87396267Y-62716364D01*
X87205791Y-62716364D01*
X87129600Y-62678269D01*
X87091505Y-62640174D01*
X86710553Y-64837317D02*
X86443886Y-64837317D01*
X86443886Y-65256364D02*
X86443886Y-64456364D01*
X86824839Y-64456364D01*
X87472458Y-64456364D02*
X87320077Y-64456364D01*
X87243886Y-64494460D01*
X87205791Y-64532555D01*
X87129600Y-64646840D01*
X87091505Y-64799221D01*
X87091505Y-65103983D01*
X87129600Y-65180174D01*
X87167696Y-65218269D01*
X87243886Y-65256364D01*
X87396267Y-65256364D01*
X87472458Y-65218269D01*
X87510553Y-65180174D01*
X87548648Y-65103983D01*
X87548648Y-64913507D01*
X87510553Y-64837317D01*
X87472458Y-64799221D01*
X87396267Y-64761126D01*
X87243886Y-64761126D01*
X87167696Y-64799221D01*
X87129600Y-64837317D01*
X87091505Y-64913507D01*
X86710553Y-67377317D02*
X86443886Y-67377317D01*
X86443886Y-67796364D02*
X86443886Y-66996364D01*
X86824839Y-66996364D01*
X87053410Y-66996364D02*
X87586743Y-66996364D01*
X87243886Y-67796364D01*
X86653410Y-74997317D02*
X86767696Y-75035412D01*
X86805791Y-75073507D01*
X86843886Y-75149698D01*
X86843886Y-75263983D01*
X86805791Y-75340174D01*
X86767696Y-75378269D01*
X86691505Y-75416364D01*
X86386743Y-75416364D01*
X86386743Y-74616364D01*
X86653410Y-74616364D01*
X86729600Y-74654460D01*
X86767696Y-74692555D01*
X86805791Y-74768745D01*
X86805791Y-74844936D01*
X86767696Y-74921126D01*
X86729600Y-74959221D01*
X86653410Y-74997317D01*
X86386743Y-74997317D01*
X87148648Y-74692555D02*
X87186743Y-74654460D01*
X87262934Y-74616364D01*
X87453410Y-74616364D01*
X87529600Y-74654460D01*
X87567696Y-74692555D01*
X87605791Y-74768745D01*
X87605791Y-74844936D01*
X87567696Y-74959221D01*
X87110553Y-75416364D01*
X87605791Y-75416364D01*
%TO.C,SW16*%
X111295731Y-134702233D02*
X111343350Y-134559376D01*
X111343350Y-134321281D01*
X111295731Y-134226043D01*
X111248112Y-134178424D01*
X111152874Y-134130805D01*
X111057636Y-134130805D01*
X110962398Y-134178424D01*
X110914779Y-134226043D01*
X110867160Y-134321281D01*
X110819541Y-134511757D01*
X110771922Y-134606995D01*
X110724303Y-134654614D01*
X110629065Y-134702233D01*
X110533827Y-134702233D01*
X110438589Y-134654614D01*
X110390970Y-134606995D01*
X110343350Y-134511757D01*
X110343350Y-134273662D01*
X110390970Y-134130805D01*
X110343350Y-133797471D02*
X111343350Y-133559376D01*
X110629065Y-133368900D01*
X111343350Y-133178424D01*
X110343350Y-132940329D01*
X111343350Y-132035567D02*
X111343350Y-132606995D01*
X111343350Y-132321281D02*
X110343350Y-132321281D01*
X110486208Y-132416519D01*
X110581446Y-132511757D01*
X110629065Y-132606995D01*
X110343350Y-131178424D02*
X110343350Y-131368900D01*
X110390970Y-131464138D01*
X110438589Y-131511757D01*
X110581446Y-131606995D01*
X110771922Y-131654614D01*
X111152874Y-131654614D01*
X111248112Y-131606995D01*
X111295731Y-131559376D01*
X111343350Y-131464138D01*
X111343350Y-131273662D01*
X111295731Y-131178424D01*
X111248112Y-131130805D01*
X111152874Y-131083186D01*
X110914779Y-131083186D01*
X110819541Y-131130805D01*
X110771922Y-131178424D01*
X110724303Y-131273662D01*
X110724303Y-131464138D01*
X110771922Y-131559376D01*
X110819541Y-131606995D01*
X110914779Y-131654614D01*
%TO.C,D2*%
D16*
X104558053Y-80609876D02*
X104558053Y-79909876D01*
X104724720Y-79909876D01*
X104824720Y-79943210D01*
X104891386Y-80009876D01*
X104924720Y-80076543D01*
X104958053Y-80209876D01*
X104958053Y-80309876D01*
X104924720Y-80443210D01*
X104891386Y-80509876D01*
X104824720Y-80576543D01*
X104724720Y-80609876D01*
X104558053Y-80609876D01*
X105224720Y-79976543D02*
X105258053Y-79943210D01*
X105324720Y-79909876D01*
X105491386Y-79909876D01*
X105558053Y-79943210D01*
X105591386Y-79976543D01*
X105624720Y-80043210D01*
X105624720Y-80109876D01*
X105591386Y-80209876D01*
X105191386Y-80609876D01*
X105624720Y-80609876D01*
%TO.C,D15*%
X164898970Y-123472376D02*
X164898970Y-122772376D01*
X165065636Y-122772376D01*
X165165636Y-122805710D01*
X165232303Y-122872376D01*
X165265636Y-122939043D01*
X165298970Y-123072376D01*
X165298970Y-123172376D01*
X165265636Y-123305710D01*
X165232303Y-123372376D01*
X165165636Y-123439043D01*
X165065636Y-123472376D01*
X164898970Y-123472376D01*
X165965636Y-123472376D02*
X165565636Y-123472376D01*
X165765636Y-123472376D02*
X165765636Y-122772376D01*
X165698970Y-122872376D01*
X165632303Y-122939043D01*
X165565636Y-122972376D01*
X166598970Y-122772376D02*
X166265636Y-122772376D01*
X166232303Y-123105710D01*
X166265636Y-123072376D01*
X166332303Y-123039043D01*
X166498970Y-123039043D01*
X166565636Y-123072376D01*
X166598970Y-123105710D01*
X166632303Y-123172376D01*
X166632303Y-123339043D01*
X166598970Y-123405710D01*
X166565636Y-123439043D01*
X166498970Y-123472376D01*
X166332303Y-123472376D01*
X166265636Y-123439043D01*
X166232303Y-123405710D01*
%TO.C,D13*%
X123274720Y-113947376D02*
X123274720Y-113247376D01*
X123441386Y-113247376D01*
X123541386Y-113280710D01*
X123608053Y-113347376D01*
X123641386Y-113414043D01*
X123674720Y-113547376D01*
X123674720Y-113647376D01*
X123641386Y-113780710D01*
X123608053Y-113847376D01*
X123541386Y-113914043D01*
X123441386Y-113947376D01*
X123274720Y-113947376D01*
X124341386Y-113947376D02*
X123941386Y-113947376D01*
X124141386Y-113947376D02*
X124141386Y-113247376D01*
X124074720Y-113347376D01*
X124008053Y-113414043D01*
X123941386Y-113447376D01*
X124574720Y-113247376D02*
X125008053Y-113247376D01*
X124774720Y-113514043D01*
X124874720Y-113514043D01*
X124941386Y-113547376D01*
X124974720Y-113580710D01*
X125008053Y-113647376D01*
X125008053Y-113814043D01*
X124974720Y-113880710D01*
X124941386Y-113914043D01*
X124874720Y-113947376D01*
X124674720Y-113947376D01*
X124608053Y-113914043D01*
X124574720Y-113880710D01*
%TO.C,D1*%
X92151636Y-87255126D02*
X91451636Y-87255126D01*
X91451636Y-87088460D01*
X91484970Y-86988460D01*
X91551636Y-86921793D01*
X91618303Y-86888460D01*
X91751636Y-86855126D01*
X91851636Y-86855126D01*
X91984970Y-86888460D01*
X92051636Y-86921793D01*
X92118303Y-86988460D01*
X92151636Y-87088460D01*
X92151636Y-87255126D01*
X92151636Y-86188460D02*
X92151636Y-86588460D01*
X92151636Y-86388460D02*
X91451636Y-86388460D01*
X91551636Y-86455126D01*
X91618303Y-86521793D01*
X91651636Y-86588460D01*
%TO.C,D8*%
X120591803Y-94897376D02*
X120591803Y-94197376D01*
X120758470Y-94197376D01*
X120858470Y-94230710D01*
X120925136Y-94297376D01*
X120958470Y-94364043D01*
X120991803Y-94497376D01*
X120991803Y-94597376D01*
X120958470Y-94730710D01*
X120925136Y-94797376D01*
X120858470Y-94864043D01*
X120758470Y-94897376D01*
X120591803Y-94897376D01*
X121391803Y-94497376D02*
X121325136Y-94464043D01*
X121291803Y-94430710D01*
X121258470Y-94364043D01*
X121258470Y-94330710D01*
X121291803Y-94264043D01*
X121325136Y-94230710D01*
X121391803Y-94197376D01*
X121525136Y-94197376D01*
X121591803Y-94230710D01*
X121625136Y-94264043D01*
X121658470Y-94330710D01*
X121658470Y-94364043D01*
X121625136Y-94430710D01*
X121591803Y-94464043D01*
X121525136Y-94497376D01*
X121391803Y-94497376D01*
X121325136Y-94530710D01*
X121291803Y-94564043D01*
X121258470Y-94630710D01*
X121258470Y-94764043D01*
X121291803Y-94830710D01*
X121325136Y-94864043D01*
X121391803Y-94897376D01*
X121525136Y-94897376D01*
X121591803Y-94864043D01*
X121625136Y-94830710D01*
X121658470Y-94764043D01*
X121658470Y-94630710D01*
X121625136Y-94564043D01*
X121591803Y-94530710D01*
X121525136Y-94497376D01*
%TO.C,D3*%
X123608053Y-75847376D02*
X123608053Y-75147376D01*
X123774720Y-75147376D01*
X123874720Y-75180710D01*
X123941386Y-75247376D01*
X123974720Y-75314043D01*
X124008053Y-75447376D01*
X124008053Y-75547376D01*
X123974720Y-75680710D01*
X123941386Y-75747376D01*
X123874720Y-75814043D01*
X123774720Y-75847376D01*
X123608053Y-75847376D01*
X124241386Y-75147376D02*
X124674720Y-75147376D01*
X124441386Y-75414043D01*
X124541386Y-75414043D01*
X124608053Y-75447376D01*
X124641386Y-75480710D01*
X124674720Y-75547376D01*
X124674720Y-75714043D01*
X124641386Y-75780710D01*
X124608053Y-75814043D01*
X124541386Y-75847376D01*
X124341386Y-75847376D01*
X124274720Y-75814043D01*
X124241386Y-75780710D01*
%TO.C,D14*%
X142324720Y-123472376D02*
X142324720Y-122772376D01*
X142491386Y-122772376D01*
X142591386Y-122805710D01*
X142658053Y-122872376D01*
X142691386Y-122939043D01*
X142724720Y-123072376D01*
X142724720Y-123172376D01*
X142691386Y-123305710D01*
X142658053Y-123372376D01*
X142591386Y-123439043D01*
X142491386Y-123472376D01*
X142324720Y-123472376D01*
X143391386Y-123472376D02*
X142991386Y-123472376D01*
X143191386Y-123472376D02*
X143191386Y-122772376D01*
X143124720Y-122872376D01*
X143058053Y-122939043D01*
X142991386Y-122972376D01*
X143991386Y-123005710D02*
X143991386Y-123472376D01*
X143824720Y-122739043D02*
X143658053Y-123239043D01*
X144091386Y-123239043D01*
%TO.C,D19*%
X177876636Y-136610460D02*
X177176636Y-136610460D01*
X177176636Y-136443793D01*
X177209970Y-136343793D01*
X177276636Y-136277126D01*
X177343303Y-136243793D01*
X177476636Y-136210460D01*
X177576636Y-136210460D01*
X177709970Y-136243793D01*
X177776636Y-136277126D01*
X177843303Y-136343793D01*
X177876636Y-136443793D01*
X177876636Y-136610460D01*
X177876636Y-135543793D02*
X177876636Y-135943793D01*
X177876636Y-135743793D02*
X177176636Y-135743793D01*
X177276636Y-135810460D01*
X177343303Y-135877126D01*
X177376636Y-135943793D01*
X177876636Y-135210460D02*
X177876636Y-135077126D01*
X177843303Y-135010460D01*
X177809970Y-134977126D01*
X177709970Y-134910460D01*
X177576636Y-134877126D01*
X177309970Y-134877126D01*
X177243303Y-134910460D01*
X177209970Y-134943793D01*
X177176636Y-135010460D01*
X177176636Y-135143793D01*
X177209970Y-135210460D01*
X177243303Y-135243793D01*
X177309970Y-135277126D01*
X177476636Y-135277126D01*
X177543303Y-135243793D01*
X177576636Y-135210460D01*
X177609970Y-135143793D01*
X177609970Y-135010460D01*
X177576636Y-134943793D01*
X177543303Y-134910460D01*
X177476636Y-134877126D01*
%TO.C,D4*%
X142658053Y-85372376D02*
X142658053Y-84672376D01*
X142824720Y-84672376D01*
X142924720Y-84705710D01*
X142991386Y-84772376D01*
X143024720Y-84839043D01*
X143058053Y-84972376D01*
X143058053Y-85072376D01*
X143024720Y-85205710D01*
X142991386Y-85272376D01*
X142924720Y-85339043D01*
X142824720Y-85372376D01*
X142658053Y-85372376D01*
X143658053Y-84905710D02*
X143658053Y-85372376D01*
X143491386Y-84639043D02*
X143324720Y-85139043D01*
X143758053Y-85139043D01*
%TO.C,D5*%
X154913553Y-85372376D02*
X154913553Y-84672376D01*
X155080220Y-84672376D01*
X155180220Y-84705710D01*
X155246886Y-84772376D01*
X155280220Y-84839043D01*
X155313553Y-84972376D01*
X155313553Y-85072376D01*
X155280220Y-85205710D01*
X155246886Y-85272376D01*
X155180220Y-85339043D01*
X155080220Y-85372376D01*
X154913553Y-85372376D01*
X155946886Y-84672376D02*
X155613553Y-84672376D01*
X155580220Y-85005710D01*
X155613553Y-84972376D01*
X155680220Y-84939043D01*
X155846886Y-84939043D01*
X155913553Y-84972376D01*
X155946886Y-85005710D01*
X155980220Y-85072376D01*
X155980220Y-85239043D01*
X155946886Y-85305710D01*
X155913553Y-85339043D01*
X155846886Y-85372376D01*
X155680220Y-85372376D01*
X155613553Y-85339043D01*
X155580220Y-85305710D01*
%TO.C,D6*%
X92151636Y-106305126D02*
X91451636Y-106305126D01*
X91451636Y-106138460D01*
X91484970Y-106038460D01*
X91551636Y-105971793D01*
X91618303Y-105938460D01*
X91751636Y-105905126D01*
X91851636Y-105905126D01*
X91984970Y-105938460D01*
X92051636Y-105971793D01*
X92118303Y-106038460D01*
X92151636Y-106138460D01*
X92151636Y-106305126D01*
X91451636Y-105305126D02*
X91451636Y-105438460D01*
X91484970Y-105505126D01*
X91518303Y-105538460D01*
X91618303Y-105605126D01*
X91751636Y-105638460D01*
X92018303Y-105638460D01*
X92084970Y-105605126D01*
X92118303Y-105571793D01*
X92151636Y-105505126D01*
X92151636Y-105371793D01*
X92118303Y-105305126D01*
X92084970Y-105271793D01*
X92018303Y-105238460D01*
X91851636Y-105238460D01*
X91784970Y-105271793D01*
X91751636Y-105305126D01*
X91718303Y-105371793D01*
X91718303Y-105505126D01*
X91751636Y-105571793D01*
X91784970Y-105605126D01*
X91851636Y-105638460D01*
%TO.C,D16*%
X101676636Y-136451710D02*
X100976636Y-136451710D01*
X100976636Y-136285043D01*
X101009970Y-136185043D01*
X101076636Y-136118376D01*
X101143303Y-136085043D01*
X101276636Y-136051710D01*
X101376636Y-136051710D01*
X101509970Y-136085043D01*
X101576636Y-136118376D01*
X101643303Y-136185043D01*
X101676636Y-136285043D01*
X101676636Y-136451710D01*
X101676636Y-135385043D02*
X101676636Y-135785043D01*
X101676636Y-135585043D02*
X100976636Y-135585043D01*
X101076636Y-135651710D01*
X101143303Y-135718376D01*
X101176636Y-135785043D01*
X100976636Y-134785043D02*
X100976636Y-134918376D01*
X101009970Y-134985043D01*
X101043303Y-135018376D01*
X101143303Y-135085043D01*
X101276636Y-135118376D01*
X101543303Y-135118376D01*
X101609970Y-135085043D01*
X101643303Y-135051710D01*
X101676636Y-134985043D01*
X101676636Y-134851710D01*
X101643303Y-134785043D01*
X101609970Y-134751710D01*
X101543303Y-134718376D01*
X101376636Y-134718376D01*
X101309970Y-134751710D01*
X101276636Y-134785043D01*
X101243303Y-134851710D01*
X101243303Y-134985043D01*
X101276636Y-135051710D01*
X101309970Y-135085043D01*
X101376636Y-135118376D01*
%TO.C,D12*%
X109736520Y-118614626D02*
X109736520Y-117914626D01*
X109903186Y-117914626D01*
X110003186Y-117947960D01*
X110069853Y-118014626D01*
X110103186Y-118081293D01*
X110136520Y-118214626D01*
X110136520Y-118314626D01*
X110103186Y-118447960D01*
X110069853Y-118514626D01*
X110003186Y-118581293D01*
X109903186Y-118614626D01*
X109736520Y-118614626D01*
X110803186Y-118614626D02*
X110403186Y-118614626D01*
X110603186Y-118614626D02*
X110603186Y-117914626D01*
X110536520Y-118014626D01*
X110469853Y-118081293D01*
X110403186Y-118114626D01*
X111069853Y-117981293D02*
X111103186Y-117947960D01*
X111169853Y-117914626D01*
X111336520Y-117914626D01*
X111403186Y-117947960D01*
X111436520Y-117981293D01*
X111469853Y-118047960D01*
X111469853Y-118114626D01*
X111436520Y-118214626D01*
X111036520Y-118614626D01*
X111469853Y-118614626D01*
%TO.C,D10*%
X154738970Y-104422376D02*
X154738970Y-103722376D01*
X154905636Y-103722376D01*
X155005636Y-103755710D01*
X155072303Y-103822376D01*
X155105636Y-103889043D01*
X155138970Y-104022376D01*
X155138970Y-104122376D01*
X155105636Y-104255710D01*
X155072303Y-104322376D01*
X155005636Y-104389043D01*
X154905636Y-104422376D01*
X154738970Y-104422376D01*
X155805636Y-104422376D02*
X155405636Y-104422376D01*
X155605636Y-104422376D02*
X155605636Y-103722376D01*
X155538970Y-103822376D01*
X155472303Y-103889043D01*
X155405636Y-103922376D01*
X156238970Y-103722376D02*
X156305636Y-103722376D01*
X156372303Y-103755710D01*
X156405636Y-103789043D01*
X156438970Y-103855710D01*
X156472303Y-103989043D01*
X156472303Y-104155710D01*
X156438970Y-104289043D01*
X156405636Y-104355710D01*
X156372303Y-104389043D01*
X156305636Y-104422376D01*
X156238970Y-104422376D01*
X156172303Y-104389043D01*
X156138970Y-104355710D01*
X156105636Y-104289043D01*
X156072303Y-104155710D01*
X156072303Y-103989043D01*
X156105636Y-103855710D01*
X156138970Y-103789043D01*
X156172303Y-103755710D01*
X156238970Y-103722376D01*
%TO.C,D17*%
X139776636Y-136610460D02*
X139076636Y-136610460D01*
X139076636Y-136443793D01*
X139109970Y-136343793D01*
X139176636Y-136277126D01*
X139243303Y-136243793D01*
X139376636Y-136210460D01*
X139476636Y-136210460D01*
X139609970Y-136243793D01*
X139676636Y-136277126D01*
X139743303Y-136343793D01*
X139776636Y-136443793D01*
X139776636Y-136610460D01*
X139776636Y-135543793D02*
X139776636Y-135943793D01*
X139776636Y-135743793D02*
X139076636Y-135743793D01*
X139176636Y-135810460D01*
X139243303Y-135877126D01*
X139276636Y-135943793D01*
X139076636Y-135310460D02*
X139076636Y-134843793D01*
X139776636Y-135143793D01*
%TO.C,D7*%
X104558053Y-99659876D02*
X104558053Y-98959876D01*
X104724720Y-98959876D01*
X104824720Y-98993210D01*
X104891386Y-99059876D01*
X104924720Y-99126543D01*
X104958053Y-99259876D01*
X104958053Y-99359876D01*
X104924720Y-99493210D01*
X104891386Y-99559876D01*
X104824720Y-99626543D01*
X104724720Y-99659876D01*
X104558053Y-99659876D01*
X105191386Y-98959876D02*
X105658053Y-98959876D01*
X105358053Y-99659876D01*
%TO.C,D9*%
X142658053Y-104422376D02*
X142658053Y-103722376D01*
X142824720Y-103722376D01*
X142924720Y-103755710D01*
X142991386Y-103822376D01*
X143024720Y-103889043D01*
X143058053Y-104022376D01*
X143058053Y-104122376D01*
X143024720Y-104255710D01*
X142991386Y-104322376D01*
X142924720Y-104389043D01*
X142824720Y-104422376D01*
X142658053Y-104422376D01*
X143391386Y-104422376D02*
X143524720Y-104422376D01*
X143591386Y-104389043D01*
X143624720Y-104355710D01*
X143691386Y-104255710D01*
X143724720Y-104122376D01*
X143724720Y-103855710D01*
X143691386Y-103789043D01*
X143658053Y-103755710D01*
X143591386Y-103722376D01*
X143458053Y-103722376D01*
X143391386Y-103755710D01*
X143358053Y-103789043D01*
X143324720Y-103855710D01*
X143324720Y-104022376D01*
X143358053Y-104089043D01*
X143391386Y-104122376D01*
X143458053Y-104155710D01*
X143591386Y-104155710D01*
X143658053Y-104122376D01*
X143691386Y-104089043D01*
X143724720Y-104022376D01*
%TO.C,C1*%
D10*
X129682548Y-48219312D02*
X129682548Y-47457407D01*
X130063500Y-47838360D02*
X129301596Y-47838360D01*
X129682548Y-53299312D02*
X129682548Y-52537407D01*
%TO.C,D11*%
D16*
X81047220Y-119503626D02*
X81047220Y-118803626D01*
X81213886Y-118803626D01*
X81313886Y-118836960D01*
X81380553Y-118903626D01*
X81413886Y-118970293D01*
X81447220Y-119103626D01*
X81447220Y-119203626D01*
X81413886Y-119336960D01*
X81380553Y-119403626D01*
X81313886Y-119470293D01*
X81213886Y-119503626D01*
X81047220Y-119503626D01*
X82113886Y-119503626D02*
X81713886Y-119503626D01*
X81913886Y-119503626D02*
X81913886Y-118803626D01*
X81847220Y-118903626D01*
X81780553Y-118970293D01*
X81713886Y-119003626D01*
X82780553Y-119503626D02*
X82380553Y-119503626D01*
X82580553Y-119503626D02*
X82580553Y-118803626D01*
X82513886Y-118903626D01*
X82447220Y-118970293D01*
X82380553Y-119003626D01*
%TD*%
M02*
