%TF.GenerationSoftware,KiCad,Pcbnew,(5.1.6)-1*%
%TF.CreationDate,2021-05-04T17:20:08-05:00*%
%TF.ProjectId,FlatDox,466c6174-446f-4782-9e6b-696361645f70,rev?*%
%TF.SameCoordinates,Original*%
%TF.FileFunction,Copper,L1,Top*%
%TF.FilePolarity,Positive*%
%FSLAX46Y46*%
G04 Gerber Fmt 4.6, Leading zero omitted, Abs format (unit mm)*
G04 Created by KiCad (PCBNEW (5.1.6)-1) date 2021-05-04 17:20:08*
%MOMM*%
%LPD*%
G01*
G04 APERTURE LIST*
%TA.AperFunction,ComponentPad*%
%ADD10R,1.300000X2.000000*%
%TD*%
%TA.AperFunction,SMDPad,CuDef*%
%ADD11C,0.100000*%
%TD*%
%TA.AperFunction,SMDPad,CuDef*%
%ADD12R,2.000000X2.000000*%
%TD*%
%TA.AperFunction,SMDPad,CuDef*%
%ADD13R,1.800000X2.000000*%
%TD*%
%TA.AperFunction,ComponentPad*%
%ADD14R,1.651000X1.651000*%
%TD*%
%TA.AperFunction,ComponentPad*%
%ADD15C,1.651000*%
%TD*%
%TA.AperFunction,ComponentPad*%
%ADD16C,1.752600*%
%TD*%
%TA.AperFunction,ComponentPad*%
%ADD17R,1.752600X1.752600*%
%TD*%
%TA.AperFunction,ComponentPad*%
%ADD18R,2.000000X2.000000*%
%TD*%
%TA.AperFunction,ComponentPad*%
%ADD19C,2.000000*%
%TD*%
%TA.AperFunction,ComponentPad*%
%ADD20R,2.000000X3.200000*%
%TD*%
%TA.AperFunction,ComponentPad*%
%ADD21C,2.100000*%
%TD*%
%TA.AperFunction,ComponentPad*%
%ADD22C,1.750000*%
%TD*%
%TA.AperFunction,ComponentPad*%
%ADD23O,1.600000X2.200000*%
%TD*%
%TA.AperFunction,SMDPad,CuDef*%
%ADD24R,0.899160X1.501140*%
%TD*%
%TA.AperFunction,ComponentPad*%
%ADD25C,1.300000*%
%TD*%
%TA.AperFunction,ComponentPad*%
%ADD26C,1.000000*%
%TD*%
%TA.AperFunction,ViaPad*%
%ADD27C,0.800000*%
%TD*%
%TA.AperFunction,Conductor*%
%ADD28C,0.381000*%
%TD*%
%TA.AperFunction,Conductor*%
%ADD29C,0.250000*%
%TD*%
G04 APERTURE END LIST*
D10*
%TO.P,SW15,*%
%TO.N,*%
X152159970Y-109820710D03*
X164859970Y-109820710D03*
%TA.AperFunction,SMDPad,CuDef*%
D11*
%TO.P,SW15,1*%
%TO.N,Col4*%
G36*
X154019725Y-107281671D02*
G01*
X154029104Y-107284516D01*
X154037749Y-107289137D01*
X154045325Y-107295355D01*
X154051543Y-107302931D01*
X154056164Y-107311576D01*
X154059009Y-107320955D01*
X154059970Y-107330710D01*
X154059970Y-109330710D01*
X154059009Y-109340465D01*
X154056164Y-109349844D01*
X154051543Y-109358489D01*
X154045325Y-109366065D01*
X154037705Y-109372313D01*
X153437705Y-109772313D01*
X153429056Y-109776924D01*
X153419673Y-109779759D01*
X153409970Y-109780710D01*
X151609970Y-109780710D01*
X151600215Y-109779749D01*
X151590836Y-109776904D01*
X151582191Y-109772283D01*
X151574615Y-109766065D01*
X151568397Y-109758489D01*
X151563776Y-109749844D01*
X151560931Y-109740465D01*
X151559970Y-109730710D01*
X151559970Y-109280710D01*
X150959970Y-109280710D01*
X150959970Y-107780710D01*
X151559970Y-107780710D01*
X151559970Y-107330710D01*
X151560931Y-107320955D01*
X151563776Y-107311576D01*
X151568397Y-107302931D01*
X151574615Y-107295355D01*
X151582191Y-107289137D01*
X151590836Y-107284516D01*
X151600215Y-107281671D01*
X151609970Y-107280710D01*
X154009970Y-107280710D01*
X154019725Y-107281671D01*
G37*
%TD.AperFunction*%
%TA.AperFunction,SMDPad,CuDef*%
%TO.P,SW15,2*%
%TO.N,Net-(D15-Pad1)*%
G36*
X166619725Y-109881671D02*
G01*
X166629104Y-109884516D01*
X166637749Y-109889137D01*
X166645325Y-109895355D01*
X166651543Y-109902931D01*
X166656164Y-109911576D01*
X166659009Y-109920955D01*
X166659970Y-109930710D01*
X166659970Y-110380710D01*
X167359970Y-110380710D01*
X167359970Y-111880710D01*
X166659970Y-111880710D01*
X166659970Y-112330710D01*
X166659009Y-112340465D01*
X166656164Y-112349844D01*
X166651543Y-112358489D01*
X166645325Y-112366065D01*
X166637749Y-112372283D01*
X166629104Y-112376904D01*
X166619725Y-112379749D01*
X166609970Y-112380710D01*
X164209970Y-112380710D01*
X164200215Y-112379749D01*
X164190836Y-112376904D01*
X164182191Y-112372283D01*
X164174615Y-112366065D01*
X164168397Y-112358489D01*
X164163776Y-112349844D01*
X164160931Y-112340465D01*
X164159970Y-112330710D01*
X164159970Y-109930710D01*
X164160931Y-109920955D01*
X164163776Y-109911576D01*
X164168397Y-109902931D01*
X164174615Y-109895355D01*
X164182191Y-109889137D01*
X164190836Y-109884516D01*
X164200215Y-109881671D01*
X164209970Y-109880710D01*
X166609970Y-109880710D01*
X166619725Y-109881671D01*
G37*
%TD.AperFunction*%
D12*
%TO.P,SW15,1*%
%TO.N,Col4*%
X166609970Y-117330710D03*
D13*
%TO.P,SW15,2*%
%TO.N,Net-(D15-Pad1)*%
X155709970Y-119530710D03*
%TD*%
D10*
%TO.P,SW9,*%
%TO.N,*%
X133109970Y-90770710D03*
X145809970Y-90770710D03*
%TA.AperFunction,SMDPad,CuDef*%
D11*
%TO.P,SW9,1*%
%TO.N,Col3*%
G36*
X134969725Y-88231671D02*
G01*
X134979104Y-88234516D01*
X134987749Y-88239137D01*
X134995325Y-88245355D01*
X135001543Y-88252931D01*
X135006164Y-88261576D01*
X135009009Y-88270955D01*
X135009970Y-88280710D01*
X135009970Y-90280710D01*
X135009009Y-90290465D01*
X135006164Y-90299844D01*
X135001543Y-90308489D01*
X134995325Y-90316065D01*
X134987705Y-90322313D01*
X134387705Y-90722313D01*
X134379056Y-90726924D01*
X134369673Y-90729759D01*
X134359970Y-90730710D01*
X132559970Y-90730710D01*
X132550215Y-90729749D01*
X132540836Y-90726904D01*
X132532191Y-90722283D01*
X132524615Y-90716065D01*
X132518397Y-90708489D01*
X132513776Y-90699844D01*
X132510931Y-90690465D01*
X132509970Y-90680710D01*
X132509970Y-90230710D01*
X131909970Y-90230710D01*
X131909970Y-88730710D01*
X132509970Y-88730710D01*
X132509970Y-88280710D01*
X132510931Y-88270955D01*
X132513776Y-88261576D01*
X132518397Y-88252931D01*
X132524615Y-88245355D01*
X132532191Y-88239137D01*
X132540836Y-88234516D01*
X132550215Y-88231671D01*
X132559970Y-88230710D01*
X134959970Y-88230710D01*
X134969725Y-88231671D01*
G37*
%TD.AperFunction*%
%TA.AperFunction,SMDPad,CuDef*%
%TO.P,SW9,2*%
%TO.N,Net-(D9-Pad1)*%
G36*
X147569725Y-90831671D02*
G01*
X147579104Y-90834516D01*
X147587749Y-90839137D01*
X147595325Y-90845355D01*
X147601543Y-90852931D01*
X147606164Y-90861576D01*
X147609009Y-90870955D01*
X147609970Y-90880710D01*
X147609970Y-91330710D01*
X148309970Y-91330710D01*
X148309970Y-92830710D01*
X147609970Y-92830710D01*
X147609970Y-93280710D01*
X147609009Y-93290465D01*
X147606164Y-93299844D01*
X147601543Y-93308489D01*
X147595325Y-93316065D01*
X147587749Y-93322283D01*
X147579104Y-93326904D01*
X147569725Y-93329749D01*
X147559970Y-93330710D01*
X145159970Y-93330710D01*
X145150215Y-93329749D01*
X145140836Y-93326904D01*
X145132191Y-93322283D01*
X145124615Y-93316065D01*
X145118397Y-93308489D01*
X145113776Y-93299844D01*
X145110931Y-93290465D01*
X145109970Y-93280710D01*
X145109970Y-90880710D01*
X145110931Y-90870955D01*
X145113776Y-90861576D01*
X145118397Y-90852931D01*
X145124615Y-90845355D01*
X145132191Y-90839137D01*
X145140836Y-90834516D01*
X145150215Y-90831671D01*
X145159970Y-90830710D01*
X147559970Y-90830710D01*
X147569725Y-90831671D01*
G37*
%TD.AperFunction*%
D12*
%TO.P,SW9,1*%
%TO.N,Col3*%
X147559970Y-98280710D03*
D13*
%TO.P,SW9,2*%
%TO.N,Net-(D9-Pad1)*%
X136659970Y-100480710D03*
%TD*%
D10*
%TO.P,SW17,*%
%TO.N,*%
X123584970Y-128870710D03*
X136284970Y-128870710D03*
%TA.AperFunction,SMDPad,CuDef*%
D11*
%TO.P,SW17,1*%
%TO.N,Col2*%
G36*
X125444725Y-126331671D02*
G01*
X125454104Y-126334516D01*
X125462749Y-126339137D01*
X125470325Y-126345355D01*
X125476543Y-126352931D01*
X125481164Y-126361576D01*
X125484009Y-126370955D01*
X125484970Y-126380710D01*
X125484970Y-128380710D01*
X125484009Y-128390465D01*
X125481164Y-128399844D01*
X125476543Y-128408489D01*
X125470325Y-128416065D01*
X125462705Y-128422313D01*
X124862705Y-128822313D01*
X124854056Y-128826924D01*
X124844673Y-128829759D01*
X124834970Y-128830710D01*
X123034970Y-128830710D01*
X123025215Y-128829749D01*
X123015836Y-128826904D01*
X123007191Y-128822283D01*
X122999615Y-128816065D01*
X122993397Y-128808489D01*
X122988776Y-128799844D01*
X122985931Y-128790465D01*
X122984970Y-128780710D01*
X122984970Y-128330710D01*
X122384970Y-128330710D01*
X122384970Y-126830710D01*
X122984970Y-126830710D01*
X122984970Y-126380710D01*
X122985931Y-126370955D01*
X122988776Y-126361576D01*
X122993397Y-126352931D01*
X122999615Y-126345355D01*
X123007191Y-126339137D01*
X123015836Y-126334516D01*
X123025215Y-126331671D01*
X123034970Y-126330710D01*
X125434970Y-126330710D01*
X125444725Y-126331671D01*
G37*
%TD.AperFunction*%
%TA.AperFunction,SMDPad,CuDef*%
%TO.P,SW17,2*%
%TO.N,Net-(D17-Pad1)*%
G36*
X138044725Y-128931671D02*
G01*
X138054104Y-128934516D01*
X138062749Y-128939137D01*
X138070325Y-128945355D01*
X138076543Y-128952931D01*
X138081164Y-128961576D01*
X138084009Y-128970955D01*
X138084970Y-128980710D01*
X138084970Y-129430710D01*
X138784970Y-129430710D01*
X138784970Y-130930710D01*
X138084970Y-130930710D01*
X138084970Y-131380710D01*
X138084009Y-131390465D01*
X138081164Y-131399844D01*
X138076543Y-131408489D01*
X138070325Y-131416065D01*
X138062749Y-131422283D01*
X138054104Y-131426904D01*
X138044725Y-131429749D01*
X138034970Y-131430710D01*
X135634970Y-131430710D01*
X135625215Y-131429749D01*
X135615836Y-131426904D01*
X135607191Y-131422283D01*
X135599615Y-131416065D01*
X135593397Y-131408489D01*
X135588776Y-131399844D01*
X135585931Y-131390465D01*
X135584970Y-131380710D01*
X135584970Y-128980710D01*
X135585931Y-128970955D01*
X135588776Y-128961576D01*
X135593397Y-128952931D01*
X135599615Y-128945355D01*
X135607191Y-128939137D01*
X135615836Y-128934516D01*
X135625215Y-128931671D01*
X135634970Y-128930710D01*
X138034970Y-128930710D01*
X138044725Y-128931671D01*
G37*
%TD.AperFunction*%
D12*
%TO.P,SW17,1*%
%TO.N,Col2*%
X138034970Y-136380710D03*
D13*
%TO.P,SW17,2*%
%TO.N,Net-(D17-Pad1)*%
X127134970Y-138580710D03*
%TD*%
D10*
%TO.P,SW8,*%
%TO.N,*%
X114059970Y-81245710D03*
X126759970Y-81245710D03*
%TA.AperFunction,SMDPad,CuDef*%
D11*
%TO.P,SW8,1*%
%TO.N,Col2*%
G36*
X115919725Y-78706671D02*
G01*
X115929104Y-78709516D01*
X115937749Y-78714137D01*
X115945325Y-78720355D01*
X115951543Y-78727931D01*
X115956164Y-78736576D01*
X115959009Y-78745955D01*
X115959970Y-78755710D01*
X115959970Y-80755710D01*
X115959009Y-80765465D01*
X115956164Y-80774844D01*
X115951543Y-80783489D01*
X115945325Y-80791065D01*
X115937705Y-80797313D01*
X115337705Y-81197313D01*
X115329056Y-81201924D01*
X115319673Y-81204759D01*
X115309970Y-81205710D01*
X113509970Y-81205710D01*
X113500215Y-81204749D01*
X113490836Y-81201904D01*
X113482191Y-81197283D01*
X113474615Y-81191065D01*
X113468397Y-81183489D01*
X113463776Y-81174844D01*
X113460931Y-81165465D01*
X113459970Y-81155710D01*
X113459970Y-80705710D01*
X112859970Y-80705710D01*
X112859970Y-79205710D01*
X113459970Y-79205710D01*
X113459970Y-78755710D01*
X113460931Y-78745955D01*
X113463776Y-78736576D01*
X113468397Y-78727931D01*
X113474615Y-78720355D01*
X113482191Y-78714137D01*
X113490836Y-78709516D01*
X113500215Y-78706671D01*
X113509970Y-78705710D01*
X115909970Y-78705710D01*
X115919725Y-78706671D01*
G37*
%TD.AperFunction*%
%TA.AperFunction,SMDPad,CuDef*%
%TO.P,SW8,2*%
%TO.N,Net-(D8-Pad1)*%
G36*
X128519725Y-81306671D02*
G01*
X128529104Y-81309516D01*
X128537749Y-81314137D01*
X128545325Y-81320355D01*
X128551543Y-81327931D01*
X128556164Y-81336576D01*
X128559009Y-81345955D01*
X128559970Y-81355710D01*
X128559970Y-81805710D01*
X129259970Y-81805710D01*
X129259970Y-83305710D01*
X128559970Y-83305710D01*
X128559970Y-83755710D01*
X128559009Y-83765465D01*
X128556164Y-83774844D01*
X128551543Y-83783489D01*
X128545325Y-83791065D01*
X128537749Y-83797283D01*
X128529104Y-83801904D01*
X128519725Y-83804749D01*
X128509970Y-83805710D01*
X126109970Y-83805710D01*
X126100215Y-83804749D01*
X126090836Y-83801904D01*
X126082191Y-83797283D01*
X126074615Y-83791065D01*
X126068397Y-83783489D01*
X126063776Y-83774844D01*
X126060931Y-83765465D01*
X126059970Y-83755710D01*
X126059970Y-81355710D01*
X126060931Y-81345955D01*
X126063776Y-81336576D01*
X126068397Y-81327931D01*
X126074615Y-81320355D01*
X126082191Y-81314137D01*
X126090836Y-81309516D01*
X126100215Y-81306671D01*
X126109970Y-81305710D01*
X128509970Y-81305710D01*
X128519725Y-81306671D01*
G37*
%TD.AperFunction*%
D12*
%TO.P,SW8,1*%
%TO.N,Col2*%
X128509970Y-88755710D03*
D13*
%TO.P,SW8,2*%
%TO.N,Net-(D8-Pad1)*%
X117609970Y-90955710D03*
%TD*%
D10*
%TO.P,SW4,*%
%TO.N,*%
X133109970Y-71720710D03*
X145809970Y-71720710D03*
%TA.AperFunction,SMDPad,CuDef*%
D11*
%TO.P,SW4,1*%
%TO.N,Col3*%
G36*
X134969725Y-69181671D02*
G01*
X134979104Y-69184516D01*
X134987749Y-69189137D01*
X134995325Y-69195355D01*
X135001543Y-69202931D01*
X135006164Y-69211576D01*
X135009009Y-69220955D01*
X135009970Y-69230710D01*
X135009970Y-71230710D01*
X135009009Y-71240465D01*
X135006164Y-71249844D01*
X135001543Y-71258489D01*
X134995325Y-71266065D01*
X134987705Y-71272313D01*
X134387705Y-71672313D01*
X134379056Y-71676924D01*
X134369673Y-71679759D01*
X134359970Y-71680710D01*
X132559970Y-71680710D01*
X132550215Y-71679749D01*
X132540836Y-71676904D01*
X132532191Y-71672283D01*
X132524615Y-71666065D01*
X132518397Y-71658489D01*
X132513776Y-71649844D01*
X132510931Y-71640465D01*
X132509970Y-71630710D01*
X132509970Y-71180710D01*
X131909970Y-71180710D01*
X131909970Y-69680710D01*
X132509970Y-69680710D01*
X132509970Y-69230710D01*
X132510931Y-69220955D01*
X132513776Y-69211576D01*
X132518397Y-69202931D01*
X132524615Y-69195355D01*
X132532191Y-69189137D01*
X132540836Y-69184516D01*
X132550215Y-69181671D01*
X132559970Y-69180710D01*
X134959970Y-69180710D01*
X134969725Y-69181671D01*
G37*
%TD.AperFunction*%
%TA.AperFunction,SMDPad,CuDef*%
%TO.P,SW4,2*%
%TO.N,Net-(D4-Pad1)*%
G36*
X147569725Y-71781671D02*
G01*
X147579104Y-71784516D01*
X147587749Y-71789137D01*
X147595325Y-71795355D01*
X147601543Y-71802931D01*
X147606164Y-71811576D01*
X147609009Y-71820955D01*
X147609970Y-71830710D01*
X147609970Y-72280710D01*
X148309970Y-72280710D01*
X148309970Y-73780710D01*
X147609970Y-73780710D01*
X147609970Y-74230710D01*
X147609009Y-74240465D01*
X147606164Y-74249844D01*
X147601543Y-74258489D01*
X147595325Y-74266065D01*
X147587749Y-74272283D01*
X147579104Y-74276904D01*
X147569725Y-74279749D01*
X147559970Y-74280710D01*
X145159970Y-74280710D01*
X145150215Y-74279749D01*
X145140836Y-74276904D01*
X145132191Y-74272283D01*
X145124615Y-74266065D01*
X145118397Y-74258489D01*
X145113776Y-74249844D01*
X145110931Y-74240465D01*
X145109970Y-74230710D01*
X145109970Y-71830710D01*
X145110931Y-71820955D01*
X145113776Y-71811576D01*
X145118397Y-71802931D01*
X145124615Y-71795355D01*
X145132191Y-71789137D01*
X145140836Y-71784516D01*
X145150215Y-71781671D01*
X145159970Y-71780710D01*
X147559970Y-71780710D01*
X147569725Y-71781671D01*
G37*
%TD.AperFunction*%
D12*
%TO.P,SW4,1*%
%TO.N,Col3*%
X147559970Y-79230710D03*
D13*
%TO.P,SW4,2*%
%TO.N,Net-(D4-Pad1)*%
X136659970Y-81430710D03*
%TD*%
D10*
%TO.P,SW18,*%
%TO.N,*%
X142634970Y-128870710D03*
X155334970Y-128870710D03*
%TA.AperFunction,SMDPad,CuDef*%
D11*
%TO.P,SW18,1*%
%TO.N,Col3*%
G36*
X144494725Y-126331671D02*
G01*
X144504104Y-126334516D01*
X144512749Y-126339137D01*
X144520325Y-126345355D01*
X144526543Y-126352931D01*
X144531164Y-126361576D01*
X144534009Y-126370955D01*
X144534970Y-126380710D01*
X144534970Y-128380710D01*
X144534009Y-128390465D01*
X144531164Y-128399844D01*
X144526543Y-128408489D01*
X144520325Y-128416065D01*
X144512705Y-128422313D01*
X143912705Y-128822313D01*
X143904056Y-128826924D01*
X143894673Y-128829759D01*
X143884970Y-128830710D01*
X142084970Y-128830710D01*
X142075215Y-128829749D01*
X142065836Y-128826904D01*
X142057191Y-128822283D01*
X142049615Y-128816065D01*
X142043397Y-128808489D01*
X142038776Y-128799844D01*
X142035931Y-128790465D01*
X142034970Y-128780710D01*
X142034970Y-128330710D01*
X141434970Y-128330710D01*
X141434970Y-126830710D01*
X142034970Y-126830710D01*
X142034970Y-126380710D01*
X142035931Y-126370955D01*
X142038776Y-126361576D01*
X142043397Y-126352931D01*
X142049615Y-126345355D01*
X142057191Y-126339137D01*
X142065836Y-126334516D01*
X142075215Y-126331671D01*
X142084970Y-126330710D01*
X144484970Y-126330710D01*
X144494725Y-126331671D01*
G37*
%TD.AperFunction*%
%TA.AperFunction,SMDPad,CuDef*%
%TO.P,SW18,2*%
%TO.N,Net-(D18-Pad1)*%
G36*
X157094725Y-128931671D02*
G01*
X157104104Y-128934516D01*
X157112749Y-128939137D01*
X157120325Y-128945355D01*
X157126543Y-128952931D01*
X157131164Y-128961576D01*
X157134009Y-128970955D01*
X157134970Y-128980710D01*
X157134970Y-129430710D01*
X157834970Y-129430710D01*
X157834970Y-130930710D01*
X157134970Y-130930710D01*
X157134970Y-131380710D01*
X157134009Y-131390465D01*
X157131164Y-131399844D01*
X157126543Y-131408489D01*
X157120325Y-131416065D01*
X157112749Y-131422283D01*
X157104104Y-131426904D01*
X157094725Y-131429749D01*
X157084970Y-131430710D01*
X154684970Y-131430710D01*
X154675215Y-131429749D01*
X154665836Y-131426904D01*
X154657191Y-131422283D01*
X154649615Y-131416065D01*
X154643397Y-131408489D01*
X154638776Y-131399844D01*
X154635931Y-131390465D01*
X154634970Y-131380710D01*
X154634970Y-128980710D01*
X154635931Y-128970955D01*
X154638776Y-128961576D01*
X154643397Y-128952931D01*
X154649615Y-128945355D01*
X154657191Y-128939137D01*
X154665836Y-128934516D01*
X154675215Y-128931671D01*
X154684970Y-128930710D01*
X157084970Y-128930710D01*
X157094725Y-128931671D01*
G37*
%TD.AperFunction*%
D12*
%TO.P,SW18,1*%
%TO.N,Col3*%
X157084970Y-136380710D03*
D13*
%TO.P,SW18,2*%
%TO.N,Net-(D18-Pad1)*%
X146184970Y-138580710D03*
%TD*%
D10*
%TO.P,SW5,*%
%TO.N,*%
X152159970Y-71720710D03*
X164859970Y-71720710D03*
%TA.AperFunction,SMDPad,CuDef*%
D11*
%TO.P,SW5,1*%
%TO.N,Col4*%
G36*
X154019725Y-69181671D02*
G01*
X154029104Y-69184516D01*
X154037749Y-69189137D01*
X154045325Y-69195355D01*
X154051543Y-69202931D01*
X154056164Y-69211576D01*
X154059009Y-69220955D01*
X154059970Y-69230710D01*
X154059970Y-71230710D01*
X154059009Y-71240465D01*
X154056164Y-71249844D01*
X154051543Y-71258489D01*
X154045325Y-71266065D01*
X154037705Y-71272313D01*
X153437705Y-71672313D01*
X153429056Y-71676924D01*
X153419673Y-71679759D01*
X153409970Y-71680710D01*
X151609970Y-71680710D01*
X151600215Y-71679749D01*
X151590836Y-71676904D01*
X151582191Y-71672283D01*
X151574615Y-71666065D01*
X151568397Y-71658489D01*
X151563776Y-71649844D01*
X151560931Y-71640465D01*
X151559970Y-71630710D01*
X151559970Y-71180710D01*
X150959970Y-71180710D01*
X150959970Y-69680710D01*
X151559970Y-69680710D01*
X151559970Y-69230710D01*
X151560931Y-69220955D01*
X151563776Y-69211576D01*
X151568397Y-69202931D01*
X151574615Y-69195355D01*
X151582191Y-69189137D01*
X151590836Y-69184516D01*
X151600215Y-69181671D01*
X151609970Y-69180710D01*
X154009970Y-69180710D01*
X154019725Y-69181671D01*
G37*
%TD.AperFunction*%
%TA.AperFunction,SMDPad,CuDef*%
%TO.P,SW5,2*%
%TO.N,Net-(D5-Pad1)*%
G36*
X166619725Y-71781671D02*
G01*
X166629104Y-71784516D01*
X166637749Y-71789137D01*
X166645325Y-71795355D01*
X166651543Y-71802931D01*
X166656164Y-71811576D01*
X166659009Y-71820955D01*
X166659970Y-71830710D01*
X166659970Y-72280710D01*
X167359970Y-72280710D01*
X167359970Y-73780710D01*
X166659970Y-73780710D01*
X166659970Y-74230710D01*
X166659009Y-74240465D01*
X166656164Y-74249844D01*
X166651543Y-74258489D01*
X166645325Y-74266065D01*
X166637749Y-74272283D01*
X166629104Y-74276904D01*
X166619725Y-74279749D01*
X166609970Y-74280710D01*
X164209970Y-74280710D01*
X164200215Y-74279749D01*
X164190836Y-74276904D01*
X164182191Y-74272283D01*
X164174615Y-74266065D01*
X164168397Y-74258489D01*
X164163776Y-74249844D01*
X164160931Y-74240465D01*
X164159970Y-74230710D01*
X164159970Y-71830710D01*
X164160931Y-71820955D01*
X164163776Y-71811576D01*
X164168397Y-71802931D01*
X164174615Y-71795355D01*
X164182191Y-71789137D01*
X164190836Y-71784516D01*
X164200215Y-71781671D01*
X164209970Y-71780710D01*
X166609970Y-71780710D01*
X166619725Y-71781671D01*
G37*
%TD.AperFunction*%
D12*
%TO.P,SW5,1*%
%TO.N,Col4*%
X166609970Y-79230710D03*
D13*
%TO.P,SW5,2*%
%TO.N,Net-(D5-Pad1)*%
X155709970Y-81430710D03*
%TD*%
D10*
%TO.P,SW12,*%
%TO.N,*%
X95009970Y-105058210D03*
X107709970Y-105058210D03*
%TA.AperFunction,SMDPad,CuDef*%
D11*
%TO.P,SW12,1*%
%TO.N,Col1*%
G36*
X96869725Y-102519171D02*
G01*
X96879104Y-102522016D01*
X96887749Y-102526637D01*
X96895325Y-102532855D01*
X96901543Y-102540431D01*
X96906164Y-102549076D01*
X96909009Y-102558455D01*
X96909970Y-102568210D01*
X96909970Y-104568210D01*
X96909009Y-104577965D01*
X96906164Y-104587344D01*
X96901543Y-104595989D01*
X96895325Y-104603565D01*
X96887705Y-104609813D01*
X96287705Y-105009813D01*
X96279056Y-105014424D01*
X96269673Y-105017259D01*
X96259970Y-105018210D01*
X94459970Y-105018210D01*
X94450215Y-105017249D01*
X94440836Y-105014404D01*
X94432191Y-105009783D01*
X94424615Y-105003565D01*
X94418397Y-104995989D01*
X94413776Y-104987344D01*
X94410931Y-104977965D01*
X94409970Y-104968210D01*
X94409970Y-104518210D01*
X93809970Y-104518210D01*
X93809970Y-103018210D01*
X94409970Y-103018210D01*
X94409970Y-102568210D01*
X94410931Y-102558455D01*
X94413776Y-102549076D01*
X94418397Y-102540431D01*
X94424615Y-102532855D01*
X94432191Y-102526637D01*
X94440836Y-102522016D01*
X94450215Y-102519171D01*
X94459970Y-102518210D01*
X96859970Y-102518210D01*
X96869725Y-102519171D01*
G37*
%TD.AperFunction*%
%TA.AperFunction,SMDPad,CuDef*%
%TO.P,SW12,2*%
%TO.N,Net-(D12-Pad1)*%
G36*
X109469725Y-105119171D02*
G01*
X109479104Y-105122016D01*
X109487749Y-105126637D01*
X109495325Y-105132855D01*
X109501543Y-105140431D01*
X109506164Y-105149076D01*
X109509009Y-105158455D01*
X109509970Y-105168210D01*
X109509970Y-105618210D01*
X110209970Y-105618210D01*
X110209970Y-107118210D01*
X109509970Y-107118210D01*
X109509970Y-107568210D01*
X109509009Y-107577965D01*
X109506164Y-107587344D01*
X109501543Y-107595989D01*
X109495325Y-107603565D01*
X109487749Y-107609783D01*
X109479104Y-107614404D01*
X109469725Y-107617249D01*
X109459970Y-107618210D01*
X107059970Y-107618210D01*
X107050215Y-107617249D01*
X107040836Y-107614404D01*
X107032191Y-107609783D01*
X107024615Y-107603565D01*
X107018397Y-107595989D01*
X107013776Y-107587344D01*
X107010931Y-107577965D01*
X107009970Y-107568210D01*
X107009970Y-105168210D01*
X107010931Y-105158455D01*
X107013776Y-105149076D01*
X107018397Y-105140431D01*
X107024615Y-105132855D01*
X107032191Y-105126637D01*
X107040836Y-105122016D01*
X107050215Y-105119171D01*
X107059970Y-105118210D01*
X109459970Y-105118210D01*
X109469725Y-105119171D01*
G37*
%TD.AperFunction*%
D12*
%TO.P,SW12,1*%
%TO.N,Col1*%
X109459970Y-112568210D03*
D13*
%TO.P,SW12,2*%
%TO.N,Net-(D12-Pad1)*%
X98559970Y-114768210D03*
%TD*%
D10*
%TO.P,SW14,*%
%TO.N,*%
X133109970Y-109820710D03*
X145809970Y-109820710D03*
%TA.AperFunction,SMDPad,CuDef*%
D11*
%TO.P,SW14,1*%
%TO.N,Col3*%
G36*
X134969725Y-107281671D02*
G01*
X134979104Y-107284516D01*
X134987749Y-107289137D01*
X134995325Y-107295355D01*
X135001543Y-107302931D01*
X135006164Y-107311576D01*
X135009009Y-107320955D01*
X135009970Y-107330710D01*
X135009970Y-109330710D01*
X135009009Y-109340465D01*
X135006164Y-109349844D01*
X135001543Y-109358489D01*
X134995325Y-109366065D01*
X134987705Y-109372313D01*
X134387705Y-109772313D01*
X134379056Y-109776924D01*
X134369673Y-109779759D01*
X134359970Y-109780710D01*
X132559970Y-109780710D01*
X132550215Y-109779749D01*
X132540836Y-109776904D01*
X132532191Y-109772283D01*
X132524615Y-109766065D01*
X132518397Y-109758489D01*
X132513776Y-109749844D01*
X132510931Y-109740465D01*
X132509970Y-109730710D01*
X132509970Y-109280710D01*
X131909970Y-109280710D01*
X131909970Y-107780710D01*
X132509970Y-107780710D01*
X132509970Y-107330710D01*
X132510931Y-107320955D01*
X132513776Y-107311576D01*
X132518397Y-107302931D01*
X132524615Y-107295355D01*
X132532191Y-107289137D01*
X132540836Y-107284516D01*
X132550215Y-107281671D01*
X132559970Y-107280710D01*
X134959970Y-107280710D01*
X134969725Y-107281671D01*
G37*
%TD.AperFunction*%
%TA.AperFunction,SMDPad,CuDef*%
%TO.P,SW14,2*%
%TO.N,Net-(D14-Pad1)*%
G36*
X147569725Y-109881671D02*
G01*
X147579104Y-109884516D01*
X147587749Y-109889137D01*
X147595325Y-109895355D01*
X147601543Y-109902931D01*
X147606164Y-109911576D01*
X147609009Y-109920955D01*
X147609970Y-109930710D01*
X147609970Y-110380710D01*
X148309970Y-110380710D01*
X148309970Y-111880710D01*
X147609970Y-111880710D01*
X147609970Y-112330710D01*
X147609009Y-112340465D01*
X147606164Y-112349844D01*
X147601543Y-112358489D01*
X147595325Y-112366065D01*
X147587749Y-112372283D01*
X147579104Y-112376904D01*
X147569725Y-112379749D01*
X147559970Y-112380710D01*
X145159970Y-112380710D01*
X145150215Y-112379749D01*
X145140836Y-112376904D01*
X145132191Y-112372283D01*
X145124615Y-112366065D01*
X145118397Y-112358489D01*
X145113776Y-112349844D01*
X145110931Y-112340465D01*
X145109970Y-112330710D01*
X145109970Y-109930710D01*
X145110931Y-109920955D01*
X145113776Y-109911576D01*
X145118397Y-109902931D01*
X145124615Y-109895355D01*
X145132191Y-109889137D01*
X145140836Y-109884516D01*
X145150215Y-109881671D01*
X145159970Y-109880710D01*
X147559970Y-109880710D01*
X147569725Y-109881671D01*
G37*
%TD.AperFunction*%
D12*
%TO.P,SW14,1*%
%TO.N,Col3*%
X147559970Y-117330710D03*
D13*
%TO.P,SW14,2*%
%TO.N,Net-(D14-Pad1)*%
X136659970Y-119530710D03*
%TD*%
D10*
%TO.P,SW6,*%
%TO.N,*%
X75959970Y-105058210D03*
X88659970Y-105058210D03*
%TA.AperFunction,SMDPad,CuDef*%
D11*
%TO.P,SW6,1*%
%TO.N,Col0*%
G36*
X77819725Y-102519171D02*
G01*
X77829104Y-102522016D01*
X77837749Y-102526637D01*
X77845325Y-102532855D01*
X77851543Y-102540431D01*
X77856164Y-102549076D01*
X77859009Y-102558455D01*
X77859970Y-102568210D01*
X77859970Y-104568210D01*
X77859009Y-104577965D01*
X77856164Y-104587344D01*
X77851543Y-104595989D01*
X77845325Y-104603565D01*
X77837705Y-104609813D01*
X77237705Y-105009813D01*
X77229056Y-105014424D01*
X77219673Y-105017259D01*
X77209970Y-105018210D01*
X75409970Y-105018210D01*
X75400215Y-105017249D01*
X75390836Y-105014404D01*
X75382191Y-105009783D01*
X75374615Y-105003565D01*
X75368397Y-104995989D01*
X75363776Y-104987344D01*
X75360931Y-104977965D01*
X75359970Y-104968210D01*
X75359970Y-104518210D01*
X74759970Y-104518210D01*
X74759970Y-103018210D01*
X75359970Y-103018210D01*
X75359970Y-102568210D01*
X75360931Y-102558455D01*
X75363776Y-102549076D01*
X75368397Y-102540431D01*
X75374615Y-102532855D01*
X75382191Y-102526637D01*
X75390836Y-102522016D01*
X75400215Y-102519171D01*
X75409970Y-102518210D01*
X77809970Y-102518210D01*
X77819725Y-102519171D01*
G37*
%TD.AperFunction*%
%TA.AperFunction,SMDPad,CuDef*%
%TO.P,SW6,2*%
%TO.N,Net-(D6-Pad1)*%
G36*
X90419725Y-105119171D02*
G01*
X90429104Y-105122016D01*
X90437749Y-105126637D01*
X90445325Y-105132855D01*
X90451543Y-105140431D01*
X90456164Y-105149076D01*
X90459009Y-105158455D01*
X90459970Y-105168210D01*
X90459970Y-105618210D01*
X91159970Y-105618210D01*
X91159970Y-107118210D01*
X90459970Y-107118210D01*
X90459970Y-107568210D01*
X90459009Y-107577965D01*
X90456164Y-107587344D01*
X90451543Y-107595989D01*
X90445325Y-107603565D01*
X90437749Y-107609783D01*
X90429104Y-107614404D01*
X90419725Y-107617249D01*
X90409970Y-107618210D01*
X88009970Y-107618210D01*
X88000215Y-107617249D01*
X87990836Y-107614404D01*
X87982191Y-107609783D01*
X87974615Y-107603565D01*
X87968397Y-107595989D01*
X87963776Y-107587344D01*
X87960931Y-107577965D01*
X87959970Y-107568210D01*
X87959970Y-105168210D01*
X87960931Y-105158455D01*
X87963776Y-105149076D01*
X87968397Y-105140431D01*
X87974615Y-105132855D01*
X87982191Y-105126637D01*
X87990836Y-105122016D01*
X88000215Y-105119171D01*
X88009970Y-105118210D01*
X90409970Y-105118210D01*
X90419725Y-105119171D01*
G37*
%TD.AperFunction*%
D12*
%TO.P,SW6,1*%
%TO.N,Col0*%
X90409970Y-112568210D03*
D13*
%TO.P,SW6,2*%
%TO.N,Net-(D6-Pad1)*%
X79509970Y-114768210D03*
%TD*%
D10*
%TO.P,SW13,*%
%TO.N,*%
X114059970Y-100295710D03*
X126759970Y-100295710D03*
%TA.AperFunction,SMDPad,CuDef*%
D11*
%TO.P,SW13,1*%
%TO.N,Col2*%
G36*
X115919725Y-97756671D02*
G01*
X115929104Y-97759516D01*
X115937749Y-97764137D01*
X115945325Y-97770355D01*
X115951543Y-97777931D01*
X115956164Y-97786576D01*
X115959009Y-97795955D01*
X115959970Y-97805710D01*
X115959970Y-99805710D01*
X115959009Y-99815465D01*
X115956164Y-99824844D01*
X115951543Y-99833489D01*
X115945325Y-99841065D01*
X115937705Y-99847313D01*
X115337705Y-100247313D01*
X115329056Y-100251924D01*
X115319673Y-100254759D01*
X115309970Y-100255710D01*
X113509970Y-100255710D01*
X113500215Y-100254749D01*
X113490836Y-100251904D01*
X113482191Y-100247283D01*
X113474615Y-100241065D01*
X113468397Y-100233489D01*
X113463776Y-100224844D01*
X113460931Y-100215465D01*
X113459970Y-100205710D01*
X113459970Y-99755710D01*
X112859970Y-99755710D01*
X112859970Y-98255710D01*
X113459970Y-98255710D01*
X113459970Y-97805710D01*
X113460931Y-97795955D01*
X113463776Y-97786576D01*
X113468397Y-97777931D01*
X113474615Y-97770355D01*
X113482191Y-97764137D01*
X113490836Y-97759516D01*
X113500215Y-97756671D01*
X113509970Y-97755710D01*
X115909970Y-97755710D01*
X115919725Y-97756671D01*
G37*
%TD.AperFunction*%
%TA.AperFunction,SMDPad,CuDef*%
%TO.P,SW13,2*%
%TO.N,Net-(D13-Pad1)*%
G36*
X128519725Y-100356671D02*
G01*
X128529104Y-100359516D01*
X128537749Y-100364137D01*
X128545325Y-100370355D01*
X128551543Y-100377931D01*
X128556164Y-100386576D01*
X128559009Y-100395955D01*
X128559970Y-100405710D01*
X128559970Y-100855710D01*
X129259970Y-100855710D01*
X129259970Y-102355710D01*
X128559970Y-102355710D01*
X128559970Y-102805710D01*
X128559009Y-102815465D01*
X128556164Y-102824844D01*
X128551543Y-102833489D01*
X128545325Y-102841065D01*
X128537749Y-102847283D01*
X128529104Y-102851904D01*
X128519725Y-102854749D01*
X128509970Y-102855710D01*
X126109970Y-102855710D01*
X126100215Y-102854749D01*
X126090836Y-102851904D01*
X126082191Y-102847283D01*
X126074615Y-102841065D01*
X126068397Y-102833489D01*
X126063776Y-102824844D01*
X126060931Y-102815465D01*
X126059970Y-102805710D01*
X126059970Y-100405710D01*
X126060931Y-100395955D01*
X126063776Y-100386576D01*
X126068397Y-100377931D01*
X126074615Y-100370355D01*
X126082191Y-100364137D01*
X126090836Y-100359516D01*
X126100215Y-100356671D01*
X126109970Y-100355710D01*
X128509970Y-100355710D01*
X128519725Y-100356671D01*
G37*
%TD.AperFunction*%
D12*
%TO.P,SW13,1*%
%TO.N,Col2*%
X128509970Y-107805710D03*
D13*
%TO.P,SW13,2*%
%TO.N,Net-(D13-Pad1)*%
X117609970Y-110005710D03*
%TD*%
D10*
%TO.P,SW11,*%
%TO.N,*%
X75959970Y-124108210D03*
X88659970Y-124108210D03*
%TA.AperFunction,SMDPad,CuDef*%
D11*
%TO.P,SW11,1*%
%TO.N,Col0*%
G36*
X77819725Y-121569171D02*
G01*
X77829104Y-121572016D01*
X77837749Y-121576637D01*
X77845325Y-121582855D01*
X77851543Y-121590431D01*
X77856164Y-121599076D01*
X77859009Y-121608455D01*
X77859970Y-121618210D01*
X77859970Y-123618210D01*
X77859009Y-123627965D01*
X77856164Y-123637344D01*
X77851543Y-123645989D01*
X77845325Y-123653565D01*
X77837705Y-123659813D01*
X77237705Y-124059813D01*
X77229056Y-124064424D01*
X77219673Y-124067259D01*
X77209970Y-124068210D01*
X75409970Y-124068210D01*
X75400215Y-124067249D01*
X75390836Y-124064404D01*
X75382191Y-124059783D01*
X75374615Y-124053565D01*
X75368397Y-124045989D01*
X75363776Y-124037344D01*
X75360931Y-124027965D01*
X75359970Y-124018210D01*
X75359970Y-123568210D01*
X74759970Y-123568210D01*
X74759970Y-122068210D01*
X75359970Y-122068210D01*
X75359970Y-121618210D01*
X75360931Y-121608455D01*
X75363776Y-121599076D01*
X75368397Y-121590431D01*
X75374615Y-121582855D01*
X75382191Y-121576637D01*
X75390836Y-121572016D01*
X75400215Y-121569171D01*
X75409970Y-121568210D01*
X77809970Y-121568210D01*
X77819725Y-121569171D01*
G37*
%TD.AperFunction*%
%TA.AperFunction,SMDPad,CuDef*%
%TO.P,SW11,2*%
%TO.N,Net-(D11-Pad1)*%
G36*
X90419725Y-124169171D02*
G01*
X90429104Y-124172016D01*
X90437749Y-124176637D01*
X90445325Y-124182855D01*
X90451543Y-124190431D01*
X90456164Y-124199076D01*
X90459009Y-124208455D01*
X90459970Y-124218210D01*
X90459970Y-124668210D01*
X91159970Y-124668210D01*
X91159970Y-126168210D01*
X90459970Y-126168210D01*
X90459970Y-126618210D01*
X90459009Y-126627965D01*
X90456164Y-126637344D01*
X90451543Y-126645989D01*
X90445325Y-126653565D01*
X90437749Y-126659783D01*
X90429104Y-126664404D01*
X90419725Y-126667249D01*
X90409970Y-126668210D01*
X88009970Y-126668210D01*
X88000215Y-126667249D01*
X87990836Y-126664404D01*
X87982191Y-126659783D01*
X87974615Y-126653565D01*
X87968397Y-126645989D01*
X87963776Y-126637344D01*
X87960931Y-126627965D01*
X87959970Y-126618210D01*
X87959970Y-124218210D01*
X87960931Y-124208455D01*
X87963776Y-124199076D01*
X87968397Y-124190431D01*
X87974615Y-124182855D01*
X87982191Y-124176637D01*
X87990836Y-124172016D01*
X88000215Y-124169171D01*
X88009970Y-124168210D01*
X90409970Y-124168210D01*
X90419725Y-124169171D01*
G37*
%TD.AperFunction*%
D12*
%TO.P,SW11,1*%
%TO.N,Col0*%
X90409970Y-131618210D03*
D13*
%TO.P,SW11,2*%
%TO.N,Net-(D11-Pad1)*%
X79509970Y-133818210D03*
%TD*%
D10*
%TO.P,SW2,*%
%TO.N,*%
X95009970Y-66958210D03*
X107709970Y-66958210D03*
%TA.AperFunction,SMDPad,CuDef*%
D11*
%TO.P,SW2,1*%
%TO.N,Col1*%
G36*
X96869725Y-64419171D02*
G01*
X96879104Y-64422016D01*
X96887749Y-64426637D01*
X96895325Y-64432855D01*
X96901543Y-64440431D01*
X96906164Y-64449076D01*
X96909009Y-64458455D01*
X96909970Y-64468210D01*
X96909970Y-66468210D01*
X96909009Y-66477965D01*
X96906164Y-66487344D01*
X96901543Y-66495989D01*
X96895325Y-66503565D01*
X96887705Y-66509813D01*
X96287705Y-66909813D01*
X96279056Y-66914424D01*
X96269673Y-66917259D01*
X96259970Y-66918210D01*
X94459970Y-66918210D01*
X94450215Y-66917249D01*
X94440836Y-66914404D01*
X94432191Y-66909783D01*
X94424615Y-66903565D01*
X94418397Y-66895989D01*
X94413776Y-66887344D01*
X94410931Y-66877965D01*
X94409970Y-66868210D01*
X94409970Y-66418210D01*
X93809970Y-66418210D01*
X93809970Y-64918210D01*
X94409970Y-64918210D01*
X94409970Y-64468210D01*
X94410931Y-64458455D01*
X94413776Y-64449076D01*
X94418397Y-64440431D01*
X94424615Y-64432855D01*
X94432191Y-64426637D01*
X94440836Y-64422016D01*
X94450215Y-64419171D01*
X94459970Y-64418210D01*
X96859970Y-64418210D01*
X96869725Y-64419171D01*
G37*
%TD.AperFunction*%
%TA.AperFunction,SMDPad,CuDef*%
%TO.P,SW2,2*%
%TO.N,Net-(D2-Pad1)*%
G36*
X109469725Y-67019171D02*
G01*
X109479104Y-67022016D01*
X109487749Y-67026637D01*
X109495325Y-67032855D01*
X109501543Y-67040431D01*
X109506164Y-67049076D01*
X109509009Y-67058455D01*
X109509970Y-67068210D01*
X109509970Y-67518210D01*
X110209970Y-67518210D01*
X110209970Y-69018210D01*
X109509970Y-69018210D01*
X109509970Y-69468210D01*
X109509009Y-69477965D01*
X109506164Y-69487344D01*
X109501543Y-69495989D01*
X109495325Y-69503565D01*
X109487749Y-69509783D01*
X109479104Y-69514404D01*
X109469725Y-69517249D01*
X109459970Y-69518210D01*
X107059970Y-69518210D01*
X107050215Y-69517249D01*
X107040836Y-69514404D01*
X107032191Y-69509783D01*
X107024615Y-69503565D01*
X107018397Y-69495989D01*
X107013776Y-69487344D01*
X107010931Y-69477965D01*
X107009970Y-69468210D01*
X107009970Y-67068210D01*
X107010931Y-67058455D01*
X107013776Y-67049076D01*
X107018397Y-67040431D01*
X107024615Y-67032855D01*
X107032191Y-67026637D01*
X107040836Y-67022016D01*
X107050215Y-67019171D01*
X107059970Y-67018210D01*
X109459970Y-67018210D01*
X109469725Y-67019171D01*
G37*
%TD.AperFunction*%
D12*
%TO.P,SW2,1*%
%TO.N,Col1*%
X109459970Y-74468210D03*
D13*
%TO.P,SW2,2*%
%TO.N,Net-(D2-Pad1)*%
X98559970Y-76668210D03*
%TD*%
D14*
%TO.P,D18,2*%
%TO.N,Row3*%
X158509970Y-139824460D03*
D15*
%TO.P,D18,1*%
%TO.N,Net-(D18-Pad1)*%
X158509970Y-132204460D03*
%TD*%
D16*
%TO.P,U1,30*%
%TO.N,Net-(C1-Pad2)*%
X89136220Y-47114460D03*
%TO.P,U1,31*%
%TO.N,Net-(C1-Pad1)*%
X73896220Y-47114460D03*
%TO.P,U1,25*%
%TO.N,N/C*%
X76436220Y-77594460D03*
%TO.P,U1,26*%
X78976220Y-77594460D03*
%TO.P,U1,27*%
X81516220Y-77594460D03*
%TO.P,U1,28*%
X84056220Y-77594460D03*
%TO.P,U1,29*%
X86596220Y-77594460D03*
%TO.P,U1,24*%
%TO.N,MCURGB*%
X89136220Y-49654460D03*
%TO.P,U1,12*%
%TO.N,Col0*%
X74124820Y-77594460D03*
%TO.P,U1,23*%
%TO.N,Gnd*%
X89136220Y-52194460D03*
%TO.P,U1,22*%
%TO.N,Net-(SW21-Pad2)*%
X89136220Y-54734460D03*
%TO.P,U1,21*%
%TO.N,VCC*%
X89136220Y-57274460D03*
%TO.P,U1,20*%
%TO.N,Col3*%
X89136220Y-59814460D03*
%TO.P,U1,19*%
%TO.N,Col1*%
X89136220Y-62354460D03*
%TO.P,U1,18*%
%TO.N,N/C*%
X89136220Y-64894460D03*
%TO.P,U1,17*%
X89136220Y-67434460D03*
%TO.P,U1,16*%
X89136220Y-69974460D03*
%TO.P,U1,15*%
X89136220Y-72514460D03*
%TO.P,U1,14*%
%TO.N,E1*%
X89136220Y-75054460D03*
%TO.P,U1,13*%
%TO.N,E2*%
X89136220Y-77594460D03*
%TO.P,U1,11*%
%TO.N,Row0*%
X73896220Y-75054460D03*
%TO.P,U1,10*%
%TO.N,Row3*%
X73896220Y-72514460D03*
%TO.P,U1,9*%
%TO.N,Row2*%
X73896220Y-69974460D03*
%TO.P,U1,8*%
%TO.N,Row1*%
X73896220Y-67434460D03*
%TO.P,U1,7*%
%TO.N,N/C*%
X73896220Y-64894460D03*
%TO.P,U1,6*%
X73896220Y-62354460D03*
%TO.P,U1,5*%
%TO.N,Col2*%
X73896220Y-59814460D03*
%TO.P,U1,4*%
%TO.N,N/C*%
X73896220Y-57274460D03*
%TO.P,U1,3*%
X73896220Y-54734460D03*
%TO.P,U1,2*%
%TO.N,Col4*%
X73896220Y-52194460D03*
D17*
%TO.P,U1,1*%
%TO.N,COMM*%
X73896220Y-49654460D03*
%TD*%
D18*
%TO.P,SW16,A*%
%TO.N,E1*%
X113384970Y-125180710D03*
D19*
%TO.P,SW16,C*%
%TO.N,Gnd*%
X110884970Y-125180710D03*
%TO.P,SW16,B*%
%TO.N,E2*%
X108384970Y-125180710D03*
D20*
%TO.P,SW16,MP*%
%TO.N,N/C*%
X116484970Y-132680710D03*
X105284970Y-132680710D03*
D19*
%TO.P,SW16,S2*%
%TO.N,Col1*%
X113384970Y-139680710D03*
%TO.P,SW16,S1*%
%TO.N,Net-(D16-Pad1)*%
X108384970Y-139680710D03*
%TD*%
D14*
%TO.P,D2,2*%
%TO.N,Row0*%
X109138720Y-80293210D03*
D15*
%TO.P,D2,1*%
%TO.N,Net-(D2-Pad1)*%
X101518720Y-80293210D03*
%TD*%
D14*
%TO.P,D15,2*%
%TO.N,Row2*%
X161684970Y-123155710D03*
D15*
%TO.P,D15,1*%
%TO.N,Net-(D15-Pad1)*%
X169304970Y-123155710D03*
%TD*%
D21*
%TO.P,SW21,*%
%TO.N,*%
X140239720Y-63721710D03*
D22*
%TO.P,SW21,2*%
%TO.N,Net-(SW21-Pad2)*%
X139229720Y-61231710D03*
%TO.P,SW21,1*%
%TO.N,Gnd*%
X134229720Y-61231710D03*
D21*
%TO.P,SW21,*%
%TO.N,*%
X133229720Y-63721710D03*
%TD*%
D10*
%TO.P,SW3,*%
%TO.N,*%
X114059970Y-62195710D03*
X126759970Y-62195710D03*
%TA.AperFunction,SMDPad,CuDef*%
D11*
%TO.P,SW3,1*%
%TO.N,Col2*%
G36*
X115919725Y-59656671D02*
G01*
X115929104Y-59659516D01*
X115937749Y-59664137D01*
X115945325Y-59670355D01*
X115951543Y-59677931D01*
X115956164Y-59686576D01*
X115959009Y-59695955D01*
X115959970Y-59705710D01*
X115959970Y-61705710D01*
X115959009Y-61715465D01*
X115956164Y-61724844D01*
X115951543Y-61733489D01*
X115945325Y-61741065D01*
X115937705Y-61747313D01*
X115337705Y-62147313D01*
X115329056Y-62151924D01*
X115319673Y-62154759D01*
X115309970Y-62155710D01*
X113509970Y-62155710D01*
X113500215Y-62154749D01*
X113490836Y-62151904D01*
X113482191Y-62147283D01*
X113474615Y-62141065D01*
X113468397Y-62133489D01*
X113463776Y-62124844D01*
X113460931Y-62115465D01*
X113459970Y-62105710D01*
X113459970Y-61655710D01*
X112859970Y-61655710D01*
X112859970Y-60155710D01*
X113459970Y-60155710D01*
X113459970Y-59705710D01*
X113460931Y-59695955D01*
X113463776Y-59686576D01*
X113468397Y-59677931D01*
X113474615Y-59670355D01*
X113482191Y-59664137D01*
X113490836Y-59659516D01*
X113500215Y-59656671D01*
X113509970Y-59655710D01*
X115909970Y-59655710D01*
X115919725Y-59656671D01*
G37*
%TD.AperFunction*%
%TA.AperFunction,SMDPad,CuDef*%
%TO.P,SW3,2*%
%TO.N,Net-(D3-Pad1)*%
G36*
X128519725Y-62256671D02*
G01*
X128529104Y-62259516D01*
X128537749Y-62264137D01*
X128545325Y-62270355D01*
X128551543Y-62277931D01*
X128556164Y-62286576D01*
X128559009Y-62295955D01*
X128559970Y-62305710D01*
X128559970Y-62755710D01*
X129259970Y-62755710D01*
X129259970Y-64255710D01*
X128559970Y-64255710D01*
X128559970Y-64705710D01*
X128559009Y-64715465D01*
X128556164Y-64724844D01*
X128551543Y-64733489D01*
X128545325Y-64741065D01*
X128537749Y-64747283D01*
X128529104Y-64751904D01*
X128519725Y-64754749D01*
X128509970Y-64755710D01*
X126109970Y-64755710D01*
X126100215Y-64754749D01*
X126090836Y-64751904D01*
X126082191Y-64747283D01*
X126074615Y-64741065D01*
X126068397Y-64733489D01*
X126063776Y-64724844D01*
X126060931Y-64715465D01*
X126059970Y-64705710D01*
X126059970Y-62305710D01*
X126060931Y-62295955D01*
X126063776Y-62286576D01*
X126068397Y-62277931D01*
X126074615Y-62270355D01*
X126082191Y-62264137D01*
X126090836Y-62259516D01*
X126100215Y-62256671D01*
X126109970Y-62255710D01*
X128509970Y-62255710D01*
X128519725Y-62256671D01*
G37*
%TD.AperFunction*%
D12*
%TO.P,SW3,1*%
%TO.N,Col2*%
X128509970Y-69705710D03*
D13*
%TO.P,SW3,2*%
%TO.N,Net-(D3-Pad1)*%
X117609970Y-71905710D03*
%TD*%
D10*
%TO.P,SW10,*%
%TO.N,*%
X152159970Y-90770710D03*
X164859970Y-90770710D03*
%TA.AperFunction,SMDPad,CuDef*%
D11*
%TO.P,SW10,1*%
%TO.N,Col4*%
G36*
X154019725Y-88231671D02*
G01*
X154029104Y-88234516D01*
X154037749Y-88239137D01*
X154045325Y-88245355D01*
X154051543Y-88252931D01*
X154056164Y-88261576D01*
X154059009Y-88270955D01*
X154059970Y-88280710D01*
X154059970Y-90280710D01*
X154059009Y-90290465D01*
X154056164Y-90299844D01*
X154051543Y-90308489D01*
X154045325Y-90316065D01*
X154037705Y-90322313D01*
X153437705Y-90722313D01*
X153429056Y-90726924D01*
X153419673Y-90729759D01*
X153409970Y-90730710D01*
X151609970Y-90730710D01*
X151600215Y-90729749D01*
X151590836Y-90726904D01*
X151582191Y-90722283D01*
X151574615Y-90716065D01*
X151568397Y-90708489D01*
X151563776Y-90699844D01*
X151560931Y-90690465D01*
X151559970Y-90680710D01*
X151559970Y-90230710D01*
X150959970Y-90230710D01*
X150959970Y-88730710D01*
X151559970Y-88730710D01*
X151559970Y-88280710D01*
X151560931Y-88270955D01*
X151563776Y-88261576D01*
X151568397Y-88252931D01*
X151574615Y-88245355D01*
X151582191Y-88239137D01*
X151590836Y-88234516D01*
X151600215Y-88231671D01*
X151609970Y-88230710D01*
X154009970Y-88230710D01*
X154019725Y-88231671D01*
G37*
%TD.AperFunction*%
%TA.AperFunction,SMDPad,CuDef*%
%TO.P,SW10,2*%
%TO.N,Net-(D10-Pad1)*%
G36*
X166619725Y-90831671D02*
G01*
X166629104Y-90834516D01*
X166637749Y-90839137D01*
X166645325Y-90845355D01*
X166651543Y-90852931D01*
X166656164Y-90861576D01*
X166659009Y-90870955D01*
X166659970Y-90880710D01*
X166659970Y-91330710D01*
X167359970Y-91330710D01*
X167359970Y-92830710D01*
X166659970Y-92830710D01*
X166659970Y-93280710D01*
X166659009Y-93290465D01*
X166656164Y-93299844D01*
X166651543Y-93308489D01*
X166645325Y-93316065D01*
X166637749Y-93322283D01*
X166629104Y-93326904D01*
X166619725Y-93329749D01*
X166609970Y-93330710D01*
X164209970Y-93330710D01*
X164200215Y-93329749D01*
X164190836Y-93326904D01*
X164182191Y-93322283D01*
X164174615Y-93316065D01*
X164168397Y-93308489D01*
X164163776Y-93299844D01*
X164160931Y-93290465D01*
X164159970Y-93280710D01*
X164159970Y-90880710D01*
X164160931Y-90870955D01*
X164163776Y-90861576D01*
X164168397Y-90852931D01*
X164174615Y-90845355D01*
X164182191Y-90839137D01*
X164190836Y-90834516D01*
X164200215Y-90831671D01*
X164209970Y-90830710D01*
X166609970Y-90830710D01*
X166619725Y-90831671D01*
G37*
%TD.AperFunction*%
D12*
%TO.P,SW10,1*%
%TO.N,Col4*%
X166609970Y-98280710D03*
D13*
%TO.P,SW10,2*%
%TO.N,Net-(D10-Pad1)*%
X155709970Y-100480710D03*
%TD*%
D10*
%TO.P,SW7,*%
%TO.N,*%
X95009970Y-86008210D03*
X107709970Y-86008210D03*
%TA.AperFunction,SMDPad,CuDef*%
D11*
%TO.P,SW7,1*%
%TO.N,Col1*%
G36*
X96869725Y-83469171D02*
G01*
X96879104Y-83472016D01*
X96887749Y-83476637D01*
X96895325Y-83482855D01*
X96901543Y-83490431D01*
X96906164Y-83499076D01*
X96909009Y-83508455D01*
X96909970Y-83518210D01*
X96909970Y-85518210D01*
X96909009Y-85527965D01*
X96906164Y-85537344D01*
X96901543Y-85545989D01*
X96895325Y-85553565D01*
X96887705Y-85559813D01*
X96287705Y-85959813D01*
X96279056Y-85964424D01*
X96269673Y-85967259D01*
X96259970Y-85968210D01*
X94459970Y-85968210D01*
X94450215Y-85967249D01*
X94440836Y-85964404D01*
X94432191Y-85959783D01*
X94424615Y-85953565D01*
X94418397Y-85945989D01*
X94413776Y-85937344D01*
X94410931Y-85927965D01*
X94409970Y-85918210D01*
X94409970Y-85468210D01*
X93809970Y-85468210D01*
X93809970Y-83968210D01*
X94409970Y-83968210D01*
X94409970Y-83518210D01*
X94410931Y-83508455D01*
X94413776Y-83499076D01*
X94418397Y-83490431D01*
X94424615Y-83482855D01*
X94432191Y-83476637D01*
X94440836Y-83472016D01*
X94450215Y-83469171D01*
X94459970Y-83468210D01*
X96859970Y-83468210D01*
X96869725Y-83469171D01*
G37*
%TD.AperFunction*%
%TA.AperFunction,SMDPad,CuDef*%
%TO.P,SW7,2*%
%TO.N,Net-(D7-Pad1)*%
G36*
X109469725Y-86069171D02*
G01*
X109479104Y-86072016D01*
X109487749Y-86076637D01*
X109495325Y-86082855D01*
X109501543Y-86090431D01*
X109506164Y-86099076D01*
X109509009Y-86108455D01*
X109509970Y-86118210D01*
X109509970Y-86568210D01*
X110209970Y-86568210D01*
X110209970Y-88068210D01*
X109509970Y-88068210D01*
X109509970Y-88518210D01*
X109509009Y-88527965D01*
X109506164Y-88537344D01*
X109501543Y-88545989D01*
X109495325Y-88553565D01*
X109487749Y-88559783D01*
X109479104Y-88564404D01*
X109469725Y-88567249D01*
X109459970Y-88568210D01*
X107059970Y-88568210D01*
X107050215Y-88567249D01*
X107040836Y-88564404D01*
X107032191Y-88559783D01*
X107024615Y-88553565D01*
X107018397Y-88545989D01*
X107013776Y-88537344D01*
X107010931Y-88527965D01*
X107009970Y-88518210D01*
X107009970Y-86118210D01*
X107010931Y-86108455D01*
X107013776Y-86099076D01*
X107018397Y-86090431D01*
X107024615Y-86082855D01*
X107032191Y-86076637D01*
X107040836Y-86072016D01*
X107050215Y-86069171D01*
X107059970Y-86068210D01*
X109459970Y-86068210D01*
X109469725Y-86069171D01*
G37*
%TD.AperFunction*%
D12*
%TO.P,SW7,1*%
%TO.N,Col1*%
X109459970Y-93518210D03*
D13*
%TO.P,SW7,2*%
%TO.N,Net-(D7-Pad1)*%
X98559970Y-95718210D03*
%TD*%
D10*
%TO.P,SW19,*%
%TO.N,*%
X161684970Y-128870710D03*
X174384970Y-128870710D03*
%TA.AperFunction,SMDPad,CuDef*%
D11*
%TO.P,SW19,1*%
%TO.N,Col4*%
G36*
X163544725Y-126331671D02*
G01*
X163554104Y-126334516D01*
X163562749Y-126339137D01*
X163570325Y-126345355D01*
X163576543Y-126352931D01*
X163581164Y-126361576D01*
X163584009Y-126370955D01*
X163584970Y-126380710D01*
X163584970Y-128380710D01*
X163584009Y-128390465D01*
X163581164Y-128399844D01*
X163576543Y-128408489D01*
X163570325Y-128416065D01*
X163562705Y-128422313D01*
X162962705Y-128822313D01*
X162954056Y-128826924D01*
X162944673Y-128829759D01*
X162934970Y-128830710D01*
X161134970Y-128830710D01*
X161125215Y-128829749D01*
X161115836Y-128826904D01*
X161107191Y-128822283D01*
X161099615Y-128816065D01*
X161093397Y-128808489D01*
X161088776Y-128799844D01*
X161085931Y-128790465D01*
X161084970Y-128780710D01*
X161084970Y-128330710D01*
X160484970Y-128330710D01*
X160484970Y-126830710D01*
X161084970Y-126830710D01*
X161084970Y-126380710D01*
X161085931Y-126370955D01*
X161088776Y-126361576D01*
X161093397Y-126352931D01*
X161099615Y-126345355D01*
X161107191Y-126339137D01*
X161115836Y-126334516D01*
X161125215Y-126331671D01*
X161134970Y-126330710D01*
X163534970Y-126330710D01*
X163544725Y-126331671D01*
G37*
%TD.AperFunction*%
%TA.AperFunction,SMDPad,CuDef*%
%TO.P,SW19,2*%
%TO.N,Net-(D19-Pad1)*%
G36*
X176144725Y-128931671D02*
G01*
X176154104Y-128934516D01*
X176162749Y-128939137D01*
X176170325Y-128945355D01*
X176176543Y-128952931D01*
X176181164Y-128961576D01*
X176184009Y-128970955D01*
X176184970Y-128980710D01*
X176184970Y-129430710D01*
X176884970Y-129430710D01*
X176884970Y-130930710D01*
X176184970Y-130930710D01*
X176184970Y-131380710D01*
X176184009Y-131390465D01*
X176181164Y-131399844D01*
X176176543Y-131408489D01*
X176170325Y-131416065D01*
X176162749Y-131422283D01*
X176154104Y-131426904D01*
X176144725Y-131429749D01*
X176134970Y-131430710D01*
X173734970Y-131430710D01*
X173725215Y-131429749D01*
X173715836Y-131426904D01*
X173707191Y-131422283D01*
X173699615Y-131416065D01*
X173693397Y-131408489D01*
X173688776Y-131399844D01*
X173685931Y-131390465D01*
X173684970Y-131380710D01*
X173684970Y-128980710D01*
X173685931Y-128970955D01*
X173688776Y-128961576D01*
X173693397Y-128952931D01*
X173699615Y-128945355D01*
X173707191Y-128939137D01*
X173715836Y-128934516D01*
X173725215Y-128931671D01*
X173734970Y-128930710D01*
X176134970Y-128930710D01*
X176144725Y-128931671D01*
G37*
%TD.AperFunction*%
D12*
%TO.P,SW19,1*%
%TO.N,Col4*%
X176134970Y-136380710D03*
D13*
%TO.P,SW19,2*%
%TO.N,Net-(D19-Pad1)*%
X165234970Y-138580710D03*
%TD*%
D14*
%TO.P,D13,2*%
%TO.N,Row2*%
X128188720Y-113630710D03*
D15*
%TO.P,D13,1*%
%TO.N,Net-(D13-Pad1)*%
X120568720Y-113630710D03*
%TD*%
D14*
%TO.P,D1,2*%
%TO.N,Row0*%
X91834970Y-82674460D03*
D15*
%TO.P,D1,1*%
%TO.N,Net-(D1-Pad1)*%
X91834970Y-90294460D03*
%TD*%
D14*
%TO.P,D8,2*%
%TO.N,Row1*%
X125172470Y-94580710D03*
D15*
%TO.P,D8,1*%
%TO.N,Net-(D8-Pad1)*%
X117552470Y-94580710D03*
%TD*%
D23*
%TO.P,PJ1,3*%
%TO.N,COMM*%
X148984970Y-59505710D03*
%TO.P,PJ1,4*%
%TO.N,Gnd*%
X148984970Y-56505710D03*
%TO.P,PJ1,2*%
%TO.N,DI*%
X148984970Y-63505710D03*
%TO.P,PJ1,1*%
%TO.N,VCC*%
X144384970Y-64605710D03*
X153584970Y-64605710D03*
%TD*%
D14*
%TO.P,D3,2*%
%TO.N,Row0*%
X128188720Y-75530710D03*
D15*
%TO.P,D3,1*%
%TO.N,Net-(D3-Pad1)*%
X120568720Y-75530710D03*
%TD*%
D14*
%TO.P,D14,2*%
%TO.N,Row2*%
X147238720Y-123155710D03*
D15*
%TO.P,D14,1*%
%TO.N,Net-(D14-Pad1)*%
X139618720Y-123155710D03*
%TD*%
D14*
%TO.P,D19,2*%
%TO.N,Row3*%
X177559970Y-139824460D03*
D15*
%TO.P,D19,1*%
%TO.N,Net-(D19-Pad1)*%
X177559970Y-132204460D03*
%TD*%
D14*
%TO.P,D4,2*%
%TO.N,Row0*%
X147238720Y-85055710D03*
D15*
%TO.P,D4,1*%
%TO.N,Net-(D4-Pad1)*%
X139618720Y-85055710D03*
%TD*%
D14*
%TO.P,D5,2*%
%TO.N,Row0*%
X151366220Y-85055710D03*
D15*
%TO.P,D5,1*%
%TO.N,Net-(D5-Pad1)*%
X158986220Y-85055710D03*
%TD*%
D14*
%TO.P,D6,2*%
%TO.N,Row1*%
X91834970Y-101724460D03*
D15*
%TO.P,D6,1*%
%TO.N,Net-(D6-Pad1)*%
X91834970Y-109344460D03*
%TD*%
D14*
%TO.P,D16,2*%
%TO.N,Row3*%
X101359970Y-139665710D03*
D15*
%TO.P,D16,1*%
%TO.N,Net-(D16-Pad1)*%
X101359970Y-132045710D03*
%TD*%
D14*
%TO.P,D12,2*%
%TO.N,Row2*%
X114650520Y-118297960D03*
D15*
%TO.P,D12,1*%
%TO.N,Net-(D12-Pad1)*%
X107030520Y-118297960D03*
%TD*%
D14*
%TO.P,D10,2*%
%TO.N,Row1*%
X151524970Y-104105710D03*
D15*
%TO.P,D10,1*%
%TO.N,Net-(D10-Pad1)*%
X159144970Y-104105710D03*
%TD*%
D14*
%TO.P,D17,2*%
%TO.N,Row3*%
X139459970Y-139824460D03*
D15*
%TO.P,D17,1*%
%TO.N,Net-(D17-Pad1)*%
X139459970Y-132204460D03*
%TD*%
D24*
%TO.P,L1,1*%
%TO.N,VCC*%
X171991020Y-115336320D03*
%TO.P,L1,2*%
%TO.N,N/C*%
X175191420Y-115336320D03*
%TO.P,L1,3*%
%TO.N,Gnd*%
X175191420Y-110337600D03*
%TO.P,L1,4*%
%TO.N,DI*%
X171991020Y-110337600D03*
%TD*%
D14*
%TO.P,D7,2*%
%TO.N,Row1*%
X109138720Y-99343210D03*
D15*
%TO.P,D7,1*%
%TO.N,Net-(D7-Pad1)*%
X101518720Y-99343210D03*
%TD*%
D14*
%TO.P,D9,2*%
%TO.N,Row1*%
X147238720Y-104105710D03*
D15*
%TO.P,D9,1*%
%TO.N,Net-(D9-Pad1)*%
X139618720Y-104105710D03*
%TD*%
D25*
%TO.P,C1,2*%
%TO.N,Net-(C1-Pad2)*%
X129611120Y-49378360D03*
%TO.P,C1,1*%
%TO.N,Net-(C1-Pad1)*%
X129611120Y-51378360D03*
%TD*%
D26*
%TO.P,SW20,3*%
%TO.N,MCURGB*%
X163291220Y-62830710D03*
%TO.P,SW20,2*%
%TO.N,DI*%
X160891220Y-62830710D03*
%TO.P,SW20,1*%
%TO.N,N/C*%
X158491220Y-62830710D03*
%TD*%
D14*
%TO.P,D11,2*%
%TO.N,Row2*%
X85961220Y-119186960D03*
D15*
%TO.P,D11,1*%
%TO.N,Net-(D11-Pad1)*%
X78341220Y-119186960D03*
%TD*%
D10*
%TO.P,SW1,*%
%TO.N,*%
X75959970Y-86008210D03*
X88659970Y-86008210D03*
%TA.AperFunction,SMDPad,CuDef*%
D11*
%TO.P,SW1,1*%
%TO.N,Col0*%
G36*
X77819725Y-83469171D02*
G01*
X77829104Y-83472016D01*
X77837749Y-83476637D01*
X77845325Y-83482855D01*
X77851543Y-83490431D01*
X77856164Y-83499076D01*
X77859009Y-83508455D01*
X77859970Y-83518210D01*
X77859970Y-85518210D01*
X77859009Y-85527965D01*
X77856164Y-85537344D01*
X77851543Y-85545989D01*
X77845325Y-85553565D01*
X77837705Y-85559813D01*
X77237705Y-85959813D01*
X77229056Y-85964424D01*
X77219673Y-85967259D01*
X77209970Y-85968210D01*
X75409970Y-85968210D01*
X75400215Y-85967249D01*
X75390836Y-85964404D01*
X75382191Y-85959783D01*
X75374615Y-85953565D01*
X75368397Y-85945989D01*
X75363776Y-85937344D01*
X75360931Y-85927965D01*
X75359970Y-85918210D01*
X75359970Y-85468210D01*
X74759970Y-85468210D01*
X74759970Y-83968210D01*
X75359970Y-83968210D01*
X75359970Y-83518210D01*
X75360931Y-83508455D01*
X75363776Y-83499076D01*
X75368397Y-83490431D01*
X75374615Y-83482855D01*
X75382191Y-83476637D01*
X75390836Y-83472016D01*
X75400215Y-83469171D01*
X75409970Y-83468210D01*
X77809970Y-83468210D01*
X77819725Y-83469171D01*
G37*
%TD.AperFunction*%
%TA.AperFunction,SMDPad,CuDef*%
%TO.P,SW1,2*%
%TO.N,Net-(D1-Pad1)*%
G36*
X90419725Y-86069171D02*
G01*
X90429104Y-86072016D01*
X90437749Y-86076637D01*
X90445325Y-86082855D01*
X90451543Y-86090431D01*
X90456164Y-86099076D01*
X90459009Y-86108455D01*
X90459970Y-86118210D01*
X90459970Y-86568210D01*
X91159970Y-86568210D01*
X91159970Y-88068210D01*
X90459970Y-88068210D01*
X90459970Y-88518210D01*
X90459009Y-88527965D01*
X90456164Y-88537344D01*
X90451543Y-88545989D01*
X90445325Y-88553565D01*
X90437749Y-88559783D01*
X90429104Y-88564404D01*
X90419725Y-88567249D01*
X90409970Y-88568210D01*
X88009970Y-88568210D01*
X88000215Y-88567249D01*
X87990836Y-88564404D01*
X87982191Y-88559783D01*
X87974615Y-88553565D01*
X87968397Y-88545989D01*
X87963776Y-88537344D01*
X87960931Y-88527965D01*
X87959970Y-88518210D01*
X87959970Y-86118210D01*
X87960931Y-86108455D01*
X87963776Y-86099076D01*
X87968397Y-86090431D01*
X87974615Y-86082855D01*
X87982191Y-86076637D01*
X87990836Y-86072016D01*
X88000215Y-86069171D01*
X88009970Y-86068210D01*
X90409970Y-86068210D01*
X90419725Y-86069171D01*
G37*
%TD.AperFunction*%
D12*
%TO.P,SW1,1*%
%TO.N,Col0*%
X90409970Y-93518210D03*
D13*
%TO.P,SW1,2*%
%TO.N,Net-(D1-Pad1)*%
X79509970Y-95718210D03*
%TD*%
D27*
%TO.N,Row0*%
X95270320Y-77784960D03*
X93656320Y-77683360D03*
%TO.N,Net-(D1-Pad1)*%
X84907120Y-93913960D03*
%TO.N,Net-(D2-Pad1)*%
X103982520Y-75016360D03*
X109809170Y-68446010D03*
%TO.N,Net-(D3-Pad1)*%
X128986170Y-63366010D03*
X129011570Y-63518410D03*
X122905520Y-70114160D03*
%TO.N,Net-(D4-Pad1)*%
X148061570Y-72865610D03*
X142234920Y-79435960D03*
%TO.N,Net-(D5-Pad1)*%
X161335720Y-79816960D03*
X167162370Y-73246610D03*
%TO.N,Row1*%
X113659920Y-93177360D03*
X90469720Y-80705960D03*
X88234520Y-80655160D03*
%TO.N,Net-(D6-Pad1)*%
X84983320Y-112938560D03*
X90809970Y-106368210D03*
%TO.N,Net-(D7-Pad1)*%
X109961570Y-87267410D03*
X104134920Y-93837760D03*
%TO.N,Net-(D8-Pad1)*%
X128859170Y-82543010D03*
X123032520Y-89113360D03*
%TO.N,Net-(D9-Pad1)*%
X148340970Y-92068010D03*
X142057120Y-98943160D03*
%TO.N,Net-(D10-Pad1)*%
X167009970Y-92068010D03*
X161183320Y-98638360D03*
%TO.N,Row2*%
X90545920Y-84363560D03*
X88386920Y-81954969D03*
X92349320Y-116723160D03*
%TO.N,Net-(D11-Pad1)*%
X90835370Y-125418210D03*
X85008720Y-131988560D03*
%TO.N,Net-(D12-Pad1)*%
X109936170Y-106368210D03*
X104109520Y-112938560D03*
%TO.N,Net-(D13-Pad1)*%
X128935370Y-101669210D03*
X123108720Y-108239560D03*
%TO.N,Net-(D14-Pad1)*%
X142209520Y-117535960D03*
X148036170Y-110965610D03*
%TO.N,Net-(D15-Pad1)*%
X161335720Y-117612160D03*
X167162370Y-111041810D03*
X161309970Y-119530710D03*
%TO.N,Row3*%
X73400920Y-81696560D03*
%TO.N,Net-(D17-Pad1)*%
X138511170Y-130142610D03*
X132684520Y-136712960D03*
%TO.N,Net-(D18-Pad1)*%
X157484970Y-130117210D03*
X151658320Y-136687560D03*
%TO.N,Net-(D19-Pad1)*%
X176687370Y-130142610D03*
X170860720Y-136712960D03*
%TO.N,Gnd*%
X162085020Y-125194060D03*
X158414720Y-66227960D03*
X141803120Y-55255160D03*
X173490890Y-110895130D03*
X173400720Y-117764560D03*
%TO.N,VCC*%
X168117520Y-113598960D03*
%TO.N,DI*%
X169235120Y-110246160D03*
%TO.N,Col0*%
X88691720Y-110449360D03*
X88615520Y-91424760D03*
X88717120Y-129499360D03*
%TO.N,Col1*%
X104033320Y-91754960D03*
X107817920Y-110449360D03*
X107690920Y-72527160D03*
%TO.N,Col2*%
X124607320Y-114462560D03*
X126817120Y-105750360D03*
X126740920Y-86624160D03*
X136392920Y-134223760D03*
X123896120Y-116418360D03*
X124531120Y-67523360D03*
X128623620Y-107805710D03*
%TO.N,Col3*%
X146222720Y-96149160D03*
X155366720Y-134198360D03*
X142819120Y-115148360D03*
X145333720Y-77124560D03*
%TO.N,Col4*%
X164891720Y-96149160D03*
X165044120Y-77327760D03*
X174569120Y-134223760D03*
X165044120Y-115122960D03*
%TO.N,MCURGB*%
X92044520Y-53883560D03*
%TO.N,COMM*%
X144444720Y-54696360D03*
%TD*%
D28*
%TO.N,Net-(C1-Pad2)*%
X129611120Y-49378360D02*
X128341549Y-50647931D01*
X128341549Y-50647931D02*
X94304163Y-50647931D01*
X94304163Y-50647931D02*
X90770692Y-47114460D01*
X90770692Y-47114460D02*
X89136220Y-47114460D01*
%TO.N,Net-(C1-Pad1)*%
X73896220Y-47114460D02*
X76271120Y-49489360D01*
X94063501Y-51228941D02*
X129461701Y-51228941D01*
X129461701Y-51228941D02*
X129611120Y-51378360D01*
X85923120Y-50810160D02*
X88345621Y-48387659D01*
X91222219Y-48387659D02*
X94063501Y-51228941D01*
X76626720Y-50810160D02*
X85923120Y-50810160D01*
X76271120Y-49489360D02*
X76271120Y-50454560D01*
X76271120Y-50454560D02*
X76626720Y-50810160D01*
X88345621Y-48387659D02*
X91222219Y-48387659D01*
D29*
%TO.N,Row0*%
X76321846Y-75702160D02*
X77693520Y-77073834D01*
X77693520Y-77073834D02*
X77693520Y-81315560D01*
X75458320Y-75702160D02*
X76321846Y-75702160D01*
X74810620Y-75054460D02*
X75458320Y-75702160D01*
X73896220Y-75054460D02*
X74810620Y-75054460D01*
D28*
X95168720Y-77683360D02*
X95270320Y-77784960D01*
X93656320Y-77683360D02*
X95168720Y-77683360D01*
X151366220Y-85055710D02*
X147238720Y-85055710D01*
X145835370Y-83652360D02*
X147238720Y-85055710D01*
X131922520Y-81036160D02*
X134538720Y-83652360D01*
X128188720Y-75530710D02*
X128188720Y-75092560D01*
X110846870Y-80293210D02*
X117266720Y-73873360D01*
X131922520Y-76591160D02*
X131922520Y-81036160D01*
X130862070Y-75530710D02*
X131922520Y-76591160D01*
X126969520Y-73873360D02*
X118739920Y-73873360D01*
X77693520Y-81315560D02*
X77693520Y-81493360D01*
X78945629Y-82745469D02*
X91763961Y-82745469D01*
X134538720Y-83652360D02*
X145835370Y-83652360D01*
X128188720Y-75092560D02*
X126969520Y-73873360D01*
X117266720Y-73873360D02*
X118739920Y-73873360D01*
X91763961Y-82745469D02*
X91834970Y-82674460D01*
X128188720Y-75530710D02*
X130862070Y-75530710D01*
X109138720Y-80293210D02*
X110846870Y-80293210D01*
X77693520Y-81493360D02*
X78945629Y-82745469D01*
%TO.N,Net-(D1-Pad1)*%
X91834970Y-90294460D02*
X91834970Y-88343210D01*
X91834970Y-88343210D02*
X90809970Y-87318210D01*
X79509970Y-95718210D02*
X79509970Y-95043910D01*
X81122520Y-93431360D02*
X84424520Y-93431360D01*
X79509970Y-95043910D02*
X81122520Y-93431360D01*
X84424520Y-93431360D02*
X84907120Y-93913960D01*
%TO.N,Net-(D2-Pad1)*%
X98585370Y-76146310D02*
X100197920Y-74533760D01*
X100197920Y-74533760D02*
X103499920Y-74533760D01*
X98585370Y-76820610D02*
X98585370Y-76146310D01*
X103499920Y-74533760D02*
X103982520Y-75016360D01*
D29*
%TO.N,Net-(D3-Pad1)*%
X118384320Y-69783960D02*
X122575320Y-69783960D01*
X122575320Y-69783960D02*
X122905520Y-70114160D01*
X117609970Y-70558310D02*
X118384320Y-69783960D01*
X117609970Y-71905710D02*
X117609970Y-70558310D01*
X127934720Y-64417460D02*
X128935370Y-63416810D01*
D28*
%TO.N,Net-(D4-Pad1)*%
X138450320Y-78953360D02*
X141752320Y-78953360D01*
X136837770Y-80565910D02*
X138450320Y-78953360D01*
X136837770Y-81240210D02*
X136837770Y-80565910D01*
X141752320Y-78953360D02*
X142234920Y-79435960D01*
%TO.N,Net-(D5-Pad1)*%
X157551120Y-79334360D02*
X160853120Y-79334360D01*
X155938570Y-81621210D02*
X155938570Y-80946910D01*
X160853120Y-79334360D02*
X161335720Y-79816960D01*
X155938570Y-80946910D02*
X157551120Y-79334360D01*
D29*
X166085520Y-73942460D02*
X167086170Y-72941810D01*
%TO.N,Row1*%
X93136720Y-95107760D02*
X93136720Y-91781770D01*
X92933520Y-86903560D02*
X92933520Y-84007960D01*
X93586730Y-91331760D02*
X93586730Y-87556770D01*
X92704920Y-80705960D02*
X90469720Y-80705960D01*
X92933520Y-86903560D02*
X93586730Y-87556770D01*
X93314520Y-81315560D02*
X92704920Y-80705960D01*
X88234520Y-80655160D02*
X84856320Y-80655160D01*
X144298670Y-104105710D02*
X147238720Y-104105710D01*
X93314520Y-83626960D02*
X93314520Y-81315560D01*
X125172470Y-94580710D02*
X125172470Y-95317310D01*
X93136720Y-91781770D02*
X93586730Y-91331760D01*
X125172470Y-95317310D02*
X132532120Y-102676960D01*
X91834970Y-101724460D02*
X91834970Y-96409510D01*
X92933520Y-84007960D02*
X93314520Y-83626960D01*
X84856320Y-80655160D02*
X84653120Y-80451960D01*
X91834970Y-96409510D02*
X93136720Y-95107760D01*
X142869920Y-102676960D02*
X144298670Y-104105710D01*
X132532120Y-102676960D02*
X142869920Y-102676960D01*
X109138720Y-99343210D02*
X109138720Y-96809560D01*
X91834970Y-101724460D02*
X106757470Y-101724460D01*
X112770920Y-93177360D02*
X113659920Y-93177360D01*
X106757470Y-101724460D02*
X109138720Y-99343210D01*
X109138720Y-96809560D02*
X112770920Y-93177360D01*
X82824320Y-78902560D02*
X82824320Y-75549760D01*
X84373720Y-80451960D02*
X82824320Y-78902560D01*
X84653120Y-80451960D02*
X84373720Y-80451960D01*
X82824320Y-75549760D02*
X74709020Y-67434460D01*
X74709020Y-67434460D02*
X73896220Y-67434460D01*
X151524970Y-104105710D02*
X147238720Y-104105710D01*
%TO.N,Net-(D6-Pad1)*%
X90809970Y-106368210D02*
X90809970Y-108319460D01*
X90809970Y-108319460D02*
X91834970Y-109344460D01*
D28*
X81198720Y-112455960D02*
X84500720Y-112455960D01*
X84500720Y-112455960D02*
X84983320Y-112938560D01*
X79586170Y-114742810D02*
X79586170Y-114068510D01*
X79586170Y-114068510D02*
X81198720Y-112455960D01*
%TO.N,Net-(D7-Pad1)*%
X103652320Y-93355160D02*
X104134920Y-93837760D01*
X98737770Y-94967710D02*
X100350320Y-93355160D01*
X98737770Y-95642010D02*
X98737770Y-94967710D01*
X100350320Y-93355160D02*
X103652320Y-93355160D01*
%TO.N,Net-(D8-Pad1)*%
X119247920Y-88630760D02*
X122549920Y-88630760D01*
X117635370Y-90243310D02*
X119247920Y-88630760D01*
X117635370Y-90917610D02*
X117635370Y-90243310D01*
X122549920Y-88630760D02*
X123032520Y-89113360D01*
D29*
X117552470Y-91013210D02*
X117609970Y-90955710D01*
X117552470Y-94580710D02*
X117552470Y-91013210D01*
%TO.N,Net-(D9-Pad1)*%
X137764520Y-97800160D02*
X140914120Y-97800160D01*
X136659970Y-98904710D02*
X137764520Y-97800160D01*
X140914120Y-97800160D02*
X142057120Y-98943160D01*
X136659970Y-100480710D02*
X136659970Y-98904710D01*
D28*
%TO.N,Net-(D10-Pad1)*%
X155786170Y-99768310D02*
X157398720Y-98155760D01*
X160700720Y-98155760D02*
X161183320Y-98638360D01*
X157398720Y-98155760D02*
X160700720Y-98155760D01*
X155786170Y-100442610D02*
X155786170Y-99768310D01*
D29*
X166060120Y-93195660D02*
X167060770Y-92195010D01*
%TO.N,Row2*%
X149013721Y-121380709D02*
X147238720Y-123155710D01*
X159909969Y-121380709D02*
X149013721Y-121380709D01*
X161684970Y-123155710D02*
X159909969Y-121380709D01*
D28*
X145409920Y-121701560D02*
X133776720Y-121701560D01*
X131922520Y-115453160D02*
X130100070Y-113630710D01*
X146864070Y-123155710D02*
X145409920Y-121701560D01*
X147238720Y-123155710D02*
X146864070Y-123155710D01*
X133776720Y-121701560D02*
X131922520Y-119847360D01*
X131922520Y-119847360D02*
X131922520Y-115453160D01*
X130100070Y-113630710D02*
X128188720Y-113630710D01*
D29*
X89885520Y-119186960D02*
X92349320Y-116723160D01*
X92349320Y-116723160D02*
X92349320Y-110728760D01*
X92654120Y-94498160D02*
X92654120Y-91627960D01*
X89682320Y-103438960D02*
X89682320Y-97469960D01*
X85961220Y-119186960D02*
X89885520Y-119186960D01*
X92985471Y-110092609D02*
X92985471Y-107758111D01*
X89682320Y-97469960D02*
X92654120Y-94498160D01*
X93136720Y-91145360D02*
X93136720Y-87868760D01*
X91790520Y-106563160D02*
X91790520Y-105775760D01*
X90545920Y-85277960D02*
X90545920Y-84363560D01*
X93136720Y-87868760D02*
X90545920Y-85277960D01*
X91790520Y-105775760D02*
X91790520Y-105547160D01*
X91790520Y-105547160D02*
X89682320Y-103438960D01*
X92349320Y-110728760D02*
X92985471Y-110092609D01*
X92985471Y-107758111D02*
X91790520Y-106563160D01*
X92654120Y-91627960D02*
X93136720Y-91145360D01*
X82748120Y-81671160D02*
X83272702Y-81671160D01*
X80314919Y-79237959D02*
X82748120Y-81671160D01*
X83556511Y-81954969D02*
X88386920Y-81954969D01*
X80314919Y-76393159D02*
X80314919Y-79237959D01*
X73896220Y-69974460D02*
X80314919Y-76393159D01*
X83272702Y-81671160D02*
X83556511Y-81954969D01*
D28*
%TO.N,Net-(D11-Pad1)*%
X81224120Y-131505960D02*
X84526120Y-131505960D01*
X79611570Y-133118510D02*
X81224120Y-131505960D01*
X79611570Y-133792810D02*
X79611570Y-133118510D01*
X84526120Y-131505960D02*
X85008720Y-131988560D01*
%TO.N,Net-(D12-Pad1)*%
X98712370Y-114742810D02*
X98712370Y-114068510D01*
X98712370Y-114068510D02*
X100324920Y-112455960D01*
X103626920Y-112455960D02*
X104109520Y-112938560D01*
X100324920Y-112455960D02*
X103626920Y-112455960D01*
%TO.N,Net-(D13-Pad1)*%
X119324120Y-107756960D02*
X122626120Y-107756960D01*
X117711570Y-109369510D02*
X119324120Y-107756960D01*
X117711570Y-110043810D02*
X117711570Y-109369510D01*
X122626120Y-107756960D02*
X123108720Y-108239560D01*
%TO.N,Net-(D14-Pad1)*%
X136812370Y-118665910D02*
X138424920Y-117053360D01*
X138424920Y-117053360D02*
X141726920Y-117053360D01*
X136812370Y-119340210D02*
X136812370Y-118665910D01*
X141726920Y-117053360D02*
X142209520Y-117535960D01*
D29*
%TO.N,Net-(D15-Pad1)*%
X164934970Y-123155710D02*
X161309970Y-119530710D01*
X169304970Y-123155710D02*
X164934970Y-123155710D01*
X166034720Y-112144060D02*
X167035370Y-111143410D01*
D28*
X157551120Y-117129560D02*
X160853120Y-117129560D01*
X155938570Y-119416410D02*
X155938570Y-118742110D01*
X160853120Y-117129560D02*
X161335720Y-117612160D01*
X155938570Y-118742110D02*
X157551120Y-117129560D01*
%TO.N,Row3*%
X74213720Y-82509360D02*
X73400920Y-81696560D01*
X74213720Y-133918960D02*
X74213720Y-82509360D01*
X101359970Y-139665710D02*
X79960470Y-139665710D01*
X79960470Y-139665710D02*
X74213720Y-133918960D01*
D29*
%TO.N,Net-(D16-Pad1)*%
X108384970Y-139680710D02*
X101359970Y-132655710D01*
X101359970Y-132655710D02*
X101359970Y-132045710D01*
D28*
%TO.N,Net-(D17-Pad1)*%
X128899920Y-136230360D02*
X132201920Y-136230360D01*
X132201920Y-136230360D02*
X132684520Y-136712960D01*
X127287370Y-137842910D02*
X128899920Y-136230360D01*
X127287370Y-138517210D02*
X127287370Y-137842910D01*
%TO.N,Net-(D18-Pad1)*%
X147873720Y-136204960D02*
X151175720Y-136204960D01*
X146261170Y-137817510D02*
X147873720Y-136204960D01*
X146261170Y-138491810D02*
X146261170Y-137817510D01*
X151175720Y-136204960D02*
X151658320Y-136687560D01*
%TO.N,Net-(D19-Pad1)*%
X167076120Y-136230360D02*
X170378120Y-136230360D01*
X165463570Y-137842910D02*
X167076120Y-136230360D01*
X165463570Y-138517210D02*
X165463570Y-137842910D01*
X170378120Y-136230360D02*
X170860720Y-136712960D01*
D29*
%TO.N,Gnd*%
X111780320Y-127518160D02*
X114396520Y-127518160D01*
X114396520Y-127518160D02*
X116682520Y-125232160D01*
X110884970Y-125180710D02*
X110884970Y-126622810D01*
X110884970Y-126622810D02*
X111780320Y-127518160D01*
X116682520Y-125232160D02*
X162046920Y-125232160D01*
X169260520Y-69504560D02*
X169260520Y-107502960D01*
X173400720Y-112582960D02*
X173400720Y-112128300D01*
X158897320Y-66227960D02*
X158414720Y-66227960D01*
X169260520Y-107502960D02*
X170403520Y-108645960D01*
X173499780Y-108645960D02*
X175191420Y-110337600D01*
X89136220Y-52194460D02*
X121902220Y-52194460D01*
X173400720Y-112582960D02*
X173400720Y-110985300D01*
X142285720Y-54137560D02*
X142933420Y-54785260D01*
X123845320Y-54137560D02*
X142285720Y-54137560D01*
X173400720Y-112128300D02*
X173490890Y-112038130D01*
X159996222Y-66227960D02*
X165983920Y-66227960D01*
X173490890Y-112038130D02*
X175191420Y-110337600D01*
X165983920Y-66227960D02*
X169260520Y-69504560D01*
X141803120Y-55255160D02*
X142273020Y-54785260D01*
X121902220Y-52194460D02*
X123845320Y-54137560D01*
X142273020Y-54785260D02*
X142933420Y-54785260D01*
X144653870Y-56505710D02*
X148984970Y-56505710D01*
X173400720Y-110985300D02*
X173490890Y-110895130D01*
X170403520Y-108645960D02*
X173499780Y-108645960D01*
X173400720Y-117764560D02*
X173400720Y-112582960D01*
X159996222Y-66227960D02*
X158897320Y-66227960D01*
X142933420Y-54785260D02*
X144653870Y-56505710D01*
%TO.N,VCC*%
X129226292Y-55487588D02*
X129667159Y-55487589D01*
X143238130Y-65752550D02*
X144384970Y-64605710D01*
X145163110Y-65752550D02*
X152438130Y-65752550D01*
X91968320Y-55051960D02*
X93475790Y-53544490D01*
X93475790Y-53544490D02*
X121343020Y-53544490D01*
X89136220Y-57274460D02*
X91358720Y-55051960D01*
X123286120Y-55487588D02*
X129226292Y-55487588D01*
X132007320Y-65752550D02*
X143238130Y-65752550D01*
X152438130Y-65752550D02*
X153584970Y-64605710D01*
X144384970Y-64974410D02*
X145163110Y-65752550D01*
X169854880Y-115336320D02*
X171991020Y-115336320D01*
X91358720Y-55051960D02*
X91968320Y-55051960D01*
X129667159Y-55487589D02*
X130670730Y-56491160D01*
X130670730Y-56491160D02*
X130670730Y-64415960D01*
X130670730Y-64415960D02*
X132007320Y-65752550D01*
X121343020Y-53544490D02*
X123286120Y-55487588D01*
X168117520Y-113598960D02*
X169854880Y-115336320D01*
X144384970Y-64605710D02*
X144384970Y-64974410D01*
%TO.N,DI*%
X154484910Y-62602950D02*
X152411720Y-62602950D01*
X160891220Y-62830710D02*
X160891220Y-64063450D01*
X171991020Y-110337600D02*
X169326560Y-110337600D01*
X156440710Y-64558750D02*
X154484910Y-62602950D01*
X160891220Y-64063450D02*
X160395920Y-64558750D01*
X152411720Y-62602950D02*
X151508960Y-63505710D01*
X151508960Y-63505710D02*
X148984970Y-63505710D01*
X160395920Y-64558750D02*
X156440710Y-64558750D01*
X169326560Y-110337600D02*
X169235120Y-110246160D01*
D28*
%TO.N,Col0*%
X88615520Y-91424760D02*
X88615520Y-91723760D01*
X88615520Y-91723760D02*
X90409970Y-93518210D01*
X88717120Y-129798360D02*
X90511570Y-131592810D01*
X88717120Y-129499360D02*
X88717120Y-129798360D01*
X74124820Y-77594460D02*
X75109970Y-78579610D01*
X75109970Y-78579610D02*
X75109970Y-84617709D01*
X88691720Y-110449360D02*
X88691720Y-110748360D01*
X88691720Y-110748360D02*
X90486170Y-112542810D01*
D29*
%TO.N,Col1*%
X105862120Y-122768360D02*
X109849920Y-118780560D01*
X109849920Y-118780560D02*
X109849920Y-112958160D01*
X113384970Y-132653410D02*
X105862120Y-125130560D01*
X109849920Y-112958160D02*
X109459970Y-112568210D01*
X113384970Y-139680710D02*
X113384970Y-132653410D01*
X105862120Y-125130560D02*
X105862120Y-122768360D01*
X89136220Y-62354460D02*
X90846220Y-62354460D01*
X90846220Y-62354460D02*
X94159970Y-65668210D01*
X104033320Y-91754960D02*
X104693720Y-91754960D01*
D28*
X107817920Y-110748360D02*
X109612370Y-112542810D01*
D29*
X104693720Y-91754960D02*
X105023920Y-91424760D01*
D28*
X107817920Y-110449360D02*
X107817920Y-110748360D01*
D29*
X105023920Y-91424760D02*
X107366520Y-91424760D01*
X107366520Y-91424760D02*
X109459970Y-93518210D01*
D28*
X107690920Y-72826160D02*
X109485370Y-74620610D01*
X107690920Y-72527160D02*
X107690920Y-72826160D01*
D29*
%TO.N,Col2*%
X123896120Y-116418360D02*
X123896120Y-115173760D01*
X123896120Y-115173760D02*
X124607320Y-114462560D01*
X111876880Y-54894520D02*
X94034990Y-54894520D01*
D28*
X136392920Y-134522760D02*
X138187370Y-136317210D01*
D29*
X113209970Y-56227610D02*
X111876880Y-54894520D01*
X113209970Y-60905710D02*
X113209970Y-56227610D01*
D28*
X136392920Y-134223760D02*
X136392920Y-134522760D01*
X126740920Y-86923160D02*
X128535370Y-88717610D01*
X126740920Y-86624160D02*
X126740920Y-86923160D01*
D29*
X128509970Y-68657410D02*
X128509970Y-69705710D01*
X127375920Y-67523360D02*
X128509970Y-68657410D01*
X124531120Y-67523360D02*
X127375920Y-67523360D01*
D28*
X126817120Y-106049360D02*
X128611570Y-107843810D01*
X126817120Y-105750360D02*
X126817120Y-106049360D01*
D29*
X93054739Y-55874771D02*
X93054738Y-56736962D01*
X94034990Y-54894520D02*
X93054739Y-55874771D01*
X73896220Y-59814460D02*
X75587622Y-59814460D01*
X90108921Y-61153159D02*
X88330921Y-61153159D01*
X90868930Y-58922770D02*
X90868930Y-60393150D01*
X90868930Y-60393150D02*
X90108921Y-61153159D01*
X88330921Y-61153159D02*
X87022821Y-59845059D01*
X93054738Y-56736962D02*
X90868930Y-58922770D01*
X87022821Y-59845059D02*
X75618221Y-59845059D01*
X75587622Y-59814460D02*
X75618221Y-59845059D01*
%TO.N,Col3*%
X132259970Y-70430710D02*
X132259970Y-67278020D01*
X129770710Y-64788760D02*
X131502715Y-66520765D01*
X132259970Y-67278020D02*
X131502715Y-66520765D01*
X145333720Y-77124560D02*
X147439870Y-79230710D01*
D28*
X155366720Y-134198360D02*
X155366720Y-134497360D01*
D29*
X147439870Y-79230710D02*
X147559970Y-79230710D01*
D28*
X155366720Y-134497360D02*
X157161170Y-136291810D01*
X146222720Y-96448160D02*
X148017170Y-98242610D01*
X146222720Y-96149160D02*
X146222720Y-96448160D01*
D29*
X142819120Y-115148360D02*
X146171920Y-115148360D01*
X146171920Y-115148360D02*
X147559970Y-116536410D01*
X147559970Y-116536410D02*
X147559970Y-117330710D01*
X92604730Y-55688370D02*
X93848590Y-54444510D01*
X92604729Y-56550561D02*
X92604730Y-55688370D01*
X122913319Y-56387606D02*
X129294357Y-56387607D01*
X120970223Y-54444510D02*
X122913319Y-56387606D01*
X93848590Y-54444510D02*
X120970223Y-54444510D01*
X89136220Y-59814460D02*
X89994311Y-58956369D01*
X90198921Y-58956369D02*
X92604729Y-56550561D01*
X129770710Y-56863960D02*
X129770710Y-64788760D01*
X89994311Y-58956369D02*
X90198921Y-58956369D01*
X129294357Y-56387607D02*
X129770710Y-56863960D01*
%TO.N,Col4*%
X129480758Y-55937598D02*
X123099720Y-55937597D01*
X131820920Y-66202560D02*
X130220720Y-64602360D01*
X87751920Y-58506360D02*
X86278720Y-57033160D01*
X121156623Y-53994500D02*
X93662190Y-53994500D01*
X90012520Y-58506360D02*
X87751920Y-58506360D01*
X130220720Y-56677560D02*
X129480758Y-55937598D01*
X93662190Y-53994500D02*
X92154720Y-55501970D01*
X130220720Y-64602360D02*
X130220720Y-56677560D01*
X92154720Y-55501970D02*
X92154720Y-56364160D01*
X75890120Y-54188360D02*
X73896220Y-52194460D01*
X151309970Y-67683010D02*
X149829520Y-66202560D01*
X151309970Y-70430710D02*
X151309970Y-67683010D01*
X149829520Y-66202560D02*
X131820920Y-66202560D01*
D28*
X164891720Y-96448160D02*
X166686170Y-98242610D01*
X164891720Y-96149160D02*
X164891720Y-96448160D01*
X165044120Y-77626760D02*
X166838570Y-79421210D01*
X165044120Y-77327760D02*
X165044120Y-77626760D01*
X174569120Y-134522760D02*
X176363570Y-136317210D01*
X174569120Y-134223760D02*
X174569120Y-134522760D01*
X165044120Y-115421960D02*
X166838570Y-117216410D01*
X165044120Y-115122960D02*
X165044120Y-115421960D01*
D29*
X76601320Y-57033160D02*
X75890120Y-56321960D01*
X123099720Y-55937597D02*
X121156623Y-53994500D01*
X75890120Y-56321960D02*
X75890120Y-54188360D01*
X92154720Y-56364160D02*
X90012520Y-58506360D01*
X86278720Y-57033160D02*
X76601320Y-57033160D01*
%TO.N,E1*%
X107995720Y-81772760D02*
X104769920Y-78546960D01*
X104769920Y-78546960D02*
X92628720Y-78546960D01*
X113202720Y-83169760D02*
X111805720Y-81772760D01*
X112364520Y-101279960D02*
X112364520Y-97520760D01*
X113355120Y-102270560D02*
X112364520Y-101279960D01*
X111805720Y-81772760D02*
X107995720Y-81772760D01*
X113384970Y-124668910D02*
X118333520Y-119720360D01*
X113202720Y-89341960D02*
X113202720Y-83169760D01*
X116174520Y-93710760D02*
X116174520Y-92313760D01*
X91841320Y-77759560D02*
X91993720Y-77911960D01*
X118333520Y-113929160D02*
X113355120Y-108950760D01*
X92628720Y-78546960D02*
X91841320Y-77759560D01*
X118333520Y-119720360D02*
X118333520Y-113929160D01*
X112364520Y-97520760D02*
X116174520Y-93710760D01*
X113384970Y-125180710D02*
X113384970Y-124668910D01*
X89136220Y-75054460D02*
X91841320Y-77759560D01*
X113355120Y-108950760D02*
X113355120Y-102270560D01*
X116174520Y-92313760D02*
X113202720Y-89341960D01*
%TO.N,E2*%
X114498120Y-122895360D02*
X116428520Y-120964960D01*
X112752710Y-89528360D02*
X112752710Y-83356160D01*
X92442319Y-78996969D02*
X91039810Y-77594460D01*
X116428520Y-120964960D02*
X116452510Y-120964960D01*
X107809319Y-82222769D02*
X104583520Y-78996970D01*
X108384970Y-125180710D02*
X110670320Y-122895360D01*
X111619320Y-82222770D02*
X107809319Y-82222769D01*
X91039810Y-77594460D02*
X89136220Y-77594460D01*
X112752710Y-83356160D02*
X111619320Y-82222770D01*
X112905110Y-102456960D02*
X111914510Y-101466360D01*
X115724510Y-92500160D02*
X112752710Y-89528360D01*
X117883510Y-119533960D02*
X117883510Y-114115560D01*
X117883510Y-114115560D02*
X112905110Y-109137160D01*
X110670320Y-122895360D02*
X114498120Y-122895360D01*
X111914511Y-97334359D02*
X115724510Y-93524360D01*
X112905110Y-109137160D02*
X112905110Y-102456960D01*
X115724510Y-93524360D02*
X115724510Y-92500160D01*
X104583520Y-78996970D02*
X92442319Y-78996969D01*
X111914510Y-101466360D02*
X111914511Y-97334359D01*
X116452510Y-120964960D02*
X117883510Y-119533960D01*
%TO.N,MCURGB*%
X150348540Y-65302540D02*
X152598120Y-63052960D01*
X132193720Y-65302540D02*
X141715900Y-65302540D01*
X121529420Y-53094480D02*
X92833600Y-53094480D01*
X129444339Y-55037579D02*
X129853560Y-55037580D01*
X129853560Y-55037580D02*
X131120740Y-56304760D01*
X146222720Y-63840360D02*
X146222720Y-64830960D01*
X142412720Y-63611760D02*
X142412720Y-64605720D01*
X123472519Y-55037579D02*
X121529420Y-53094480D01*
X154376120Y-63179960D02*
X156204920Y-65008760D01*
X161113170Y-65008760D02*
X163291220Y-62830710D01*
X143377920Y-62646560D02*
X145028920Y-62646560D01*
X131120740Y-64229560D02*
X132193720Y-65302540D01*
X146222720Y-64830960D02*
X146694300Y-65302540D01*
X142412720Y-64605720D02*
X141715900Y-65302540D01*
X131120740Y-56304760D02*
X131120740Y-64229560D01*
X145028920Y-62646560D02*
X146222720Y-63840360D01*
X152598120Y-63052960D02*
X153923224Y-63052960D01*
X129444339Y-55037579D02*
X123472519Y-55037579D01*
X142412720Y-63611760D02*
X143377920Y-62646560D01*
X92833600Y-53094480D02*
X92044520Y-53883560D01*
X153923224Y-63052960D02*
X154050224Y-63179960D01*
X154050224Y-63179960D02*
X154376120Y-63179960D01*
X146694300Y-65302540D02*
X150348540Y-65302540D01*
X156204920Y-65008760D02*
X161113170Y-65008760D01*
%TO.N,Net-(SW21-Pad2)*%
X138570130Y-54587570D02*
X131185920Y-54587570D01*
X91226210Y-52644470D02*
X121715820Y-52644470D01*
X89136220Y-54734460D02*
X91226210Y-52644470D01*
X139229720Y-61231710D02*
X139229720Y-55247160D01*
X139229720Y-55247160D02*
X138570130Y-54587570D01*
X123658920Y-54587570D02*
X131712130Y-54587570D01*
X121715820Y-52644470D02*
X123658920Y-54587570D01*
%TO.N,COMM*%
X86634320Y-54061360D02*
X87243920Y-53451760D01*
X122088621Y-51744451D02*
X124031720Y-53687550D01*
X87243920Y-51902360D02*
X88290519Y-50855761D01*
X124031720Y-53687550D02*
X142472121Y-53687551D01*
X75636120Y-53297950D02*
X76399530Y-54061360D01*
X91048410Y-51744450D02*
X122088621Y-51744451D01*
X76399530Y-54061360D02*
X86634320Y-54061360D01*
X88290519Y-50855761D02*
X90159721Y-50855761D01*
X73896220Y-49654460D02*
X74048620Y-49654460D01*
X142472121Y-53687551D02*
X143836530Y-55051960D01*
X143836530Y-55051960D02*
X144089120Y-55051960D01*
X144089120Y-55051960D02*
X144444720Y-54696360D01*
X90159721Y-50855761D02*
X91048410Y-51744450D01*
X87243920Y-53451760D02*
X87243920Y-51902360D01*
X75636120Y-51241960D02*
X75636120Y-53297950D01*
X74048620Y-49654460D02*
X75636120Y-51241960D01*
%TD*%
M02*
