G04 #@! TF.GenerationSoftware,KiCad,Pcbnew,(5.1.2)-2*
G04 #@! TF.CreationDate,2020-05-14T12:33:36-05:00*
G04 #@! TF.ProjectId,3DotDash,33446f74-4461-4736-982e-6b696361645f,rev?*
G04 #@! TF.SameCoordinates,Original*
G04 #@! TF.FileFunction,Legend,Bot*
G04 #@! TF.FilePolarity,Positive*
%FSLAX46Y46*%
G04 Gerber Fmt 4.6, Leading zero omitted, Abs format (unit mm)*
G04 Created by KiCad (PCBNEW (5.1.2)-2) date 2020-05-14 12:33:36*
%MOMM*%
%LPD*%
G04 APERTURE LIST*
%ADD10C,0.150000*%
%ADD11C,0.381000*%
%ADD12C,0.100000*%
G04 APERTURE END LIST*
D10*
X216400000Y-52450000D02*
X216400000Y-64550000D01*
X216400000Y-52450000D02*
X222500000Y-52450000D01*
X222500000Y-52450000D02*
X222500000Y-64550000D01*
X216400000Y-64550000D02*
X222500000Y-64550000D01*
X216650000Y-52450000D02*
X216650000Y-50450000D01*
X216650000Y-50450000D02*
X222250000Y-50450000D01*
X222250000Y-52450000D02*
X222250000Y-50450000D01*
D11*
X195262500Y-54610000D02*
X192722500Y-54610000D01*
X210502500Y-52070000D02*
X192722500Y-52070000D01*
X192722500Y-52070000D02*
X192722500Y-85090000D01*
X192722500Y-85090000D02*
X210502500Y-85090000D01*
X210502500Y-85090000D02*
X210502500Y-52070000D01*
D10*
G36*
X207457135Y-60499030D02*
G01*
X207457135Y-60599030D01*
X207957135Y-60599030D01*
X207957135Y-60499030D01*
X207457135Y-60499030D01*
G37*
X207457135Y-60499030D02*
X207457135Y-60599030D01*
X207957135Y-60599030D01*
X207957135Y-60499030D01*
X207457135Y-60499030D01*
G36*
X207457135Y-60499030D02*
G01*
X207457135Y-60799030D01*
X207557135Y-60799030D01*
X207557135Y-60499030D01*
X207457135Y-60499030D01*
G37*
X207457135Y-60499030D02*
X207457135Y-60799030D01*
X207557135Y-60799030D01*
X207557135Y-60499030D01*
X207457135Y-60499030D01*
G36*
X207457135Y-61099030D02*
G01*
X207457135Y-61299030D01*
X207557135Y-61299030D01*
X207557135Y-61099030D01*
X207457135Y-61099030D01*
G37*
X207457135Y-61099030D02*
X207457135Y-61299030D01*
X207557135Y-61299030D01*
X207557135Y-61099030D01*
X207457135Y-61099030D01*
G36*
X207857135Y-60499030D02*
G01*
X207857135Y-61299030D01*
X207957135Y-61299030D01*
X207957135Y-60499030D01*
X207857135Y-60499030D01*
G37*
X207857135Y-60499030D02*
X207857135Y-61299030D01*
X207957135Y-61299030D01*
X207957135Y-60499030D01*
X207857135Y-60499030D01*
G36*
X207657135Y-60899030D02*
G01*
X207657135Y-60999030D01*
X207757135Y-60999030D01*
X207757135Y-60899030D01*
X207657135Y-60899030D01*
G37*
X207657135Y-60899030D02*
X207657135Y-60999030D01*
X207757135Y-60999030D01*
X207757135Y-60899030D01*
X207657135Y-60899030D01*
D11*
X195262500Y-54610000D02*
X195262500Y-57150000D01*
X195262500Y-57150000D02*
X192722500Y-57150000D01*
D10*
X218546750Y-127040749D02*
X218546750Y-125516749D01*
X222610750Y-127040749D02*
X218546750Y-127040749D01*
D12*
G36*
X221848750Y-127040749D02*
G01*
X221848750Y-125516749D01*
X222102750Y-125516749D01*
X222102750Y-127040749D01*
X221848750Y-127040749D01*
G37*
X221848750Y-127040749D02*
X221848750Y-125516749D01*
X222102750Y-125516749D01*
X222102750Y-127040749D01*
X221848750Y-127040749D01*
D10*
X218546750Y-125516749D02*
X222610750Y-125516749D01*
X222610750Y-125516749D02*
X222610750Y-127040749D01*
X199496750Y-127040750D02*
X199496750Y-125516750D01*
X203560750Y-127040750D02*
X199496750Y-127040750D01*
D12*
G36*
X202798750Y-127040750D02*
G01*
X202798750Y-125516750D01*
X203052750Y-125516750D01*
X203052750Y-127040750D01*
X202798750Y-127040750D01*
G37*
X202798750Y-127040750D02*
X202798750Y-125516750D01*
X203052750Y-125516750D01*
X203052750Y-127040750D01*
X202798750Y-127040750D01*
D10*
X199496750Y-125516750D02*
X203560750Y-125516750D01*
X203560750Y-125516750D02*
X203560750Y-127040750D01*
X180446750Y-127040751D02*
X180446750Y-125516751D01*
X184510750Y-127040751D02*
X180446750Y-127040751D01*
D12*
G36*
X183748750Y-127040751D02*
G01*
X183748750Y-125516751D01*
X184002750Y-125516751D01*
X184002750Y-127040751D01*
X183748750Y-127040751D01*
G37*
X183748750Y-127040751D02*
X183748750Y-125516751D01*
X184002750Y-125516751D01*
X184002750Y-127040751D01*
X183748750Y-127040751D01*
D10*
X180446750Y-125516751D02*
X184510750Y-125516751D01*
X184510750Y-125516751D02*
X184510750Y-127040751D01*
X199496750Y-107990750D02*
X199496750Y-106466750D01*
X203560750Y-107990750D02*
X199496750Y-107990750D01*
D12*
G36*
X202798750Y-107990750D02*
G01*
X202798750Y-106466750D01*
X203052750Y-106466750D01*
X203052750Y-107990750D01*
X202798750Y-107990750D01*
G37*
X202798750Y-107990750D02*
X202798750Y-106466750D01*
X203052750Y-106466750D01*
X203052750Y-107990750D01*
X202798750Y-107990750D01*
D10*
X199496750Y-106466750D02*
X203560750Y-106466750D01*
X203560750Y-106466750D02*
X203560750Y-107990750D01*
X180446751Y-107990749D02*
X180446751Y-106466749D01*
X184510751Y-107990749D02*
X180446751Y-107990749D01*
D12*
G36*
X183748751Y-107990749D02*
G01*
X183748751Y-106466749D01*
X184002751Y-106466749D01*
X184002751Y-107990749D01*
X183748751Y-107990749D01*
G37*
X183748751Y-107990749D02*
X183748751Y-106466749D01*
X184002751Y-106466749D01*
X184002751Y-107990749D01*
X183748751Y-107990749D01*
D10*
X180446751Y-106466749D02*
X184510751Y-106466749D01*
X184510751Y-106466749D02*
X184510751Y-107990749D01*
X161396750Y-107990750D02*
X161396750Y-106466750D01*
X165460750Y-107990750D02*
X161396750Y-107990750D01*
D12*
G36*
X164698750Y-107990750D02*
G01*
X164698750Y-106466750D01*
X164952750Y-106466750D01*
X164952750Y-107990750D01*
X164698750Y-107990750D01*
G37*
X164698750Y-107990750D02*
X164698750Y-106466750D01*
X164952750Y-106466750D01*
X164952750Y-107990750D01*
X164698750Y-107990750D01*
D10*
X161396750Y-106466750D02*
X165460750Y-106466750D01*
X165460750Y-106466750D02*
X165460750Y-107990750D01*
X142346750Y-107990750D02*
X142346750Y-106466750D01*
X146410750Y-107990750D02*
X142346750Y-107990750D01*
D12*
G36*
X145648750Y-107990750D02*
G01*
X145648750Y-106466750D01*
X145902750Y-106466750D01*
X145902750Y-107990750D01*
X145648750Y-107990750D01*
G37*
X145648750Y-107990750D02*
X145648750Y-106466750D01*
X145902750Y-106466750D01*
X145902750Y-107990750D01*
X145648750Y-107990750D01*
D10*
X142346750Y-106466750D02*
X146410750Y-106466750D01*
X146410750Y-106466750D02*
X146410750Y-107990750D01*
X123138000Y-107990750D02*
X123138000Y-106466750D01*
X127202000Y-107990750D02*
X123138000Y-107990750D01*
D12*
G36*
X126440000Y-107990750D02*
G01*
X126440000Y-106466750D01*
X126694000Y-106466750D01*
X126694000Y-107990750D01*
X126440000Y-107990750D01*
G37*
X126440000Y-107990750D02*
X126440000Y-106466750D01*
X126694000Y-106466750D01*
X126694000Y-107990750D01*
X126440000Y-107990750D01*
D10*
X123138000Y-106466750D02*
X127202000Y-106466750D01*
X127202000Y-106466750D02*
X127202000Y-107990750D01*
X199496750Y-88940750D02*
X199496750Y-87416750D01*
X203560750Y-88940750D02*
X199496750Y-88940750D01*
D12*
G36*
X202798750Y-88940750D02*
G01*
X202798750Y-87416750D01*
X203052750Y-87416750D01*
X203052750Y-88940750D01*
X202798750Y-88940750D01*
G37*
X202798750Y-88940750D02*
X202798750Y-87416750D01*
X203052750Y-87416750D01*
X203052750Y-88940750D01*
X202798750Y-88940750D01*
D10*
X199496750Y-87416750D02*
X203560750Y-87416750D01*
X203560750Y-87416750D02*
X203560750Y-88940750D01*
X180446749Y-88940749D02*
X180446749Y-87416749D01*
X184510749Y-88940749D02*
X180446749Y-88940749D01*
D12*
G36*
X183748749Y-88940749D02*
G01*
X183748749Y-87416749D01*
X184002749Y-87416749D01*
X184002749Y-88940749D01*
X183748749Y-88940749D01*
G37*
X183748749Y-88940749D02*
X183748749Y-87416749D01*
X184002749Y-87416749D01*
X184002749Y-88940749D01*
X183748749Y-88940749D01*
D10*
X180446749Y-87416749D02*
X184510749Y-87416749D01*
X184510749Y-87416749D02*
X184510749Y-88940749D01*
X161396750Y-88940750D02*
X161396750Y-87416750D01*
X165460750Y-88940750D02*
X161396750Y-88940750D01*
D12*
G36*
X164698750Y-88940750D02*
G01*
X164698750Y-87416750D01*
X164952750Y-87416750D01*
X164952750Y-88940750D01*
X164698750Y-88940750D01*
G37*
X164698750Y-88940750D02*
X164698750Y-87416750D01*
X164952750Y-87416750D01*
X164952750Y-88940750D01*
X164698750Y-88940750D01*
D10*
X161396750Y-87416750D02*
X165460750Y-87416750D01*
X165460750Y-87416750D02*
X165460750Y-88940750D01*
X142346750Y-88940750D02*
X142346750Y-87416750D01*
X146410750Y-88940750D02*
X142346750Y-88940750D01*
D12*
G36*
X145648750Y-88940750D02*
G01*
X145648750Y-87416750D01*
X145902750Y-87416750D01*
X145902750Y-88940750D01*
X145648750Y-88940750D01*
G37*
X145648750Y-88940750D02*
X145648750Y-87416750D01*
X145902750Y-87416750D01*
X145902750Y-88940750D01*
X145648750Y-88940750D01*
D10*
X142346750Y-87416750D02*
X146410750Y-87416750D01*
X146410750Y-87416750D02*
X146410750Y-88940750D01*
X123296750Y-88940751D02*
X123296750Y-87416751D01*
X127360750Y-88940751D02*
X123296750Y-88940751D01*
D12*
G36*
X126598750Y-88940751D02*
G01*
X126598750Y-87416751D01*
X126852750Y-87416751D01*
X126852750Y-88940751D01*
X126598750Y-88940751D01*
G37*
X126598750Y-88940751D02*
X126598750Y-87416751D01*
X126852750Y-87416751D01*
X126852750Y-88940751D01*
X126598750Y-88940751D01*
D10*
X123296750Y-87416751D02*
X127360750Y-87416751D01*
X127360750Y-87416751D02*
X127360750Y-88940751D01*
X199496750Y-69890750D02*
X199496750Y-68366750D01*
X203560750Y-69890750D02*
X199496750Y-69890750D01*
D12*
G36*
X202798750Y-69890750D02*
G01*
X202798750Y-68366750D01*
X203052750Y-68366750D01*
X203052750Y-69890750D01*
X202798750Y-69890750D01*
G37*
X202798750Y-69890750D02*
X202798750Y-68366750D01*
X203052750Y-68366750D01*
X203052750Y-69890750D01*
X202798750Y-69890750D01*
D10*
X199496750Y-68366750D02*
X203560750Y-68366750D01*
X203560750Y-68366750D02*
X203560750Y-69890750D01*
X180446750Y-69890750D02*
X180446750Y-68366750D01*
X184510750Y-69890750D02*
X180446750Y-69890750D01*
D12*
G36*
X183748750Y-69890750D02*
G01*
X183748750Y-68366750D01*
X184002750Y-68366750D01*
X184002750Y-69890750D01*
X183748750Y-69890750D01*
G37*
X183748750Y-69890750D02*
X183748750Y-68366750D01*
X184002750Y-68366750D01*
X184002750Y-69890750D01*
X183748750Y-69890750D01*
D10*
X180446750Y-68366750D02*
X184510750Y-68366750D01*
X184510750Y-68366750D02*
X184510750Y-69890750D01*
X161396750Y-69890750D02*
X161396750Y-68366750D01*
X165460750Y-69890750D02*
X161396750Y-69890750D01*
D12*
G36*
X164698750Y-69890750D02*
G01*
X164698750Y-68366750D01*
X164952750Y-68366750D01*
X164952750Y-69890750D01*
X164698750Y-69890750D01*
G37*
X164698750Y-69890750D02*
X164698750Y-68366750D01*
X164952750Y-68366750D01*
X164952750Y-69890750D01*
X164698750Y-69890750D01*
D10*
X161396750Y-68366750D02*
X165460750Y-68366750D01*
X165460750Y-68366750D02*
X165460750Y-69890750D01*
X142346750Y-69890750D02*
X142346750Y-68366750D01*
X146410750Y-69890750D02*
X142346750Y-69890750D01*
D12*
G36*
X145648750Y-69890750D02*
G01*
X145648750Y-68366750D01*
X145902750Y-68366750D01*
X145902750Y-69890750D01*
X145648750Y-69890750D01*
G37*
X145648750Y-69890750D02*
X145648750Y-68366750D01*
X145902750Y-68366750D01*
X145902750Y-69890750D01*
X145648750Y-69890750D01*
D10*
X142346750Y-68366750D02*
X146410750Y-68366750D01*
X146410750Y-68366750D02*
X146410750Y-69890750D01*
X123296751Y-69890750D02*
X123296751Y-68366750D01*
X127360751Y-69890750D02*
X123296751Y-69890750D01*
D12*
G36*
X126598751Y-69890750D02*
G01*
X126598751Y-68366750D01*
X126852751Y-68366750D01*
X126852751Y-69890750D01*
X126598751Y-69890750D01*
G37*
X126598751Y-69890750D02*
X126598751Y-68366750D01*
X126852751Y-68366750D01*
X126852751Y-69890750D01*
X126598751Y-69890750D01*
D10*
X123296751Y-68366750D02*
X127360751Y-68366750D01*
X127360751Y-68366750D02*
X127360751Y-69890750D01*
X221602380Y-54580952D02*
X220602380Y-54580952D01*
X220602380Y-54961904D01*
X220650000Y-55057142D01*
X220697619Y-55104761D01*
X220792857Y-55152380D01*
X220935714Y-55152380D01*
X221030952Y-55104761D01*
X221078571Y-55057142D01*
X221126190Y-54961904D01*
X221126190Y-54580952D01*
X220602380Y-55866666D02*
X221316666Y-55866666D01*
X221459523Y-55819047D01*
X221554761Y-55723809D01*
X221602380Y-55580952D01*
X221602380Y-55485714D01*
X221221428Y-56342857D02*
X221221428Y-57104761D01*
X220602380Y-57485714D02*
X220602380Y-58104761D01*
X220983333Y-57771428D01*
X220983333Y-57914285D01*
X221030952Y-58009523D01*
X221078571Y-58057142D01*
X221173809Y-58104761D01*
X221411904Y-58104761D01*
X221507142Y-58057142D01*
X221554761Y-58009523D01*
X221602380Y-57914285D01*
X221602380Y-57628571D01*
X221554761Y-57533333D01*
X221507142Y-57485714D01*
X220697619Y-58485714D02*
X220650000Y-58533333D01*
X220602380Y-58628571D01*
X220602380Y-58866666D01*
X220650000Y-58961904D01*
X220697619Y-59009523D01*
X220792857Y-59057142D01*
X220888095Y-59057142D01*
X221030952Y-59009523D01*
X221602380Y-58438095D01*
X221602380Y-59057142D01*
X220602380Y-59676190D02*
X220602380Y-59771428D01*
X220650000Y-59866666D01*
X220697619Y-59914285D01*
X220792857Y-59961904D01*
X220983333Y-60009523D01*
X221221428Y-60009523D01*
X221411904Y-59961904D01*
X221507142Y-59914285D01*
X221554761Y-59866666D01*
X221602380Y-59771428D01*
X221602380Y-59676190D01*
X221554761Y-59580952D01*
X221507142Y-59533333D01*
X221411904Y-59485714D01*
X221221428Y-59438095D01*
X220983333Y-59438095D01*
X220792857Y-59485714D01*
X220697619Y-59533333D01*
X220650000Y-59580952D01*
X220602380Y-59676190D01*
X221316666Y-60390476D02*
X221316666Y-60866666D01*
X221602380Y-60295238D02*
X220602380Y-60628571D01*
X221602380Y-60961904D01*
X207185833Y-61263809D02*
X207071547Y-61301904D01*
X206881071Y-61301904D01*
X206804880Y-61263809D01*
X206766785Y-61225714D01*
X206728690Y-61149523D01*
X206728690Y-61073333D01*
X206766785Y-60997142D01*
X206804880Y-60959047D01*
X206881071Y-60920952D01*
X207033452Y-60882857D01*
X207109642Y-60844761D01*
X207147738Y-60806666D01*
X207185833Y-60730476D01*
X207185833Y-60654285D01*
X207147738Y-60578095D01*
X207109642Y-60540000D01*
X207033452Y-60501904D01*
X206842976Y-60501904D01*
X206728690Y-60540000D01*
X206500119Y-60501904D02*
X206042976Y-60501904D01*
X206271547Y-61301904D02*
X206271547Y-60501904D01*
X200231104Y-55441904D02*
X199773961Y-55441904D01*
X200002532Y-56241904D02*
X200002532Y-55441904D01*
X199583485Y-55441904D02*
X199050151Y-56241904D01*
X199050151Y-55441904D02*
X199583485Y-56241904D01*
X198593008Y-55441904D02*
X198516818Y-55441904D01*
X198440628Y-55480000D01*
X198402532Y-55518095D01*
X198364437Y-55594285D01*
X198326342Y-55746666D01*
X198326342Y-55937142D01*
X198364437Y-56089523D01*
X198402532Y-56165714D01*
X198440628Y-56203809D01*
X198516818Y-56241904D01*
X198593008Y-56241904D01*
X198669199Y-56203809D01*
X198707294Y-56165714D01*
X198745389Y-56089523D01*
X198783485Y-55937142D01*
X198783485Y-55746666D01*
X198745389Y-55594285D01*
X198707294Y-55518095D01*
X198669199Y-55480000D01*
X198593008Y-55441904D01*
X197412056Y-55403809D02*
X198097770Y-56432380D01*
X197145389Y-56241904D02*
X197145389Y-55441904D01*
X196954913Y-55441904D01*
X196840628Y-55480000D01*
X196764437Y-55556190D01*
X196726342Y-55632380D01*
X196688247Y-55784761D01*
X196688247Y-55899047D01*
X196726342Y-56051428D01*
X196764437Y-56127619D01*
X196840628Y-56203809D01*
X196954913Y-56241904D01*
X197145389Y-56241904D01*
X196421580Y-55441904D02*
X195926342Y-55441904D01*
X196193008Y-55746666D01*
X196078723Y-55746666D01*
X196002532Y-55784761D01*
X195964437Y-55822857D01*
X195926342Y-55899047D01*
X195926342Y-56089523D01*
X195964437Y-56165714D01*
X196002532Y-56203809D01*
X196078723Y-56241904D01*
X196307294Y-56241904D01*
X196383485Y-56203809D01*
X196421580Y-56165714D01*
X207397309Y-81222857D02*
X207283023Y-81260952D01*
X207244928Y-81299047D01*
X207206833Y-81375238D01*
X207206833Y-81489523D01*
X207244928Y-81565714D01*
X207283023Y-81603809D01*
X207359214Y-81641904D01*
X207663976Y-81641904D01*
X207663976Y-80841904D01*
X207397309Y-80841904D01*
X207321119Y-80880000D01*
X207283023Y-80918095D01*
X207244928Y-80994285D01*
X207244928Y-81070476D01*
X207283023Y-81146666D01*
X207321119Y-81184761D01*
X207397309Y-81222857D01*
X207663976Y-81222857D01*
X206902071Y-80918095D02*
X206863976Y-80880000D01*
X206787785Y-80841904D01*
X206597309Y-80841904D01*
X206521119Y-80880000D01*
X206483023Y-80918095D01*
X206444928Y-80994285D01*
X206444928Y-81070476D01*
X206483023Y-81184761D01*
X206940166Y-81641904D01*
X206444928Y-81641904D01*
X207340166Y-73602857D02*
X207606833Y-73602857D01*
X207606833Y-74021904D02*
X207606833Y-73221904D01*
X207225880Y-73221904D01*
X206997309Y-73221904D02*
X206463976Y-73221904D01*
X206806833Y-74021904D01*
X207340166Y-71062857D02*
X207606833Y-71062857D01*
X207606833Y-71481904D02*
X207606833Y-70681904D01*
X207225880Y-70681904D01*
X206578261Y-70681904D02*
X206730642Y-70681904D01*
X206806833Y-70720000D01*
X206844928Y-70758095D01*
X206921119Y-70872380D01*
X206959214Y-71024761D01*
X206959214Y-71329523D01*
X206921119Y-71405714D01*
X206883023Y-71443809D01*
X206806833Y-71481904D01*
X206654452Y-71481904D01*
X206578261Y-71443809D01*
X206540166Y-71405714D01*
X206502071Y-71329523D01*
X206502071Y-71139047D01*
X206540166Y-71062857D01*
X206578261Y-71024761D01*
X206654452Y-70986666D01*
X206806833Y-70986666D01*
X206883023Y-71024761D01*
X206921119Y-71062857D01*
X206959214Y-71139047D01*
X207340166Y-68522857D02*
X207606833Y-68522857D01*
X207606833Y-68941904D02*
X207606833Y-68141904D01*
X207225880Y-68141904D01*
X206540166Y-68141904D02*
X206921119Y-68141904D01*
X206959214Y-68522857D01*
X206921119Y-68484761D01*
X206844928Y-68446666D01*
X206654452Y-68446666D01*
X206578261Y-68484761D01*
X206540166Y-68522857D01*
X206502071Y-68599047D01*
X206502071Y-68789523D01*
X206540166Y-68865714D01*
X206578261Y-68903809D01*
X206654452Y-68941904D01*
X206844928Y-68941904D01*
X206921119Y-68903809D01*
X206959214Y-68865714D01*
X207625880Y-56241904D02*
X207892547Y-55860952D01*
X208083023Y-56241904D02*
X208083023Y-55441904D01*
X207778261Y-55441904D01*
X207702071Y-55480000D01*
X207663976Y-55518095D01*
X207625880Y-55594285D01*
X207625880Y-55708571D01*
X207663976Y-55784761D01*
X207702071Y-55822857D01*
X207778261Y-55860952D01*
X208083023Y-55860952D01*
X207321119Y-56013333D02*
X206940166Y-56013333D01*
X207397309Y-56241904D02*
X207130642Y-55441904D01*
X206863976Y-56241904D01*
X206673500Y-55441904D02*
X206483023Y-56241904D01*
X206330642Y-55670476D01*
X206178261Y-56241904D01*
X205987785Y-55441904D01*
X207683023Y-58020000D02*
X207759214Y-57981904D01*
X207873500Y-57981904D01*
X207987785Y-58020000D01*
X208063976Y-58096190D01*
X208102071Y-58172380D01*
X208140166Y-58324761D01*
X208140166Y-58439047D01*
X208102071Y-58591428D01*
X208063976Y-58667619D01*
X207987785Y-58743809D01*
X207873500Y-58781904D01*
X207797309Y-58781904D01*
X207683023Y-58743809D01*
X207644928Y-58705714D01*
X207644928Y-58439047D01*
X207797309Y-58439047D01*
X207302071Y-58781904D02*
X207302071Y-57981904D01*
X206844928Y-58781904D01*
X206844928Y-57981904D01*
X206463976Y-58781904D02*
X206463976Y-57981904D01*
X206273500Y-57981904D01*
X206159214Y-58020000D01*
X206083023Y-58096190D01*
X206044928Y-58172380D01*
X206006833Y-58324761D01*
X206006833Y-58439047D01*
X206044928Y-58591428D01*
X206083023Y-58667619D01*
X206159214Y-58743809D01*
X206273500Y-58781904D01*
X206463976Y-58781904D01*
X208140166Y-63061904D02*
X207873500Y-63861904D01*
X207606833Y-63061904D01*
X206883023Y-63785714D02*
X206921119Y-63823809D01*
X207035404Y-63861904D01*
X207111595Y-63861904D01*
X207225880Y-63823809D01*
X207302071Y-63747619D01*
X207340166Y-63671428D01*
X207378261Y-63519047D01*
X207378261Y-63404761D01*
X207340166Y-63252380D01*
X207302071Y-63176190D01*
X207225880Y-63100000D01*
X207111595Y-63061904D01*
X207035404Y-63061904D01*
X206921119Y-63100000D01*
X206883023Y-63138095D01*
X206083023Y-63785714D02*
X206121119Y-63823809D01*
X206235404Y-63861904D01*
X206311595Y-63861904D01*
X206425880Y-63823809D01*
X206502071Y-63747619D01*
X206540166Y-63671428D01*
X206578261Y-63519047D01*
X206578261Y-63404761D01*
X206540166Y-63252380D01*
X206502071Y-63176190D01*
X206425880Y-63100000D01*
X206311595Y-63061904D01*
X206235404Y-63061904D01*
X206121119Y-63100000D01*
X206083023Y-63138095D01*
X207340166Y-65982857D02*
X207606833Y-65982857D01*
X207606833Y-66401904D02*
X207606833Y-65601904D01*
X207225880Y-65601904D01*
X206578261Y-65868571D02*
X206578261Y-66401904D01*
X206768738Y-65563809D02*
X206959214Y-66135238D01*
X206463976Y-66135238D01*
X207397309Y-76142857D02*
X207283023Y-76180952D01*
X207244928Y-76219047D01*
X207206833Y-76295238D01*
X207206833Y-76409523D01*
X207244928Y-76485714D01*
X207283023Y-76523809D01*
X207359214Y-76561904D01*
X207663976Y-76561904D01*
X207663976Y-75761904D01*
X207397309Y-75761904D01*
X207321119Y-75800000D01*
X207283023Y-75838095D01*
X207244928Y-75914285D01*
X207244928Y-75990476D01*
X207283023Y-76066666D01*
X207321119Y-76104761D01*
X207397309Y-76142857D01*
X207663976Y-76142857D01*
X206444928Y-76561904D02*
X206902071Y-76561904D01*
X206673500Y-76561904D02*
X206673500Y-75761904D01*
X206749690Y-75876190D01*
X206825880Y-75952380D01*
X206902071Y-75990476D01*
X207397309Y-78682857D02*
X207283023Y-78720952D01*
X207244928Y-78759047D01*
X207206833Y-78835238D01*
X207206833Y-78949523D01*
X207244928Y-79025714D01*
X207283023Y-79063809D01*
X207359214Y-79101904D01*
X207663976Y-79101904D01*
X207663976Y-78301904D01*
X207397309Y-78301904D01*
X207321119Y-78340000D01*
X207283023Y-78378095D01*
X207244928Y-78454285D01*
X207244928Y-78530476D01*
X207283023Y-78606666D01*
X207321119Y-78644761D01*
X207397309Y-78682857D01*
X207663976Y-78682857D01*
X206940166Y-78301904D02*
X206444928Y-78301904D01*
X206711595Y-78606666D01*
X206597309Y-78606666D01*
X206521119Y-78644761D01*
X206483023Y-78682857D01*
X206444928Y-78759047D01*
X206444928Y-78949523D01*
X206483023Y-79025714D01*
X206521119Y-79063809D01*
X206597309Y-79101904D01*
X206825880Y-79101904D01*
X206902071Y-79063809D01*
X206940166Y-79025714D01*
X207397309Y-83762857D02*
X207283023Y-83800952D01*
X207244928Y-83839047D01*
X207206833Y-83915238D01*
X207206833Y-84029523D01*
X207244928Y-84105714D01*
X207283023Y-84143809D01*
X207359214Y-84181904D01*
X207663976Y-84181904D01*
X207663976Y-83381904D01*
X207397309Y-83381904D01*
X207321119Y-83420000D01*
X207283023Y-83458095D01*
X207244928Y-83534285D01*
X207244928Y-83610476D01*
X207283023Y-83686666D01*
X207321119Y-83724761D01*
X207397309Y-83762857D01*
X207663976Y-83762857D01*
X206521119Y-83381904D02*
X206673500Y-83381904D01*
X206749690Y-83420000D01*
X206787785Y-83458095D01*
X206863976Y-83572380D01*
X206902071Y-83724761D01*
X206902071Y-84029523D01*
X206863976Y-84105714D01*
X206825880Y-84143809D01*
X206749690Y-84181904D01*
X206597309Y-84181904D01*
X206521119Y-84143809D01*
X206483023Y-84105714D01*
X206444928Y-84029523D01*
X206444928Y-83839047D01*
X206483023Y-83762857D01*
X206521119Y-83724761D01*
X206597309Y-83686666D01*
X206749690Y-83686666D01*
X206825880Y-83724761D01*
X206863976Y-83762857D01*
X206902071Y-83839047D01*
X196475309Y-83762857D02*
X196361023Y-83800952D01*
X196322928Y-83839047D01*
X196284833Y-83915238D01*
X196284833Y-84029523D01*
X196322928Y-84105714D01*
X196361023Y-84143809D01*
X196437214Y-84181904D01*
X196741976Y-84181904D01*
X196741976Y-83381904D01*
X196475309Y-83381904D01*
X196399119Y-83420000D01*
X196361023Y-83458095D01*
X196322928Y-83534285D01*
X196322928Y-83610476D01*
X196361023Y-83686666D01*
X196399119Y-83724761D01*
X196475309Y-83762857D01*
X196741976Y-83762857D01*
X195561023Y-83381904D02*
X195941976Y-83381904D01*
X195980071Y-83762857D01*
X195941976Y-83724761D01*
X195865785Y-83686666D01*
X195675309Y-83686666D01*
X195599119Y-83724761D01*
X195561023Y-83762857D01*
X195522928Y-83839047D01*
X195522928Y-84029523D01*
X195561023Y-84105714D01*
X195599119Y-84143809D01*
X195675309Y-84181904D01*
X195865785Y-84181904D01*
X195941976Y-84143809D01*
X195980071Y-84105714D01*
X196475309Y-81222857D02*
X196361023Y-81260952D01*
X196322928Y-81299047D01*
X196284833Y-81375238D01*
X196284833Y-81489523D01*
X196322928Y-81565714D01*
X196361023Y-81603809D01*
X196437214Y-81641904D01*
X196741976Y-81641904D01*
X196741976Y-80841904D01*
X196475309Y-80841904D01*
X196399119Y-80880000D01*
X196361023Y-80918095D01*
X196322928Y-80994285D01*
X196322928Y-81070476D01*
X196361023Y-81146666D01*
X196399119Y-81184761D01*
X196475309Y-81222857D01*
X196741976Y-81222857D01*
X195599119Y-81108571D02*
X195599119Y-81641904D01*
X195789595Y-80803809D02*
X195980071Y-81375238D01*
X195484833Y-81375238D01*
X196703880Y-78682857D02*
X196437214Y-78682857D01*
X196322928Y-79101904D02*
X196703880Y-79101904D01*
X196703880Y-78301904D01*
X196322928Y-78301904D01*
X195637214Y-78301904D02*
X195789595Y-78301904D01*
X195865785Y-78340000D01*
X195903880Y-78378095D01*
X195980071Y-78492380D01*
X196018166Y-78644761D01*
X196018166Y-78949523D01*
X195980071Y-79025714D01*
X195941976Y-79063809D01*
X195865785Y-79101904D01*
X195713404Y-79101904D01*
X195637214Y-79063809D01*
X195599119Y-79025714D01*
X195561023Y-78949523D01*
X195561023Y-78759047D01*
X195599119Y-78682857D01*
X195637214Y-78644761D01*
X195713404Y-78606666D01*
X195865785Y-78606666D01*
X195941976Y-78644761D01*
X195980071Y-78682857D01*
X196018166Y-78759047D01*
X196741976Y-76561904D02*
X196741976Y-75761904D01*
X196551500Y-75761904D01*
X196437214Y-75800000D01*
X196361023Y-75876190D01*
X196322928Y-75952380D01*
X196284833Y-76104761D01*
X196284833Y-76219047D01*
X196322928Y-76371428D01*
X196361023Y-76447619D01*
X196437214Y-76523809D01*
X196551500Y-76561904D01*
X196741976Y-76561904D01*
X196018166Y-75761904D02*
X195484833Y-75761904D01*
X195827690Y-76561904D01*
X196284833Y-73945714D02*
X196322928Y-73983809D01*
X196437214Y-74021904D01*
X196513404Y-74021904D01*
X196627690Y-73983809D01*
X196703880Y-73907619D01*
X196741976Y-73831428D01*
X196780071Y-73679047D01*
X196780071Y-73564761D01*
X196741976Y-73412380D01*
X196703880Y-73336190D01*
X196627690Y-73260000D01*
X196513404Y-73221904D01*
X196437214Y-73221904D01*
X196322928Y-73260000D01*
X196284833Y-73298095D01*
X195599119Y-73221904D02*
X195751500Y-73221904D01*
X195827690Y-73260000D01*
X195865785Y-73298095D01*
X195941976Y-73412380D01*
X195980071Y-73564761D01*
X195980071Y-73869523D01*
X195941976Y-73945714D01*
X195903880Y-73983809D01*
X195827690Y-74021904D01*
X195675309Y-74021904D01*
X195599119Y-73983809D01*
X195561023Y-73945714D01*
X195522928Y-73869523D01*
X195522928Y-73679047D01*
X195561023Y-73602857D01*
X195599119Y-73564761D01*
X195675309Y-73526666D01*
X195827690Y-73526666D01*
X195903880Y-73564761D01*
X195941976Y-73602857D01*
X195980071Y-73679047D01*
X196741976Y-71481904D02*
X196741976Y-70681904D01*
X196551500Y-70681904D01*
X196437214Y-70720000D01*
X196361023Y-70796190D01*
X196322928Y-70872380D01*
X196284833Y-71024761D01*
X196284833Y-71139047D01*
X196322928Y-71291428D01*
X196361023Y-71367619D01*
X196437214Y-71443809D01*
X196551500Y-71481904D01*
X196741976Y-71481904D01*
X195599119Y-70948571D02*
X195599119Y-71481904D01*
X195789595Y-70643809D02*
X195980071Y-71215238D01*
X195484833Y-71215238D01*
X196761023Y-60560000D02*
X196837214Y-60521904D01*
X196951500Y-60521904D01*
X197065785Y-60560000D01*
X197141976Y-60636190D01*
X197180071Y-60712380D01*
X197218166Y-60864761D01*
X197218166Y-60979047D01*
X197180071Y-61131428D01*
X197141976Y-61207619D01*
X197065785Y-61283809D01*
X196951500Y-61321904D01*
X196875309Y-61321904D01*
X196761023Y-61283809D01*
X196722928Y-61245714D01*
X196722928Y-60979047D01*
X196875309Y-60979047D01*
X196380071Y-61321904D02*
X196380071Y-60521904D01*
X195922928Y-61321904D01*
X195922928Y-60521904D01*
X195541976Y-61321904D02*
X195541976Y-60521904D01*
X195351500Y-60521904D01*
X195237214Y-60560000D01*
X195161023Y-60636190D01*
X195122928Y-60712380D01*
X195084833Y-60864761D01*
X195084833Y-60979047D01*
X195122928Y-61131428D01*
X195161023Y-61207619D01*
X195237214Y-61283809D01*
X195351500Y-61321904D01*
X195541976Y-61321904D01*
X196761023Y-63100000D02*
X196837214Y-63061904D01*
X196951500Y-63061904D01*
X197065785Y-63100000D01*
X197141976Y-63176190D01*
X197180071Y-63252380D01*
X197218166Y-63404761D01*
X197218166Y-63519047D01*
X197180071Y-63671428D01*
X197141976Y-63747619D01*
X197065785Y-63823809D01*
X196951500Y-63861904D01*
X196875309Y-63861904D01*
X196761023Y-63823809D01*
X196722928Y-63785714D01*
X196722928Y-63519047D01*
X196875309Y-63519047D01*
X196380071Y-63861904D02*
X196380071Y-63061904D01*
X195922928Y-63861904D01*
X195922928Y-63061904D01*
X195541976Y-63861904D02*
X195541976Y-63061904D01*
X195351500Y-63061904D01*
X195237214Y-63100000D01*
X195161023Y-63176190D01*
X195122928Y-63252380D01*
X195084833Y-63404761D01*
X195084833Y-63519047D01*
X195122928Y-63671428D01*
X195161023Y-63747619D01*
X195237214Y-63823809D01*
X195351500Y-63861904D01*
X195541976Y-63861904D01*
X196741976Y-66401904D02*
X196741976Y-65601904D01*
X196551500Y-65601904D01*
X196437214Y-65640000D01*
X196361023Y-65716190D01*
X196322928Y-65792380D01*
X196284833Y-65944761D01*
X196284833Y-66059047D01*
X196322928Y-66211428D01*
X196361023Y-66287619D01*
X196437214Y-66363809D01*
X196551500Y-66401904D01*
X196741976Y-66401904D01*
X195522928Y-66401904D02*
X195980071Y-66401904D01*
X195751500Y-66401904D02*
X195751500Y-65601904D01*
X195827690Y-65716190D01*
X195903880Y-65792380D01*
X195980071Y-65830476D01*
X196741976Y-68941904D02*
X196741976Y-68141904D01*
X196551500Y-68141904D01*
X196437214Y-68180000D01*
X196361023Y-68256190D01*
X196322928Y-68332380D01*
X196284833Y-68484761D01*
X196284833Y-68599047D01*
X196322928Y-68751428D01*
X196361023Y-68827619D01*
X196437214Y-68903809D01*
X196551500Y-68941904D01*
X196741976Y-68941904D01*
X195789595Y-68141904D02*
X195713404Y-68141904D01*
X195637214Y-68180000D01*
X195599119Y-68218095D01*
X195561023Y-68294285D01*
X195522928Y-68446666D01*
X195522928Y-68637142D01*
X195561023Y-68789523D01*
X195599119Y-68865714D01*
X195637214Y-68903809D01*
X195713404Y-68941904D01*
X195789595Y-68941904D01*
X195865785Y-68903809D01*
X195903880Y-68865714D01*
X195941976Y-68789523D01*
X195980071Y-68637142D01*
X195980071Y-68446666D01*
X195941976Y-68294285D01*
X195903880Y-68218095D01*
X195865785Y-68180000D01*
X195789595Y-68141904D01*
X196741976Y-58781904D02*
X196741976Y-57981904D01*
X196551500Y-57981904D01*
X196437214Y-58020000D01*
X196361023Y-58096190D01*
X196322928Y-58172380D01*
X196284833Y-58324761D01*
X196284833Y-58439047D01*
X196322928Y-58591428D01*
X196361023Y-58667619D01*
X196437214Y-58743809D01*
X196551500Y-58781904D01*
X196741976Y-58781904D01*
X195980071Y-58058095D02*
X195941976Y-58020000D01*
X195865785Y-57981904D01*
X195675309Y-57981904D01*
X195599119Y-58020000D01*
X195561023Y-58058095D01*
X195522928Y-58134285D01*
X195522928Y-58210476D01*
X195561023Y-58324761D01*
X196018166Y-58781904D01*
X195522928Y-58781904D01*
M02*
