G04 #@! TF.GenerationSoftware,KiCad,Pcbnew,(5.1.2)-2*
G04 #@! TF.CreationDate,2020-05-14T12:33:37-05:00*
G04 #@! TF.ProjectId,3DotDash,33446f74-4461-4736-982e-6b696361645f,rev?*
G04 #@! TF.SameCoordinates,Original*
G04 #@! TF.FileFunction,Profile,NP*
%FSLAX46Y46*%
G04 Gerber Fmt 4.6, Leading zero omitted, Abs format (unit mm)*
G04 Created by KiCad (PCBNEW (5.1.2)-2) date 2020-05-14 12:33:37*
%MOMM*%
%LPD*%
G04 APERTURE LIST*
%ADD10C,0.050000*%
G04 APERTURE END LIST*
D10*
X172730000Y28060000D02*
X115680000Y8940000D01*
X115680000Y8940000D02*
X115680000Y-48260000D01*
X194540000Y-48260000D02*
X222230000Y-48260000D01*
X194540000Y-48260000D02*
X194540000Y-51600000D01*
X131330000Y-48260000D02*
X115680000Y-48260000D01*
X229990000Y28060000D02*
X172730000Y28060000D01*
X137960000Y-48260000D02*
X187710000Y-48260000D01*
X222230000Y-48260000D02*
X229990000Y-34670000D01*
X229990000Y28060000D02*
X229990000Y-34670000D01*
X194540000Y-51600000D02*
X222230000Y-51600000D01*
X131330000Y-51600000D02*
X115680000Y-51600000D01*
X131330000Y-51600000D02*
X131330000Y-48260000D01*
X137960000Y-51600000D02*
X137960000Y-48260000D01*
X187710000Y-51600000D02*
X187710000Y-48260000D01*
X222230000Y-51600000D02*
X229990000Y-65190000D01*
X172730000Y-127920000D02*
X115680000Y-108800000D01*
X115680000Y-108800000D02*
X115680000Y-51600000D01*
X229990000Y-127920000D02*
X172730000Y-127920000D01*
X137960000Y-51600000D02*
X187710000Y-51600000D01*
X229990000Y-127920000D02*
X229990000Y-65190000D01*
M02*
