G04 #@! TF.GenerationSoftware,KiCad,Pcbnew,(5.1.6)-1*
G04 #@! TF.CreationDate,2020-08-19T15:34:48-05:00*
G04 #@! TF.ProjectId,CurvedChoc,43757276-6564-4436-986f-632e6b696361,rev?*
G04 #@! TF.SameCoordinates,Original*
G04 #@! TF.FileFunction,Legend,Bot*
G04 #@! TF.FilePolarity,Positive*
%FSLAX46Y46*%
G04 Gerber Fmt 4.6, Leading zero omitted, Abs format (unit mm)*
G04 Created by KiCad (PCBNEW (5.1.6)-1) date 2020-08-19 15:34:48*
%MOMM*%
%LPD*%
G01*
G04 APERTURE LIST*
%ADD10C,0.381000*%
%ADD11C,0.150000*%
%ADD12C,0.300000*%
%ADD13C,0.100000*%
%ADD14C,2.102000*%
%ADD15C,0.889400*%
%ADD16R,4.102000X2.102000*%
%ADD17R,2.102000X2.102000*%
%ADD18R,2.102000X3.302000*%
%ADD19C,1.102000*%
%ADD20C,1.854600*%
%ADD21R,1.854600X1.854600*%
%ADD22C,1.302000*%
%ADD23C,3.502000*%
%ADD24C,2.002000*%
%ADD25C,1.902000*%
%ADD26C,2.202000*%
%ADD27C,1.852000*%
%ADD28O,1.702000X2.302000*%
%ADD29C,1.602000*%
%ADD30R,1.753000X1.753000*%
%ADD31C,1.753000*%
G04 APERTURE END LIST*
D10*
X105568750Y-22225000D02*
X103028750Y-22225000D01*
X105568750Y-19685000D02*
X105568750Y-22225000D01*
D11*
G36*
X117963385Y-25974030D02*
G01*
X117963385Y-26074030D01*
X118063385Y-26074030D01*
X118063385Y-25974030D01*
X117963385Y-25974030D01*
G37*
X117963385Y-25974030D02*
X117963385Y-26074030D01*
X118063385Y-26074030D01*
X118063385Y-25974030D01*
X117963385Y-25974030D01*
G36*
X118163385Y-25574030D02*
G01*
X118163385Y-26374030D01*
X118263385Y-26374030D01*
X118263385Y-25574030D01*
X118163385Y-25574030D01*
G37*
X118163385Y-25574030D02*
X118163385Y-26374030D01*
X118263385Y-26374030D01*
X118263385Y-25574030D01*
X118163385Y-25574030D01*
G36*
X117763385Y-26174030D02*
G01*
X117763385Y-26374030D01*
X117863385Y-26374030D01*
X117863385Y-26174030D01*
X117763385Y-26174030D01*
G37*
X117763385Y-26174030D02*
X117763385Y-26374030D01*
X117863385Y-26374030D01*
X117863385Y-26174030D01*
X117763385Y-26174030D01*
G36*
X117763385Y-25574030D02*
G01*
X117763385Y-25874030D01*
X117863385Y-25874030D01*
X117863385Y-25574030D01*
X117763385Y-25574030D01*
G37*
X117763385Y-25574030D02*
X117763385Y-25874030D01*
X117863385Y-25874030D01*
X117863385Y-25574030D01*
X117763385Y-25574030D01*
G36*
X117763385Y-25574030D02*
G01*
X117763385Y-25674030D01*
X118263385Y-25674030D01*
X118263385Y-25574030D01*
X117763385Y-25574030D01*
G37*
X117763385Y-25574030D02*
X117763385Y-25674030D01*
X118263385Y-25674030D01*
X118263385Y-25574030D01*
X117763385Y-25574030D01*
D10*
X120808750Y-50165000D02*
X120808750Y-17145000D01*
X103028750Y-50165000D02*
X120808750Y-50165000D01*
X103028750Y-17145000D02*
X103028750Y-50165000D01*
X120808750Y-17145000D02*
X103028750Y-17145000D01*
X105568750Y-19685000D02*
X103028750Y-19685000D01*
D12*
X165893750Y-88106250D02*
X164623750Y-88106250D01*
X165893750Y-100806250D02*
X165893750Y-99536250D01*
X164623750Y-100806250D02*
X165893750Y-100806250D01*
X153193750Y-99536250D02*
X153193750Y-100806250D01*
X153193750Y-89376250D02*
X153193750Y-88106250D01*
X153193750Y-100806250D02*
X154463750Y-100806250D01*
X165893750Y-89376250D02*
X165893750Y-88106250D01*
X153193750Y-88106250D02*
X154463750Y-88106250D01*
X146843750Y-88106250D02*
X145573750Y-88106250D01*
X146843750Y-100806250D02*
X146843750Y-99536250D01*
X145573750Y-100806250D02*
X146843750Y-100806250D01*
X134143750Y-99536250D02*
X134143750Y-100806250D01*
X134143750Y-89376250D02*
X134143750Y-88106250D01*
X134143750Y-100806250D02*
X135413750Y-100806250D01*
X146843750Y-89376250D02*
X146843750Y-88106250D01*
X134143750Y-88106250D02*
X135413750Y-88106250D01*
X127793750Y-88106250D02*
X126523750Y-88106250D01*
X127793750Y-100806250D02*
X127793750Y-99536250D01*
X126523750Y-100806250D02*
X127793750Y-100806250D01*
X115093750Y-99536250D02*
X115093750Y-100806250D01*
X115093750Y-89376250D02*
X115093750Y-88106250D01*
X115093750Y-100806250D02*
X116363750Y-100806250D01*
X127793750Y-89376250D02*
X127793750Y-88106250D01*
X115093750Y-88106250D02*
X116363750Y-88106250D01*
X156368750Y-69056250D02*
X155098750Y-69056250D01*
X156368750Y-81756250D02*
X156368750Y-80486250D01*
X155098750Y-81756250D02*
X156368750Y-81756250D01*
X143668750Y-80486250D02*
X143668750Y-81756250D01*
X143668750Y-70326250D02*
X143668750Y-69056250D01*
X143668750Y-81756250D02*
X144938750Y-81756250D01*
X156368750Y-70326250D02*
X156368750Y-69056250D01*
X143668750Y-69056250D02*
X144938750Y-69056250D01*
X137318750Y-69056250D02*
X136048750Y-69056250D01*
X137318750Y-81756250D02*
X137318750Y-80486250D01*
X136048750Y-81756250D02*
X137318750Y-81756250D01*
X124618750Y-80486250D02*
X124618750Y-81756250D01*
X124618750Y-70326250D02*
X124618750Y-69056250D01*
X124618750Y-81756250D02*
X125888750Y-81756250D01*
X137318750Y-70326250D02*
X137318750Y-69056250D01*
X124618750Y-69056250D02*
X125888750Y-69056250D01*
X118268750Y-59531250D02*
X116998750Y-59531250D01*
X118268750Y-72231250D02*
X118268750Y-70961250D01*
X116998750Y-72231250D02*
X118268750Y-72231250D01*
X105568750Y-70961250D02*
X105568750Y-72231250D01*
X105568750Y-60801250D02*
X105568750Y-59531250D01*
X105568750Y-72231250D02*
X106838750Y-72231250D01*
X118268750Y-60801250D02*
X118268750Y-59531250D01*
X105568750Y-59531250D02*
X106838750Y-59531250D01*
X99218750Y-64293750D02*
X97948750Y-64293750D01*
X99218750Y-76993750D02*
X99218750Y-75723750D01*
X97948750Y-76993750D02*
X99218750Y-76993750D01*
X86518750Y-75723750D02*
X86518750Y-76993750D01*
X86518750Y-65563750D02*
X86518750Y-64293750D01*
X86518750Y-76993750D02*
X87788750Y-76993750D01*
X99218750Y-65563750D02*
X99218750Y-64293750D01*
X86518750Y-64293750D02*
X87788750Y-64293750D01*
X80168750Y-83343750D02*
X78898750Y-83343750D01*
X80168750Y-96043750D02*
X80168750Y-94773750D01*
X78898750Y-96043750D02*
X80168750Y-96043750D01*
X67468750Y-94773750D02*
X67468750Y-96043750D01*
X67468750Y-84613750D02*
X67468750Y-83343750D01*
X67468750Y-96043750D02*
X68738750Y-96043750D01*
X80168750Y-84613750D02*
X80168750Y-83343750D01*
X67468750Y-83343750D02*
X68738750Y-83343750D01*
X156368750Y-50006250D02*
X155098750Y-50006250D01*
X156368750Y-62706250D02*
X156368750Y-61436250D01*
X155098750Y-62706250D02*
X156368750Y-62706250D01*
X143668750Y-61436250D02*
X143668750Y-62706250D01*
X143668750Y-51276250D02*
X143668750Y-50006250D01*
X143668750Y-62706250D02*
X144938750Y-62706250D01*
X156368750Y-51276250D02*
X156368750Y-50006250D01*
X143668750Y-50006250D02*
X144938750Y-50006250D01*
X137318750Y-50006250D02*
X136048750Y-50006250D01*
X137318750Y-62706250D02*
X137318750Y-61436250D01*
X136048750Y-62706250D02*
X137318750Y-62706250D01*
X124618750Y-61436250D02*
X124618750Y-62706250D01*
X124618750Y-51276250D02*
X124618750Y-50006250D01*
X124618750Y-62706250D02*
X125888750Y-62706250D01*
X137318750Y-51276250D02*
X137318750Y-50006250D01*
X124618750Y-50006250D02*
X125888750Y-50006250D01*
X118268750Y-40481250D02*
X116998750Y-40481250D01*
X118268750Y-53181250D02*
X118268750Y-51911250D01*
X116998750Y-53181250D02*
X118268750Y-53181250D01*
X105568750Y-51911250D02*
X105568750Y-53181250D01*
X105568750Y-41751250D02*
X105568750Y-40481250D01*
X105568750Y-53181250D02*
X106838750Y-53181250D01*
X118268750Y-41751250D02*
X118268750Y-40481250D01*
X105568750Y-40481250D02*
X106838750Y-40481250D01*
X99218750Y-45243750D02*
X97948750Y-45243750D01*
X99218750Y-57943750D02*
X99218750Y-56673750D01*
X97948750Y-57943750D02*
X99218750Y-57943750D01*
X86518750Y-56673750D02*
X86518750Y-57943750D01*
X86518750Y-46513750D02*
X86518750Y-45243750D01*
X86518750Y-57943750D02*
X87788750Y-57943750D01*
X99218750Y-46513750D02*
X99218750Y-45243750D01*
X86518750Y-45243750D02*
X87788750Y-45243750D01*
X80168750Y-64293750D02*
X78898750Y-64293750D01*
X80168750Y-76993750D02*
X80168750Y-75723750D01*
X78898750Y-76993750D02*
X80168750Y-76993750D01*
X67468750Y-75723750D02*
X67468750Y-76993750D01*
X67468750Y-65563750D02*
X67468750Y-64293750D01*
X67468750Y-76993750D02*
X68738750Y-76993750D01*
X80168750Y-65563750D02*
X80168750Y-64293750D01*
X67468750Y-64293750D02*
X68738750Y-64293750D01*
X156368750Y-30956250D02*
X155098750Y-30956250D01*
X156368750Y-43656250D02*
X156368750Y-42386250D01*
X155098750Y-43656250D02*
X156368750Y-43656250D01*
X143668750Y-42386250D02*
X143668750Y-43656250D01*
X143668750Y-32226250D02*
X143668750Y-30956250D01*
X143668750Y-43656250D02*
X144938750Y-43656250D01*
X156368750Y-32226250D02*
X156368750Y-30956250D01*
X143668750Y-30956250D02*
X144938750Y-30956250D01*
X137318750Y-30956250D02*
X136048750Y-30956250D01*
X137318750Y-43656250D02*
X137318750Y-42386250D01*
X136048750Y-43656250D02*
X137318750Y-43656250D01*
X124618750Y-42386250D02*
X124618750Y-43656250D01*
X124618750Y-32226250D02*
X124618750Y-30956250D01*
X124618750Y-43656250D02*
X125888750Y-43656250D01*
X137318750Y-32226250D02*
X137318750Y-30956250D01*
X124618750Y-30956250D02*
X125888750Y-30956250D01*
X118268750Y-21431250D02*
X116998750Y-21431250D01*
X118268750Y-34131250D02*
X118268750Y-32861250D01*
X116998750Y-34131250D02*
X118268750Y-34131250D01*
X105568750Y-32861250D02*
X105568750Y-34131250D01*
X105568750Y-22701250D02*
X105568750Y-21431250D01*
X105568750Y-34131250D02*
X106838750Y-34131250D01*
X118268750Y-22701250D02*
X118268750Y-21431250D01*
X105568750Y-21431250D02*
X106838750Y-21431250D01*
X99218750Y-26193750D02*
X97948750Y-26193750D01*
X99218750Y-38893750D02*
X99218750Y-37623750D01*
X97948750Y-38893750D02*
X99218750Y-38893750D01*
X86518750Y-37623750D02*
X86518750Y-38893750D01*
X86518750Y-27463750D02*
X86518750Y-26193750D01*
X86518750Y-38893750D02*
X87788750Y-38893750D01*
X99218750Y-27463750D02*
X99218750Y-26193750D01*
X86518750Y-26193750D02*
X87788750Y-26193750D01*
X80168750Y-45243750D02*
X78898750Y-45243750D01*
X80168750Y-57943750D02*
X80168750Y-56673750D01*
X78898750Y-57943750D02*
X80168750Y-57943750D01*
X67468750Y-56673750D02*
X67468750Y-57943750D01*
X67468750Y-46513750D02*
X67468750Y-45243750D01*
X67468750Y-57943750D02*
X68738750Y-57943750D01*
X80168750Y-46513750D02*
X80168750Y-45243750D01*
X67468750Y-45243750D02*
X68738750Y-45243750D01*
D11*
X136862500Y-18256250D02*
X136862500Y-16256250D01*
X131262500Y-16256250D02*
X136862500Y-16256250D01*
X131262500Y-18256250D02*
X131262500Y-16256250D01*
X131012500Y-30356250D02*
X137112500Y-30356250D01*
X137112500Y-18256250D02*
X137112500Y-30356250D01*
X131012500Y-18256250D02*
X137112500Y-18256250D01*
X131012500Y-18256250D02*
X131012500Y-30356250D01*
X111950500Y-88455500D02*
X113474500Y-88455500D01*
X111950500Y-92519500D02*
X111950500Y-88455500D01*
D13*
G36*
X113474500Y-89217500D02*
G01*
X111950500Y-89217500D01*
X111950500Y-88963500D01*
X113474500Y-88963500D01*
X113474500Y-89217500D01*
G37*
X113474500Y-89217500D02*
X111950500Y-89217500D01*
X111950500Y-88963500D01*
X113474500Y-88963500D01*
X113474500Y-89217500D01*
D11*
X113474500Y-88455500D02*
X113474500Y-92519500D01*
X113474500Y-92519500D02*
X111950500Y-92519500D01*
X157511750Y-86487000D02*
X157511750Y-84963000D01*
X161575750Y-86487000D02*
X157511750Y-86487000D01*
D13*
G36*
X158273750Y-84963000D02*
G01*
X158273750Y-86487000D01*
X158019750Y-86487000D01*
X158019750Y-84963000D01*
X158273750Y-84963000D01*
G37*
X158273750Y-84963000D02*
X158273750Y-86487000D01*
X158019750Y-86487000D01*
X158019750Y-84963000D01*
X158273750Y-84963000D01*
D11*
X157511750Y-84963000D02*
X161575750Y-84963000D01*
X161575750Y-84963000D02*
X161575750Y-86487000D01*
X138461750Y-86487000D02*
X138461750Y-84963000D01*
X142525750Y-86487000D02*
X138461750Y-86487000D01*
D13*
G36*
X139223750Y-84963000D02*
G01*
X139223750Y-86487000D01*
X138969750Y-86487000D01*
X138969750Y-84963000D01*
X139223750Y-84963000D01*
G37*
X139223750Y-84963000D02*
X139223750Y-86487000D01*
X138969750Y-86487000D01*
X138969750Y-84963000D01*
X139223750Y-84963000D01*
D11*
X138461750Y-84963000D02*
X142525750Y-84963000D01*
X142525750Y-84963000D02*
X142525750Y-86487000D01*
X123475750Y-84963000D02*
X123475750Y-86487000D01*
X119411750Y-84963000D02*
X123475750Y-84963000D01*
D13*
G36*
X120173750Y-84963000D02*
G01*
X120173750Y-86487000D01*
X119919750Y-86487000D01*
X119919750Y-84963000D01*
X120173750Y-84963000D01*
G37*
X120173750Y-84963000D02*
X120173750Y-86487000D01*
X119919750Y-86487000D01*
X119919750Y-84963000D01*
X120173750Y-84963000D01*
D11*
X123475750Y-86487000D02*
X119411750Y-86487000D01*
X119411750Y-86487000D02*
X119411750Y-84963000D01*
X147986750Y-84899500D02*
X147986750Y-83375500D01*
X152050750Y-84899500D02*
X147986750Y-84899500D01*
D13*
G36*
X148748750Y-83375500D02*
G01*
X148748750Y-84899500D01*
X148494750Y-84899500D01*
X148494750Y-83375500D01*
X148748750Y-83375500D01*
G37*
X148748750Y-83375500D02*
X148748750Y-84899500D01*
X148494750Y-84899500D01*
X148494750Y-83375500D01*
X148748750Y-83375500D01*
D11*
X147986750Y-83375500D02*
X152050750Y-83375500D01*
X152050750Y-83375500D02*
X152050750Y-84899500D01*
X128936750Y-84899500D02*
X128936750Y-83375500D01*
X133000750Y-84899500D02*
X128936750Y-84899500D01*
D13*
G36*
X129698750Y-83375500D02*
G01*
X129698750Y-84899500D01*
X129444750Y-84899500D01*
X129444750Y-83375500D01*
X129698750Y-83375500D01*
G37*
X129698750Y-83375500D02*
X129698750Y-84899500D01*
X129444750Y-84899500D01*
X129444750Y-83375500D01*
X129698750Y-83375500D01*
D11*
X128936750Y-83375500D02*
X133000750Y-83375500D01*
X133000750Y-83375500D02*
X133000750Y-84899500D01*
X109886750Y-75374500D02*
X109886750Y-73850500D01*
X113950750Y-75374500D02*
X109886750Y-75374500D01*
D13*
G36*
X110648750Y-73850500D02*
G01*
X110648750Y-75374500D01*
X110394750Y-75374500D01*
X110394750Y-73850500D01*
X110648750Y-73850500D01*
G37*
X110648750Y-73850500D02*
X110648750Y-75374500D01*
X110394750Y-75374500D01*
X110394750Y-73850500D01*
X110648750Y-73850500D01*
D11*
X109886750Y-73850500D02*
X113950750Y-73850500D01*
X113950750Y-73850500D02*
X113950750Y-75374500D01*
X90836750Y-80137000D02*
X90836750Y-78613000D01*
X94900750Y-80137000D02*
X90836750Y-80137000D01*
D13*
G36*
X91598750Y-78613000D02*
G01*
X91598750Y-80137000D01*
X91344750Y-80137000D01*
X91344750Y-78613000D01*
X91598750Y-78613000D01*
G37*
X91598750Y-78613000D02*
X91598750Y-80137000D01*
X91344750Y-80137000D01*
X91344750Y-78613000D01*
X91598750Y-78613000D01*
D11*
X90836750Y-78613000D02*
X94900750Y-78613000D01*
X94900750Y-78613000D02*
X94900750Y-80137000D01*
X71786750Y-81724500D02*
X71786750Y-80200500D01*
X75850750Y-81724500D02*
X71786750Y-81724500D01*
D13*
G36*
X72548750Y-80200500D02*
G01*
X72548750Y-81724500D01*
X72294750Y-81724500D01*
X72294750Y-80200500D01*
X72548750Y-80200500D01*
G37*
X72548750Y-80200500D02*
X72548750Y-81724500D01*
X72294750Y-81724500D01*
X72294750Y-80200500D01*
X72548750Y-80200500D01*
D11*
X71786750Y-80200500D02*
X75850750Y-80200500D01*
X75850750Y-80200500D02*
X75850750Y-81724500D01*
X147986750Y-65849500D02*
X147986750Y-64325500D01*
X152050750Y-65849500D02*
X147986750Y-65849500D01*
D13*
G36*
X148748750Y-64325500D02*
G01*
X148748750Y-65849500D01*
X148494750Y-65849500D01*
X148494750Y-64325500D01*
X148748750Y-64325500D01*
G37*
X148748750Y-64325500D02*
X148748750Y-65849500D01*
X148494750Y-65849500D01*
X148494750Y-64325500D01*
X148748750Y-64325500D01*
D11*
X147986750Y-64325500D02*
X152050750Y-64325500D01*
X152050750Y-64325500D02*
X152050750Y-65849500D01*
X128936750Y-65849500D02*
X128936750Y-64325500D01*
X133000750Y-65849500D02*
X128936750Y-65849500D01*
D13*
G36*
X129698750Y-64325500D02*
G01*
X129698750Y-65849500D01*
X129444750Y-65849500D01*
X129444750Y-64325500D01*
X129698750Y-64325500D01*
G37*
X129698750Y-64325500D02*
X129698750Y-65849500D01*
X129444750Y-65849500D01*
X129444750Y-64325500D01*
X129698750Y-64325500D01*
D11*
X128936750Y-64325500D02*
X133000750Y-64325500D01*
X133000750Y-64325500D02*
X133000750Y-65849500D01*
X109886750Y-56324500D02*
X109886750Y-54800500D01*
X113950750Y-56324500D02*
X109886750Y-56324500D01*
D13*
G36*
X110648750Y-54800500D02*
G01*
X110648750Y-56324500D01*
X110394750Y-56324500D01*
X110394750Y-54800500D01*
X110648750Y-54800500D01*
G37*
X110648750Y-54800500D02*
X110648750Y-56324500D01*
X110394750Y-56324500D01*
X110394750Y-54800500D01*
X110648750Y-54800500D01*
D11*
X109886750Y-54800500D02*
X113950750Y-54800500D01*
X113950750Y-54800500D02*
X113950750Y-56324500D01*
X90836750Y-61087000D02*
X90836750Y-59563000D01*
X94900750Y-61087000D02*
X90836750Y-61087000D01*
D13*
G36*
X91598750Y-59563000D02*
G01*
X91598750Y-61087000D01*
X91344750Y-61087000D01*
X91344750Y-59563000D01*
X91598750Y-59563000D01*
G37*
X91598750Y-59563000D02*
X91598750Y-61087000D01*
X91344750Y-61087000D01*
X91344750Y-59563000D01*
X91598750Y-59563000D01*
D11*
X90836750Y-59563000D02*
X94900750Y-59563000D01*
X94900750Y-59563000D02*
X94900750Y-61087000D01*
X71786750Y-62674500D02*
X71786750Y-61150500D01*
X75850750Y-62674500D02*
X71786750Y-62674500D01*
D13*
G36*
X72548750Y-61150500D02*
G01*
X72548750Y-62674500D01*
X72294750Y-62674500D01*
X72294750Y-61150500D01*
X72548750Y-61150500D01*
G37*
X72548750Y-61150500D02*
X72548750Y-62674500D01*
X72294750Y-62674500D01*
X72294750Y-61150500D01*
X72548750Y-61150500D01*
D11*
X71786750Y-61150500D02*
X75850750Y-61150500D01*
X75850750Y-61150500D02*
X75850750Y-62674500D01*
X147986750Y-46799500D02*
X147986750Y-45275500D01*
X152050750Y-46799500D02*
X147986750Y-46799500D01*
D13*
G36*
X148748750Y-45275500D02*
G01*
X148748750Y-46799500D01*
X148494750Y-46799500D01*
X148494750Y-45275500D01*
X148748750Y-45275500D01*
G37*
X148748750Y-45275500D02*
X148748750Y-46799500D01*
X148494750Y-46799500D01*
X148494750Y-45275500D01*
X148748750Y-45275500D01*
D11*
X147986750Y-45275500D02*
X152050750Y-45275500D01*
X152050750Y-45275500D02*
X152050750Y-46799500D01*
X128936750Y-46799500D02*
X128936750Y-45275500D01*
X133000750Y-46799500D02*
X128936750Y-46799500D01*
D13*
G36*
X129698750Y-45275500D02*
G01*
X129698750Y-46799500D01*
X129444750Y-46799500D01*
X129444750Y-45275500D01*
X129698750Y-45275500D01*
G37*
X129698750Y-45275500D02*
X129698750Y-46799500D01*
X129444750Y-46799500D01*
X129444750Y-45275500D01*
X129698750Y-45275500D01*
D11*
X128936750Y-45275500D02*
X133000750Y-45275500D01*
X133000750Y-45275500D02*
X133000750Y-46799500D01*
X109886750Y-37274500D02*
X109886750Y-35750500D01*
X113950750Y-37274500D02*
X109886750Y-37274500D01*
D13*
G36*
X110648750Y-35750500D02*
G01*
X110648750Y-37274500D01*
X110394750Y-37274500D01*
X110394750Y-35750500D01*
X110648750Y-35750500D01*
G37*
X110648750Y-35750500D02*
X110648750Y-37274500D01*
X110394750Y-37274500D01*
X110394750Y-35750500D01*
X110648750Y-35750500D01*
D11*
X109886750Y-35750500D02*
X113950750Y-35750500D01*
X113950750Y-35750500D02*
X113950750Y-37274500D01*
X90836750Y-42037000D02*
X90836750Y-40513000D01*
X94900750Y-42037000D02*
X90836750Y-42037000D01*
D13*
G36*
X91598750Y-40513000D02*
G01*
X91598750Y-42037000D01*
X91344750Y-42037000D01*
X91344750Y-40513000D01*
X91598750Y-40513000D01*
G37*
X91598750Y-40513000D02*
X91598750Y-42037000D01*
X91344750Y-42037000D01*
X91344750Y-40513000D01*
X91598750Y-40513000D01*
D11*
X90836750Y-40513000D02*
X94900750Y-40513000D01*
X94900750Y-40513000D02*
X94900750Y-42037000D01*
X71786750Y-43624500D02*
X71786750Y-42100500D01*
X75850750Y-43624500D02*
X71786750Y-43624500D01*
D13*
G36*
X72548750Y-42100500D02*
G01*
X72548750Y-43624500D01*
X72294750Y-43624500D01*
X72294750Y-42100500D01*
X72548750Y-42100500D01*
G37*
X72548750Y-42100500D02*
X72548750Y-43624500D01*
X72294750Y-43624500D01*
X72294750Y-42100500D01*
X72548750Y-42100500D01*
D11*
X71786750Y-42100500D02*
X75850750Y-42100500D01*
X75850750Y-42100500D02*
X75850750Y-43624500D01*
X117492083Y-26338809D02*
X117377797Y-26376904D01*
X117187321Y-26376904D01*
X117111130Y-26338809D01*
X117073035Y-26300714D01*
X117034940Y-26224523D01*
X117034940Y-26148333D01*
X117073035Y-26072142D01*
X117111130Y-26034047D01*
X117187321Y-25995952D01*
X117339702Y-25957857D01*
X117415892Y-25919761D01*
X117453988Y-25881666D01*
X117492083Y-25805476D01*
X117492083Y-25729285D01*
X117453988Y-25653095D01*
X117415892Y-25615000D01*
X117339702Y-25576904D01*
X117149226Y-25576904D01*
X117034940Y-25615000D01*
X116806369Y-25576904D02*
X116349226Y-25576904D01*
X116577797Y-26376904D02*
X116577797Y-25576904D01*
X110537354Y-20516904D02*
X110080211Y-20516904D01*
X110308782Y-21316904D02*
X110308782Y-20516904D01*
X109889735Y-20516904D02*
X109356401Y-21316904D01*
X109356401Y-20516904D02*
X109889735Y-21316904D01*
X108899258Y-20516904D02*
X108823068Y-20516904D01*
X108746878Y-20555000D01*
X108708782Y-20593095D01*
X108670687Y-20669285D01*
X108632592Y-20821666D01*
X108632592Y-21012142D01*
X108670687Y-21164523D01*
X108708782Y-21240714D01*
X108746878Y-21278809D01*
X108823068Y-21316904D01*
X108899258Y-21316904D01*
X108975449Y-21278809D01*
X109013544Y-21240714D01*
X109051639Y-21164523D01*
X109089735Y-21012142D01*
X109089735Y-20821666D01*
X109051639Y-20669285D01*
X109013544Y-20593095D01*
X108975449Y-20555000D01*
X108899258Y-20516904D01*
X107718306Y-20478809D02*
X108404020Y-21507380D01*
X107451639Y-21316904D02*
X107451639Y-20516904D01*
X107261163Y-20516904D01*
X107146878Y-20555000D01*
X107070687Y-20631190D01*
X107032592Y-20707380D01*
X106994497Y-20859761D01*
X106994497Y-20974047D01*
X107032592Y-21126428D01*
X107070687Y-21202619D01*
X107146878Y-21278809D01*
X107261163Y-21316904D01*
X107451639Y-21316904D01*
X106727830Y-20516904D02*
X106232592Y-20516904D01*
X106499258Y-20821666D01*
X106384973Y-20821666D01*
X106308782Y-20859761D01*
X106270687Y-20897857D01*
X106232592Y-20974047D01*
X106232592Y-21164523D01*
X106270687Y-21240714D01*
X106308782Y-21278809D01*
X106384973Y-21316904D01*
X106613544Y-21316904D01*
X106689735Y-21278809D01*
X106727830Y-21240714D01*
X117703559Y-46297857D02*
X117589273Y-46335952D01*
X117551178Y-46374047D01*
X117513083Y-46450238D01*
X117513083Y-46564523D01*
X117551178Y-46640714D01*
X117589273Y-46678809D01*
X117665464Y-46716904D01*
X117970226Y-46716904D01*
X117970226Y-45916904D01*
X117703559Y-45916904D01*
X117627369Y-45955000D01*
X117589273Y-45993095D01*
X117551178Y-46069285D01*
X117551178Y-46145476D01*
X117589273Y-46221666D01*
X117627369Y-46259761D01*
X117703559Y-46297857D01*
X117970226Y-46297857D01*
X117208321Y-45993095D02*
X117170226Y-45955000D01*
X117094035Y-45916904D01*
X116903559Y-45916904D01*
X116827369Y-45955000D01*
X116789273Y-45993095D01*
X116751178Y-46069285D01*
X116751178Y-46145476D01*
X116789273Y-46259761D01*
X117246416Y-46716904D01*
X116751178Y-46716904D01*
X117646416Y-38677857D02*
X117913083Y-38677857D01*
X117913083Y-39096904D02*
X117913083Y-38296904D01*
X117532130Y-38296904D01*
X117303559Y-38296904D02*
X116770226Y-38296904D01*
X117113083Y-39096904D01*
X117646416Y-36137857D02*
X117913083Y-36137857D01*
X117913083Y-36556904D02*
X117913083Y-35756904D01*
X117532130Y-35756904D01*
X116884511Y-35756904D02*
X117036892Y-35756904D01*
X117113083Y-35795000D01*
X117151178Y-35833095D01*
X117227369Y-35947380D01*
X117265464Y-36099761D01*
X117265464Y-36404523D01*
X117227369Y-36480714D01*
X117189273Y-36518809D01*
X117113083Y-36556904D01*
X116960702Y-36556904D01*
X116884511Y-36518809D01*
X116846416Y-36480714D01*
X116808321Y-36404523D01*
X116808321Y-36214047D01*
X116846416Y-36137857D01*
X116884511Y-36099761D01*
X116960702Y-36061666D01*
X117113083Y-36061666D01*
X117189273Y-36099761D01*
X117227369Y-36137857D01*
X117265464Y-36214047D01*
X117646416Y-33597857D02*
X117913083Y-33597857D01*
X117913083Y-34016904D02*
X117913083Y-33216904D01*
X117532130Y-33216904D01*
X116846416Y-33216904D02*
X117227369Y-33216904D01*
X117265464Y-33597857D01*
X117227369Y-33559761D01*
X117151178Y-33521666D01*
X116960702Y-33521666D01*
X116884511Y-33559761D01*
X116846416Y-33597857D01*
X116808321Y-33674047D01*
X116808321Y-33864523D01*
X116846416Y-33940714D01*
X116884511Y-33978809D01*
X116960702Y-34016904D01*
X117151178Y-34016904D01*
X117227369Y-33978809D01*
X117265464Y-33940714D01*
X117932130Y-21316904D02*
X118198797Y-20935952D01*
X118389273Y-21316904D02*
X118389273Y-20516904D01*
X118084511Y-20516904D01*
X118008321Y-20555000D01*
X117970226Y-20593095D01*
X117932130Y-20669285D01*
X117932130Y-20783571D01*
X117970226Y-20859761D01*
X118008321Y-20897857D01*
X118084511Y-20935952D01*
X118389273Y-20935952D01*
X117627369Y-21088333D02*
X117246416Y-21088333D01*
X117703559Y-21316904D02*
X117436892Y-20516904D01*
X117170226Y-21316904D01*
X116979750Y-20516904D02*
X116789273Y-21316904D01*
X116636892Y-20745476D01*
X116484511Y-21316904D01*
X116294035Y-20516904D01*
X117989273Y-23095000D02*
X118065464Y-23056904D01*
X118179750Y-23056904D01*
X118294035Y-23095000D01*
X118370226Y-23171190D01*
X118408321Y-23247380D01*
X118446416Y-23399761D01*
X118446416Y-23514047D01*
X118408321Y-23666428D01*
X118370226Y-23742619D01*
X118294035Y-23818809D01*
X118179750Y-23856904D01*
X118103559Y-23856904D01*
X117989273Y-23818809D01*
X117951178Y-23780714D01*
X117951178Y-23514047D01*
X118103559Y-23514047D01*
X117608321Y-23856904D02*
X117608321Y-23056904D01*
X117151178Y-23856904D01*
X117151178Y-23056904D01*
X116770226Y-23856904D02*
X116770226Y-23056904D01*
X116579750Y-23056904D01*
X116465464Y-23095000D01*
X116389273Y-23171190D01*
X116351178Y-23247380D01*
X116313083Y-23399761D01*
X116313083Y-23514047D01*
X116351178Y-23666428D01*
X116389273Y-23742619D01*
X116465464Y-23818809D01*
X116579750Y-23856904D01*
X116770226Y-23856904D01*
X118446416Y-28136904D02*
X118179750Y-28936904D01*
X117913083Y-28136904D01*
X117189273Y-28860714D02*
X117227369Y-28898809D01*
X117341654Y-28936904D01*
X117417845Y-28936904D01*
X117532130Y-28898809D01*
X117608321Y-28822619D01*
X117646416Y-28746428D01*
X117684511Y-28594047D01*
X117684511Y-28479761D01*
X117646416Y-28327380D01*
X117608321Y-28251190D01*
X117532130Y-28175000D01*
X117417845Y-28136904D01*
X117341654Y-28136904D01*
X117227369Y-28175000D01*
X117189273Y-28213095D01*
X116389273Y-28860714D02*
X116427369Y-28898809D01*
X116541654Y-28936904D01*
X116617845Y-28936904D01*
X116732130Y-28898809D01*
X116808321Y-28822619D01*
X116846416Y-28746428D01*
X116884511Y-28594047D01*
X116884511Y-28479761D01*
X116846416Y-28327380D01*
X116808321Y-28251190D01*
X116732130Y-28175000D01*
X116617845Y-28136904D01*
X116541654Y-28136904D01*
X116427369Y-28175000D01*
X116389273Y-28213095D01*
X117646416Y-31057857D02*
X117913083Y-31057857D01*
X117913083Y-31476904D02*
X117913083Y-30676904D01*
X117532130Y-30676904D01*
X116884511Y-30943571D02*
X116884511Y-31476904D01*
X117074988Y-30638809D02*
X117265464Y-31210238D01*
X116770226Y-31210238D01*
X117703559Y-41217857D02*
X117589273Y-41255952D01*
X117551178Y-41294047D01*
X117513083Y-41370238D01*
X117513083Y-41484523D01*
X117551178Y-41560714D01*
X117589273Y-41598809D01*
X117665464Y-41636904D01*
X117970226Y-41636904D01*
X117970226Y-40836904D01*
X117703559Y-40836904D01*
X117627369Y-40875000D01*
X117589273Y-40913095D01*
X117551178Y-40989285D01*
X117551178Y-41065476D01*
X117589273Y-41141666D01*
X117627369Y-41179761D01*
X117703559Y-41217857D01*
X117970226Y-41217857D01*
X116751178Y-41636904D02*
X117208321Y-41636904D01*
X116979750Y-41636904D02*
X116979750Y-40836904D01*
X117055940Y-40951190D01*
X117132130Y-41027380D01*
X117208321Y-41065476D01*
X117703559Y-43757857D02*
X117589273Y-43795952D01*
X117551178Y-43834047D01*
X117513083Y-43910238D01*
X117513083Y-44024523D01*
X117551178Y-44100714D01*
X117589273Y-44138809D01*
X117665464Y-44176904D01*
X117970226Y-44176904D01*
X117970226Y-43376904D01*
X117703559Y-43376904D01*
X117627369Y-43415000D01*
X117589273Y-43453095D01*
X117551178Y-43529285D01*
X117551178Y-43605476D01*
X117589273Y-43681666D01*
X117627369Y-43719761D01*
X117703559Y-43757857D01*
X117970226Y-43757857D01*
X117246416Y-43376904D02*
X116751178Y-43376904D01*
X117017845Y-43681666D01*
X116903559Y-43681666D01*
X116827369Y-43719761D01*
X116789273Y-43757857D01*
X116751178Y-43834047D01*
X116751178Y-44024523D01*
X116789273Y-44100714D01*
X116827369Y-44138809D01*
X116903559Y-44176904D01*
X117132130Y-44176904D01*
X117208321Y-44138809D01*
X117246416Y-44100714D01*
X117703559Y-48837857D02*
X117589273Y-48875952D01*
X117551178Y-48914047D01*
X117513083Y-48990238D01*
X117513083Y-49104523D01*
X117551178Y-49180714D01*
X117589273Y-49218809D01*
X117665464Y-49256904D01*
X117970226Y-49256904D01*
X117970226Y-48456904D01*
X117703559Y-48456904D01*
X117627369Y-48495000D01*
X117589273Y-48533095D01*
X117551178Y-48609285D01*
X117551178Y-48685476D01*
X117589273Y-48761666D01*
X117627369Y-48799761D01*
X117703559Y-48837857D01*
X117970226Y-48837857D01*
X116827369Y-48456904D02*
X116979750Y-48456904D01*
X117055940Y-48495000D01*
X117094035Y-48533095D01*
X117170226Y-48647380D01*
X117208321Y-48799761D01*
X117208321Y-49104523D01*
X117170226Y-49180714D01*
X117132130Y-49218809D01*
X117055940Y-49256904D01*
X116903559Y-49256904D01*
X116827369Y-49218809D01*
X116789273Y-49180714D01*
X116751178Y-49104523D01*
X116751178Y-48914047D01*
X116789273Y-48837857D01*
X116827369Y-48799761D01*
X116903559Y-48761666D01*
X117055940Y-48761666D01*
X117132130Y-48799761D01*
X117170226Y-48837857D01*
X117208321Y-48914047D01*
X106781559Y-48837857D02*
X106667273Y-48875952D01*
X106629178Y-48914047D01*
X106591083Y-48990238D01*
X106591083Y-49104523D01*
X106629178Y-49180714D01*
X106667273Y-49218809D01*
X106743464Y-49256904D01*
X107048226Y-49256904D01*
X107048226Y-48456904D01*
X106781559Y-48456904D01*
X106705369Y-48495000D01*
X106667273Y-48533095D01*
X106629178Y-48609285D01*
X106629178Y-48685476D01*
X106667273Y-48761666D01*
X106705369Y-48799761D01*
X106781559Y-48837857D01*
X107048226Y-48837857D01*
X105867273Y-48456904D02*
X106248226Y-48456904D01*
X106286321Y-48837857D01*
X106248226Y-48799761D01*
X106172035Y-48761666D01*
X105981559Y-48761666D01*
X105905369Y-48799761D01*
X105867273Y-48837857D01*
X105829178Y-48914047D01*
X105829178Y-49104523D01*
X105867273Y-49180714D01*
X105905369Y-49218809D01*
X105981559Y-49256904D01*
X106172035Y-49256904D01*
X106248226Y-49218809D01*
X106286321Y-49180714D01*
X106781559Y-46297857D02*
X106667273Y-46335952D01*
X106629178Y-46374047D01*
X106591083Y-46450238D01*
X106591083Y-46564523D01*
X106629178Y-46640714D01*
X106667273Y-46678809D01*
X106743464Y-46716904D01*
X107048226Y-46716904D01*
X107048226Y-45916904D01*
X106781559Y-45916904D01*
X106705369Y-45955000D01*
X106667273Y-45993095D01*
X106629178Y-46069285D01*
X106629178Y-46145476D01*
X106667273Y-46221666D01*
X106705369Y-46259761D01*
X106781559Y-46297857D01*
X107048226Y-46297857D01*
X105905369Y-46183571D02*
X105905369Y-46716904D01*
X106095845Y-45878809D02*
X106286321Y-46450238D01*
X105791083Y-46450238D01*
X107010130Y-43757857D02*
X106743464Y-43757857D01*
X106629178Y-44176904D02*
X107010130Y-44176904D01*
X107010130Y-43376904D01*
X106629178Y-43376904D01*
X105943464Y-43376904D02*
X106095845Y-43376904D01*
X106172035Y-43415000D01*
X106210130Y-43453095D01*
X106286321Y-43567380D01*
X106324416Y-43719761D01*
X106324416Y-44024523D01*
X106286321Y-44100714D01*
X106248226Y-44138809D01*
X106172035Y-44176904D01*
X106019654Y-44176904D01*
X105943464Y-44138809D01*
X105905369Y-44100714D01*
X105867273Y-44024523D01*
X105867273Y-43834047D01*
X105905369Y-43757857D01*
X105943464Y-43719761D01*
X106019654Y-43681666D01*
X106172035Y-43681666D01*
X106248226Y-43719761D01*
X106286321Y-43757857D01*
X106324416Y-43834047D01*
X107048226Y-41636904D02*
X107048226Y-40836904D01*
X106857750Y-40836904D01*
X106743464Y-40875000D01*
X106667273Y-40951190D01*
X106629178Y-41027380D01*
X106591083Y-41179761D01*
X106591083Y-41294047D01*
X106629178Y-41446428D01*
X106667273Y-41522619D01*
X106743464Y-41598809D01*
X106857750Y-41636904D01*
X107048226Y-41636904D01*
X106324416Y-40836904D02*
X105791083Y-40836904D01*
X106133940Y-41636904D01*
X106591083Y-39020714D02*
X106629178Y-39058809D01*
X106743464Y-39096904D01*
X106819654Y-39096904D01*
X106933940Y-39058809D01*
X107010130Y-38982619D01*
X107048226Y-38906428D01*
X107086321Y-38754047D01*
X107086321Y-38639761D01*
X107048226Y-38487380D01*
X107010130Y-38411190D01*
X106933940Y-38335000D01*
X106819654Y-38296904D01*
X106743464Y-38296904D01*
X106629178Y-38335000D01*
X106591083Y-38373095D01*
X105905369Y-38296904D02*
X106057750Y-38296904D01*
X106133940Y-38335000D01*
X106172035Y-38373095D01*
X106248226Y-38487380D01*
X106286321Y-38639761D01*
X106286321Y-38944523D01*
X106248226Y-39020714D01*
X106210130Y-39058809D01*
X106133940Y-39096904D01*
X105981559Y-39096904D01*
X105905369Y-39058809D01*
X105867273Y-39020714D01*
X105829178Y-38944523D01*
X105829178Y-38754047D01*
X105867273Y-38677857D01*
X105905369Y-38639761D01*
X105981559Y-38601666D01*
X106133940Y-38601666D01*
X106210130Y-38639761D01*
X106248226Y-38677857D01*
X106286321Y-38754047D01*
X107048226Y-36556904D02*
X107048226Y-35756904D01*
X106857750Y-35756904D01*
X106743464Y-35795000D01*
X106667273Y-35871190D01*
X106629178Y-35947380D01*
X106591083Y-36099761D01*
X106591083Y-36214047D01*
X106629178Y-36366428D01*
X106667273Y-36442619D01*
X106743464Y-36518809D01*
X106857750Y-36556904D01*
X107048226Y-36556904D01*
X105905369Y-36023571D02*
X105905369Y-36556904D01*
X106095845Y-35718809D02*
X106286321Y-36290238D01*
X105791083Y-36290238D01*
X107067273Y-25635000D02*
X107143464Y-25596904D01*
X107257750Y-25596904D01*
X107372035Y-25635000D01*
X107448226Y-25711190D01*
X107486321Y-25787380D01*
X107524416Y-25939761D01*
X107524416Y-26054047D01*
X107486321Y-26206428D01*
X107448226Y-26282619D01*
X107372035Y-26358809D01*
X107257750Y-26396904D01*
X107181559Y-26396904D01*
X107067273Y-26358809D01*
X107029178Y-26320714D01*
X107029178Y-26054047D01*
X107181559Y-26054047D01*
X106686321Y-26396904D02*
X106686321Y-25596904D01*
X106229178Y-26396904D01*
X106229178Y-25596904D01*
X105848226Y-26396904D02*
X105848226Y-25596904D01*
X105657750Y-25596904D01*
X105543464Y-25635000D01*
X105467273Y-25711190D01*
X105429178Y-25787380D01*
X105391083Y-25939761D01*
X105391083Y-26054047D01*
X105429178Y-26206428D01*
X105467273Y-26282619D01*
X105543464Y-26358809D01*
X105657750Y-26396904D01*
X105848226Y-26396904D01*
X107067273Y-28175000D02*
X107143464Y-28136904D01*
X107257750Y-28136904D01*
X107372035Y-28175000D01*
X107448226Y-28251190D01*
X107486321Y-28327380D01*
X107524416Y-28479761D01*
X107524416Y-28594047D01*
X107486321Y-28746428D01*
X107448226Y-28822619D01*
X107372035Y-28898809D01*
X107257750Y-28936904D01*
X107181559Y-28936904D01*
X107067273Y-28898809D01*
X107029178Y-28860714D01*
X107029178Y-28594047D01*
X107181559Y-28594047D01*
X106686321Y-28936904D02*
X106686321Y-28136904D01*
X106229178Y-28936904D01*
X106229178Y-28136904D01*
X105848226Y-28936904D02*
X105848226Y-28136904D01*
X105657750Y-28136904D01*
X105543464Y-28175000D01*
X105467273Y-28251190D01*
X105429178Y-28327380D01*
X105391083Y-28479761D01*
X105391083Y-28594047D01*
X105429178Y-28746428D01*
X105467273Y-28822619D01*
X105543464Y-28898809D01*
X105657750Y-28936904D01*
X105848226Y-28936904D01*
X107048226Y-31476904D02*
X107048226Y-30676904D01*
X106857750Y-30676904D01*
X106743464Y-30715000D01*
X106667273Y-30791190D01*
X106629178Y-30867380D01*
X106591083Y-31019761D01*
X106591083Y-31134047D01*
X106629178Y-31286428D01*
X106667273Y-31362619D01*
X106743464Y-31438809D01*
X106857750Y-31476904D01*
X107048226Y-31476904D01*
X105829178Y-31476904D02*
X106286321Y-31476904D01*
X106057750Y-31476904D02*
X106057750Y-30676904D01*
X106133940Y-30791190D01*
X106210130Y-30867380D01*
X106286321Y-30905476D01*
X107048226Y-34016904D02*
X107048226Y-33216904D01*
X106857750Y-33216904D01*
X106743464Y-33255000D01*
X106667273Y-33331190D01*
X106629178Y-33407380D01*
X106591083Y-33559761D01*
X106591083Y-33674047D01*
X106629178Y-33826428D01*
X106667273Y-33902619D01*
X106743464Y-33978809D01*
X106857750Y-34016904D01*
X107048226Y-34016904D01*
X106095845Y-33216904D02*
X106019654Y-33216904D01*
X105943464Y-33255000D01*
X105905369Y-33293095D01*
X105867273Y-33369285D01*
X105829178Y-33521666D01*
X105829178Y-33712142D01*
X105867273Y-33864523D01*
X105905369Y-33940714D01*
X105943464Y-33978809D01*
X106019654Y-34016904D01*
X106095845Y-34016904D01*
X106172035Y-33978809D01*
X106210130Y-33940714D01*
X106248226Y-33864523D01*
X106286321Y-33712142D01*
X106286321Y-33521666D01*
X106248226Y-33369285D01*
X106210130Y-33293095D01*
X106172035Y-33255000D01*
X106095845Y-33216904D01*
X107048226Y-23856904D02*
X107048226Y-23056904D01*
X106857750Y-23056904D01*
X106743464Y-23095000D01*
X106667273Y-23171190D01*
X106629178Y-23247380D01*
X106591083Y-23399761D01*
X106591083Y-23514047D01*
X106629178Y-23666428D01*
X106667273Y-23742619D01*
X106743464Y-23818809D01*
X106857750Y-23856904D01*
X107048226Y-23856904D01*
X106286321Y-23133095D02*
X106248226Y-23095000D01*
X106172035Y-23056904D01*
X105981559Y-23056904D01*
X105905369Y-23095000D01*
X105867273Y-23133095D01*
X105829178Y-23209285D01*
X105829178Y-23285476D01*
X105867273Y-23399761D01*
X106324416Y-23856904D01*
X105829178Y-23856904D01*
X136214880Y-20387202D02*
X135214880Y-20387202D01*
X135214880Y-20768154D01*
X135262500Y-20863392D01*
X135310119Y-20911011D01*
X135405357Y-20958630D01*
X135548214Y-20958630D01*
X135643452Y-20911011D01*
X135691071Y-20863392D01*
X135738690Y-20768154D01*
X135738690Y-20387202D01*
X135214880Y-21672916D02*
X135929166Y-21672916D01*
X136072023Y-21625297D01*
X136167261Y-21530059D01*
X136214880Y-21387202D01*
X136214880Y-21291964D01*
X135833928Y-22149107D02*
X135833928Y-22911011D01*
X135214880Y-23291964D02*
X135214880Y-23911011D01*
X135595833Y-23577678D01*
X135595833Y-23720535D01*
X135643452Y-23815773D01*
X135691071Y-23863392D01*
X135786309Y-23911011D01*
X136024404Y-23911011D01*
X136119642Y-23863392D01*
X136167261Y-23815773D01*
X136214880Y-23720535D01*
X136214880Y-23434821D01*
X136167261Y-23339583D01*
X136119642Y-23291964D01*
X135310119Y-24291964D02*
X135262500Y-24339583D01*
X135214880Y-24434821D01*
X135214880Y-24672916D01*
X135262500Y-24768154D01*
X135310119Y-24815773D01*
X135405357Y-24863392D01*
X135500595Y-24863392D01*
X135643452Y-24815773D01*
X136214880Y-24244345D01*
X136214880Y-24863392D01*
X135214880Y-25482440D02*
X135214880Y-25577678D01*
X135262500Y-25672916D01*
X135310119Y-25720535D01*
X135405357Y-25768154D01*
X135595833Y-25815773D01*
X135833928Y-25815773D01*
X136024404Y-25768154D01*
X136119642Y-25720535D01*
X136167261Y-25672916D01*
X136214880Y-25577678D01*
X136214880Y-25482440D01*
X136167261Y-25387202D01*
X136119642Y-25339583D01*
X136024404Y-25291964D01*
X135833928Y-25244345D01*
X135595833Y-25244345D01*
X135405357Y-25291964D01*
X135310119Y-25339583D01*
X135262500Y-25387202D01*
X135214880Y-25482440D01*
X135929166Y-26196726D02*
X135929166Y-26672916D01*
X136214880Y-26101488D02*
X135214880Y-26434821D01*
X136214880Y-26768154D01*
%LPC*%
D14*
X85773260Y-168953180D03*
X85778340Y-42049700D03*
X118996460Y-154640280D03*
X119001540Y-56362600D03*
X140492480Y-173664880D03*
X140497560Y-37338000D03*
X150017480Y-123609100D03*
X150022560Y-87393780D03*
X83338670Y-121309130D03*
X83343750Y-89693750D03*
D15*
X118460520Y-105526840D03*
X119730520Y-105526840D03*
X123540520Y-105526840D03*
X122270520Y-105526840D03*
X121000520Y-105526840D03*
D16*
X176034623Y-97285550D03*
X176034623Y-103285550D03*
X176034623Y-100285550D03*
D17*
X104893750Y-86956250D03*
D14*
X102393750Y-86956250D03*
X99893750Y-86956250D03*
D18*
X107993750Y-94456250D03*
X96793750Y-94456250D03*
D14*
X104893750Y-101456250D03*
X99893750Y-101456250D03*
D19*
X123825000Y-27800000D03*
X123825000Y-25400000D03*
X123825000Y-23000000D03*
D20*
X119538750Y-20955000D03*
X104298750Y-48895000D03*
X119538750Y-23495000D03*
X119538750Y-26035000D03*
X119538750Y-28575000D03*
X119538750Y-31115000D03*
X119538750Y-33655000D03*
X119538750Y-36195000D03*
X119538750Y-38735000D03*
X119538750Y-41275000D03*
X119538750Y-43815000D03*
X119538750Y-46355000D03*
X119538750Y-48895000D03*
X104298750Y-46355000D03*
X104298750Y-43815000D03*
X104298750Y-41275000D03*
X104298750Y-38735000D03*
X104298750Y-36195000D03*
X104298750Y-33655000D03*
X104298750Y-31115000D03*
X104298750Y-28575000D03*
X104298750Y-26035000D03*
X104298750Y-23495000D03*
D21*
X104298750Y-20955000D03*
D22*
X154323750Y-90256250D03*
D14*
X164543750Y-98256250D03*
X159543750Y-100356250D03*
X154543750Y-98256250D03*
D23*
X159543750Y-94456250D03*
D24*
X165043750Y-94456250D03*
X154043750Y-94456250D03*
D22*
X164763750Y-90256250D03*
D14*
X162083750Y-89376250D03*
X157043750Y-90456250D03*
X162043750Y-89956250D03*
D25*
X154463750Y-94456250D03*
D14*
X155733750Y-91916250D03*
X163353750Y-91916250D03*
X157003750Y-89376250D03*
X162043750Y-90456250D03*
D25*
X164623750Y-94456250D03*
D14*
X157043750Y-89956250D03*
D23*
X159543750Y-94456250D03*
D22*
X135273750Y-90256250D03*
D14*
X145493750Y-98256250D03*
X140493750Y-100356250D03*
X135493750Y-98256250D03*
D23*
X140493750Y-94456250D03*
D24*
X145993750Y-94456250D03*
X134993750Y-94456250D03*
D22*
X145713750Y-90256250D03*
D14*
X143033750Y-89376250D03*
X137993750Y-90456250D03*
X142993750Y-89956250D03*
D25*
X135413750Y-94456250D03*
D14*
X136683750Y-91916250D03*
X144303750Y-91916250D03*
X137953750Y-89376250D03*
X142993750Y-90456250D03*
D25*
X145573750Y-94456250D03*
D14*
X137993750Y-89956250D03*
D23*
X140493750Y-94456250D03*
D22*
X116223750Y-90256250D03*
D14*
X126443750Y-98256250D03*
X121443750Y-100356250D03*
X116443750Y-98256250D03*
D23*
X121443750Y-94456250D03*
D24*
X126943750Y-94456250D03*
X115943750Y-94456250D03*
D22*
X126663750Y-90256250D03*
D14*
X123983750Y-89376250D03*
X118943750Y-90456250D03*
X123943750Y-89956250D03*
D25*
X116363750Y-94456250D03*
D14*
X117633750Y-91916250D03*
X125253750Y-91916250D03*
X118903750Y-89376250D03*
X123943750Y-90456250D03*
D25*
X126523750Y-94456250D03*
D14*
X118943750Y-89956250D03*
D23*
X121443750Y-94456250D03*
D22*
X144798750Y-71206250D03*
D14*
X155018750Y-79206250D03*
X150018750Y-81306250D03*
X145018750Y-79206250D03*
D23*
X150018750Y-75406250D03*
D24*
X155518750Y-75406250D03*
X144518750Y-75406250D03*
D22*
X155238750Y-71206250D03*
D14*
X152558750Y-70326250D03*
X147518750Y-71406250D03*
X152518750Y-70906250D03*
D25*
X144938750Y-75406250D03*
D14*
X146208750Y-72866250D03*
X153828750Y-72866250D03*
X147478750Y-70326250D03*
X152518750Y-71406250D03*
D25*
X155098750Y-75406250D03*
D14*
X147518750Y-70906250D03*
D23*
X150018750Y-75406250D03*
D22*
X125748750Y-71206250D03*
D14*
X135968750Y-79206250D03*
X130968750Y-81306250D03*
X125968750Y-79206250D03*
D23*
X130968750Y-75406250D03*
D24*
X136468750Y-75406250D03*
X125468750Y-75406250D03*
D22*
X136188750Y-71206250D03*
D14*
X133508750Y-70326250D03*
X128468750Y-71406250D03*
X133468750Y-70906250D03*
D25*
X125888750Y-75406250D03*
D14*
X127158750Y-72866250D03*
X134778750Y-72866250D03*
X128428750Y-70326250D03*
X133468750Y-71406250D03*
D25*
X136048750Y-75406250D03*
D14*
X128468750Y-70906250D03*
D23*
X130968750Y-75406250D03*
D22*
X106698750Y-61681250D03*
D14*
X116918750Y-69681250D03*
X111918750Y-71781250D03*
X106918750Y-69681250D03*
D23*
X111918750Y-65881250D03*
D24*
X117418750Y-65881250D03*
X106418750Y-65881250D03*
D22*
X117138750Y-61681250D03*
D14*
X114458750Y-60801250D03*
X109418750Y-61881250D03*
X114418750Y-61381250D03*
D25*
X106838750Y-65881250D03*
D14*
X108108750Y-63341250D03*
X115728750Y-63341250D03*
X109378750Y-60801250D03*
X114418750Y-61881250D03*
D25*
X116998750Y-65881250D03*
D14*
X109418750Y-61381250D03*
D23*
X111918750Y-65881250D03*
D22*
X87648750Y-66443750D03*
D14*
X97868750Y-74443750D03*
X92868750Y-76543750D03*
X87868750Y-74443750D03*
D23*
X92868750Y-70643750D03*
D24*
X98368750Y-70643750D03*
X87368750Y-70643750D03*
D22*
X98088750Y-66443750D03*
D14*
X95408750Y-65563750D03*
X90368750Y-66643750D03*
X95368750Y-66143750D03*
D25*
X87788750Y-70643750D03*
D14*
X89058750Y-68103750D03*
X96678750Y-68103750D03*
X90328750Y-65563750D03*
X95368750Y-66643750D03*
D25*
X97948750Y-70643750D03*
D14*
X90368750Y-66143750D03*
D23*
X92868750Y-70643750D03*
D22*
X68598750Y-85493750D03*
D14*
X78818750Y-93493750D03*
X73818750Y-95593750D03*
X68818750Y-93493750D03*
D23*
X73818750Y-89693750D03*
D24*
X79318750Y-89693750D03*
X68318750Y-89693750D03*
D22*
X79038750Y-85493750D03*
D14*
X76358750Y-84613750D03*
X71318750Y-85693750D03*
X76318750Y-85193750D03*
D25*
X68738750Y-89693750D03*
D14*
X70008750Y-87153750D03*
X77628750Y-87153750D03*
X71278750Y-84613750D03*
X76318750Y-85693750D03*
D25*
X78898750Y-89693750D03*
D14*
X71318750Y-85193750D03*
D23*
X73818750Y-89693750D03*
D22*
X144798750Y-52156250D03*
D14*
X155018750Y-60156250D03*
X150018750Y-62256250D03*
X145018750Y-60156250D03*
D23*
X150018750Y-56356250D03*
D24*
X155518750Y-56356250D03*
X144518750Y-56356250D03*
D22*
X155238750Y-52156250D03*
D14*
X152558750Y-51276250D03*
X147518750Y-52356250D03*
X152518750Y-51856250D03*
D25*
X144938750Y-56356250D03*
D14*
X146208750Y-53816250D03*
X153828750Y-53816250D03*
X147478750Y-51276250D03*
X152518750Y-52356250D03*
D25*
X155098750Y-56356250D03*
D14*
X147518750Y-51856250D03*
D23*
X150018750Y-56356250D03*
D22*
X125748750Y-52156250D03*
D14*
X135968750Y-60156250D03*
X130968750Y-62256250D03*
X125968750Y-60156250D03*
D23*
X130968750Y-56356250D03*
D24*
X136468750Y-56356250D03*
X125468750Y-56356250D03*
D22*
X136188750Y-52156250D03*
D14*
X133508750Y-51276250D03*
X128468750Y-52356250D03*
X133468750Y-51856250D03*
D25*
X125888750Y-56356250D03*
D14*
X127158750Y-53816250D03*
X134778750Y-53816250D03*
X128428750Y-51276250D03*
X133468750Y-52356250D03*
D25*
X136048750Y-56356250D03*
D14*
X128468750Y-51856250D03*
D23*
X130968750Y-56356250D03*
D22*
X106698750Y-42631250D03*
D14*
X116918750Y-50631250D03*
X111918750Y-52731250D03*
X106918750Y-50631250D03*
D23*
X111918750Y-46831250D03*
D24*
X117418750Y-46831250D03*
X106418750Y-46831250D03*
D22*
X117138750Y-42631250D03*
D14*
X114458750Y-41751250D03*
X109418750Y-42831250D03*
X114418750Y-42331250D03*
D25*
X106838750Y-46831250D03*
D14*
X108108750Y-44291250D03*
X115728750Y-44291250D03*
X109378750Y-41751250D03*
X114418750Y-42831250D03*
D25*
X116998750Y-46831250D03*
D14*
X109418750Y-42331250D03*
D23*
X111918750Y-46831250D03*
D22*
X87648750Y-47393750D03*
D14*
X97868750Y-55393750D03*
X92868750Y-57493750D03*
X87868750Y-55393750D03*
D23*
X92868750Y-51593750D03*
D24*
X98368750Y-51593750D03*
X87368750Y-51593750D03*
D22*
X98088750Y-47393750D03*
D14*
X95408750Y-46513750D03*
X90368750Y-47593750D03*
X95368750Y-47093750D03*
D25*
X87788750Y-51593750D03*
D14*
X89058750Y-49053750D03*
X96678750Y-49053750D03*
X90328750Y-46513750D03*
X95368750Y-47593750D03*
D25*
X97948750Y-51593750D03*
D14*
X90368750Y-47093750D03*
D23*
X92868750Y-51593750D03*
D22*
X68598750Y-66443750D03*
D14*
X78818750Y-74443750D03*
X73818750Y-76543750D03*
X68818750Y-74443750D03*
D23*
X73818750Y-70643750D03*
D24*
X79318750Y-70643750D03*
X68318750Y-70643750D03*
D22*
X79038750Y-66443750D03*
D14*
X76358750Y-65563750D03*
X71318750Y-66643750D03*
X76318750Y-66143750D03*
D25*
X68738750Y-70643750D03*
D14*
X70008750Y-68103750D03*
X77628750Y-68103750D03*
X71278750Y-65563750D03*
X76318750Y-66643750D03*
D25*
X78898750Y-70643750D03*
D14*
X71318750Y-66143750D03*
D23*
X73818750Y-70643750D03*
D22*
X144798750Y-33106250D03*
D14*
X155018750Y-41106250D03*
X150018750Y-43206250D03*
X145018750Y-41106250D03*
D23*
X150018750Y-37306250D03*
D24*
X155518750Y-37306250D03*
X144518750Y-37306250D03*
D22*
X155238750Y-33106250D03*
D14*
X152558750Y-32226250D03*
X147518750Y-33306250D03*
X152518750Y-32806250D03*
D25*
X144938750Y-37306250D03*
D14*
X146208750Y-34766250D03*
X153828750Y-34766250D03*
X147478750Y-32226250D03*
X152518750Y-33306250D03*
D25*
X155098750Y-37306250D03*
D14*
X147518750Y-32806250D03*
D23*
X150018750Y-37306250D03*
D22*
X125748750Y-33106250D03*
D14*
X135968750Y-41106250D03*
X130968750Y-43206250D03*
X125968750Y-41106250D03*
D23*
X130968750Y-37306250D03*
D24*
X136468750Y-37306250D03*
X125468750Y-37306250D03*
D22*
X136188750Y-33106250D03*
D14*
X133508750Y-32226250D03*
X128468750Y-33306250D03*
X133468750Y-32806250D03*
D25*
X125888750Y-37306250D03*
D14*
X127158750Y-34766250D03*
X134778750Y-34766250D03*
X128428750Y-32226250D03*
X133468750Y-33306250D03*
D25*
X136048750Y-37306250D03*
D14*
X128468750Y-32806250D03*
D23*
X130968750Y-37306250D03*
D22*
X106698750Y-23581250D03*
D14*
X116918750Y-31581250D03*
X111918750Y-33681250D03*
X106918750Y-31581250D03*
D23*
X111918750Y-27781250D03*
D24*
X117418750Y-27781250D03*
X106418750Y-27781250D03*
D22*
X117138750Y-23581250D03*
D14*
X114458750Y-22701250D03*
X109418750Y-23781250D03*
X114418750Y-23281250D03*
D25*
X106838750Y-27781250D03*
D14*
X108108750Y-25241250D03*
X115728750Y-25241250D03*
X109378750Y-22701250D03*
X114418750Y-23781250D03*
D25*
X116998750Y-27781250D03*
D14*
X109418750Y-23281250D03*
D23*
X111918750Y-27781250D03*
D22*
X87648750Y-28343750D03*
D14*
X97868750Y-36343750D03*
X92868750Y-38443750D03*
X87868750Y-36343750D03*
D23*
X92868750Y-32543750D03*
D24*
X98368750Y-32543750D03*
X87368750Y-32543750D03*
D22*
X98088750Y-28343750D03*
D14*
X95408750Y-27463750D03*
X90368750Y-28543750D03*
X95368750Y-28043750D03*
D25*
X87788750Y-32543750D03*
D14*
X89058750Y-30003750D03*
X96678750Y-30003750D03*
X90328750Y-27463750D03*
X95368750Y-28543750D03*
D25*
X97948750Y-32543750D03*
D14*
X90368750Y-28043750D03*
D23*
X92868750Y-32543750D03*
D22*
X68598750Y-47393750D03*
D14*
X78818750Y-55393750D03*
X73818750Y-57493750D03*
X68818750Y-55393750D03*
D23*
X73818750Y-51593750D03*
D24*
X79318750Y-51593750D03*
X68318750Y-51593750D03*
D22*
X79038750Y-47393750D03*
D14*
X76358750Y-46513750D03*
X71318750Y-47593750D03*
X76318750Y-47093750D03*
D25*
X68738750Y-51593750D03*
D14*
X70008750Y-49053750D03*
X77628750Y-49053750D03*
X71278750Y-46513750D03*
X76318750Y-47593750D03*
D25*
X78898750Y-51593750D03*
D14*
X71318750Y-47093750D03*
D23*
X73818750Y-51593750D03*
D26*
X139602750Y-28561000D03*
D27*
X142092750Y-27551000D03*
X142092750Y-22551000D03*
D26*
X139602750Y-21551000D03*
D22*
X143302750Y-25051000D03*
D28*
X131762500Y-24456250D03*
D29*
X129462500Y-19856250D03*
X129462500Y-26856250D03*
D28*
X131762500Y-21456250D03*
X131762500Y-28456250D03*
X127162500Y-29556250D03*
X136362500Y-29556250D03*
D29*
X134062500Y-19856250D03*
X134062500Y-26856250D03*
D30*
X112712500Y-86677500D03*
D31*
X112712500Y-94297500D03*
D30*
X155733750Y-85725000D03*
D31*
X163353750Y-85725000D03*
D30*
X136683750Y-85725000D03*
D31*
X144303750Y-85725000D03*
X125253750Y-85725000D03*
D30*
X117633750Y-85725000D03*
X146208750Y-84137500D03*
D31*
X153828750Y-84137500D03*
D30*
X127158750Y-84137500D03*
D31*
X134778750Y-84137500D03*
D30*
X108108750Y-74612500D03*
D31*
X115728750Y-74612500D03*
D30*
X89058750Y-79375000D03*
D31*
X96678750Y-79375000D03*
D30*
X70008750Y-80962500D03*
D31*
X77628750Y-80962500D03*
D30*
X146208750Y-65087500D03*
D31*
X153828750Y-65087500D03*
D30*
X127158750Y-65087500D03*
D31*
X134778750Y-65087500D03*
D30*
X108108750Y-55562500D03*
D31*
X115728750Y-55562500D03*
D30*
X89058750Y-60325000D03*
D31*
X96678750Y-60325000D03*
D30*
X70008750Y-61912500D03*
D31*
X77628750Y-61912500D03*
D30*
X146208750Y-46037500D03*
D31*
X153828750Y-46037500D03*
D30*
X127158750Y-46037500D03*
D31*
X134778750Y-46037500D03*
D30*
X108108750Y-36512500D03*
D31*
X115728750Y-36512500D03*
D30*
X89058750Y-41275000D03*
D31*
X96678750Y-41275000D03*
D30*
X70008750Y-42862500D03*
D31*
X77628750Y-42862500D03*
M02*
