M48
; DRILL file {KiCad (5.1.6)-1} date 08/19/20 15:35:22
; FORMAT={-:-/ absolute / inch / decimal}
; #@! TF.CreationDate,2020-08-19T15:35:22-05:00
; #@! TF.GenerationSoftware,Kicad,Pcbnew,(5.1.6)-1
; #@! TF.FileFunction,Plated,1,2,PTH
FMAT,2
INCH
T1C0.0157
T2C0.0300
T3C0.0354
T4C0.0390
T5C0.0390
T6C0.0394
T7C0.0430
T8C0.0472
T9C0.0512
T10C0.0591
%
G90
G05
T1
X3.6281Y-1.7369
X4.014Y-1.7262
X4.0279Y-1.3471
X4.0279Y-1.4415
X4.3225Y-1.1925
X4.8911Y-1.1692
X5.0831Y-1.5811
X5.3172Y-1.5437
X6.7394Y-3.8306
X6.7996Y-3.9486
X7.0644Y-3.8298
T2
X4.875Y-0.9055
X4.875Y-1.0
X4.875Y-1.0945
T4
X5.5942Y-0.8878
X5.5942Y-1.0847
T5
X3.5063Y-1.625
X3.8062Y-1.625
X2.7563Y-3.1875
X3.0562Y-3.1875
X5.7562Y-3.3125
X6.0562Y-3.3125
X4.2562Y-1.4375
X4.5562Y-1.4375
X3.5063Y-3.125
X3.8062Y-3.125
X4.6312Y-3.375
X4.9312Y-3.375
X5.7562Y-1.8125
X6.0562Y-1.8125
X5.3812Y-3.375
X5.6812Y-3.375
X2.7563Y-2.4375
X3.0562Y-2.4375
X2.7563Y-1.6875
X3.0562Y-1.6875
X4.2562Y-2.9375
X4.5562Y-2.9375
X6.1312Y-3.375
X6.4312Y-3.375
X5.0062Y-2.5625
X5.3062Y-2.5625
X3.5063Y-2.375
X3.8062Y-2.375
X4.2562Y-2.1875
X4.5562Y-2.1875
X5.0062Y-3.3125
X5.3062Y-3.3125
X4.4375Y-3.4125
X4.4375Y-3.7125
X5.7562Y-2.5625
X6.0562Y-2.5625
X5.0062Y-1.8125
X5.3062Y-1.8125
T6
X3.9328Y-3.4235
X3.9328Y-3.9943
X4.0312Y-3.4235
X4.1297Y-3.4235
X4.1297Y-3.9943
T7
X4.1063Y-0.825
X4.1063Y-0.925
X4.1063Y-1.025
X4.1063Y-1.125
X4.1063Y-1.225
X4.1063Y-1.325
X4.1063Y-1.425
X4.1063Y-1.525
X4.1063Y-1.625
X4.1063Y-1.725
X4.1063Y-1.825
X4.1063Y-1.925
X4.7062Y-0.825
X4.7062Y-0.925
X4.7062Y-1.025
X4.7062Y-1.125
X4.7062Y-1.225
X4.7062Y-1.325
X4.7062Y-1.425
X4.7062Y-1.525
X4.7062Y-1.625
X4.7062Y-1.725
X4.7062Y-1.825
X4.7062Y-1.925
T8
X3.4594Y-2.9309
X3.6562Y-3.0135
X3.8531Y-2.9309
X5.7094Y-2.3684
X5.9062Y-2.451
X6.1031Y-2.3684
X4.2094Y-2.7434
X4.4062Y-2.826
X4.6031Y-2.7434
X2.7094Y-2.1809
X2.9062Y-2.2635
X3.1031Y-2.1809
X5.7094Y-3.1184
X5.9062Y-3.201
X6.1031Y-3.1184
X4.2094Y-1.9934
X4.4062Y-2.076
X4.6031Y-1.9934
X4.5844Y-3.8684
X4.7812Y-3.951
X4.9781Y-3.8684
X3.4594Y-1.4309
X3.6562Y-1.5135
X3.8531Y-1.4309
X4.9594Y-1.6184
X5.1562Y-1.701
X5.3531Y-1.6184
X5.7094Y-1.6184
X5.9062Y-1.701
X6.1031Y-1.6184
X4.9594Y-2.3684
X5.1562Y-2.451
X5.3531Y-2.3684
X4.2094Y-1.2434
X4.4062Y-1.326
X4.6031Y-1.2434
X5.3344Y-3.8684
X5.5312Y-3.951
X5.7281Y-3.8684
X2.7094Y-3.6809
X2.9062Y-3.7635
X3.1031Y-3.6809
X3.4594Y-2.1809
X3.6562Y-2.2635
X3.8531Y-2.1809
X2.7094Y-2.9309
X2.9062Y-3.0135
X3.1031Y-2.9309
X6.0844Y-3.8684
X6.2812Y-3.951
X6.4781Y-3.8684
X4.9594Y-3.1184
X5.1562Y-3.201
X5.3531Y-3.1184
T9
X5.4962Y-0.8485
X5.4962Y-1.1244
T10
X5.3812Y-3.6187
X5.4312Y-3.5187
X5.4328Y-3.5416
X5.4328Y-3.5613
X5.6297Y-3.5416
X5.6297Y-3.5613
X5.6312Y-3.5187
X5.6812Y-3.6187
X2.7563Y-3.4312
X2.8062Y-3.3312
X2.8078Y-3.3541
X2.8078Y-3.3738
X3.0047Y-3.3541
X3.0047Y-3.3738
X3.0063Y-3.3312
X3.0562Y-3.4312
X3.5063Y-1.9312
X3.5562Y-1.8313
X3.5578Y-1.8541
X3.5578Y-1.8738
X3.7547Y-1.8541
X3.7547Y-1.8738
X3.7563Y-1.8313
X3.8062Y-1.9312
X2.7563Y-2.6812
X2.8062Y-2.5812
X2.8078Y-2.6041
X2.8078Y-2.6238
X3.0047Y-2.6041
X3.0047Y-2.6238
X3.0063Y-2.5812
X3.0562Y-2.6812
X6.1312Y-3.6187
X6.1812Y-3.5187
X6.1828Y-3.5416
X6.1828Y-3.5613
X6.3797Y-3.5416
X6.3797Y-3.5613
X6.3812Y-3.5187
X6.4312Y-3.6187
X5.0062Y-2.8687
X5.0562Y-2.7687
X5.0578Y-2.7916
X5.0578Y-2.8113
X5.2547Y-2.7916
X5.2547Y-2.8113
X5.2562Y-2.7687
X5.3062Y-2.8687
X3.5063Y-2.6812
X3.5562Y-2.5812
X3.5578Y-2.6041
X3.5578Y-2.6238
X3.7547Y-2.6041
X3.7547Y-2.6238
X3.7563Y-2.5812
X3.8062Y-2.6812
X5.7562Y-2.1187
X5.8062Y-2.0187
X5.8078Y-2.0416
X5.8078Y-2.0613
X6.0047Y-2.0416
X6.0047Y-2.0613
X6.0062Y-2.0187
X6.0562Y-2.1187
X4.2562Y-2.4937
X4.3062Y-2.3937
X4.3078Y-2.4166
X4.3078Y-2.4363
X4.5047Y-2.4166
X4.5047Y-2.4363
X4.5062Y-2.3937
X4.5562Y-2.4937
X2.7563Y-1.9312
X2.8062Y-1.8313
X2.8078Y-1.8541
X2.8078Y-1.8738
X3.0047Y-1.8541
X3.0047Y-1.8738
X3.0063Y-1.8313
X3.0562Y-1.9312
X5.7562Y-2.8687
X5.8062Y-2.7687
X5.8078Y-2.7916
X5.8078Y-2.8113
X6.0047Y-2.7916
X6.0047Y-2.8113
X6.0062Y-2.7687
X6.0562Y-2.8687
X4.2562Y-1.7437
X4.3062Y-1.6438
X4.3078Y-1.6666
X4.3078Y-1.6863
X4.5047Y-1.6666
X4.5047Y-1.6863
X4.5062Y-1.6438
X4.5562Y-1.7437
X4.6312Y-3.6187
X4.6812Y-3.5187
X4.6828Y-3.5416
X4.6828Y-3.5613
X4.8797Y-3.5416
X4.8797Y-3.5613
X4.8812Y-3.5187
X4.9312Y-3.6187
X3.5063Y-1.1812
X3.5562Y-1.0813
X3.5578Y-1.1041
X3.5578Y-1.1238
X3.7547Y-1.1041
X3.7547Y-1.1238
X3.7563Y-1.0813
X3.8062Y-1.1812
X5.0062Y-1.3687
X5.0562Y-1.2688
X5.0578Y-1.2916
X5.0578Y-1.3113
X5.2547Y-1.2916
X5.2547Y-1.3113
X5.2562Y-1.2688
X5.3062Y-1.3687
X5.7562Y-1.3687
X5.8062Y-1.2688
X5.8078Y-1.2916
X5.8078Y-1.3113
X6.0047Y-1.2916
X6.0047Y-1.3113
X6.0062Y-1.2688
X6.0562Y-1.3687
X5.0062Y-2.1187
X5.0562Y-2.0187
X5.0578Y-2.0416
X5.0578Y-2.0613
X5.2547Y-2.0416
X5.2547Y-2.0613
X5.2562Y-2.0187
X5.3062Y-2.1187
X4.2562Y-0.9938
X4.3062Y-0.8937
X4.3078Y-0.9166
X4.3078Y-0.9363
X4.5047Y-0.9166
X4.5047Y-0.9363
X4.5062Y-0.8937
X4.5562Y-0.9938
T3
G00X5.0064Y-1.1518
M15
G01X5.0064Y-1.1754
M16
G05
G00X5.1875Y-0.8329
M15
G01X5.1875Y-0.8565
M16
G05
G00X5.1875Y-0.951
M15
G01X5.1875Y-0.9747
M16
G05
G00X5.1875Y-1.1085
M15
G01X5.1875Y-1.1321
M16
G05
G00X5.3686Y-1.1518
M15
G01X5.3686Y-1.1754
M16
G05
T10
G00X3.8108Y-3.6932
M15
G01X3.8108Y-3.7443
M16
G05
G00X4.2517Y-3.6932
M15
G01X4.2517Y-3.7443
M16
G05
T0
M30
