G04 #@! TF.GenerationSoftware,KiCad,Pcbnew,(5.1.2)-2*
G04 #@! TF.CreationDate,2020-05-14T12:33:36-05:00*
G04 #@! TF.ProjectId,3DotDash,33446f74-4461-4736-982e-6b696361645f,rev?*
G04 #@! TF.SameCoordinates,Original*
G04 #@! TF.FileFunction,Copper,L2,Bot*
G04 #@! TF.FilePolarity,Positive*
%FSLAX46Y46*%
G04 Gerber Fmt 4.6, Leading zero omitted, Abs format (unit mm)*
G04 Created by KiCad (PCBNEW (5.1.2)-2) date 2020-05-14 12:33:36*
%MOMM*%
%LPD*%
G04 APERTURE LIST*
%ADD10C,2.000000*%
%ADD11O,1.600000X2.200000*%
%ADD12C,1.651000*%
%ADD13C,1.752600*%
%ADD14R,1.752600X1.752600*%
%ADD15R,1.651000X1.651000*%
%ADD16C,0.800000*%
%ADD17C,0.250000*%
G04 APERTURE END LIST*
D10*
X139220000Y-76441250D03*
X149220000Y-76441250D03*
X144220000Y-74341250D03*
X177320001Y-114541250D03*
X187320001Y-114541250D03*
X182320001Y-112441250D03*
X215420000Y-114541250D03*
X225420000Y-114541250D03*
X220420000Y-112441250D03*
X196370000Y-114541251D03*
X206370000Y-114541251D03*
X201370000Y-112441251D03*
X196370000Y-95491251D03*
X206370000Y-95491251D03*
X201370000Y-93391251D03*
X177320000Y-95491250D03*
X187320000Y-95491250D03*
X182320000Y-93391250D03*
X158269999Y-95491248D03*
X168269999Y-95491248D03*
X163269999Y-93391248D03*
X139220000Y-95491250D03*
X149220000Y-95491250D03*
X144220000Y-93391250D03*
X120170000Y-95491250D03*
X130170000Y-95491250D03*
X125170000Y-93391250D03*
X196370000Y-76441250D03*
X206370000Y-76441250D03*
X201370000Y-74341250D03*
X177320000Y-76441250D03*
X187320000Y-76441250D03*
X182320000Y-74341250D03*
X158270000Y-76441250D03*
X168270000Y-76441250D03*
X163270000Y-74341250D03*
X120170000Y-76441250D03*
X130170000Y-76441250D03*
X125170000Y-74341250D03*
X196370000Y-57391249D03*
X206370000Y-57391249D03*
X201370000Y-55291249D03*
X177320000Y-57391250D03*
X187320000Y-57391250D03*
X182320000Y-55291250D03*
X158270000Y-57391250D03*
X168270000Y-57391250D03*
X163270000Y-55291250D03*
X139220000Y-57391250D03*
X149220000Y-57391250D03*
X144220000Y-55291250D03*
X120170000Y-57391250D03*
X130170000Y-57391250D03*
X125170000Y-55291250D03*
D11*
X217150000Y-58650000D03*
X217150000Y-55650000D03*
X217150000Y-62650000D03*
X212550000Y-63750000D03*
X221750000Y-63750000D03*
D12*
X228410000Y-66430000D03*
X212350000Y-66370000D03*
X220910000Y-66370000D03*
D13*
X209232500Y-55880000D03*
X193992500Y-83820000D03*
X209232500Y-58420000D03*
X209232500Y-60960000D03*
X209232500Y-63500000D03*
X209232500Y-66040000D03*
X209232500Y-68580000D03*
X209232500Y-71120000D03*
X209232500Y-73660000D03*
X209232500Y-76200000D03*
X209232500Y-78740000D03*
X209232500Y-81280000D03*
X209232500Y-83820000D03*
X193992500Y-81280000D03*
X193992500Y-78740000D03*
X193992500Y-76200000D03*
X193992500Y-73660000D03*
X193992500Y-71120000D03*
X193992500Y-68580000D03*
X193992500Y-66040000D03*
X193992500Y-63500000D03*
X193992500Y-60960000D03*
X193992500Y-58420000D03*
D14*
X193992500Y-55880000D03*
D15*
X224388750Y-126278749D03*
D12*
X216768750Y-126278749D03*
D15*
X205338750Y-126278750D03*
D12*
X197718750Y-126278750D03*
D15*
X186288750Y-126278751D03*
D12*
X178668750Y-126278751D03*
D15*
X205338750Y-107228750D03*
D12*
X197718750Y-107228750D03*
D15*
X186288751Y-107228749D03*
D12*
X178668751Y-107228749D03*
D15*
X167238750Y-107228750D03*
D12*
X159618750Y-107228750D03*
D15*
X148188750Y-107228750D03*
D12*
X140568750Y-107228750D03*
D15*
X128980000Y-107228750D03*
D12*
X121360000Y-107228750D03*
D15*
X205338750Y-88178750D03*
D12*
X197718750Y-88178750D03*
D15*
X186288749Y-88178749D03*
D12*
X178668749Y-88178749D03*
D15*
X167238750Y-88178750D03*
D12*
X159618750Y-88178750D03*
D15*
X148188750Y-88178750D03*
D12*
X140568750Y-88178750D03*
D15*
X129138750Y-88178751D03*
D12*
X121518750Y-88178751D03*
D15*
X205338750Y-69128750D03*
D12*
X197718750Y-69128750D03*
D15*
X186288750Y-69128750D03*
D12*
X178668750Y-69128750D03*
D15*
X167238750Y-69128750D03*
D12*
X159618750Y-69128750D03*
D15*
X148188750Y-69128750D03*
D12*
X140568750Y-69128750D03*
D15*
X129138751Y-69128750D03*
D12*
X121518751Y-69128750D03*
D16*
X122015000Y-76971250D03*
X141065000Y-76971250D03*
X162275000Y-72385000D03*
X180181250Y-73168750D03*
X209810000Y-89810000D03*
X207630000Y-89810000D03*
X193250000Y-90940000D03*
X214240000Y-65510000D03*
D17*
X-8675000Y-35418750D02*
X-8675000Y-35418750D01*
X129138751Y-70204250D02*
X129578251Y-70643750D01*
X129138751Y-69128750D02*
X129138751Y-70204250D01*
X129578251Y-70643750D02*
X146843750Y-70643750D01*
X146843750Y-70643750D02*
X147637500Y-69850000D01*
X147637500Y-69850000D02*
X148431250Y-69850000D01*
X148431250Y-69850000D02*
X149225000Y-70643750D01*
X149225000Y-70643750D02*
X165893750Y-70643750D01*
X165893750Y-70643750D02*
X166687500Y-69850000D01*
X166687500Y-69850000D02*
X167481250Y-69850000D01*
X167481250Y-69850000D02*
X168275000Y-70643750D01*
X168275000Y-70643750D02*
X184943750Y-70643750D01*
X184943750Y-70643750D02*
X185737500Y-69850000D01*
X185737500Y-69850000D02*
X186531250Y-69850000D01*
X187364250Y-69128750D02*
X190611750Y-65881250D01*
X186288750Y-69128750D02*
X187364250Y-69128750D01*
X190611750Y-65881250D02*
X192087500Y-65881250D01*
X192087500Y-65881250D02*
X193675000Y-65881250D01*
X193992500Y-66040000D02*
X196056250Y-68103750D01*
X196056250Y-68103750D02*
X196056250Y-69168992D01*
X196056250Y-69168992D02*
X196056250Y-69850000D01*
X196056250Y-69850000D02*
X196850000Y-70643750D01*
X196850000Y-70643750D02*
X203993750Y-70643750D01*
X203993750Y-70643750D02*
X204787500Y-69850000D01*
X204787500Y-69850000D02*
X205581250Y-69850000D01*
X128325000Y-57921250D02*
X128325000Y-63762500D01*
X128325000Y-63762500D02*
X125412500Y-66675000D01*
X125412500Y-66675000D02*
X123031250Y-69056250D01*
X123031250Y-69056250D02*
X121443750Y-69056250D01*
X147375000Y-57921250D02*
X147375000Y-63762500D01*
X147375000Y-63762500D02*
X144462500Y-66675000D01*
X144462500Y-66675000D02*
X142081250Y-69056250D01*
X142081250Y-69056250D02*
X141287500Y-69056250D01*
X166425000Y-57921250D02*
X166425000Y-63762500D01*
X166425000Y-63762500D02*
X161131250Y-69056250D01*
X161131250Y-69056250D02*
X159543750Y-69056250D01*
X185475000Y-57921250D02*
X185475000Y-64556250D01*
X180975000Y-69056250D02*
X178593750Y-69056250D01*
X184150000Y-65881250D02*
X182562500Y-67468750D01*
X184150000Y-65881250D02*
X180975000Y-69056250D01*
X185475000Y-64556250D02*
X184150000Y-65881250D01*
X204525000Y-57921249D02*
X204525000Y-64556250D01*
X204525000Y-64556250D02*
X201612500Y-67468750D01*
X201612500Y-67468750D02*
X200025000Y-69056250D01*
X200025000Y-69056250D02*
X197643750Y-69056250D01*
X129138750Y-89254251D02*
X129464499Y-89580000D01*
X129138750Y-88178751D02*
X129138750Y-89254251D01*
X129464499Y-89580000D02*
X147150000Y-89580000D01*
X147150000Y-89580000D02*
X147240000Y-89580000D01*
X147240000Y-89580000D02*
X148050000Y-88770000D01*
X148188750Y-89254250D02*
X148624500Y-89690000D01*
X148188750Y-88178750D02*
X148188750Y-89254250D01*
X148624500Y-89690000D02*
X165710000Y-89690000D01*
X165710000Y-89690000D02*
X166670000Y-88730000D01*
X166670000Y-88730000D02*
X166710000Y-88690000D01*
X166710000Y-88690000D02*
X167640000Y-88690000D01*
X167640000Y-88690000D02*
X167640000Y-89000000D01*
X167640000Y-89000000D02*
X168390000Y-89750000D01*
X168390000Y-89750000D02*
X184820000Y-89750000D01*
X184820000Y-89750000D02*
X185740000Y-88830000D01*
X185740000Y-88830000D02*
X185820000Y-88750000D01*
X185820000Y-88750000D02*
X186740000Y-88750000D01*
X187364249Y-88178749D02*
X191502998Y-84040000D01*
X186288749Y-88178749D02*
X187364249Y-88178749D01*
X191502998Y-84040000D02*
X193160000Y-84040000D01*
X186288749Y-89254249D02*
X186744500Y-89710000D01*
X186288749Y-88178749D02*
X186288749Y-89254249D01*
X186744500Y-89710000D02*
X204000000Y-89710000D01*
X204000000Y-89710000D02*
X204860000Y-88850000D01*
X128325000Y-82812500D02*
X123031250Y-88106250D01*
X123031250Y-88106250D02*
X121443750Y-88106250D01*
X147375000Y-82812500D02*
X144462500Y-85725000D01*
X144462500Y-85725000D02*
X142081250Y-88106250D01*
X142081250Y-88106250D02*
X140493750Y-88106250D01*
X166425000Y-76971250D02*
X166425000Y-82812500D01*
X166425000Y-82812500D02*
X161131250Y-88106250D01*
X161131250Y-88106250D02*
X159543750Y-88106250D01*
X204525000Y-76971250D02*
X204525000Y-82812500D01*
X204525000Y-82812500D02*
X201612500Y-85725000D01*
X201612500Y-85725000D02*
X199231250Y-88106250D01*
X199231250Y-88106250D02*
X197643750Y-88106250D01*
X128980000Y-108304250D02*
X129345750Y-108670000D01*
X128980000Y-107228750D02*
X128980000Y-108304250D01*
X129345750Y-108670000D02*
X146740000Y-108670000D01*
X146740000Y-108670000D02*
X147690000Y-107720000D01*
X147690000Y-107720000D02*
X148670000Y-108700000D01*
X148670000Y-108700000D02*
X166450000Y-108700000D01*
X166450000Y-108700000D02*
X167110000Y-108040000D01*
X167110000Y-108040000D02*
X167790000Y-108720000D01*
X167790000Y-108720000D02*
X185270000Y-108720000D01*
X185270000Y-108720000D02*
X185980000Y-108010000D01*
X187364251Y-107228749D02*
X188363000Y-106230000D01*
X186288751Y-107228749D02*
X187364251Y-107228749D01*
X188363000Y-106230000D02*
X193320000Y-106230000D01*
X193320000Y-106230000D02*
X195840000Y-108750000D01*
X195840000Y-108750000D02*
X195930000Y-108840000D01*
X195930000Y-108840000D02*
X204480000Y-108840000D01*
X204480000Y-108840000D02*
X205130000Y-108190000D01*
X205130000Y-108190000D02*
X205130000Y-107720000D01*
X208041250Y-107228750D02*
X205338750Y-107228750D01*
X208390000Y-106880000D02*
X208041250Y-107228750D01*
X204680000Y-83380000D02*
X204680000Y-84980000D01*
X204680000Y-84980000D02*
X208390000Y-88690000D01*
X208390000Y-88690000D02*
X208390000Y-106880000D01*
X205755000Y-82305000D02*
X208065000Y-82305000D01*
X205755000Y-82305000D02*
X204680000Y-83380000D01*
X208065000Y-82305000D02*
X208850000Y-81520000D01*
X128325000Y-101862500D02*
X125412500Y-104775000D01*
X125412500Y-104775000D02*
X123031250Y-107156250D01*
X123031250Y-107156250D02*
X121443750Y-107156250D01*
X147375000Y-101862500D02*
X142081250Y-107156250D01*
X142081250Y-107156250D02*
X140493750Y-107156250D01*
X166424999Y-96021248D02*
X166424999Y-101862501D01*
X166424999Y-101862501D02*
X163512500Y-104775000D01*
X163512500Y-104775000D02*
X161131250Y-107156250D01*
X161131250Y-107156250D02*
X159543750Y-107156250D01*
X182562500Y-104775000D02*
X180181250Y-107156250D01*
X180181250Y-107156250D02*
X179387500Y-107156250D01*
X204525000Y-96021251D02*
X204525000Y-101862500D01*
X204525000Y-101862500D02*
X201612500Y-104775000D01*
X201612500Y-104775000D02*
X199231250Y-107156250D01*
X199231250Y-107156250D02*
X198437500Y-107156250D01*
X208840010Y-123852990D02*
X208840010Y-107066400D01*
X205338750Y-126278750D02*
X206414250Y-126278750D01*
X206414250Y-126278750D02*
X208840010Y-123852990D01*
X208840010Y-107066400D02*
X208840010Y-86679990D01*
X208840010Y-86679990D02*
X208840010Y-84569990D01*
X208840010Y-84569990D02*
X209420000Y-83990000D01*
X204525000Y-115071251D02*
X204525000Y-120912500D01*
X204525000Y-120912500D02*
X199231250Y-126206250D01*
X199231250Y-126206250D02*
X197643750Y-126206250D01*
X223575000Y-120912500D02*
X220662500Y-123825000D01*
X220662500Y-123825000D02*
X218281250Y-126206250D01*
X218281250Y-126206250D02*
X216693750Y-126206250D01*
X187122641Y-71543769D02*
X187726410Y-70940000D01*
X163083770Y-71543770D02*
X187122641Y-71543769D01*
X187726410Y-70940000D02*
X192500000Y-70940000D01*
X192500000Y-70940000D02*
X193720000Y-70940000D01*
X128325000Y-57921250D02*
X128325000Y-57625000D01*
X128325000Y-57625000D02*
X126480000Y-55780000D01*
X126480000Y-55780000D02*
X125800000Y-55780000D01*
X147375000Y-57921250D02*
X147375000Y-57525000D01*
X147375000Y-57525000D02*
X145520000Y-55670000D01*
X145520000Y-55670000D02*
X144470000Y-55670000D01*
X164794999Y-56291249D02*
X166425000Y-57921250D01*
X164269999Y-56291249D02*
X164794999Y-56291249D01*
X163270000Y-55291250D02*
X164269999Y-56291249D01*
X183844999Y-56291249D02*
X185475000Y-57921250D01*
X183319999Y-56291249D02*
X183844999Y-56291249D01*
X182320000Y-55291250D02*
X183319999Y-56291249D01*
X204525000Y-57921249D02*
X204525000Y-57605000D01*
X204525000Y-57605000D02*
X202520000Y-55600000D01*
X202520000Y-55600000D02*
X202000000Y-55600000D01*
X126169999Y-75959999D02*
X128325000Y-78115000D01*
X126169999Y-75341249D02*
X126169999Y-75959999D01*
X125170000Y-74341250D02*
X126169999Y-75341249D01*
X128325000Y-78115000D02*
X128325000Y-82812500D01*
X147375000Y-77496250D02*
X147375000Y-77905000D01*
X144220000Y-74341250D02*
X147375000Y-77496250D01*
X147375000Y-77905000D02*
X147375000Y-82812500D01*
X164794999Y-75341249D02*
X166425000Y-76971250D01*
X164269999Y-75341249D02*
X164794999Y-75341249D01*
X163270000Y-74341250D02*
X164269999Y-75341249D01*
X180181250Y-88106250D02*
X178593750Y-88106250D01*
X185475000Y-82812500D02*
X180181250Y-88106250D01*
X185475000Y-77475000D02*
X185475000Y-82812500D01*
X182300000Y-74300000D02*
X185475000Y-77475000D01*
X204525000Y-76971250D02*
X204525000Y-76575000D01*
X204525000Y-76575000D02*
X202490000Y-74540000D01*
X202490000Y-74540000D02*
X201990000Y-74540000D01*
X128325000Y-95132037D02*
X128325000Y-96505000D01*
X126584213Y-93391250D02*
X128325000Y-95132037D01*
X125170000Y-93391250D02*
X126584213Y-93391250D01*
X128325000Y-96021250D02*
X128325000Y-96505000D01*
X128325000Y-96505000D02*
X128325000Y-101862500D01*
X147375000Y-96021250D02*
X147375000Y-101862500D01*
X147375000Y-96021250D02*
X147375000Y-95495000D01*
X147375000Y-95495000D02*
X145660000Y-93780000D01*
X145660000Y-93780000D02*
X144630000Y-93780000D01*
X166424999Y-96021248D02*
X166424999Y-95914999D01*
X166424999Y-95914999D02*
X164070000Y-93560000D01*
X183734213Y-93391250D02*
X185350000Y-95007037D01*
X182320000Y-93391250D02*
X183734213Y-93391250D01*
X185350000Y-101987500D02*
X185233750Y-102103750D01*
X185350000Y-95007037D02*
X185350000Y-101987500D01*
X185233750Y-102103750D02*
X182562500Y-104775000D01*
X204525000Y-96021251D02*
X204525000Y-95655000D01*
X204525000Y-95655000D02*
X202800000Y-93930000D01*
X202800000Y-93930000D02*
X201550000Y-93930000D01*
X180181250Y-126206250D02*
X178593750Y-126206250D01*
X185475001Y-120912499D02*
X180181250Y-126206250D01*
X185475001Y-114182037D02*
X185475001Y-120912499D01*
X183734214Y-112441250D02*
X185475001Y-114182037D01*
X182320001Y-112441250D02*
X183734214Y-112441250D01*
X204525000Y-115071251D02*
X204525000Y-114635000D01*
X204525000Y-114635000D02*
X202430000Y-112540000D01*
X202430000Y-112540000D02*
X201730000Y-112540000D01*
X221419999Y-114399999D02*
X223575000Y-116555000D01*
X221419999Y-113441249D02*
X221419999Y-114399999D01*
X220420000Y-112441250D02*
X221419999Y-113441249D01*
X223575000Y-116555000D02*
X223575000Y-120912500D01*
X120766260Y-71093760D02*
X119856250Y-70183750D01*
X193340000Y-68640000D02*
X193260000Y-68720000D01*
X193260000Y-68720000D02*
X189310000Y-68720000D01*
X189310000Y-68720000D02*
X186936240Y-71093760D01*
X122015000Y-76405565D02*
X122010000Y-76400565D01*
X122015000Y-76971250D02*
X122015000Y-76405565D01*
X122010000Y-73560000D02*
X124476240Y-71093760D01*
X122010000Y-76400565D02*
X122010000Y-73560000D01*
X186936240Y-71093760D02*
X124476240Y-71093760D01*
X124476240Y-71093760D02*
X120766260Y-71093760D01*
X120170000Y-57391250D02*
X121898750Y-59120000D01*
X121898750Y-59120000D02*
X121898750Y-65851250D01*
X119856250Y-67893750D02*
X119856250Y-70183750D01*
X121898750Y-65851250D02*
X119856250Y-67893750D01*
X141065000Y-76405565D02*
X141830000Y-75640565D01*
X141065000Y-76971250D02*
X141065000Y-76405565D01*
X144496230Y-71543770D02*
X145643770Y-71543770D01*
X141830000Y-75640565D02*
X141830000Y-74210000D01*
X145297480Y-71543770D02*
X145643770Y-71543770D01*
X145643770Y-71543770D02*
X163083770Y-71543770D01*
X144170000Y-71870000D02*
X144496230Y-71543770D01*
X141830000Y-74210000D02*
X144170000Y-71870000D01*
X192720000Y-72940000D02*
X193170000Y-72940000D01*
X162275000Y-72385000D02*
X162840685Y-72385000D01*
X193170000Y-72940000D02*
X193780000Y-73550000D01*
X162840685Y-72385000D02*
X163231907Y-71993778D01*
X163231907Y-71993778D02*
X187309042Y-71993778D01*
X187309042Y-71993778D02*
X187415264Y-72100000D01*
X187415264Y-72100000D02*
X191880000Y-72100000D01*
X191880000Y-72100000D02*
X192720000Y-72940000D01*
X192050000Y-74720000D02*
X192740000Y-75410000D01*
X192940000Y-75410000D02*
X193560000Y-76030000D01*
X180181250Y-73168750D02*
X180581249Y-72768751D01*
X180581249Y-72768751D02*
X181021249Y-72768751D01*
X192740000Y-75410000D02*
X192940000Y-75410000D01*
X181021249Y-72768751D02*
X181239991Y-72550009D01*
X181239991Y-72550009D02*
X190500009Y-72550009D01*
X190500009Y-72550009D02*
X192050000Y-74100000D01*
X192050000Y-74100000D02*
X192050000Y-74720000D01*
X188734213Y-76441250D02*
X188965463Y-76210000D01*
X187320000Y-76441250D02*
X188734213Y-76441250D01*
X188965463Y-76210000D02*
X193690000Y-76210000D01*
X210471775Y-63500000D02*
X209232500Y-63500000D01*
X210721775Y-63750000D02*
X210471775Y-63500000D01*
X213780000Y-63750000D02*
X210721775Y-63750000D01*
X214380000Y-64350000D02*
X213780000Y-63750000D01*
X220940000Y-64350000D02*
X214380000Y-64350000D01*
X221540000Y-63750000D02*
X220940000Y-64350000D01*
X221750000Y-63750000D02*
X221540000Y-63750000D01*
X210108799Y-57543701D02*
X214526299Y-57543701D01*
X209232500Y-58420000D02*
X210108799Y-57543701D01*
X214526299Y-57543701D02*
X216020000Y-56050000D01*
X216020000Y-56050000D02*
X217100000Y-56050000D01*
X204536410Y-89810000D02*
X204186400Y-90160010D01*
X207630000Y-89810000D02*
X204536410Y-89810000D01*
X204186400Y-90160010D02*
X194500000Y-90160010D01*
X194500000Y-90160010D02*
X194029990Y-90160010D01*
X194029990Y-90160010D02*
X193250000Y-90940000D01*
X193250000Y-90940000D02*
X193250000Y-90940000D01*
X211750000Y-69840000D02*
X214240000Y-67350000D01*
X211055000Y-70535000D02*
X211750000Y-69840000D01*
X211055000Y-86395000D02*
X211055000Y-70535000D01*
X210209999Y-87240001D02*
X211055000Y-86395000D01*
X210209999Y-89410001D02*
X210209999Y-87240001D01*
X209810000Y-89810000D02*
X210209999Y-89410001D01*
X214240000Y-67350000D02*
X214240000Y-65510000D01*
M02*
