M48
; DRILL file {KiCad (5.1.2)-2} date 5/14/2020 12:33:57 PM
; FORMAT={-:-/ absolute / inch / decimal}
; #@! TF.CreationDate,2020-05-14T12:33:57-05:00
; #@! TF.GenerationSoftware,Kicad,Pcbnew,(5.1.2)-2
FMAT,2
INCH
T1C0.0157
T2C0.0354
T3C0.0390
T4C0.0430
T5C0.0472
T6C0.0310
T7C0.0472
T8C0.0591
T9C0.0748
T10C0.1142
T11C0.1339
%
G90
G05
T1
X4.8037Y-3.0304
X5.5537Y-3.0304
X6.3888Y-2.8498
X7.0938Y-2.8807
X7.6083Y-3.5803
X8.1744Y-3.5358
X8.2602Y-3.5358
X8.4346Y-2.5791
T3
X7.0342Y-4.9716
X7.3342Y-4.9716
X5.5342Y-4.2216
X5.8342Y-4.2216
X6.2842Y-3.4716
X6.5842Y-3.4716
X7.7842Y-2.7216
X8.0842Y-2.7216
X7.7842Y-3.4716
X8.0842Y-3.4716
X4.7842Y-2.7216
X5.0842Y-2.7216
X8.3602Y-2.613
X7.7842Y-4.2216
X8.0842Y-4.2216
X6.2842Y-4.2216
X6.5842Y-4.2216
X4.778Y-4.2216
X5.078Y-4.2216
X7.7842Y-4.9716
X8.0842Y-4.9716
X5.5342Y-3.4716
X5.8342Y-3.4716
X6.2842Y-2.7216
X6.5842Y-2.7216
X8.6972Y-2.613
X7.0342Y-4.2216
X7.3342Y-4.2216
X8.5342Y-4.9716
X8.8342Y-4.9716
X7.0342Y-3.4716
X7.3342Y-3.4716
X4.7842Y-3.4716
X5.0842Y-3.4716
X5.5342Y-2.7216
X5.8342Y-2.7216
X7.0342Y-2.7216
X7.3342Y-2.7216
X8.9925Y-2.6154
T4
X7.6375Y-2.2
X7.6375Y-2.3
X7.6375Y-2.4
X7.6375Y-2.5
X7.6375Y-2.6
X7.6375Y-2.7
X7.6375Y-2.8
X7.6375Y-2.9
X7.6375Y-3.0
X7.6375Y-3.1
X7.6375Y-3.2
X7.6375Y-3.3
X8.2375Y-2.2
X8.2375Y-2.3
X8.2375Y-2.4
X8.2375Y-2.5
X8.2375Y-2.6
X8.2375Y-2.7
X8.2375Y-2.8
X8.2375Y-2.9
X8.2375Y-3.0
X8.2375Y-3.1
X8.2375Y-3.2
X8.2375Y-3.3
T5
X6.2311Y-2.2595
X6.428Y-2.1768
X6.6248Y-2.2595
X7.7311Y-3.7595
X7.928Y-3.6768
X8.1248Y-3.7595
X4.7311Y-3.0095
X4.928Y-2.9268
X5.1248Y-3.0095
X6.9811Y-3.7595
X7.178Y-3.6768
X7.3748Y-3.7595
X5.4811Y-3.0095
X5.678Y-2.9268
X5.8748Y-3.0095
X5.4811Y-2.2595
X5.678Y-2.1768
X5.8748Y-2.2595
X4.7311Y-3.7595
X4.928Y-3.6768
X5.1248Y-3.7595
X7.7311Y-4.5095
X7.928Y-4.4268
X8.1248Y-4.5095
X4.7311Y-2.2595
X4.928Y-2.1768
X5.1248Y-2.2595
X7.7311Y-3.0095
X7.928Y-2.9268
X8.1248Y-3.0095
X6.9811Y-4.5095
X7.178Y-4.4268
X7.3748Y-4.5095
X7.7311Y-2.2595
X7.928Y-2.1768
X8.1248Y-2.2595
X6.2311Y-3.0095
X6.428Y-2.9268
X6.6248Y-3.0095
X6.2311Y-3.7595
X6.428Y-3.6768
X6.6248Y-3.7595
X6.9811Y-2.2595
X7.178Y-2.1768
X7.3748Y-2.2595
X6.9811Y-3.0095
X7.178Y-2.9268
X7.3748Y-3.0095
X5.4811Y-3.7595
X5.678Y-3.6768
X5.8748Y-3.7595
X8.4811Y-4.5095
X8.678Y-4.4268
X8.8748Y-4.5095
T6
X5.2016Y-2.0073
X5.2516Y-2.0073
X5.3016Y-2.0073
X5.3516Y-2.0073
X5.4016Y-2.0073
X5.2004Y-1.9262
X5.2504Y-1.9262
X5.3004Y-1.9262
X5.3504Y-1.9262
X5.4004Y-1.9262
X7.4189Y-1.9258
X7.4689Y-1.9258
X7.5189Y-1.9258
X7.5689Y-1.9258
X7.6189Y-1.9258
X7.4197Y-2.0085
X7.4697Y-2.0085
X7.5197Y-2.0085
X7.5697Y-2.0085
X7.6197Y-2.0085
T7
X5.4724Y-2.5745
X5.8835Y-2.5745
X4.7224Y-4.0745
X5.1335Y-4.0745
X7.7224Y-4.8245
X8.1335Y-4.8245
X4.7224Y-2.5745
X5.1335Y-2.5745
X7.7224Y-3.3245
X8.1335Y-3.3245
X6.9724Y-4.8245
X7.3835Y-4.8245
X7.7224Y-2.5745
X8.1335Y-2.5745
X6.2224Y-3.3245
X6.6335Y-3.3245
X6.2224Y-4.0745
X6.6335Y-4.0745
X6.9724Y-2.5745
X7.3835Y-2.5745
X6.9724Y-3.3245
X7.3835Y-3.3245
X5.4724Y-4.0745
X5.8835Y-4.0745
X8.4724Y-4.8245
X8.8835Y-4.8245
X6.2224Y-2.5745
X6.6335Y-2.5745
X7.7224Y-4.0745
X8.1335Y-4.0745
X4.7224Y-3.3245
X5.1335Y-3.3245
X6.9724Y-4.0745
X7.3835Y-4.0745
X5.4724Y-3.3245
X5.8835Y-3.3245
T8
X8.4587Y-2.128
X8.4587Y-2.4035
X8.6398Y-2.128
X8.6398Y-2.4035
T9
X7.7114Y-3.9091
X7.7114Y-3.9091
X8.1445Y-3.9091
X8.1445Y-3.9091
X4.7114Y-3.1591
X4.7114Y-3.1591
X5.1445Y-3.1591
X5.1445Y-3.1591
X6.9614Y-3.9091
X6.9614Y-3.9091
X7.3945Y-3.9091
X7.3945Y-3.9091
X5.4614Y-3.1591
X5.4614Y-3.1591
X5.8945Y-3.1591
X5.8945Y-3.1591
X5.4614Y-2.4091
X5.4614Y-2.4091
X5.8945Y-2.4091
X5.8945Y-2.4091
X4.7114Y-3.9091
X4.7114Y-3.9091
X5.1445Y-3.9091
X5.1445Y-3.9091
X7.7114Y-4.6591
X7.7114Y-4.6591
X8.1445Y-4.6591
X8.1445Y-4.6591
X4.7114Y-2.4091
X4.7114Y-2.4091
X5.1445Y-2.4091
X5.1445Y-2.4091
X7.7114Y-3.1591
X7.7114Y-3.1591
X8.1445Y-3.1591
X8.1445Y-3.1591
X6.9614Y-4.6591
X6.9614Y-4.6591
X7.3945Y-4.6591
X7.3945Y-4.6591
X7.7114Y-2.4091
X7.7114Y-2.4091
X8.1445Y-2.4091
X8.1445Y-2.4091
X6.2114Y-3.1591
X6.2114Y-3.1591
X6.6445Y-3.1591
X6.6445Y-3.1591
X6.2114Y-3.9091
X6.2114Y-3.9091
X6.6445Y-3.9091
X6.6445Y-3.9091
X6.9614Y-2.4091
X6.9614Y-2.4091
X7.3945Y-2.4091
X7.3945Y-2.4091
X6.9614Y-3.1591
X6.9614Y-3.1591
X7.3945Y-3.1591
X7.3945Y-3.1591
X5.4614Y-3.9091
X5.4614Y-3.9091
X5.8945Y-3.9091
X5.8945Y-3.9091
X8.4614Y-4.6591
X8.4614Y-4.6591
X8.8945Y-4.6591
X8.8945Y-4.6591
X6.2114Y-2.4091
X6.2114Y-2.4091
X6.6445Y-2.4091
X6.6445Y-2.4091
T10
X7.5217Y-2.4083
X6.8031Y-0.772
X5.3031Y-3.9083
X7.5528Y-4.2839
X7.5528Y0.3524
X5.3028Y-1.5224
X5.3031Y-0.0232
X6.8031Y-3.1594
X5.3028Y-2.4091
X7.5217Y-1.5232
T11
X6.428Y-2.4091
X7.928Y-3.9091
X4.928Y-3.1591
X7.178Y-3.9091
X5.678Y-3.1591
X5.678Y-2.4091
X4.928Y-3.9091
X7.928Y-4.6591
X4.928Y-2.4091
X7.928Y-3.1591
X7.178Y-4.6591
X7.928Y-2.4091
X6.428Y-3.1591
X6.428Y-3.9091
X7.178Y-2.4091
X7.178Y-3.1591
X5.678Y-3.9091
X8.678Y-4.6591
T2
G00X8.3681Y-2.498
M15
G01X8.3681Y-2.5217
M16
G05
G00X8.5492Y-2.1791
M15
G01X8.5492Y-2.2028
M16
G05
G00X8.5492Y-2.2972
M15
G01X8.5492Y-2.3209
M16
G05
G00X8.5492Y-2.4547
M15
G01X8.5492Y-2.4783
M16
G05
G00X8.7303Y-2.498
M15
G01X8.7303Y-2.5217
M16
G05
T0
M30
